<svg xmlns="http://www.w3.org/2000/svg" viewBox="0 0 30 30"><path fill="#999" stroke="#999" stroke-miterlimit="10" d="M16.1 15.1l5.8-5.8c.1-.1.1-.8 0-1-.1-.1-.8-.1-1 0l-5.8 5.8-5.8-5.8c-.1-.4-.8-.4-1 0-.4.1-.4.8-.1 1l5.8 5.8L8.2 21c-.1.1-.1.8 0 1s.8.1 1 0l5.8-5.8 5.8 5.8c.1.1.8.1 1 0 .1-.1.1-.8 0-1l-5.7-5.9z"/><path d="M12.8 29C6.7 28 1.9 23.3 1 17.1m28 0C28.1 23.2 23.3 28 17.2 29m0-28c6.1.9 10.9 5.7 11.8 11.9m-28-.1C1 8.6 6.8 1.9 12.9 1" fill="none" stroke="#999" stroke-width="2" stroke-miterlimit="10"/></svg>