<svg xmlns="http://www.w3.org/2000/svg" viewBox="0 0 30 30"><path fill="#0803D8" stroke="#0803D8" stroke-width=".5" stroke-miterlimit="10" d="M13.6 21.1v2.3h2.3v-2.3h-2.3zm5.6-7.6c.3-.6.5-1.1.5-1.9 0-1.1-.5-2.3-1.5-3.1-.8-.8-2.1-1.1-3.7-1.1-1.3 0-2.4.5-3.2 1.1-.8.8-1.5 1.9-1.6 3.4l2.1.2c.2-1.1.5-1.9 1-2.4s1.1-.8 2.1-.8c.8 0 1.5.3 2.1.8.6.6.8 1.1.8 1.9 0 .5-.2.8-.3 1.1-.2.2-.6.8-1.3 1.5-.8.6-1.1 1-1.5 1.3-.3.5-.6.8-.8 1.1-.2.5-.3 1.1-.3 1.9v.6h1.8c0-.8.2-1.3.2-1.6.2-.3.2-.6.5-.8.2-.3.6-.8 1.1-1.1 1.2-.8 1.7-1.4 2-2.1z"/><path d="M12.8 29C6.7 28 1.9 23.3 1 17.1m28 0C28.1 23.2 23.3 28 17.2 29m0-28c6.1.9 10.9 5.7 11.8 11.9m-28-.1C1 8.6 6.8 1.9 12.9 1" fill="none" stroke="#0803D8" stroke-width="2" stroke-miterlimit="10"/><path fill="#FF9455" d="M23.7 10.4s1.2-1.5 2.1-1.1c.9.5-2 7-2 7s-.1.5.5.5h5.1s1.3.3.1 2C28.4 20.3 21 29.7 21 29.7s-1.8 1.2-1.5-.9 1.9-6.6 1.9-6.6H16s-1.8 0-.6-1.6c.9-1.1 8.3-10.2 8.3-10.2z"/></svg>