<svg xmlns="http://www.w3.org/2000/svg" viewBox="0 0 30 30"><path d="M12.2 20c-.8-1.5-1.2-3.1-1.2-5 0-.8 0-1.5.4-2.3H5.9l2.7-5.4h5.7c1.3-1.8 4.3-2.7 7-2.7H6.8L2.6 14h-.7c-.4 0-1.9.4-1.9 1.2v4.2c0 .5 1 1.4 1.9 1.4h.7V24c0 .8.5 1.2.8 1.2h3.4c.5 0 1.2-.4 1.2-1.2v-3.4l4.2-.6zm-6.3-1.2c-.5 0-1.2-.5-1.2-1.2v-.8c0-.5.5-1.2 1.2-1.2H9c.8 0 1.2.7 1.2 1.2v.8c0 .5-.5 1.2-1.2 1.2H5.9zM21.5 4.5z" fill="#0803D8"/><path fill="#FFF" d="M21.8 18.2h-1.5l-.5-.5-.5-9.7s0-.5.5-.5H22l.5.5-.5 9.3c0 .5 0 .9-.2.9zm.7 2.2c0 .8-.8 1.5-1.5 1.5s-1.5-.8-1.5-1.5.8-1.5 1.5-1.5c.8-.1 1.5.8 1.5 1.5z"/><path fill="#DC3C3B" d="M20.7 5.6c-5.1 0-9.3 4.4-9.3 9.4s4.2 9.4 9.3 9.4S30 20.3 30 15s-4.2-9.4-9.3-9.4zM21.8 22h-2v-2h2v2zm2.8-8.5c-.3.5-.8 1-1.6 1.8-.5.5-.9.8-1 1-.2.2-.3.5-.5.8-.1.3-.1.8-.1 1.5h-1.7v-.4c0-.8.2-1.2.3-1.7.2-.4.3-.8.6-1 .1-.3.6-.8 1.2-1.2.6-.4.9-.9 1.1-1.2s.3-.6.3-1.1c0-.8-.1-1.2-.8-1.6-.5-.4-1-.8-1.8-.8s-1.4.1-1.7.8c-.4.5-.8 1.1-.9 2.1l-1.7-.5c.2-1.4.6-2.3 1.4-2.9.8-.8 1.6-1 3-1s2.3.4 3.1 1c.8.8 1.2 1.6 1.2 2.6.1.8-.1 1.3-.4 1.8z"/><path fill="#FF9455" d="M9.6 5.6s1.2-1.5 2.1-1.1c.9.4-2 7-2 7s-.1.5.5.5h5.1s1.4.3.2 2C14.3 15.5 7 25 7 25s-1.9 1.1-1.6-1 2-6.6 2-6.6H2s-1.8 0-.6-1.7c.9-1 8.2-10.1 8.2-10.1z"/></svg>