<svg xmlns="http://www.w3.org/2000/svg" viewBox="0 0 30 30"><path d="M11.6 20c-.8-1.5-1.5-3.1-1.5-5 0-.8 0-1.5.5-2.3H5.1l2.7-5.4h6.1c1.5-1.5 3.9-2.7 6.6-2.7H5.7L1.5 14h-.3c-.4 0-1.2.4-1.2 1.2v4.3c0 .5.5 1.2 1.2 1.2H2v3.5c0 .8.5 1.2.8 1.2h3.4c.5 0 1.2-.4 1.2-1.2v-3.5l4.2-.7zm-6.5-1.2c-.4 0-1.2-.5-1.2-1.2v-.8c0-.5.4-1.2 1.2-1.2h3.2c.8 0 1.2.7 1.2 1.2v.8c0 .5-.4 1.2-1.2 1.2H5.1zM20.4 4.5z" fill="#0803D8"/><g fill="#0803D8"><path d="M20.9 9.1h-2v5.4h2c.8 0 1.2-.4 1.5-.8.5-.4.8-1.2.8-1.9.4-1.9-.4-2.7-2.3-2.7z"/><path d="M20.4 4.9c-5.4 0-10 4.5-10 10.1s4.3 9.8 9.8 9.8S30 20.5 30 15 25.9 4.9 20.4 4.9zM24 15c-.4.8-1.5 1.2-2.7 1.2H19v6.1h-1.5V8h3.3c1.2 0 2 0 2.7.5 1.2.8 1.5 1.9 1.5 3.4.2 1.1-.2 2.4-1 3.1z"/></g></svg>