<svg xmlns="http://www.w3.org/2000/svg" viewBox="0 0 30 30"><path fill="#0803D8" d="M29.2 14.3h-.4l-4.4-9.1H6.1l-4.6 9.1H1c-.4 0-.9.6-.9 1.2v4.4c0 .5.5.9.9.9h.9v4c0 .4.4.9.9.9h3.4c.5 0 .9-.5.9-.9v-4h15v3.9c0 .5.4.9.9.9h3.5c.4 0 .9-.4.9-.9v-3.9h1.2c.9.1 1.4-.1 1.4-.9v-4.2c.1-.9-.3-1.4-.8-1.4zM7.8 7.6h15l2.6 5.6H4.9l2.9-5.6zm1.5 10.6c0 .4-.5.9-.9.9H5.2c-.5 0-.9-.5-.9-.9v-.9c0-.5.4-.9.9-.9h3.2c.4 0 .9.5.9.9v.9zm11.1 0v-.9c0-.5.5-.9.9-.9h3.1c.4 0 .9.5.9.9v.7c0 .5-.4.9-.9.9h-3.1c-.3.3-.9-.1-.9-.7z"/><path fill="#FF9455" d="M15.6 6s1.2-1.5 2.1-1.1-1.9 7.1-1.9 7.1-.2.5.5.5h5.1s1.4.3.1 1.9c-1.2 1.5-8.5 11-8.5 11s-1.8 1.2-1.5-.9c.3-2.1 2-6.6 2-6.6H8s-1.8 0-.6-1.7c.9-1 8.2-10.2 8.2-10.2z"/><path fill="#FFF" d="M15.6 8l-5.9 7.6s-1 1.2.3 1.1h5.4l-2.1 5.7s-.9 2.3.3.3l6.1-8.1s.3-.4-.6-.4h-3.9l-1.7-.2 3-6.5c-.2-.1.9-2.2-.9.5z"/></svg>