<svg xmlns="http://www.w3.org/2000/svg" viewBox="0 0 30 30"><path fill="#DC3C3B" d="M13.2 15.6V10h2.3c2.1 0 2.9 1.3 2.9 3 0 1.4-.5 2.7-2.9 2.7l-2.3-.1zm-3-8.2v16h3.1v-5.1h3.2c1.2 0 1.8-.2 2.9-.8 1.4-.8 1.8-1.8 1.8-4.6 0-1.9 0-3.4-2.3-5-.8-.2-1.4-.5-2.3-.5h-6.4z"/><path d="M12.2 29.6C5.9 28.6.9 23.7 0 17.3m29 0c-.9 6.3-5.9 11.3-12.2 12.3m0-29c6.3.9 11.3 5.9 12.2 12.3m-29-.1C0 8.5 6 1.5 12.3.6" fill="none" stroke="#436CD5" stroke-linecap="round" stroke-miterlimit="10"/><circle fill="#DF34FF" stroke="#FFF" stroke-width=".5" stroke-miterlimit="10" cx="25.9" cy="4.1" r="3.8"/></svg>