<svg xmlns="http://www.w3.org/2000/svg" viewBox="0 0 30 30"><path d="M11.7 20c-.8-1.5-1.5-3.1-1.5-5 0-.8 0-1.5.4-2.3H5.3L8 7.4h6.1c1.5-1.5 3.9-2.7 6.6-2.7H5.9L1.7 14h-.4c-.4 0-1.2.4-1.2 1.2v4.3c0 .5.5 1.2 1.2 1.2h.8v3.5c0 .8.5 1.2.8 1.2h3.4c.5 0 1.2-.4 1.2-1.2v-3.5l4.2-.7zm-6.4-1.2c-.4 0-1.2-.5-1.2-1.2v-.8c0-.5.4-1.2 1.2-1.2h3.1c.8 0 1.2.7 1.2 1.2v.8c0 .5-.5 1.2-1.2 1.2H5.3zM20.5 4.5z" fill="#0803D8"/><g fill="#0803D8"><path d="M21 9.1h-2v5.4h2c.8 0 1.2-.4 1.5-.8.5-.4.8-1.2.8-1.9.4-1.9-.3-2.7-2.3-2.7z"/><path d="M20.5 4.9c-5.4 0-10 4.5-10 10.1s4.3 9.8 9.8 9.8S30 20.4 30 15 26.1 4.9 20.5 4.9zM24.2 15c-.5.8-1.5 1.2-2.7 1.2h-2.3v6.1h-1.5V8H21c1.2 0 2 0 2.7.5 1.2.8 1.5 1.9 1.5 3.4.1 1.1-.3 2.4-1 3.1z"/></g><circle fill="#02D338" stroke="#FFF" stroke-width=".5" stroke-miterlimit="10" cx="26" cy="22" r="3.8"/></svg>