<svg xmlns="http://www.w3.org/2000/svg" viewBox="0 0 30 30"><g fill="#0803D8"><path d="M21.1 14.1c-.4-2.7-2.5-4.9-5.2-5.3V7.7h-1.8v1.1c-2.7.4-4.8 2.6-5.2 5.3H8v1.6h1c.4 2.9 2.5 5.1 5.2 5.5v1.1h1.6v-1.1c2.7-.4 5-2.6 5.2-5.3h1.2v-1.8h-1.1zm-6 5.5c-2.5 0-4.5-2.2-4.5-4.6s2-4.6 4.5-4.6 4.5 2.2 4.5 4.6-2 4.6-4.5 4.6zm0-7c-1.4 0-2.3.9-2.3 2.4s.9 2.4 2.3 2.4 2.3-1.1 2.3-2.4-.9-2.4-2.3-2.4z"/><path d="M19.7 14.1H24v1.8h-4.3zm-5.71 9.927l-.018-4.4 1.8-.007.019 4.4zm.182-13.647l-.018-4.4 1.8-.008.018 4.4zm-4.567 5.51l-3.6.02-.01-1.8 3.6-.02z"/></g><path d="M12.8 29C6.7 28 1.9 23.3 1 17.1m28 0C28.1 23.2 23.3 28 17.2 29m0-28c6.1.9 10.9 5.7 11.8 11.9m-28-.1C1 8.6 6.8 1.9 12.9 1" fill="none" stroke="#0803D8" stroke-width="2" stroke-miterlimit="10"/><path fill="#FF9455" d="M23.7 10.2s1.2-1.5 2.1-1.1-2 7.1-2 7.1-.1.5.5.5h5.1s1.3.3.1 1.9c-1.2 1.5-8.5 11-8.5 11s-1.8 1.2-1.5-.9 1.9-6.6 1.9-6.6H16s-1.8 0-.6-1.6c.9-1.2 8.3-10.3 8.3-10.3z"/><path fill="#FFF" d="M23.5 12l-5.9 7.7s-1 1.2.3 1h5.4l-2.1 5.7s-.9 2.3.3.3l6.1-8.1s.3-.5-.6-.5h-5.7l3-6.4c.1-.2 1.2-2.2-.8.3z"/></svg>