<svg xmlns="http://www.w3.org/2000/svg" viewBox="0 0 30 30"><path d="M11.4 20c-.8-1.5-1.2-3.1-1.2-5 0-.8 0-1.5.4-2.3H5.3L8 7.4h6.1c1.5-1.5 3.9-2.7 6.6-2.7H6L1.8 14h-.5c-.4 0-1.2.4-1.2 1.2v4.2c0 .5.5 1.2 1.2 1.2h.8V24c0 .8.5 1.2.8 1.2h3.4c.5 0 1.2-.4 1.2-1.2v-3.5l3.9-.5zm-6.1-1.2c-.4 0-1.2-.5-1.2-1.2v-.8c0-.5.4-1.2 1.2-1.2h3.1c.8 0 1.2.7 1.2 1.2v.8c0 .5-.5 1.2-1.2 1.2H5.3zM20.7 4.5z" fill="#0803D8"/><path fill="#DC3C3B" d="M20.7 4.9c-5.4 0-10.1 4.6-10.1 10.1s4.2 9.8 9.8 9.8 9.8-4.2 9.8-9.8-4.1-10.1-9.5-10.1z"/><path fill="#FFF" d="M21.2 18.2h-1.5l-.5-.5-.4-9.7s0-.5.5-.5h2.3l.3.5-.5 9.3c.1.4.1.9-.2.9zm.6 2.2c0 .8-.8 1.5-1.5 1.5s-1.5-.8-1.5-1.5.8-1.5 1.5-1.5c.9-.1 1.5.8 1.5 1.5z"/><path fill="#FF9455" d="M9.5 5.6s1.2-1.5 2.1-1.1c.9.4-1.9 7-1.9 7s-.2.5.3.5h5.1s1.3.3.2 2c-1.2 1.5-8.5 11-8.5 11S5 26.1 5.3 24s2-6.6 2-6.6H1.8s-1.8 0-.6-1.7c.9-1 8.3-10.1 8.3-10.1z"/></svg>