<svg xmlns="http://www.w3.org/2000/svg" viewBox="0 0 30 30"><path fill="#DC3C3B" d="M13.2 15.6V10h2.3c2.1 0 2.9 1.3 2.9 3 0 1.4-.5 2.7-2.9 2.7l-2.3-.1zm-3-8.2v16h3.1v-5.1h3.2c1.2 0 1.8-.2 2.9-.8 1.4-.8 1.8-1.8 1.8-4.6 0-1.9 0-3.4-2.3-5-.8-.2-1.4-.5-2.3-.5h-6.4z"/><path d="M12.8 29C6.7 28 1.9 23.3 1 17.1m28 0C28.1 23.2 23.3 28 17.2 29m0-28c6.1.9 10.9 5.7 11.8 11.9m-28-.1C1 8.6 6.8 1.9 12.9 1" fill="none" stroke="#0803D8" stroke-width="2" stroke-miterlimit="10"/><circle fill="#02D338" stroke="#FFF" stroke-width=".5" stroke-miterlimit="10" cx="26.2" cy="4.1" r="3.8"/><path fill="#FF9455" d="M23.7 10.4s1.2-1.5 2.1-1.1c.9.5-2 7-2 7s-.1.5.5.5h5.1s1.3.3.1 2C28.4 20.3 21 29.7 21 29.7s-1.8 1.2-1.5-.9 1.9-6.6 1.9-6.6H16s-1.8 0-.6-1.6c.9-1.1 8.3-10.2 8.3-10.2z"/><path fill="#FFF" d="M23.7 12.2l-5.9 7.7s-1 1.2.3 1h5.4l-2.1 5.7s-.9 2.3.3.3l6.1-8.1s.3-.5-.6-.5h-5.7l3-6.5c-.1-.3 1-2.2-.8.4z"/></svg>