<svg xmlns="http://www.w3.org/2000/svg" viewBox="0 0 30 30"><path fill="#0803D8" d="M29.2 14.3h-.4l-4.4-9.1H6.1l-4.7 9.1H1c-.5 0-.9.6-.9 1.2v4.4c0 .5.5.9.9.9h.9v4c0 .4.4.9.9.9h3.4c.5 0 .9-.5.9-.9v-4h15v3.9c0 .5.5.9.9.9h3.5c.4 0 .9-.4.9-.9v-3.9h1.2c.9.1 1.3-.1 1.3-.9v-4.2c.2-.9-.2-1.4-.7-1.4zM7.7 7.6h15l2.5 5.6H4.9l2.8-5.6zm1.5 10.6c0 .4-.4.9-.9.9H5.2c-.5 0-.9-.5-.9-.9v-.9c0-.5.4-.9.9-.9h3.1c.5 0 .9.5.9.9v.9zm11.2 0v-.9c0-.5.5-.9.9-.9h3.1c.4 0 .9.5.9.9v.7c0 .5-.4.9-.9.9h-3.1c-.4.3-.9-.1-.9-.7z"/></svg>