<svg xmlns="http://www.w3.org/2000/svg" viewBox="0 0 30 30"><path d="M12.8 29C6.7 28 1.9 23.3 1 17.1m28 0C28.1 23.2 23.3 28 17.2 29m0-28c6.1.9 10.9 5.7 11.8 11.9m-28-.1C1 8.6 6.8 1.9 12.9 1" fill="none" stroke="#0803D8" stroke-width="2" stroke-miterlimit="10"/><path fill="#DC3C3B" d="M15.3 5.8c-.3 0-.5.2-.8.5l-7 14.8v.4c0 .2 0 .2.2.2 0 0 0 .2.2.2 0 0 .2 0 .2.2h.2c.2 0 .2 0 .2-.2h.2l6.7-4.4 6.6 4.3h1v-.6L16.3 6c-.4 0-.7-.2-1-.2z"/><path fill="#FF9455" d="M23.7 10.4s1.2-1.5 2.1-1.1c.9.5-2 7-2 7s-.1.5.5.5h5.1s1.3.3.1 2C28.4 20.3 21 29.7 21 29.7s-1.8 1.2-1.5-.9 1.9-6.6 1.9-6.6H16s-1.8 0-.6-1.6c.9-1.1 8.3-10.2 8.3-10.2z"/></svg>