<svg class="icon" viewBox="0 0 1024 1024" xmlns="http://www.w3.org/2000/svg" width="18" height="18"><defs><style/></defs><path d="M779.776 121.5H244.224v691.734h535.552V121.5zm-211.99-55.786c0-6.144-5.031-11.153-11.153-11.153H445.062c-6.144 0-11.175 5.01-11.175 11.153v11.13c0 6.145 5.03 11.153 11.175 11.153h111.571c6.122 0 11.153-5.008 11.153-11.152v-11.13zM512 947.134c24.554 0 44.633-20.058 44.633-44.634 0-24.531-20.08-44.61-44.633-44.61-24.554 0-44.633 20.079-44.633 44.61 0 24.576 20.08 44.633 44.633 44.633zm267.776 66.96H244.224c-36.842 0-66.938-30.119-66.938-66.96V76.843c0-36.819 30.096-66.938 66.938-66.938h535.552c36.842 0 66.96 30.119 66.96 66.939v870.288c0 36.842-30.118 66.96-66.96 66.96zm0 0" fill="#c5cbd4"/></svg>