<svg class="icon" viewBox="0 0 1024 1024" xmlns="http://www.w3.org/2000/svg" width="18" height="18"><defs><style/></defs><path d="M844.8 593.067H832l-59.733-128C823.467 422.4 857.6 354.133 857.6 281.6c0-132.267-106.667-243.2-243.2-243.2-132.267 0-243.2 106.667-243.2 243.2 0 51.2 17.067 98.133 42.667 136.533L243.2 652.8c-12.8-4.267-25.6-4.267-38.4-4.267-89.6 0-162.133 76.8-162.133 166.4 0 93.867 72.533 166.4 166.4 166.4 89.6 0 166.4-72.533 166.4-166.4 0-51.2-21.334-93.866-59.734-128l153.6-213.333c42.667 29.867 89.6 51.2 145.067 51.2 34.133 0 64-8.533 93.867-17.067l55.466 115.2c-34.133 25.6-55.466 64-55.466 110.934 0 76.8 59.733 136.533 136.533 136.533 76.8 0 136.533-59.733 136.533-136.533 0-76.8-59.733-140.8-136.533-140.8z" fill="#999"/></svg>