<svg class="icon" viewBox="0 0 1024 1024" xmlns="http://www.w3.org/2000/svg" width="14" height="14"><defs><style/></defs><path d="M512.66 831.655c-176.743 0-320.02-143.276-320.02-319.998 0-176.744 143.276-320.02 320.02-320.02 176.744 0 320.021 143.275 320.021 320.02 0 176.722-143.277 319.998-320.021 319.998zm150.075-429.961c8.699-8.697 6.139-25.409-5.717-37.287l-1.369-1.325c-11.877-11.899-28.567-14.46-37.266-5.739L511.91 463.817 397.708 349.639c-8.83-8.853-25.762-6.248-37.794 5.806l-1.346 1.347c-12.055 12.053-14.659 28.965-5.807 37.795L466.94 508.765 355.521 620.207c-8.72 8.698-6.138 25.388 5.739 37.266l1.325 1.346c11.899 11.877 28.589 14.438 37.288 5.74l111.419-111.42L619.135 660.96c8.831 8.809 25.741 6.247 37.796-5.806l1.346-1.369c12.054-12.031 14.637-28.942 5.807-37.795L556.262 508.169l106.473-106.475z" fill="#ccc"/></svg>