<svg id="图层_1" xmlns="http://www.w3.org/2000/svg" viewBox="-286 409.9 23.8 22"><style>.st0{fill:#7b7b7b}</style><path class="st0" d="M-272 413.5l-.5-.1c-.1 0-.3 0-.3.2l-4.7 14.6c0 .1 0 .3.2.3l.5.1c.1 0 .3 0 .3-.2l4.7-14.6c0-.1 0-.2-.2-.3zm-8.4 2.2l-.3-.3c-.1-.1-.3-.1-.3 0l-4.8 5.2c-.1.1-.1.2 0 .3-.1.1-.1.2 0 .3l4.8 5.3c.1.1.3.1.3 0l.3-.3c.1-.1.1-.3 0-.3l-4.5-4.9 4.5-4.9c.1-.1.1-.3 0-.4zm17 4.9l-4.8-5.2c-.1-.1-.3-.1-.3 0l-.3.3c-.1.1-.1.3 0 .3l4.5 4.9-4.5 4.9c-.1.1-.1.3 0 .3l.3.3c.1.1.3.1.3 0l4.8-5.3c.1-.1.1-.2 0-.3.1.1.1-.1 0-.2z"/></svg>