<svg class="icon" width="18" height="18" viewBox="0 0 1024 1024" xmlns="http://www.w3.org/2000/svg"><path d="M517.333 850.45c7.902 0 14.965-1.508 19.599-2.839l116.489-141.79h95.207c61.518 0 111.483-48.341 111.483-107.806V305.932c0-59.457-49.965-107.827-111.483-107.827H289.89c-61.488 0-111.54 48.372-111.54 107.826v292.084c0 59.463 50.051 107.807 111.54 107.807h78.626l8.798 9.383 123.897 132.75c4.921 1.683 10.304 2.494 16.13 2.494h-.007zm0 29.587c-10.454 0-22.057-1.742-33.382-7.117L355.63 735.47h-65.74c-77.987 0-141.186-61.54-141.186-137.452V305.934c0-75.935 63.197-137.474 141.185-137.474h458.74c77.959 0 141.185 61.542 141.185 137.474v292.084c0 75.91-63.227 137.451-141.186 137.451h-81.203L554.533 872.918s-16.268 7.12-37.199 7.12h-.001" fill="#a7a7a7"/><path d="M356.18 494.53c-16.359 0-29.616-13.254-29.616-29.613 0-16.39 13.255-29.647 29.615-29.647 16.386 0 29.642 13.258 29.642 29.647 0 16.358-13.256 29.613-29.642 29.613zm177.85 0c-16.323 0-29.642-13.254-29.642-29.613 0-16.39 13.313-29.647 29.642-29.647 16.389 0 29.703 13.258 29.703 29.647 0 16.358-13.313 29.613-29.703 29.613zm181.094 0c-16.33 0-29.644-13.254-29.644-29.613 0-16.39 13.312-29.647 29.644-29.647 16.392 0 29.703 13.258 29.703 29.647 0 16.358-13.312 29.613-29.703 29.613z" fill="#a7a7a7"/></svg>