<svg xmlns="http://www.w3.org/2000/svg" viewBox="0 0 20 20"><path fill="#E49421" d="M11.6 0H1.7C.9 0 0 .7 0 1.7v16.6c0 .8.7 1.7 1.7 1.7h9.9c.9 0 1.7-.7 1.7-1.7V1.7c0-1-.8-1.7-1.7-1.7m0 18.3H1.7V1.7h9.9v16.6z"/><path fill="#E49421" d="M3.4 5.1h2.5v1.7H3.4V5.1zm4 0h2.5v1.7H7.4V5.1zm-4 3.3h2.5v1.7H3.4V8.4zm4 0h2.5v1.7H7.4V8.4zm-4 3.4h2.5v1.7H3.4v-1.7zm4 0h2.5v1.7H7.4v-1.7zm10.9-6.4h-6.7v1.7h6.7v11.2h-6.7v1.6h6.7c.9 0 1.7-.7 1.7-1.7V7.1c0-1-.9-1.7-1.7-1.7"/><path fill="#E49421" d="M15 8.4h1.7v1.7H15V8.4zm0 3.4h1.7v1.7H15v-1.7z"/></svg>