<svg id="图层_1" xmlns="http://www.w3.org/2000/svg" viewBox="-286 409.9 22 22"><style>.st0{fill:#7b7b7b}</style><path class="st0" d="M-281.3 427.3h-.9V411h13v.9h.9v-.9s0-.9-.9-.9h-13c-.9 0-.9.9-.9.9v16.4s0 .9.9.9h.9v-1zm1.8 4.6c-.9 0-.9-.9-.9-.9v-17.3s0-.9.9-.9h13.9c.9 0 .9.9.9.9v11.8l-6.5 6.4h-8.3zm0-.9h8.3l5.6-5.5v-11.8h-13.9V431zm8.3.8h-.1c-.1 0-.7-.6-.7-.8v-5.5s0-.9.9-.9h6.5s-.7.6-.7.7l-5.6 6.3c-.2.1-.2.2-.3.2m.1-6.3v5.5l5.6-5.5h-5.6zm3.7-6.3h-7.4v-.9h7.4v.9zm0 2.7h-7.4v-.9h7.4v.9zm-3.7-6.4h-2.8v.9h2.8v-.9zm-6.5 2.8h1.9v.9h-1.9v-.9zm0 2.7h1.9v.9h-1.9v-.9z"/></svg>