<svg xmlns="http://www.w3.org/2000/svg" viewBox="0 0 30 30"><path fill="#19AC9E" d="M4.8 23.6H3.6V1.4h17.7v1.2h1.2V1.4s0-1.2-1.2-1.2H3.6C2.4.2 2.4 1.4 2.4 1.4v22.4s0 1.2 1.2 1.2h1.2v-1.4zm2.5 6.3c-1.2 0-1.2-1.2-1.2-1.2V5s0-1.2 1.2-1.2h19c1.2 0 1.2 1.2 1.2 1.2v16.1l-8.9 8.7H7.3zm0-1.3h11.3l7.6-7.5V5h-19v23.6zm11.3 1.1h-.1c-.1 0-1-.8-1-1.1v-7.5s0-1.2 1.2-1.2h8.9s-1 .8-1 1L19 29.5c-.2.1-.2.2-.4.2m.2-8.6v7.5l7.6-7.5h-7.6zm5-8.6H13.7v-1.2h10.1v1.2zm0 3.7H13.7V15h10.1v1.2zm-5-8.7H15v1.2h3.8V7.5zm-8.9 3.8h2.6v1.2H9.9v-1.2zm0 3.7h2.6v1.2H9.9V15z"/></svg>