<svg id="图层_1" xmlns="http://www.w3.org/2000/svg" viewBox="-286 409.9 22 22"><style>.st0{fill:#7b7b7b}</style><path class="st0" d="M-286 431.1h21.1v.8H-286v-.8zm1.5-2.6h2.4c.8 0 1.5-.7 1.5-1.5v-4.8c0-.8-.7-1.5-1.5-1.5h-2.4c-.8 0-1.5.7-1.5 1.5v4.8c0 .8.7 1.5 1.5 1.5zm-.7-6.3c0-.4.3-.7.7-.7h2.4c.4 0 .7.3.7.7v4.8c0 .4-.3.7-.7.7h-2.4c-.4 0-.7-.3-.7-.7v-4.8zm8.6 6.3h2.4c.8 0 1.5-.7 1.5-1.5v-13.8c0-.8-.7-1.5-1.5-1.5h-2.4c-.8 0-1.5.7-1.5 1.5V427c-.1.8.6 1.5 1.5 1.5zm-.8-15.3c0-.4.3-.7.7-.7h2.4c.4 0 .7.3.7.7V427c0 .4-.3.7-.7.7h-2.4c-.4 0-.7-.3-.7-.7v-13.8zm8.6 15.3h2.4c.8 0 1.5-.7 1.5-1.5v-9.7c0-.8-.7-1.5-1.5-1.5h-2.4c-.8 0-1.5.7-1.5 1.5v9.7c0 .8.7 1.5 1.5 1.5zm-.7-11.2c0-.4.3-.7.7-.7h2.4c.4 0 .7.3.7.7v9.7c0 .4-.3.7-.7.7h-2.4c-.4 0-.7-.3-.7-.7v-9.7z"/></svg>