<svg id="图层_1" xmlns="http://www.w3.org/2000/svg" viewBox="-286 409.9 22 22"><style>.st0{fill:#7b7b7b}</style><path class="st0" d="M-264.6 413.9h-6v-2.5c0-.3-.3-.6-.6-.6h-6.8c-.3 0-.6.3-.6.6v2.5h-6c-.3 0-.6.3-.6.6s.3.6.6.6h1.7V431c0 .3.3.6.6.6h15.5c.3 0 .6-.3.6-.6v-15.9h1.7c.3 0 .6-.3.6-.6-.1-.3-.4-.6-.7-.6zm-12.8-1.9h5.6v1.9h-5.6V412zm9.9 18.5h-14.3v-15.3h14.3v15.3z"/><path class="st0" d="M-278.8 427.7c.3 0 .6-.3.6-.6v-8.6c0-.3-.3-.6-.6-.6s-.6.3-.6.6v8.6c0 .4.3.6.6.6zm4 0c.3 0 .6-.3.6-.6v-8.6c0-.3-.3-.6-.6-.6s-.6.3-.6.6v8.6c0 .4.3.6.6.6zm4.1 0c.3 0 .6-.3.6-.6v-8.6c0-.3-.3-.6-.6-.6s-.6.3-.6.6v8.6c0 .4.2.6.6.6z"/></svg>