<svg class="icon" viewBox="0 0 1024 1024" xmlns="http://www.w3.org/2000/svg" width="16" height="16"><defs><style/></defs><path d="M608 735.984c0 8.848 7.152 16 16 16 8.832 0 16-7.152 16-16v-320c0-8.832-7.168-16-16-16-8.848 0-16 7.168-16 16v320z" fill="#fff"/><path d="M896 255.984H688v-48c0-12.352-4.8-23.488-12.448-32-8.8-9.744-21.392-16-35.552-16H416c-14.16 0-26.752 6.256-35.552 16-7.664 8.512-12.464 19.648-12.464 32v48H160c-8.848 0-16 7.152-16 16 0 8.832 7.168 16 16 16h80v544.064c0 53.008 26.992 80 80 80h416c52.992 0 80-26.992 80-80V287.984h80c8.816 0 16-7.152 16-16s-7.184-16-16-16zm-496-32c0-17.68 14.32-32 32-32h192c17.664 0 32 14.32 32 32v32H400v-32zm384 608c0 35.344-12.672 48-48 48H320c-35.344 0-48-12.656-48-48v-544h512v544z" fill="#fff"/><path d="M416 735.984c0 8.848 7.168 16 16 16s16-7.152 16-16v-320c0-8.832-7.168-16-16-16s-16 7.168-16 16v320z" fill="#fff"/></svg>