<svg id="图层_1" xmlns="http://www.w3.org/2000/svg" viewBox="-286 409.9 22 22"><style>.st0{fill:#7b7b7b}</style><path class="st0" d="M-264.6 420.4c-.4 0-.6.3-.6.6v9.2c0 .2-.2.4-.4.4h-18.6c-.2 0-.4-.2-.4-.4V421c0-.4-.3-.6-.6-.6-.4 0-.6.3-.6.6v9.2c0 .9.8 1.7 1.7 1.7h18.6c.9 0 1.7-.8 1.7-1.7V421c-.2-.3-.5-.6-.8-.6z"/><path class="st0" d="M-275.4 427.6c.1.1.3.2.5.2s.3-.1.5-.2l6.1-6.1c.3-.3.3-.7 0-.9-.3-.3-.7-.3-.9 0l-5 5v-15c0-.4-.3-.6-.6-.6s-.6.3-.6.6v15l-5-5c-.3-.3-.7-.3-.9 0-.3.3-.3.7 0 .9l5.9 6.1z"/></svg>