<svg class="icon" viewBox="0 0 1024 1024" xmlns="http://www.w3.org/2000/svg" width="20" height="20"><defs><style/></defs><path d="M283.412 455.47a28.884 28.884 0 0 0 0 41.975L493.31 707.461c2.022 1.954 2.983 2.981 5.003 3.973 0 0 1.063 1.08 1.954 1.08 1.027.943 2.09 2.02 3.048 2.02 1.011 0 2.023.96 2.982.96 1.012 0 1.954.944 2.966.944a21.53 21.53 0 0 0 12.043 0c.927 0 1.937-.944 2.915-.944 1.01 0 2.022-.96 3.032-.96 1.029-1.126 1.956-1.126 2.981-2.02 0 0 .963-1.08 1.956-1.08a22.352 22.352 0 0 0 5.001-3.973l209.965-210.016a28.965 28.965 0 0 0 0-41.974 30.354 30.354 0 0 0-21.02-8.995 30.534 30.534 0 0 0-21.007 8.995L546.3 614.463V116.647a29.407 29.407 0 0 0-8.59-21.443 29.622 29.622 0 0 0-21.41-8.694 29.644 29.644 0 0 0-21.383 8.717 29.637 29.637 0 0 0-8.632 21.418v497.817L327.325 455.47a28.761 28.761 0 0 0-21.004-8.995 36.929 36.929 0 0 0-22.909 8.995z" fill="#999"/><path d="M984.674 587.174a29.585 29.585 0 0 0-30.066 30.065v231.913c-.029 43.062-34.927 77.968-77.989 78.004H152.852c-43.02-.111-77.858-34.984-77.921-78.004V617.189a29.463 29.463 0 0 0-8.659-21.41 29.642 29.642 0 0 0-21.408-8.657 29.511 29.511 0 0 0-30 30.05v231.947c0 76.001 61.97 137.972 137.972 137.972h724.809c76.02 0 137.975-61.986 137.975-137.972V617.173c-.54-16.709-14.23-29.98-30.946-30z" fill="#999"/></svg>