<svg class="icon" viewBox="0 0 1024 1024" xmlns="http://www.w3.org/2000/svg" width="20" height="20"><defs><style/></defs><path d="M892.297 731.768c-.048.552-.091 1.097-.165 1.644-.501 3.242-1.344 6.153-2.507 8.895.59-.699-.894 2.741-2.824 5.876 2.987-6.039 2.737-5.447 2.466-4.855-3.303 7.646-9.001 14.311-16.969 18.455L658.981 870.978c-11.171 8.185-26.386 9.985-39.5 3.157L387.689 752.382 196.456 855.638c-17.175 8.926-37.928 3.148-48.42-12.598-.167-.243-.321-.49-.483-.738-.573-.903-1.249-1.707-1.752-2.674-.35-.674-.519-1.387-.823-2.07-.479-1.027-.871-2.084-1.259-3.16-.351-1.023-.697-2.038-.954-3.076-.457-1.721-.748-3.487-.954-5.294-.041-.412-.098-.817-.124-1.226-.085-1.026-.308-2.011-.308-3.056V440.803c0-3.393.595-6.621 1.438-9.75.157-.619.379-1.213.567-1.827.466-1.424.935-2.832 1.561-4.177.684-1.548 1.527-3.008 2.419-4.457.224-.348.412-.714.646-1.052 3.109-4.701 7.192-8.844 12.404-11.856l55.842-32.282c17.968-10.373 40.942-4.219 51.317 13.75 10.373 17.968 4.218 40.942-13.75 51.314l-37.314 21.57v297.399l148.195-80.017c5.883-4.375 13.236-7.081 21.21-7.299-.579-.01.238.043 1.065.023 1.2.001 2.388-.054 3.59.065 6.747.483 13.201 2.806 18.774 6.685L636.38 798.148l181.183-92.745v-288.3c-17.931 10.176-40.736 4.021-51.063-13.863-10.373-17.969-4.217-40.941 13.751-51.315l55.842-32.283c1.105-.637 2.271-1.02 3.409-1.534.556-.256 1.099-.523 1.67-.752 1.635-.647 3.281-1.137 4.958-1.54.792-.196 1.573-.395 2.383-.539 1.541-.266 3.071-.395 4.615-.466.675-.036 1.314-.202 2-.202.402 0 .774.105 1.173.119 1.159.045 2.296.196 3.446.348 1.473.182 2.924.38 4.339.727.568.145 1.11.35 1.671.521 1.89.56 3.726 1.208 5.479 2.046.134.064.258.145.389.21 12.435 6.123 21.069 18.798 21.069 33.598v375.658c.001 1.343-.258 2.62-.397 3.932zM544.479 595.434c-6.859 7.381-16.572 12.066-27.442 12.066-10.868 0-20.577-4.685-27.436-12.061-52.194-49.315-161.138-165.954-161.138-281.093 0-104.147 84.426-188.577 188.573-188.577s188.577 84.43 188.577 188.578c0 115.135-108.937 231.768-161.134 281.087zm-27.442-393.062c-62.238 0-112.694 50.458-112.694 112.696 0 61.599 47.157 134.337 80.42 178.126 6.527 11.099 18.465 18.631 32.273 18.631 13.809 0 25.749-7.533 32.277-18.635 33.264-43.786 80.419-116.524 80.419-178.12.001-62.24-50.454-112.698-112.695-112.698z" fill="#999"/></svg>