<svg class="icon" viewBox="0 0 1024 1024" xmlns="http://www.w3.org/2000/svg" width="18" height="18"><defs><style/></defs><path d="M374.784 509.952a13.4 13.4 0 1 0 274.432 0 13.4 13.4 0 1 0-274.432 0z" fill="#999"/><path d="M815.104 482.304c-12.288-147.456-131.072-264.192-278.528-274.432v-77.824h-52.224v78.848C340.992 222.208 227.328 337.92 215.04 482.304h-77.824v52.224h77.824C227.328 678.912 340.992 793.6 484.352 807.936v78.848h52.224V808.96c147.456-10.24 266.24-126.976 278.528-274.432h77.824v-52.224h-77.824zM515.072 754.688c-136.192 0-245.76-110.592-245.76-245.76s110.592-245.76 245.76-245.76c136.192 0 245.76 110.592 245.76 245.76s-109.568 245.76-245.76 245.76z" fill="#999"/></svg>