<svg xmlns="http://www.w3.org/2000/svg" viewBox="0 0 30 30"><path fill="#999" d="M9.4 16.4s0 .2 0 0L7.9 22c0 .4 0 .7.2.9.2.2.4.2.8.2H9l5.4-1.5h.2L29.3 7c.3-.3.7-.9.7-1.6s-.4-1.5-.9-2.1L27.8 2c-.6-.6-1.3-.8-2.1-.8-.6 0-1.1.2-1.7.6L9.4 16.4M27.9 5.5L26.4 7 24 4.6l1.5-1.5c.2-.2.8-.2.9 0l1.3 1.3c.2.4.4.6.4.8 0 .2-.2.3-.2.3M12 16.8L22.5 6.1l2.4 2.4L14.4 19 12 16.8zm-2.1 4.1l.8-2.8 2.1 2.1-2.9.7zm19-9.5c-.6 0-.9.4-.9.9V26c0 .8-.6 1.3-1.3 1.3H3.4c-.8 0-1.3-.6-1.3-1.3V3.9c0-.7.6-1.3 1.3-1.3h15c.6 0 .9-.4.9-.9s-.4-.9-.9-.9h-15C1.5.5 0 2 0 3.7v22.5c0 1.7 1.5 3.2 3.2 3.2h23.4c1.7 0 3.2-1.5 3.2-3.2V12.5c0-.6-.4-1.1-.9-1.1"/></svg>