<svg id="图层_1" xmlns="http://www.w3.org/2000/svg" viewBox="-286 408 24.1 23.9"><style>.st0{fill:#7b7b7b}</style><path class="st0" d="M-276.4 424.5l.8-.8-1.9-1.9-.8.7c-.4.4-.6 1-.3 1.1l1.1 1.2c.3.1.9-.1 1.1-.3zm9.1-9.1l-1.9-1.9-7.6 7.6 1.9 1.9 7.6-7.6zm.4-3.6c-.3-.3-.7-.1-1.1.3l-.7.5 1.9 1.9.5-.5c.4-.4.6-.8.3-1.1l-.9-1.1zm-13.2 14.5l2.1-.7-1.4-1.4-.7 2.1zm.6-3.9l11.4-11.4c.4-.4 1.1-.4 1.4-.1l1.9 1.9c.4.4.3 1-.1 1.4l-11.4 11.4c-.1.1-.3.3-.4.3l.1.1-5 1.8 1.8-5h.1c0-.1 0-.3.2-.4z"/><path class="st0" d="M-265 431.9h-20c-.5 0-1-.4-1-1v-20.1c0-.5.4-1 1-1h12.4v1h-11.5c-.4 0-.8.4-.8.8V430c0 .5.4 1 1 1h18.3c.6 0 1-.4 1-1v-11.4h.8V431c-.2.5-.6.9-1.2.9z"/></svg>