<svg id="图层_1" xmlns="http://www.w3.org/2000/svg" viewBox="-286 409.9 22 22"><style>.st0{fill:#7b7b7b}</style><path class="st0" d="M-271.1 431.9h-7.8c-3.9 0-7.1-3.2-7.1-7.1V417c0-3.9 3.2-7.1 7.1-7.1h7.8c3.9 0 7.1 3.2 7.1 7.1v7.8c0 3.9-3.2 7.1-7.1 7.1zm-7.8-20.9c-3.3 0-6 2.7-6 6v7.8c0 3.3 2.7 6 6 6h7.8c3.3 0 6-2.7 6-6V417c0-3.3-2.7-6-6-6h-7.8z"/><path class="st0" d="M-274.2 416.6v3.9c0 .4-.4.8-.8.8s-.8-.4-.8-.8v-3.9c0-.4.4-.8.8-.8s.8.3.8.8zm4.3 4.3c0-1.6-.7-3-1.9-4-.3-.2-.6-.2-.8.1-.2.3-.2.6.1.8.9.7 1.5 1.8 1.5 3 0 2.1-1.7 3.9-3.9 3.9-2.1 0-3.9-1.7-3.9-3.9 0-1.2.5-2.3 1.5-3 .3-.2.3-.6.1-.8-.2-.3-.6-.3-.8-.1-1.2 1-1.9 2.4-1.9 4 0 2.8 2.3 5.1 5.1 5.1 2.6 0 4.9-2.3 4.9-5.1z"/></svg>