<svg id="图层_1" xmlns="http://www.w3.org/2000/svg" viewBox="-286 409.9 22 22"><style>.st0{fill:#7b7b7b}</style><path class="st0" d="M-264 420.8c0-1-.8-1.7-1.7-1.7-1 0-1.7.8-1.7 1.7 0 .7.4 1.3 1.1 1.6-.3 1.7-1.1 3.3-2.4 4.6-1.6 1.6-3.8 2.6-6.2 2.6-3.2 0-6.1-1.7-7.7-4.5-.1-.3-.5-.4-.7-.2-.3.1-.4.5-.2.7 1.7 3.1 5 5.1 8.6 5.1 1.3 0 2.6-.3 3.8-.8 1.2-.5 2.2-1.2 3.1-2.1.9-.9 1.6-1.9 2.1-3.1.3-.7.5-1.4.6-2.1.7-.3 1.3-1 1.3-1.8zm-18.5 0c0-.7-.4-1.3-1.1-1.6.3-1.7 1.1-3.3 2.4-4.6 1.6-1.6 3.8-2.6 6.2-2.6 3.2 0 6.1 1.7 7.7 4.5.1.3.5.4.7.2.3-.1.4-.5.2-.7-1.7-3.1-5-5.1-8.6-5.1-1.3 0-2.6.3-3.8.8-1.2.5-2.2 1.2-3.1 2.1-.9.9-1.6 1.9-2.1 3.1-.3.7-.5 1.4-.6 2.1-.8.2-1.4.9-1.4 1.7 0 1 .8 1.7 1.7 1.7 1 .2 1.8-.6 1.8-1.6z"/></svg>