<svg class="icon" viewBox="0 0 1024 1024" xmlns="http://www.w3.org/2000/svg" width="18" height="18"><defs><style/></defs><path d="M512 676.36c-90.63 0-164.362-73.732-164.362-164.36 0-90.63 73.732-164.361 164.361-164.361 90.629 0 164.36 73.732 164.36 164.361S602.629 676.36 512 676.36zm0-267.323c-56.775 0-102.964 46.189-102.964 102.963 0 56.773 46.19 102.962 102.963 102.962 56.774 0 102.962-46.189 102.962-102.962 0-56.774-46.188-102.963-102.962-102.963z" fill="#999"/><path d="M512 819.011c-.225 0-.448-.002-.67-.007-61.843-1.35-124.607-17.726-186.545-48.668-48.702-24.33-97.007-57.69-143.572-99.155-78.73-70.1-125.2-138.88-127.139-141.775a30.558 30.558 0 0 1-5.2-17.385 30.555 30.555 0 0 1 5.2-17.427c1.94-2.894 48.41-71.675 127.139-141.776 46.565-41.465 94.87-74.825 143.572-99.154 61.94-30.942 124.702-47.316 186.544-48.667.448-.01.894-.01 1.342 0 61.843 1.35 124.606 17.725 186.545 48.667 48.703 24.33 97.007 57.69 143.572 99.154 78.728 70.101 125.199 138.883 127.138 141.776a30.691 30.691 0 0 1 5.2 17.093v.625a30.7 30.7 0 0 1-5.2 17.093c-1.94 2.894-48.41 71.675-127.137 141.776-46.566 41.465-94.87 74.825-143.573 99.155-61.938 30.941-124.702 47.316-186.545 48.668-.225.005-.447.007-.672.007zM117.277 512.006c17.954 23.708 54.937 69.134 105.875 114.31 65.787 58.344 169.262 128.42 288.846 131.289 196.932-4.717 351.378-188.451 394.722-245.612-17.948-23.699-54.933-69.129-105.876-114.309-65.787-58.344-169.26-128.42-288.847-131.289-196.93 4.718-351.375 188.45-394.72 245.611z" fill="#999"/></svg>