<svg class="icon" viewBox="0 0 1024 1024" xmlns="http://www.w3.org/2000/svg" width="14" height="14"><defs><style/></defs><path d="M722.187 193.808h191.76a29.497 29.497 0 0 0-8.637-19.644L738.76 7.614a26.041 26.041 0 0 0-18.3-7.55h-.192v191.888a1.92 1.92 0 0 0 1.92 1.856z" fill="#aaa"/><path d="M683.797 206.028V.064H151.194a41.398 41.398 0 0 0-41.333 41.334v940.884c0 22.843 18.555 41.334 41.333 41.334h721.548a41.334 41.334 0 0 0 41.333-41.334V230.406H708.047a24.314 24.314 0 0 1-24.25-24.378zm47.54 471.755a16.828 16.828 0 0 1-16.892 16.827H309.427a16.828 16.828 0 0 1-16.828-16.827V638.24c0-9.213 7.55-16.763 16.828-16.763h405.018c9.342 0 16.892 7.55 16.892 16.763v39.543zm0-146.204a16.828 16.828 0 0 1-16.892 16.764H309.427a16.828 16.828 0 0 1-16.828-16.764v-39.478c0-9.278 7.55-16.828 16.828-16.828h405.018c9.342 0 16.892 7.55 16.892 16.828v39.478zm0-185.745v39.542a16.828 16.828 0 0 1-16.892 16.763H309.427a16.828 16.828 0 0 1-16.828-16.763v-39.542c0-9.278 7.55-16.828 16.828-16.828h405.018a16.956 16.956 0 0 1 16.892 16.828z" fill="#aaa"/></svg>