<svg id="图层_1" xmlns="http://www.w3.org/2000/svg" viewBox="-286 410.3 22 21.6"><style>.st0{fill:#7b7b7b}</style><path class="st0" d="M-264.6 431.4v-.5H-285V411h19.9v20.4h.5v-.5.5h.5V410H-286v21.9h21.9v-.5h-.5z"/><path class="st0" d="M-277.6 421.4c-.1 0-.1 0 0 0-1.4-.4-2.3-1.5-2.4-2.8-.1-.8.2-1.6.8-2.3.6-.6 1.3-1 2.2-1.1h.2c.8 0 1.5.3 2.1.8.6.6 1 1.3 1.1 2.1 0 .5 0 .9-.2 1.3-.1.1-.2.2-.3.2h-.1c-.1 0-.2-.1-.2-.2v-.3c.1-.3.2-.7.1-1-.1-1.3-1.1-2.3-2.4-2.3h-.2c-.6 0-1.2.3-1.7.8-.4.5-.6 1.1-.6 1.8.1 1 .8 1.9 1.8 2.2.1 0 .2.1.2.2s.1.2 0 .3c-.1.2-.3.3-.4.3zm4.8-.9c-.1 0-.3-.1-.3-.2-.1-.2-.1-.4.1-.6.1-.2.3-.3.5-.4l.2-.1c.1 0 .2-.1.3-.1.1 0 .2 0 .3.1.2.1.3.2.4.4.1.2 0 .4-.2.4h-.1c-.1 0-.3-.1-.3-.2v-.1h-.2l-.2.1c-.1 0-.1.1-.1.1v.3c0 .1-.1.1-.2.2l-.2.1z"/><path class="st0" d="M-274.6 426.6c-.3 0-.7-.2-.9-.4-.1-.1-.1-.4 0-.5.1-.1.2-.1.2-.1.1 0 .2 0 .2.1.1.1.3.2.4.2h.1l3.4-1.4c.1-.1.3-.3.3-.4l-1.2-4.3v-.3c0-.1.1-.1.2-.2h.1c.2 0 .3.1.3.2l1.2 4.3c.2.5-.2 1.1-.7 1.2l-3.4 1.4c.1.2 0 .2-.2.2zm-1.3-2.8c-.1 0-.3-.1-.3-.2l-1.7-4.9c-.1-.2-.1-.4.1-.6.1-.2.3-.3.5-.4l.3-.1c.2-.1.3-.1.5-.1.1 0 .2 0 .3.1.2.1.3.2.4.4l1.2 3.6v.3c0 .1-.1.1-.2.2-.2.1-.4 0-.4-.2l-1.2-3.7h-.1s-.1 0-.2.1l-.3.1c-.1 0-.1.1-.1.1l1.7 4.9v.3c0 .1-.1.1-.2.2-.2-.1-.2-.1-.3-.1z"/><path class="st0" d="M-275.1 426.4c-.1 0-.2 0-.2-.1l-2.9-2.6c-.2-.1-.3-.3-.3-.6 0-.2.1-.4.2-.6l.2-.3c.1-.2.4-.3.6-.3h.1c.2 0 .3.1.5.2l1.3 1.2c.1.1.1.1.1.2s0 .2-.1.2c-.1.1-.2.1-.3.1-.1 0-.2 0-.2-.1l-1.3-1.2-.1.1-.2.3c0 .1-.1.1-.1.2l2.9 2.7c.1.1.1.1.1.2s0 .2-.1.2c0 .1-.1.2-.2.2zm0-5c-.1 0-.3-.1-.3-.2-.1-.2-.1-.4.1-.6.1-.2.3-.3.5-.4l.2-.1c.1 0 .2-.1.3-.1.1 0 .2 0 .3.1.2.1.3.2.4.4v.3c0 .1-.1.1-.2.2h-.1c-.1 0-.3-.1-.3-.2v-.1h-.2l-.2.1c-.1 0-.1.1-.1.1.1.2 0 .4-.2.4l-.2.1z"/><path class="st0" d="M-273.8 421.6c-.1 0-.3-.1-.3-.2l-.2-.6c-.1-.2-.1-.4.1-.6.1-.2.3-.3.5-.4l.2-.1c.1 0 .2-.1.3-.1.1 0 .2 0 .3.1.2.1.3.2.4.4l.2.6v.3c0 .1-.1.1-.2.2-.2.1-.4 0-.4-.2l-.2-.7h-.2l-.2.1c-.1 0-.1.1-.1.1l.2.7v.3c0 .1-.1.1-.2.2-.1-.1-.1-.1-.2-.1z"/></svg>