<svg class="icon" viewBox="0 0 1085 1024" xmlns="http://www.w3.org/2000/svg" width="16.953" height="16"><defs><style/></defs><path d="M818.695 905.892c-7.809 32.224-25.761 57.447-57.447 57.447H43.158L143.69 489.4c7.54-33.75 25.582-57.447 57.358-57.447H861.87c31.685 0 57.357 25.761 57.357 57.447L818.695 905.892zM157.962 388.867h646.372v-56.46c0-31.776-25.762-57.448-57.448-57.448H402.203v-52.061c0-31.686-25.762-57.448-57.448-57.448H57.43c-31.685 0-57.447 25.762-57.447 57.448v682.994l100.443-459.578c7.45-31.237 25.851-57.447 57.537-57.447z" fill="#aaa"/></svg>