<svg class="icon" viewBox="0 0 1024 1024" xmlns="http://www.w3.org/2000/svg" width="14" height="14"><defs><style/></defs><path d="M354.74 451.369v326.654c0 18.091 7.169 35.243 20.267 48.342l176.682 176.639c12.672 13.61 30.464 21.205 49.067 20.992 9.216-.17 18.346-2.048 26.965-5.504a68.866 68.866 0 0 0 41.6-63.147V451.411l333.993-333.993c20.053-19.03 26.283-49.322 15.275-75.818A68.992 68.992 0 0 0 955.442 0H68.62A69.12 69.12 0 0 0 5.345 41.941C-5.578 68.053.652 98.346 20.278 116.906L354.741 451.37zM49.932 60.97a20.736 20.736 0 0 1 18.646-12.458h886.865a20.608 20.608 0 0 1 18.475 12.074 19.627 19.627 0 0 1-4.48 22.016l-348.67 348.67v524.116c0 7.893-4.993 15.36-11.265 18.133a27.776 27.776 0 0 1-8.832 1.92 17.707 17.707 0 0 1-13.994-6.058L409.31 792.06a19.925 19.925 0 0 1-6.101-14.08V431.273L54.07 82.133a19.328 19.328 0 0 1-4.096-21.163z" fill="#999"/></svg>