<svg xmlns="http://www.w3.org/2000/svg" viewBox="0 0 30 30"><path fill="#999" d="M12.1 20c-.8-1.5-1.2-3.1-1.2-5 0-.8 0-1.5.4-2.3H5.9l2.7-5.4h5.7c1.4-1.8 4.4-2.7 7.1-2.7H6.7l-4.2 9.3H2c-.4 0-1.9.4-1.9 1.2v4.2c0 .4 1.1 1.3 1.9 1.3h.8V24c0 .8.4 1.2.8 1.2h3.5c.4 0 1.2-.4 1.2-1.2v-3.5l3.8-.5zm-6.2-1.2c-.4 0-1.2-.4-1.2-1.2v-.8c0-.4.4-1.2 1.2-1.2H9c.8 0 1.2.8 1.2 1.2v.8c0 .4-.4 1.2-1.2 1.2H5.9z"/><path fill="#FFF" d="M21.8 18.1h-1.5l-.4-.4-.5-9.7s0-.4.4-.4h2.3l.4.4-.4 9.3c0 .5 0 .8-.3.8zm.7 2.3c0 .8-.8 1.5-1.5 1.5-.8 0-1.5-.8-1.5-1.5 0-.8.8-1.5 1.5-1.5.8-.1 1.5.7 1.5 1.5z"/><path fill="#DC3C3B" d="M20.7 5.5c-5.1 0-9.3 4.3-9.3 9.5s4.2 9.5 9.3 9.5S30 20.2 30 15s-4.2-9.5-9.3-9.5zm1 16.5h-1.9v-1.9h1.9V22zm2.9-8.5c-.3.5-.8 1.1-1.6 1.8-.5.5-.9.8-1 1.1-.2.2-.3.5-.4.8-.1.3-.1.8-.1 1.5h-1.6v-.5c0-.7.1-1.2.3-1.7.1-.4.3-.7.6-1.1.2-.3.6-.7 1.2-1.2s.9-.9 1.1-1.2c.2-.3.3-.6.3-1 0-.7-.2-1.2-.7-1.7-.5-.5-1.1-.7-1.8-.7s-1.3.2-1.7.7c-.5.4-.8 1.1-.9 2.1l-1.9-.4c.2-1.3.6-2.2 1.3-2.9.7-.7 1.7-1 3-1s2.3.4 3.1 1.1c.8.7 1.2 1.6 1.2 2.6 0 .6-.1 1.2-.4 1.7z"/></svg>