<svg xmlns="http://www.w3.org/2000/svg" viewBox="0 0 30 30"><path fill="#999" d="M11.3 21c-.8-1.5-1.2-3.1-1.2-5 0-.8 0-1.5.4-2.4H5.1l2.8-5.4h6.2c1.5-1.5 3.9-2.8 6.7-2.8H5.9l-4.3 9.3h-.4c-.4 0-1.2.4-1.2 1.2v4.3c0 .4.4 1.2 1.2 1.2H2v3.5c0 .8.4 1.2.8 1.2h3.5c.4 0 1.2-.4 1.2-1.2v-3.5l3.8-.4zm-6.2-1.2c-.4 0-1.2-.4-1.2-1.2v-.8c0-.4.4-1.2 1.2-1.2h3.1c.8 0 1.2.8 1.2 1.2v1c0 .4-.4 1.2-1.2 1.2H5.1v-.2z"/><path fill="#999" d="M20.8 5.7c-5.4 0-10.1 4.6-10.1 10s4.3 9.7 9.7 9.7 9.7-4.3 9.7-9.7-3.9-10-9.3-10z"/><path fill="#FFF" d="M16.1 20.2c-.4-.4-.4-.8 0-1.2l8.2-7.8c.4-.4.8-.4 1.2 0 .4.4.4.8 0 1.2l-8.2 7.8c-.6.4-1 .4-1.2 0z"/><path fill="#FFF" d="M24.5 20.6c-.4.4-.8.4-1.2 0l-7.8-8.2c-.4-.4-.4-.8 0-1.2.4-.4.8-.4 1.2 0l7.8 8.2c.4.4.4.8 0 1.2z"/></svg>