<svg xmlns="http://www.w3.org/2000/svg" viewBox="0 0 30 30"><path fill="#24A287" d="M29.1 14.3h-.5l-4.4-9.2H6l-4.6 9.2H.9c-.5 0-.9.5-.9 1.2v4.4c0 .5.5.9.9.9h.9v3.9c0 .5.5.9.9.9h3.5c.5 0 .9-.5.9-.9v-4.1h15v3.9c0 .5.5.9.9.9h3.5c.5 0 .9-.5.9-.9v-3.9h1.2c.9.2 1.4-.2 1.4-.9v-4.2c0-.7-.5-1.2-.9-1.2zM7.6 7.6h15l2.5 5.5H4.8l2.8-5.5zm1.6 10.6c0 .5-.5.9-.9.9H5.1c-.5 0-.9-.5-.9-.9v-.9c0-.5.5-.9.9-.9h3.2c.5 0 .9.5.9.9v.9zm11.1 0v-.9c0-.5.5-.9.9-.9h3.2c.5 0 .9.5.9.9v.7c0 .5-.5.9-.9.9h-3.2c-.4.3-.9-.2-.9-.7z"/></svg>