<svg xmlns="http://www.w3.org/2000/svg" viewBox="0 0 20 20"><path fill="#24A287" d="M19.4 9.5h-.3l-2.9-6.1H4L.9 9.5H.6c-.3 0-.6.4-.6.8v2.9c0 .3.3.6.6.6h.6v2.6c0 .3.3.6.6.6h2.3c.3 0 .6-.3.6-.6v-2.7h10v2.6c0 .3.3.6.6.6h2.3c.3 0 .6-.3.6-.6v-2.6h.8c.6.1.9-.1.9-.6v-2.8c.1-.4-.2-.8-.5-.8zM5.1 5.1h10l1.7 3.7H3.2l1.9-3.7zm1 7c0 .3-.3.6-.6.6H3.4c-.3 0-.6-.3-.6-.6v-.6c0-.3.3-.6.6-.6h2.1c.3 0 .6.3.6.6v.6zm7.4 0v-.6c0-.3.3-.6.6-.6h2.1c.3 0 .6.3.6.6v.5c0 .3-.3.6-.6.6h-2.1c-.2.2-.6-.1-.6-.5z"/><path fill="#FF9455" d="M10.4 4s.8-1 1.4-.7S10.5 8 10.5 8s-.1.3.3.3h3.4s.9.2.1 1.3c-.8 1-5.7 7.3-5.7 7.3s-1.2.8-1-.6c.2-1.4 1.3-4.4 1.3-4.4H5.3s-1.2 0-.4-1.1c.6-.7 5.5-6.8 5.5-6.8z"/></svg>