<svg xmlns="http://www.w3.org/2000/svg" viewBox="0 0 20 20"><path d="M7.6 13.3c-.5-1-.8-2.1-.8-3.3 0-.5 0-1 .3-1.5H3.5l1.8-3.6h4.1c1-1 2.6-1.8 4.4-1.8H4L1.2 9.3H.9c-.3 0-.8.3-.8.8v2.8c0 .3.3.8.8.8h.5V16c0 .5.3.8.5.8h2.3c.3 0 .8-.3.8-.8v-2.3l2.6-.4zm-4.1-.8c-.3 0-.8-.3-.8-.8v-.5c0-.3.3-.8.8-.8h2.1c.5 0 .8.5.8.8v.5c0 .3-.3.8-.8.8H3.5zM13.8 3z" fill="#24A287"/><path fill="#DC3C3B" d="M13.8 3.3c-3.6 0-6.7 3.1-6.7 6.7s2.8 6.5 6.5 6.5 6.5-2.8 6.5-6.5-2.7-6.7-6.3-6.7z"/><path fill="#FFF" d="M14.1 12.1h-1l-.3-.3-.3-6.5s0-.3.3-.3h1.5l.3.3-.3 6.2c0 .3 0 .6-.2.6zm.4 1.5c0 .5-.5 1-1 1s-1-.5-1-1 .5-1 1-1c.6-.1 1 .5 1 1z"/><path fill="#FF9455" d="M6.3 3.7s.8-1 1.4-.7-1.3 4.7-1.3 4.7-.1.3.3.3h3.4s.9.2.1 1.3c-.8 1-5.7 7.3-5.7 7.3s-1.2.8-1-.6 1.3-4.4 1.3-4.4H1.2s-1.2 0-.4-1.1c.6-.7 5.5-6.8 5.5-6.8z"/><path fill="#FFF" d="M6.2 4.9L2.3 10s-.7.8.2.7h3.6l-1.4 3.8s-.6 1.5.2.2L9 9.3s.2-.3-.4-.3L6 8.9H4.8l2-4.3s.7-1.4-.6.3z"/></svg>