<svg xmlns="http://www.w3.org/2000/svg" viewBox="0 0 20 20"><path d="M8.1 13.3c-.5-1-.8-2.1-.8-3.3 0-.5 0-1 .3-1.5H3.9l1.8-3.6h3.8c.9-1.2 2.9-1.8 4.7-1.8H4.5L1.7 9.3h-.4c-.3 0-1.3.3-1.3.8v2.8c0 .3.7.9 1.3.9h.5V16c0 .5.3.8.5.8h2.3c.3 0 .8-.3.8-.8v-2.3l2.7-.4zm-4.2-.8c-.3 0-.8-.3-.8-.8v-.5c0-.3.3-.8.8-.8H6c.5 0 .8.5.8.8v.5c0 .3-.3.8-.8.8H3.9zM14.3 3z" fill="#24A287"/><path fill="#FFF" d="M14.5 12.1h-1l-.3-.3-.3-6.5s0-.3.3-.3h1.5l.3.3-.3 6.2c0 .4 0 .6-.2.6zm.5 1.5c0 .5-.5 1-1 1s-1-.5-1-1 .5-1 1-1c.5-.1 1 .5 1 1z"/><path fill="#24A287" d="M13.8 3.7c-3.4 0-6.2 2.9-6.2 6.3s2.8 6.3 6.2 6.3S20 13.5 20 10s-2.8-6.3-6.2-6.3zm.7 11h-1.3v-1.3h1.3v1.3zM16.4 9c-.2.3-.5.7-1.1 1.2-.3.3-.6.5-.7.7-.1.1-.2.3-.3.5s-.1.5-.1 1h-1.1v-.3c0-.5.1-.8.2-1.1.1-.3.2-.5.4-.7.1-.2.4-.5.8-.8.4-.3.6-.6.7-.8.1-.2.2-.4.2-.7 0-.5-.1-.8-.5-1.1-.3-.3-.7-.5-1.2-.5s-.9.1-1.1.5c-.3.3-.5.7-.6 1.4L10.9 8c.1-.9.4-1.5.9-1.9.5-.5 1.1-.7 2-.7.9 0 1.5.3 2.1.7.5.5.8 1.1.8 1.7 0 .5-.1.9-.3 1.2z"/></svg>