<svg class="icon" viewBox="0 0 1024 1024" xmlns="http://www.w3.org/2000/svg" width="200" height="200"><defs><style/></defs><path d="M956.487 170.64L692.863 57.657c-7.72-3.314-16.796-1.054-22.106 5.536l-75.322 94.152a18.692 18.692 0 0 0-3.69 15.817c1.167 5.31 4.632 9.678 9.339 12.277L364.5 274.17c-19.847 7.456-36.832 21.579-47.716 39.731L238.6 444.207c-16.646 27.756-17.964 61.612-3.465 90.536l5.499 10.996h-82.439c-10.395 0-18.83 8.437-18.83 18.83v357.776h-56.49c-10.395 0-18.83 8.436-18.83 18.83 0 10.394 8.436 18.83 18.83 18.83h640.23c10.395 0 18.83-8.437 18.83-18.83 0-10.395-8.436-18.83-18.83-18.83h-56.49V658.72c0-1.431-.528-2.674-.792-3.992 35.326-23.915 75.698-60.823 110.91-117.84 59.843-96.788 93.474-174.708 107.295-209.77l2.11 1.054c8.059 4.03 16.683 6.026 25.308 6.026 10.28 0 20.525-2.825 29.639-8.511 16.796-10.356 26.813-28.32 26.813-48.055v-89.707a18.798 18.798 0 0 0-11.41-17.287zM628.954 922.345H177.026V583.4h94.415c.452 0 .904.038 1.394 0h149.287c-16.985 10.32-37.849 23.312-64.25 40.109-20.072 12.766-33.819 32.576-38.714 55.85-4.933 23.275-.377 47.039 12.917 66.924 16.835 25.345 44.59 39.13 72.986 39.13 15.366 0 30.957-4.069 45.08-12.467l129.402-77.619c7.42-1.808 25.61-7.042 49.41-18.905v245.924zM378.962 498.174c28.81-12.352 67.338-34.723 86.883-57.508 15.026 8.813 38.678 20.15 68.241 25.948-21.015 26.024-42.105 57.659-51.03 80.067-1.544-.415-3.05-.942-4.745-.942h-77.355c-3.992-18.717-13.22-35.25-21.994-47.565zm365.835 18.906c-74.266 120.137-174.971 141.867-175.95 142.055a20.251 20.251 0 0 0-6.026 2.335L430.86 740.633c-22.973 13.822-52.574 7.156-67.488-15.214-7.533-11.336-10.13-24.894-7.344-38.188 2.824-13.257 10.657-24.592 22.106-31.86 101.194-64.438 119.46-71.519 119.083-71.932 10.432 0 18.793-7.533 18.793-17.926 1.921-11.788 36.23-66.923 69.86-100.554a18.79 18.79 0 0 0 4.068-20.526c-2.9-7.042-9.792-11.637-17.4-11.637-58.599 0-100.779-33.179-101.193-33.518-5.649-4.482-13.219-6.591-19.772-3.427-6.554 3.126-10.545 8.548-10.545 15.779-6.666 16.156-78.937 57.019-94.528 58.788a18.698 18.698 0 0 0-17.475 11.939 18.874 18.874 0 0 0 4.745 20.714c.226.226 19.96 18.98 28.019 42.67h-79.012l-13.896-27.87c-8.7-17.36-7.946-37.66 2.071-54.306l78.184-130.306c6.553-10.922 16.72-19.358 28.622-23.839l268.971-100.855 203.48 101.722C837.745 342.109 804.49 420.48 744.798 517.08zm185.442-239.371c0 9.49-6.252 14.349-8.926 16.005-2.674 1.657-9.866 5.047-18.303.83L639.386 162.73l51.822-64.738L930.24 200.43v77.279z"/></svg>