<svg class="icon" viewBox="0 0 1024 1024" xmlns="http://www.w3.org/2000/svg" width="200" height="200"><defs><style/></defs><path d="M799.59 834.38H224.41c-91.444 0-165.812-74.367-165.812-165.81V371.712c0-91.418 74.368-165.811 165.812-165.811h575.18c91.418 0 165.837 74.368 165.837 165.811v296.883c-.025 91.418-74.419 165.786-165.837 165.786zM224.41 240.64c-72.27 0-131.072 58.803-131.072 131.046V668.57c0 72.243 58.803 131.046 131.072 131.046h575.18c72.27 0 131.047-58.803 131.047-131.046V371.712c0-72.243-58.778-131.046-131.047-131.046H224.41z"/><path d="M229.504 627.584V444.288h24.192v161.664h90.01v21.632H229.504zm157.312 0V444.288h24.192v183.296h-24.192zm129.28 0l-70.81-183.296h26.164l47.488 133.171c3.814 10.65 7.014 20.66 9.6 30.003 2.816-10.01 6.118-19.993 9.856-30.003l49.382-133.171h24.678l-71.552 183.296h-24.806zm128.768 0V444.288h132.173v21.632H669.056v56.115h101.12v21.504h-101.12v62.413h112.205v21.632H644.864z"/></svg>