<svg class="icon" viewBox="0 0 1024 1024" xmlns="http://www.w3.org/2000/svg" width="200" height="200"><defs><style/></defs><path d="M858.644 213.77c-3.686-2.375-16.916-8.97-32.645 5.817-1.966 1.863-3.87 3.727-5.836 5.55-40.96 38.932-68.035 64.675-218.4 14.09-40.447-13.62-81.55-19.681-122.203-18.063-32.564 1.31-64.86 7.536-95.95 18.513-53.145 18.74-84.602 44.934-85.892 46.019a18.883 18.883 0 0 0-3.031 3.256 18.514 18.514 0 0 0-7.127 23.143L520.315 837.96a18.473 18.473 0 0 0 33.75-14.93L446.178 579.277c.594-1.168 1.23-2.273 1.823-3.482 24.474-46.715 52.204-99.717 194.724-87.06a151.634 151.634 0 0 0 80.077-14.766c21.954-10.527 42.946-26.4 62.197-47.248 30.229-32.583 56.812-78.336 73.012-125.501 6.185-17.961 10.28-34.611 11.837-48.128 1.557-12.78 2.069-30.761-11.203-39.322zm-39.362 86.16c-13.845 36.003-33.71 70.041-56.033 95.805C727.716 436.777 688.25 455.7 646 451.932c-72.93-6.43-127.488 2.867-166.79 28.467-25.006 16.282-40.386 36.803-51.834 56.3L326.984 309.842a280.125 280.125 0 0 1 70.348-35.82c62.71-21.75 127.55-21.688 192.676.226 77.148 25.948 131.748 34.59 171.91 27.218 30.003-5.53 50.319-19.436 68.014-35-2.294 9.174-5.653 20.397-10.65 33.464z" fill="#050505"/></svg>