<svg class="icon" viewBox="0 0 1024 1024" xmlns="http://www.w3.org/2000/svg" width="200" height="200"><defs><style/></defs><path d="M811.722 422.387v74.488h-48.13V297.478c0-97.311-62.205-186.87-153.283-221.085-93.087-34.97-200.507-6.07-264.113 70.098-35.198 42.148-54.746 96.077-54.746 150.988v199.397h-48.13v-74.488h-27.504v98.553c0 167.233 132.476 303.731 297.95 311.003V928.9h27.503v-96.957c165.47-7.274 297.956-143.77 297.956-311.004v-98.553h-27.503zm-492.77 30.94h139.233v-27.503H318.951v-46.41h139.234V351.91H318.951v-46.411h139.234v-27.504H319.94c7.033-75.51 54.517-139.295 120.484-169.778v91.853h27.503V97.696c14.665-4.383 30.026-7.045 45.838-8.085v110.46h27.504V89.612c15.813 1.04 31.174 3.703 45.838 8.085v102.375h27.503v-91.853c65.966 30.483 113.45 94.268 120.484 169.778H596.846V305.5h139.235v46.41H596.846v27.504h139.235v46.411H596.846v27.504h139.235v43.547H318.95v-43.548zm416.838 71.05c-2.317 84.712-57.84 161.577-137.514 190.446-80.01 28.992-171.716 4.96-227.609-59.038-31.72-36.32-50.107-83.188-51.426-131.407l416.549-.001zm-208.275 280.76c-155.548 0-282.152-125.645-284.022-280.76h48.245c2.313 95.688 64.61 182.73 154.412 215.855 91.07 33.592 195.889 6.28 259.423-66.922 35.777-41.222 56.41-94.358 57.728-148.933h48.246c-1.87 155.115-128.482 280.76-284.032 280.76z"/></svg>