<svg class="icon" viewBox="0 0 1025 1024" xmlns="http://www.w3.org/2000/svg" width="200.195" height="200"><defs><style/></defs><path d="M362.15 685.153c-6.296 0-12.564-2.38-17.375-7.19-9.596-9.596-9.596-25.155 0-34.751l297.607-299.936c9.595-9.596 25.13-9.596 34.726 0s9.596 25.155 0 34.75L379.5 677.964c-4.76 4.81-11.055 7.19-17.35 7.19z"/><path d="M483.139 625.632c8.112 35.8-.64 70.935-28.304 98.597l-120.684 118.74c-20.881 20.882-48.62 32.371-78.177 32.371-29.53 0-57.294-11.49-78.15-32.37-43.093-43.119-43.093-113.26-.255-156.098L295.95 564.294c20.881-20.881 48.646-32.397 78.177-32.397 10.107 0 19.806 1.818 29.3 4.427l38.358-38.358c-21.394-10.007-44.501-15.2-67.66-15.2-40.867 0-81.733 15.584-112.927 46.777l-118.15 122.35c-62.362 62.361-62.362 163.44 0 225.828 31.167 31.193 72.034 46.752 112.902 46.752 40.866 0 81.733-15.559 112.902-46.752L489.33 759.185c47.674-47.674 58.012-114.155 32.73-172.499l-38.921 38.946zm397.12-486.604c-31.194-31.192-72.036-46.777-112.902-46.777-40.867 0-81.76 15.585-112.927 46.777L532.398 258.241c-49.44 49.44-59.523 123.189-30.554 182.736l38.129-38.103c-11.285-37.694-2.636-80.096 26.92-109.652l122.26-119.444c20.883-20.856 48.622-32.37 78.177-32.37 29.506 0 57.296 11.515 78.177 32.37 43.093 43.119 43.093 113.26.23 156.122l-122.26 122.514c-20.883 20.882-48.646 32.371-78.177 32.371-7.524 0-14.151.741-21.368-.717l-39.127 39.152c19.55 8.112 39.638 10.695 60.494 10.695 40.867 0 81.708-15.583 112.901-46.777l122.032-122.284c62.388-62.361 62.388-163.467.026-225.829v.003z"/></svg>