<svg class="icon" viewBox="0 0 1024 1024" xmlns="http://www.w3.org/2000/svg" width="24" height="24"><defs><style/></defs><path d="M219.52 914.848l-32.832 100.224h651.936l-32.928-100.224H219.52zm102.336 81.664H214.688l20.8-63.104h149.408a39088.254 39088.254 0 0 0-63.04 63.104zm188.896-686.624a259.808 259.808 0 0 0-259.808 259.808v319.168h523.328V569.696a259.808 259.808 0 0 0-259.808-259.808h-3.712zm213.408 267.2a22.24 22.24 0 1 1-44.512 0A163.52 163.52 0 0 0 516.32 413.792h-3.68a22.24 22.24 0 0 1 0-44.544h3.68a208.096 208.096 0 0 1 207.84 207.84zM209.152 465.504a42.336 42.336 0 0 0-33.216-49.824L53.44 391.072a42.4 42.4 0 0 0-50.208 47.872c2.624 17.088 15.584 31.584 33.6 35.168l122.496 24.576a42.368 42.368 0 0 0 49.824-33.184zM181.024 181.6l78.112 97.632c14.592 18.24 41.184 21.248 59.424 6.592a42.24 42.24 0 0 0 6.624-59.488l-78.016-97.6a42.336 42.336 0 0 0-66.144 52.864zm336.928 36.96a42.4 42.4 0 0 0 43.328-41.344l-.32-124.928a42.304 42.304 0 1 0-84.64-1.984l.288 124.928a42.304 42.304 0 0 0 41.344 43.328zm195.936 76.544a42.24 42.24 0 0 0 59.712-3.808l82.528-93.824a42.336 42.336 0 0 0-63.52-55.904l-82.56 93.824A42.24 42.24 0 0 0 700 269.696c1.408 9.536 6.016 18.56 13.888 25.408zm308.096 153.088a42.368 42.368 0 0 0-48.256-35.488L850.24 431.52a42.368 42.368 0 1 0 12.768 83.68l123.456-18.784a42.336 42.336 0 0 0 35.52-48.224z" fill="#d81e06"/></svg>