<svg id="图层_1" xmlns="http://www.w3.org/2000/svg" viewBox="-286 409.9 22 22"><style>.st0{fill:#7b7b7b}</style><path class="st0" d="M-268.2 413c-2-2-4.6-3.1-7.4-3.1-2.8 0-5.4 1.1-7.4 3.1-4.1 4.1-4.1 10.7 0 14.8 2 2 4.6 3.1 7.4 3.1 2.8 0 5.4-1.1 7.4-3.1 4.1-4.1 4.1-10.8 0-14.8zm-.6 14.1c-1.8 1.8-4.2 2.8-6.8 2.8-2.6 0-5-1-6.8-2.8-3.7-3.7-3.7-9.8 0-13.5 1.8-1.8 4.2-2.8 6.8-2.8 2.6 0 5 1 6.8 2.8 3.8 3.7 3.8 9.8 0 13.5z"/><path class="st0" d="M-269.1 416.1c-1.2-1.2-3-1.2-4.2 0l-2.6 2.6c-1.2 1.2-1.2 3 0 4.2l.1.1.6-.6-.1-.1c-.8-.8-.8-2.2 0-3l2.6-2.6c.8-.8 2.2-.8 3 0l.1.1c.8.8.8 2.2 0 3l-1.3 1.3.6.6 1.3-1.3c1.2-1.2 1.2-3 0-4.2l-.1-.1z"/><path class="st0" d="M-273.2 419.9l-.6.6.1.1c.4.4.6.9.6 1.5s-.2 1.1-.6 1.5l-2.6 2.6c-.4.4-.9.6-1.5.6s-1.1-.2-1.5-.6l-.1-.1c-.8-.8-.8-2.2 0-3l1.6-1.6-.6-.6-1.6 1.6c-1.2 1.2-1.2 3 0 4.2l.1.1c.6.6 1.3.9 2.1.9s1.5-.3 2.1-.9l2.6-2.6c.6-.6.9-1.3.9-2.1s-.3-1.5-.9-2.1l-.1-.1z"/></svg>