<svg class="icon" viewBox="0 0 1024 1024" xmlns="http://www.w3.org/2000/svg" width="18" height="18"><defs><style/></defs><path d="M796.75 407.089c0 84.79-284.752 479.44-284.752 479.44s-284.75-397.094-284.75-479.44c0-157.267 127.475-284.752 284.75-284.752 157.262 0 284.752 127.485 284.752 284.752zm-629.45 0c0 98.036 320.55 554.522 320.55 554.522h48.298s320.55-460.086 320.55-554.522c0-190.373-154.319-344.699-344.7-344.699-190.378 0-344.697 154.326-344.697 344.699zm254.779 0c0-49.66 40.263-89.922 89.92-89.922 49.66 0 89.922 40.263 89.922 89.922S561.658 497.017 512 497.017c-49.657 0-89.92-40.27-89.92-89.928zm-59.948 0c0 82.772 67.09 149.876 149.868 149.876 82.765 0 149.87-67.104 149.87-149.876s-67.105-149.87-149.87-149.87c-82.779 0-149.868 67.097-149.868 149.87z" fill="#999"/></svg>