<svg id="图层_1" xmlns="http://www.w3.org/2000/svg" viewBox="-286 409.9 22 22"><style>.st0{fill:#7b7b7b}</style><path class="st0" d="M-268.3 430.7h-13.4c-1.7 0-3.1-1.4-3.1-3.1v-.9c0-.4.3-.6.6-.6s.6.3.6.6v.9c0 1 .8 1.8 1.8 1.8h13.4c1 0 1.8-.8 1.8-1.8v-4.2c0-.4.3-.6.6-.6.4 0 .6.3.6.6v4.2c.1 1.7-1.2 3.1-2.9 3.1zm-15.8-7.3c-.4 0-.6-.3-.6-.6V419c0-.4.3-.6.6-.6s.6.3.6.6v3.8c0 .3-.3.6-.6.6zm18.2-4.4c-.4 0-.6-.3-.6-.6v-4.2c0-1-.8-1.8-1.8-1.8h-13.4c-1 0-1.8.8-1.8 1.8v.8c0 .4-.3.6-.6.6s-.6-.3-.6-.6v-.8c0-1.7 1.4-3.1 3.1-3.1h13.4c1.7 0 3.1 1.4 3.1 3.1v4.2c-.2.3-.4.6-.8.6zm-16.4-1.3h-3.8c-.4 0-.6-.3-.6-.6s.3-.6.6-.6h3.8c.4 0 .6.3.6.6s-.3.6-.6.6zm0 7.7h-3.8c-.4 0-.6-.3-.6-.6 0-.4.3-.6.6-.6h3.8c.4 0 .6.3.6.6s-.3.6-.6.6z"/><path class="st0" d="M-270.9 417.7h-7.7c-.4 0-.6-.3-.6-.6s.3-.6.6-.6h7.7c.4 0 .6.3.6.6s-.2.6-.6.6zm0 3.8h-7.7c-.4 0-.6-.3-.6-.6s.3-.6.6-.6h7.7c.4 0 .6.3.6.6s-.2.6-.6.6zm0 3.9h-7.7c-.4 0-.6-.3-.6-.6 0-.4.3-.6.6-.6h7.7c.4 0 .6.3.6.6.1.3-.2.6-.6.6zm5.1-1.9c-1.4 0-2.6-1.2-2.6-2.6 0-1.4 1.2-2.6 2.6-2.6 1.4 0 2.6 1.2 2.6 2.6 0 1.4-1.2 2.6-2.6 2.6zm0-3.9c-.7 0-1.3.6-1.3 1.3 0 .7.6 1.3 1.3 1.3.7 0 1.3-.6 1.3-1.3 0-.7-.6-1.3-1.3-1.3z"/></svg>