<svg class="icon" width="18" height="18" viewBox="0 0 1024 1024" xmlns="http://www.w3.org/2000/svg"><path d="M928 710.656H96V178.432h832v532.224zm-804.48-27.392h776.96V205.952H123.52v477.312z" fill="#a7a7a7"/><path d="M497.152 703.744h29.696v112.128h-29.696V703.744zm152.32-347.264c-5.76-5.76-15.232-5.76-20.992 0L483.712 501.248l-88.192-88.064c-5.76-5.76-15.232-5.76-20.992 0-5.76 5.76-5.76 15.232 0 20.992l98.56 98.56a14.835 14.835 0 0 0 10.496 4.352c3.84 0 7.68-1.408 10.496-4.352l155.264-155.264c5.888-5.76 5.888-15.232.128-20.992zM323.58 845.57v-29.695h376.833v29.696H323.58z" fill="#a7a7a7"/></svg>