<svg class="icon" viewBox="0 0 1024 1024" xmlns="http://www.w3.org/2000/svg" width="18" height="18"><defs><style/></defs><path d="M511.872 770.39h-.128a31.908 31.908 0 0 1-24.128-11.115c-9.216-10.731-19.285-22.208-29.91-34.326C363.009 617.003 235.2 476.288 235.2 343.893c0-153.621 124.97-278.592 278.592-278.592s278.57 124.971 278.57 278.592c0 135.062-134.549 277.782-231.38 387.2-8.79 9.92-17.174 19.414-25.003 28.374a32 32 0 0 1-24.107 10.922zm1.92-641.089c-118.315 0-214.592 96.256-214.592 214.592 0 146.283 151.957 271.574 214.827 349.291 62.336-81.259 214.314-202.325 214.314-349.29.022-118.337-96.234-214.593-214.549-214.593z" fill="#999"/><path d="M513.792 449.579c-67.05 0-121.579-54.55-121.579-121.6s54.55-121.6 121.579-121.6c67.072 0 121.6 54.549 121.6 121.6s-54.528 121.6-121.6 121.6zm0-179.2c-31.744 0-57.579 25.834-57.579 57.6s25.835 57.578 57.579 57.578c31.765 0 57.6-25.813 57.6-57.578s-25.835-57.6-57.6-57.6zm416.747 670.037H93.46c-11.029 0-21.269-5.696-27.114-15.019a31.99 31.99 0 0 1-1.664-30.954l123.52-255.638a32.004 32.004 0 0 1 28.8-18.026h71.786c17.664 0 32 14.336 32 32 0 17.685-14.336 32-32 32h-51.776l-92.437 191.637h736.96l-83.627-191.659H735.7c-17.664 0-32-14.314-32-32 0-17.664 14.336-32 32-32h83.115c12.693 0 24.192 7.531 29.29 19.115L959.83 895.531a31.966 31.966 0 0 1-2.496 30.357c-5.888 9.067-15.978 14.528-26.794 14.528z" fill="#999"/></svg>