<svg class="icon" viewBox="0 0 1024 1024" xmlns="http://www.w3.org/2000/svg" width="16" height="16"><defs><style/></defs><path d="M709.448 774.287l-2.315-4.423 1.168-1.66 1.167-1.658a273.53 273.53 0 0 0 58.593-32.85c17.49-13.107 29.205-32.236 35.247-57.528l4.403-20.235v-522.67c0-12.615-3.769-25.702-11.203-39.014a149.688 149.688 0 0 0-27.955-36.393 160.543 160.543 0 0 0-37.356-26.85c-13.844-7.044-27.033-10.526-39.71-10.526H317.42c-11.94 0-24.822 3.277-38.605 9.974a160.01 160.01 0 0 0-37.97 25.743 142.152 142.152 0 0 0-28.467 35.082c-7.455 13.21-11.203 25.949-11.203 38.708v530.452c0 8.93 2.355 18.248 6.697 27.914a137.348 137.348 0 0 0 16.753 27.26c6.676 8.724 14.028 16.527 21.852 23.551s15.421 12.841 22.896 17.285c3.605 1.516 10.22 3.85 19.6 6.82 9.175 2.95 13.476 5.14 12.78 6.574l-153.11 232.366h89.314l111.76-161.976h308.326l111.636 161.976h90.481L709.448 774.287zM415.62 65.106c0-3.748 1.782-7.578 5.591-11.776 3.666-4.076 7.373-6.042 11.162-6.042h142.991c1.434 0 4.526 1.434 8.97 4.363 4.404 2.99 6.636 5.96 6.636 8.929v54.722c0 3.748-1.884 7.189-5.55 10.036-3.769 3.072-7.168 4.628-10.035 4.628H431.309l-4.547-3.543a40.776 40.776 0 0 1-7.23-6.164 11.182 11.182 0 0 1-3.91-8.213v-46.94zM271.503 218.132c0-7.434 1.762-14.725 5.059-21.831 3.318-7.066 7.639-13.517 12.84-19.559 5.244-5.98 11.388-10.67 18.392-14.418a46.285 46.285 0 0 1 21.873-5.611h347.402c6.594 0 13.312 1.556 20.009 4.383 6.717 2.99 12.84 7.168 18.473 12.329a70.1 70.1 0 0 1 13.414 16.834c3.318 5.817 4.956 12.206 4.956 18.903v118.436c0 6.718-1.802 13.066-5.53 19.456a60.314 60.314 0 0 1-14.52 16.937 83.538 83.538 0 0 1-19.005 11.55 46.08 46.08 0 0 1-20.05 4.506H331.899l-5.653-1.003a33.792 33.792 0 0 1-6.738-2.314c-12.595-2.171-23.736-8.91-33.443-20.112-9.708-11.182-14.562-23.429-14.562-36.802V218.132zm103.404 461.333c-11.53 11.899-25.969 17.838-43.008 17.838-17.142 0-31.13-5.94-41.984-17.838-10.773-11.878-16.159-26.501-16.159-43.643 0-15.626 5.612-29.163 16.814-40.673 11.141-11.571 24.924-17.429 41.329-17.429 17.04 0 31.457 5.53 43.008 16.159 11.55 10.916 17.305 25.109 17.305 43.11 0 16.405-5.754 30.598-17.305 42.476zm255.775 0c-11.51-11.878-17.367-26.501-17.367-43.643 0-17.162 6.123-31.027 18.432-41.943a63.98 63.98 0 0 1 43.09-16.159c16.998 0 31.047 5.837 41.84 17.429 10.752 11.51 16.24 25.067 16.24 40.673 0 17.142-5.631 31.765-16.793 43.643-11.243 11.899-25.313 17.838-42.516 17.838-17.08 0-31.417-5.94-42.926-17.838z" fill="#69a6f5"/></svg>