<svg class="icon" viewBox="0 0 1024 1024" xmlns="http://www.w3.org/2000/svg" width="16" height="16"><defs><style/></defs><path d="M518.86 497.603s-99.102 79.728-99.102 144.179c0 28.856 42.476 57.692 99.103 57.692 56.586 0 99.062-28.836 99.062-57.692 0-66.765-99.062-144.18-99.062-144.18zm361.288-145.736c5.735-70.206 26.092-134.656 61.932-193.72L804.475 20.48c-43.459 37.437-92.98 58.163-149.095 61.83-51.404 4.648-100.126-5.12-145.94-29.39-47.145 23.47-95.683 33.28-146.289 29.39-52.326-4.69-99.573-23.246-141.865-56.137L83.292 163.78c33.936 59.924 52.839 122.613 56.545 188.088 1.762 30.146-6.84 71.618-26.132 125.276a914.555 914.555 0 0 0-22.938 77.087c-4.833 21.401-7.843 38.81-8.827 51.835-.716 57.139 15.32 108.769 48.19 154.624 25.682 33.484 68.034 70.471 126.853 110.899 64.369 32.768 114.156 54.026 149.033 63.12l28.918 13.434c9.113 4.342 18.862 8.602 29.02 13.25 21.934 13.128 37.335 27.382 45.486 42.108 9.933-15.913 25.682-29.82 46.653-42.107a1028.055 1028.055 0 0 0 37.315-16.958l21.832-9.748c7.454-3.707 17.264-7.947 29.06-12.616a1734.595 1734.595 0 0 1 44.238-16.814c33.976-12.022 58.757-23.409 74.444-33.69 57.058-40.427 98.775-76.8 125.297-109.363 34.058-46.039 50.586-97.874 49.828-156.16-2.028-26.091-13.066-67.85-33.116-124.723-19.108-55.398-27.587-98.406-24.843-129.454zM518.861 757.146c-125.072 0-240.64-103.302-240.64-230.708 0-86.528 66.15-168.263 84.93-201.871l56.607 86.528 99.103-144.18 99.062 144.18 56.688-86.528c18.719 33.608 84.93 115.343 84.93 201.871 0 127.406-115.588 230.708-240.68 230.708z" fill="#ffad7f"/></svg>