<svg class="icon" viewBox="0 0 1024 1024" xmlns="http://www.w3.org/2000/svg" width="16" height="16"><defs><style/></defs><path d="M1024.508-150.803H-.491c-83.012 0-150.313 67.122-150.313 149.908v1025.807c0 82.786 67.3 149.908 150.313 149.908h1024.999c83.012 0 150.313-67.122 150.313-149.908V-.897c-.017-82.786-67.3-149.908-150.313-149.908zm40.081 1175.698c0 22.039-17.979 39.969-40.082 39.969H-.492c-22.103 0-40.083-17.93-40.083-39.969V-.914c0-22.039 17.979-39.969 40.083-39.969h1025.001c22.103 0 40.082 17.93 40.082 26.164v1039.613z" fill="#999"/><path d="M512.05 97.779c125.327 0 250.655-.016 375.983.017 26.441 0 45.714 26.458 36.117 50.178-2.331 5.746-6.813 10.972-11.295 15.455A166961.304 166961.304 0 0 1 629.934 446.35c-3.754 3.754-5.323 7.378-5.308 12.751.161 142.399.144 284.798.113 427.181 0 28.431-24.5 46.83-50.325 37.524-4.967-1.78-9.742-5.195-13.529-8.964-50.066-49.774-99.923-99.792-149.908-149.648-8.414-8.382-12.218-18.254-12.201-30.081.113-92.965.113-185.927-.081-278.908 0-2.833-1.844-6.311-3.933-8.399-95.035-95.246-190.055-190.509-285.461-285.381-16.781-16.682-13.981-36.733-3.574-50.94 7.443-10.161 18.059-13.755 30.325-13.74 68.449.05 136.897.033 205.346.033H512.05z" fill="#999"/></svg>