<svg class="icon" viewBox="0 0 1024 1024" xmlns="http://www.w3.org/2000/svg" width="12" height="12"><defs><style/></defs><path d="M904.359 343.844l-71.98-71.98-184.412 184.44-80.244-80.274 184.41-184.41-71.98-71.981c0-30.954 25.07-56.052 56.05-56.052h168.155c30.983 0 56.053 25.098 56.053 56.052v168.154c.001 30.954-25.069 56.051-56.052 56.051zM343.845 904.36c0 30.954-25.126 56.05-56.052 56.05H119.64c-30.982 0-56.052-25.096-56.052-56.05V736.206c0-30.954 25.07-56.05 56.052-56.05l71.98 71.98 184.412-184.44 80.245 80.274-184.413 184.436 71.982 71.954z" fill="#999"/></svg>