<svg class="icon" viewBox="0 0 1024 1024" xmlns="http://www.w3.org/2000/svg" width="16" height="16"><defs><style/></defs><path d="M508.867 558.449c72.642 0 106.311 55.09 113.377 133.365 1.659 18.72-.02 46.019-2.458 77.64-8.15 105.022-17.53 234.066 52.368 234.066 59.187 0 89.518-113.46 107.09-242.81 16.916-128.042-1.045-191.755 7.823-248.628 16.814-107.725 110.838-204.309 81.797-341.668-16.097-76.206-58.081-112.026-99.615-127.12-95.723-34.836-157.573 32.298-260.382 32.298-102.79 0-164.598-67.134-260.363-32.297-41.513 15.073-83.517 50.913-99.655 127.12-28.98 137.358 65.024 233.922 81.9 341.667 8.785 56.852-9.073 120.586 7.823 248.627 17.53 129.352 47.923 242.811 107.048 242.811 69.858 0 60.54-129.044 52.388-234.066-2.375-31.642-4.178-58.941-2.478-77.66 7.045-78.254 41.206-133.345 113.337-133.345z" fill="#3bc1d0"/></svg>