<svg xmlns="http://www.w3.org/2000/svg" viewBox="0 0 30 30"><path fill="#19AC9E" d="M29.2 1.7l-6-1.5h-.8l-7.1 3.4L8.7.7C8.5.6 8.2.6 8 .7L.8 3.6c-.3.2-.7.5-.7.9V24c0 .4.2.8.4.9.2.2.6.2.9.2l6.8-2.6 6.6 2.8h.4c.2 0 .4 0 .4-.2l.6-.2-.9-1.9-6.6-2.8h-.8l-5.6 2.3V5.3l6-2.4 6.8 2.8h.8L23 2.2l4.9 1.1v17.3l-.9-.2-.6.9c0 .2-.2.4-.2.6l-.2.6 2.6.6c.4 0 .6 0 .9-.2.2-.2.4-.6.4-.8V2.6c0-.4-.2-.9-.7-.9zM7.8 5.4v12.4c0 .2.2.4.4.4s.4-.2.4-.4V5.4c0-.2-.2-.4-.4-.4-.2.1-.4.3-.4.4zm7.1 2.5v6.2c0 .2.2.4.4.4s.4-.2.4-.4V7.9c0-.2-.2-.4-.4-.4s-.4.2-.4.4zm8.4 4.1V4.5c0-.2-.2-.4-.4-.4s-.4.2-.4.4V12c0 .2.2.4.4.4.3.2.4 0 .4-.4zm-2.8 2.1c-2.6 0-4.9 2.3-4.9 4.9 0 .9.2 1.7.8 2.4l.4.9.9 1.9 2.8 5.6 3.9-7.7.4-.7c.2-.4.4-.8.6-1.1.2-.4.2-.7.2-1.3-.2-2.7-2.4-4.9-5.1-4.9zm0 6.3c-1.1 0-2.1-.9-2.1-2.1 0-1.1.9-2.1 2.1-2.1s2.1.9 2.1 2.1c0 1.2-.9 2.1-2.1 2.1z"/></svg>