<svg class="icon" viewBox="0 0 1024 1024" xmlns="http://www.w3.org/2000/svg" width="16" height="16"><defs><style/></defs><path d="M585.339 420.741c0 68.997-57.119 68.997-87.9 68.997h-38.38V359.301h48.23c26.973 0 78.05 0 78.05 61.44zm294.83-68.874c5.693-70.206 26.03-134.636 61.911-193.7L804.475 20.48c-43.48 37.437-92.959 58.163-149.074 61.83A256.573 256.573 0 0 1 509.44 52.94c-47.124 23.47-95.662 33.28-146.268 29.37-52.347-4.69-99.574-23.246-141.886-56.137L83.292 163.8c33.936 59.904 52.839 122.614 56.566 188.068 1.761 30.146-6.84 71.639-26.133 125.276-10.096 29.737-17.735 55.542-22.937 77.087-4.813 21.401-7.824 38.81-8.827 51.835-.717 57.16 15.319 108.769 48.19 154.624 25.681 33.484 68.034 70.45 126.853 110.899 64.348 32.768 114.155 54.047 149.032 63.099l28.918 13.435c9.093 4.382 18.842 8.622 29.02 13.25 21.934 13.148 37.356 27.423 45.466 42.128 9.953-15.913 25.702-29.82 46.633-42.128a950.313 950.313 0 0 0 37.335-16.957c10.035-4.403 17.51-7.721 21.852-9.749a382.976 382.976 0 0 1 29.02-12.595c11.94-4.69 26.665-10.445 44.258-16.794 33.996-12.062 58.736-23.429 74.465-33.71 57.037-40.448 98.734-76.8 125.276-109.342 34.038-46.06 50.565-97.895 49.807-156.18-2.007-26.092-13.045-67.851-33.095-124.745-19.129-55.377-27.607-98.385-24.822-129.433zm-252.928 188.62c-32.666 21.382-77.578 21.382-101.028 21.382h-64.41v176.25h-96.85V286.004h137.483c63.897 0 117.33 4.117 154.44 49.357 23.162 28.795 27.074 61.501 27.074 84.746-.04 52.654-21.73 97.096-56.709 120.382z" fill="#ffad7f"/></svg>