<svg class="icon" viewBox="0 0 1024 1024" xmlns="http://www.w3.org/2000/svg" width="16" height="16"><defs><style/></defs><path d="M942.08 593.92v409.6h-307.2V921.6H368.64v81.92H81.92v-409.6zm-185.364-74.65c-11.756-51.384-38.278-96.563-80.077-131.092-40.49-33.649-88.392-40.018-143.954-60.498h-.205V198.083l10.732-2.888 23.49-8.704c9.032-3.052 17.203-5.612 25.723-7.414 8.356-1.986 14.152-2.826 18.125-2.826 7.72 0 17.49 1.229 28.918 3.727 11.632 2.826 24.023 5.878 36.618 9.34a508.681 508.681 0 0 0 36.208 9.543c10.834 2.478 19.907 3.502 27.423 3.502 11.96.02 18.043-1.639 38.523-5.284V48.763c-20.48 4.874-24.105 7.557-38.543 7.557-7.517 0-16.814-1.147-27.669-3.891-11.325-2.171-22.999-5.55-36.127-9.36a460.841 460.841 0 0 0-35.491-9.134c-11.121-2.642-18.35-3.911-26.215-3.911-26.07 0-61.235 6.164-81.715 17.53V20.48h-40.96v307.2h-1.29c-55.132 20.48-103.404 28.017-143.852 61.665-41 34.57-67.625 76.82-80.22 128.226 0 0-39.26-5.571-39.26 35.389h572.826c0-40.96-43.008-33.69-43.008-33.69z" fill="#ffad7f"/></svg>