<svg class="icon" viewBox="0 0 1024 1024" xmlns="http://www.w3.org/2000/svg" width="16" height="16"><defs><style/></defs><path d="M935.916 494.49L774.328 222.249c-6.43-11.96-21.954-17.449-35.246-17.449H593.92V81.92c0-22.528-18.432-40.96-40.96-40.96h-102.4c-22.528 0-40.96 18.432-40.96 40.96V204.8H287.54c-13.313 0-29.492 5.489-35.923 17.449L89.395 496.64c-26.644 0-48.435 20.214-48.435 47.555V792.8c0 27.341 21.79 46.879 48.435 46.879h53.965v77.414c0 41.042 27.197 65.946 67.154 65.946h24.228c39.956 0 72.458-24.904 72.458-65.946V839.68h409.6v77.414c0 41.042 35.103 65.946 75.06 65.946h24.248c39.956 0 64.532-24.904 64.532-65.946V839.68h56.586c26.624 0 45.814-19.538 45.814-46.879V544.195c0-27.341-20.48-49.705-47.124-49.705zM174.182 693.35c-33.443 0-60.58-27.811-60.58-62.136 0-34.345 27.116-62.157 60.58-62.157s60.56 27.812 60.56 62.157c0 34.325-27.095 62.136-60.56 62.136zm36.332-201.83l110.264-192.041c5.98-12.247 21.77-12.759 35.082-12.759h314.901c13.312 0 29.102.512 35.062 12.759L816.108 491.52H210.514zm641.905 201.83c-33.424 0-60.56-27.811-60.56-62.136 0-34.345 27.136-62.157 60.56-62.157 33.443 0 60.58 27.812 60.58 62.157 0 34.325-27.137 62.136-60.58 62.136z" fill="#69a6f5"/></svg>