<svg class="icon" viewBox="0 0 1024 1024" xmlns="http://www.w3.org/2000/svg" width="16" height="16"><defs><style/></defs><path d="M842.998 512h-655.77c-19.108 0-34.836-16.425-34.836-35.103 0-3.113.573-6.635 1.208-9.461l34.898-243.692c2.97-15.831 17.224-18.944 34.283-18.944h584.766c16.937 0 31.314 2.847 34.242 18.616l34.898 248.136c.533 2.888 1.23 4.588 1.23 7.7-.021 18.678-15.832 32.748-34.92 32.748zm-26.235 273.306c-36.926 0-66.867-29.062-66.867-65.29 0-35.984 29.941-65.004 66.867-65.004 36.68 0 66.683 29.02 66.683 65.003 0 36.23-30.003 65.29-66.683 65.29zm-604.18 0c-36.66 0-66.622-29.062-66.622-65.29 0-35.984 29.962-65.004 66.621-65.004 37.028 0 66.929 29.02 66.929 65.003 0 36.23-29.9 65.29-66.929 65.29zM327.68 61.44h409.6v61.44h-409.6c-40.96 0-40.96-61.44 0-61.44zm577.577 94.003c-11.96-57.61-46.9-80.814-103.895-103.997C744.468 28.344 612.618.656 513.454.656c-99.594 0-232.12 27.709-289.075 50.79-56.975 23.204-91.34 46.387-103.199 103.997L81.92 476.14V921.6h61.44v40.96c0 81.92 102.4 81.92 102.4 0V921.6h512v40.96c0 81.92 122.88 81.92 122.88 0V921.6h61.44V476.14l-36.823-320.697z" fill="#69a6f5"/></svg>