<svg class="icon" viewBox="0 0 1024 1024" xmlns="http://www.w3.org/2000/svg" width="16" height="16"><defs><style/></defs><path d="M940.605 592.876l-2.232-6.022c-7.004-18.882-15.667-42.352-37.867-55.644-15.463-9.257-33.444-12.472-49.296-15.298a203.571 203.571 0 0 1-22.487-4.875l-5.816-2.048-.922-.307c-63.652-51.118-192.532-52.51-272.814-124.805C434.115 280.33 341.771 176.21 237.916 20.48L108.155 124.314c-9.011 7.209-26.215 12.984-26.215 38.932 0 12.964 13.19 14.95 28.734 10.138l73.195-23.122L389.12 435.835v155.77c0 36.046-.594 68.855 29.983 87.491l-77.087 324.424h51.917l48.783-154.05 48.804-76.186v230.236h61.44V747.356s-.717-51.917 51.2-51.917l51.2 51.917v256.164h40.96v-204.8l112.968 204.8h51.916c-25.968-81.92-62.484-74.486-62.484-152.35v-51.918c0-54.435 61.44-103.833 61.44-155.75v-51.876c0-12.329-1.597-23.245-4.403-33.116 9.052 1.843 17.367 4.076 23.695 7.885 9.81 5.878 15.237 20.541 20.48 34.713l2.376 6.39a20.48 20.48 0 0 0 26.419 11.838l.02-.02a20.48 20.48 0 0 0 11.858-26.44z" fill="#a1ace7"/></svg>