<svg class="icon" viewBox="0 0 1024 1024" xmlns="http://www.w3.org/2000/svg" width="16" height="16"><defs><style/></defs><path d="M434.401 122.88c-258.703 0-413.921 207.524-413.921 311.296s51.732 181.596 155.218 181.596S330.936 641.7 330.936 719.524c0 103.752 77.599 181.576 181.084 181.576 336.323 0 491.52-181.576 491.52-363.152-.02-311.296-258.764-415.068-569.139-415.068zm-64.676 103.772a64.758 64.758 0 0 1 64.676 64.84c0 35.84-28.958 64.86-64.676 64.86s-64.675-29.04-64.675-64.86a64.758 64.758 0 0 1 64.675-64.84zm206.93 0a64.758 64.758 0 0 1 64.676 64.84 64.758 64.758 0 0 1-64.676 64.86A64.758 64.758 0 0 1 512 291.492a64.758 64.758 0 0 1 64.655-64.84zm206.971 103.752a64.758 64.758 0 0 1 64.697 64.86 64.737 64.737 0 0 1-64.697 64.84 64.717 64.717 0 0 1-64.655-64.84 64.737 64.737 0 0 1 64.655-64.86zM188.641 382.3a64.717 64.717 0 0 1 64.656 64.82c0 35.84-28.96 64.86-64.656 64.86s-64.676-29.041-64.676-64.86a64.758 64.758 0 0 1 64.676-64.82zM512 641.7c42.865 0 77.599 34.816 77.599 77.844 0 42.967-34.734 77.804-77.599 77.804s-77.599-34.837-77.599-77.804A77.701 77.701 0 0 1 512 641.7z" fill="#3fb9ae"/></svg>