<svg class="icon" viewBox="0 0 1145 1024" xmlns="http://www.w3.org/2000/svg" width="17.891" height="16"><defs><style/></defs><path d="M575.245 295.922c-118.1 0-214.183 96.082-214.183 214.184 0 118.101 96.082 214.183 214.183 214.183s214.183-96.082 214.183-214.183c.002-118.102-96.082-214.184-214.183-214.184zm0 367.17c-84.356 0-152.985-68.63-152.985-152.986S490.89 357.12 575.245 357.12c84.357 0 152.986 68.628 152.986 152.986s-68.628 152.985-152.986 152.985z" fill="#999"/><path d="M1052.87 480.499h-77.472c-7.171-96.56-48.213-186.366-117.386-255.538-69.172-69.173-158.978-110.214-255.538-117.386V30.599C602.474 13.7 588.775 0 571.875 0s-30.599 13.7-30.599 30.599v76.976c-96.559 7.171-186.365 48.213-255.538 117.386-69.172 69.172-110.213 158.977-117.385 255.538H92.062c-16.9 0-30.599 13.7-30.599 30.599s13.699 30.599 30.599 30.599h76.29c7.172 96.559 48.214 186.365 117.386 255.536 69.173 69.173 158.979 110.214 255.538 117.386v78.782c0 16.9 13.7 30.599 30.6 30.599s30.598-13.699 30.598-30.599v-78.782c96.56-7.171 186.367-48.213 255.538-117.386 69.173-69.172 110.214-158.977 117.386-255.536h77.471c16.9 0 30.599-13.7 30.599-30.6s-13.699-30.598-30.599-30.598zM814.74 753.96c-64.871 64.87-151.122 100.597-242.865 100.597-91.74 0-177.992-35.727-242.863-100.597-64.871-64.871-100.598-151.122-100.598-242.865s35.727-177.992 100.598-242.863 151.122-100.597 242.863-100.597c91.743 0 177.994 35.726 242.865 100.597 64.87 64.871 100.597 151.122 100.597 242.863S879.61 689.09 814.74 753.961z" fill="#999"/></svg>