<svg class="icon" viewBox="0 0 1024 1024" xmlns="http://www.w3.org/2000/svg" width="16" height="16"><defs><style/></defs><path d="M1001.35 310.354L920.76 942.08h-272.2L568.3 307.2h332.308l65.68-226.857 37.232 11.223-63.017 218.317 60.846.47zM529.817 675.84s10.178-81.92-130.97-81.92H174.06c-140.944 0-130.97 81.92-130.97 81.92h486.728zM43.09 860.16s-9.974 81.92 130.97 81.92h224.808c141.149 0 130.97-81.92 130.97-81.92H43.09zm465.613-40.96c23.101 0 41.758-22.815 41.758-51.18 0-28.528-18.657-51.22-41.758-51.22H62.259c-22.999 0-41.779 22.692-41.779 51.22 0 28.365 18.78 51.18 41.78 51.18h446.443z" fill="#fa9596"/></svg>