<svg class="icon" viewBox="0 0 1024 1024" xmlns="http://www.w3.org/2000/svg" width="16" height="16"><defs><style/></defs><path d="M122.88 972.8c0 25.252 15.729 40.96 40.96 40.96 25.293 0 40.96-15.708 40.96-40.96V593.92h40.96V972.8c0 25.21 15.708 40.96 40.96 40.96s40.96-15.708 40.96-40.96V327.68h20.48v231.71c0 49.05 61.563 49.05 61.44 0V310.498c0-54.19-39.035-85.217-102.4-85.217H143.36c-57.754 0-102.4 24.965-102.4 83.702V573.44c0 40.96 61.44 40.96 61.44 0V327.68h20.48V972.8zm15.36-867.84a84.48 84.48 0 1 0 168.96 0 84.48 84.48 0 1 0-168.96 0zm512 0a84.48 84.48 0 1 0 168.96 0 84.48 84.48 0 1 0-168.96 0zM940.298 665.6L819.282 333.066l-.696-3.42c0-4.854 4.075-8.786 9.154-8.786 4.321 0 7.946 2.888 8.909 6.738l82.268 215.122c5.468 12.308 27.955 20.48 42.742 20.48 19.763 0 21.811-38.81 21.381-40.96l-82.268-206.991c-7.148-47.534-55.153-89.969-109.937-89.969H683.622c-54.784 0-106.332 42.435-113.5 89.969L491.54 524.8c-1.781 4.076 0 39.69 21.382 39.69 16.609 0 38.707-6.43 42.72-21.115l79.36-216.35a9.318 9.318 0 0 1 8.643-5.98c5.039 0 9.114 3.85 9.114 8.683l-.553 3.092-117.924 332.821c-.246.983 0 24.576 0 25.58 0 7.086 17.122 25.6 24.535 25.6h76.063v257.945c0 21.3 18.76 39.014 40.96 39.014s40.96-17.735 40.96-39.014v-268.39c0-5.796 40.96-5.612 40.96.184V972.8c0 21.3 18.78 40.96 40.96 40.96 22.241 0 40.96-19.681 40.96-40.96v-256h79.237c7.414 0 21.381-18.514 21.381-25.6 0-1.638.594-24.187 0-25.6z" fill="#3fb9ae"/></svg>