<svg class="icon" viewBox="0 0 1024 1024" xmlns="http://www.w3.org/2000/svg" width="16" height="16"><defs><style/></defs><path d="M847.974 448.266l-50.36-210.247c-8.827-36.68-45.998-59.72-82.882-50.668-32.44 7.926-48.21 30.392-54.6 46.203-7.557 18.657-41.288 103.199-49.173 120.668-2.764 6.062-8.601 9.257-9.79 9.79-6.696 2.97-73.727 31.252-73.727 31.252v.123a38.543 38.543 0 0 0-22.405 34.877c0 21.361 17.49 38.687 39.055 38.687 4.65 0 9.073-.963 13.23-2.437v.143l88.986-36.987c12.206-5.693 18.166-12.902 24.228-23.408 2.54-4.424 10.26-22.938 16.548-38.134l53.698 224.563-.061 347.955c-.103 34.57 23.777 62.751 58.675 62.874 34.939.123 60.19-27.791 60.416-62.423l.348-410.685c-.041-19.313-7.721-65.209-12.186-82.146zM574.341 98.714a78.95 78.234 0 1 0 157.9 0 78.95 78.234 0 1 0-157.9 0zM350.843 759.849v87.654a46.285 46.285 0 0 0 27.71-15.626c7.085-8.335 10.628-18.084 10.628-29.307 0-10.035-2.97-18.698-8.908-25.989-6.021-7.209-15.831-12.78-29.43-16.732zm-54.15-136.13c-5.324 7.167-8.007 15.114-8.007 23.797 0 7.987 2.437 15.32 7.25 22.119 4.874 6.84 12.227 12.37 21.996 16.547V608.42a42.107 42.107 0 0 0-21.238 15.298zm208.282-104.12h.082L382.69 274.103l-.02.226a55.726 55.726 0 0 0-50.279-31.437H219.607c-30.781-.02-55.767 24.72-55.767 55.234v705.393h347.464V547.287a64.635 64.635 0 0 0-6.329-27.689zm-85.033 343.428c-16.588 18.576-39.608 29.962-69.038 34.14v42.046h-32.911v-40.92c-26.173-3.133-47.37-12.82-63.754-28.978-16.302-16.2-26.727-39.035-31.253-68.547l59.187-6.328a73.933 73.933 0 0 0 13.62 31.068c6.615 8.683 14.028 14.97 22.18 18.862v-94.167c-29.615-8.397-51.385-21.115-65.168-38.052-13.865-16.998-20.787-37.622-20.787-61.911 0-24.576 7.803-45.22 23.511-61.952 15.647-16.691 36.454-26.337 62.464-28.856V537.17h32.911v22.262c24.003 2.826 43.152 10.956 57.365 24.35 14.172 13.374 23.245 31.376 27.197 53.842l-57.364 7.414c-3.502-17.654-12.554-29.675-27.198-35.963v87.86c36.27 9.768 60.99 22.384 74.158 37.867 13.128 15.524 19.723 35.41 19.723 59.679 0 27.115-8.274 49.95-24.843 68.546z" fill="#3fb9ae"/></svg>