<svg xmlns="http://www.w3.org/2000/svg" viewBox="0 0 30 30"><path fill="#FFF" d="M13 19.5h3.9v10H13z"/><ellipse fill="#FFF" cx="15.1" cy="11.6" rx="10.9" ry="11.1"/><path fill="#DB5CF0" d="M13.9 19.5h2v9h-2z"/><circle fill="#DB5CF0" cx="15" cy="11.6" r="9.8"/><path d="M14 13.8h-1.1v2.4h-1.3v-2.4H7.8v-.9l3.5-5.5h1.6v5.4H14v1zm-2.4-1.1v-2.3c0-.5 0-1.2.1-1.7-.2.4-.5.9-.7 1.4l-1.7 2.7 2.3-.1zm3.3 2.3l.8-1c.6.6 1.5 1 2.4 1 1.1 0 1.7-.5 1.7-1.2 0-.8-.6-1.1-1.4-1.4l-1.2-.5c-.9-.4-1.8-1-1.8-2.3 0-1.4 1.2-2.4 2.9-2.4 1 0 2 .4 2.7 1.1l-.7.9c-.6-.5-1.2-.8-1.9-.8-.9 0-1.5.4-1.5 1.1 0 .8.7 1 1.4 1.3l1.2.5c1 .4 1.8 1.1 1.8 2.4 0 1.4-1.2 2.6-3.1 2.6-1.3 0-2.5-.5-3.3-1.3z" fill="#FFF"/></svg>