<svg class="icon" viewBox="0 0 1024 1024" xmlns="http://www.w3.org/2000/svg" width="16" height="16"><defs><style/></defs><path d="M515.154 355.267c80.957 0 146.309-65.885 146.309-147.108 0-81.06-65.331-146.719-146.31-146.719-80.854 0-146.493 65.68-146.493 146.719 0 81.203 65.66 147.108 146.494 147.108zM657.51 389.12c66.99 0 95.11 57.221 95.11 57.221l216.207 297.882c8.95 13.291 14.213 29.552 14.213 47.104 0 46.285-37.437 83.906-83.579 83.906a86.63 86.63 0 0 1-31.109-6.041L737.28 832.86v129.7H286.72v-129.7l-131.113 36.393c-9.216 3.605-19.825 6.062-30.904 6.062a83.825 83.825 0 0 1-83.723-83.763c0-17.53 5.182-33.526 14.46-46.858L271.502 446.34s28.099-57.221 94.802-57.221H657.51zM512.123 872.202L681 816.087l-3.666-1.024c-116.838-34.243-72.049-188.99 44.503-154.358l15.442 5.489v-174.51l-225.055 74.199-225.505-74.2v174.51l15.442-5.508c116.49-34.611 161.751 120.115 44.994 154.358l-4.096 1.024 169.063 56.135z" fill="#3fb9ae"/></svg>