<svg class="icon" viewBox="0 0 1024 1024" xmlns="http://www.w3.org/2000/svg" width="16" height="16"><defs><style/></defs><path d="M367.862 919.02a20.623 20.623 0 0 1-1.024 29l-44.483 41.594a20.46 20.46 0 0 1-28.897-1.044L34.406 709.386a20.623 20.623 0 0 1 1.045-29l44.544-41.533a20.439 20.439 0 0 1 28.897 1.045l258.97 279.122zm330.547-525.312a20.623 20.623 0 0 1-1.045 29L417.403 684.236a20.46 20.46 0 0 1-28.897-1.045l-66.827-72.11a20.623 20.623 0 0 1 1.045-29l279.9-261.529a20.419 20.419 0 0 1 28.877 1.044l66.908 72.11zM463.114 829.993c7.66 8.253 7.189 21.3-1.044 29l-44.544 41.574a20.439 20.439 0 0 1-28.898-1.044L129.72 620.339a20.623 20.623 0 0 1 1.024-29l44.462-41.553a20.46 20.46 0 0 1 28.898 1.044l259.01 279.163zm431.37-426.27a20.623 20.623 0 0 1-1.064 28.999l-44.524 41.574a20.48 20.48 0 0 1-28.918-1.024L561.03 194.15a20.603 20.603 0 0 1 1.024-29l44.647-41.676a20.419 20.419 0 0 1 28.876 1.044l258.908 279.204zm95.11-88.884a20.664 20.664 0 0 1-1.045 29.02l-44.441 41.554a20.419 20.419 0 0 1-28.877-1.024L656.323 105.144a20.664 20.664 0 0 1 1.024-29.02l44.482-41.636a20.378 20.378 0 0 1 28.856 1.024L989.594 314.84z" fill="#3fb9ae"/></svg>