<svg class="icon" viewBox="0 0 1024 1024" xmlns="http://www.w3.org/2000/svg" width="16" height="16"><defs><style/></defs><path d="M991.725 54.847L784.17 6.112c-8.475-2.1-14.85 0-23.3 2.135l-243.605 114.38-224.5-95.295c-8.495-4.255-16.965-4.255-25.44 0L23.74 122.627c-12.71 4.235-21.18 16.945-21.18 31.77v662.996c0 10.588 6.374 23.3 14.825 29.655 8.475 6.373 21.204 8.47 31.795 4.234l228.735-91.078 226.64 93.199c4.235 2.116 8.495 2.116 12.71 2.116 4.235 0 10.59-2.116 14.825-4.237l19.065-8.469-31.795-63.526-2.115 2.12-224.5-93.18c-4.26-2.134-8.495-2.134-12.71-2.134-4.235 0-8.495 0-12.71 2.134L72.48 766.577v-588.88l205.435-80.485 226.64 93.196c8.495 4.234 19.085 4.234 27.535 0l247.8-112.261 169.45 38.105v590.975l-33.89-8.45-16.926 33.87c-2.14 6.374-6.355 12.69-8.47 16.966v2.099l-6.374 14.847 91.1 21.18c10.59 2.14 21.18 0 29.65-6.35 8.454-6.381 12.69-16.97 12.69-27.542l2.14-665.11c0-14.845-10.59-29.655-27.535-33.89zm-726.54 133.44v421.53c0 8.45 6.355 14.826 14.85 14.826 8.45 0 14.805-6.376 14.805-14.825V188.287c0-8.47-6.355-14.825-14.805-14.825-8.495 0-14.85 6.355-14.85 14.825zm239.35 80.49v211.79c0 8.495 6.374 14.85 14.825 14.85 8.475 0 14.85-6.355 14.85-14.85v-211.79c0-8.495-6.374-14.825-14.85-14.825-8.45 2.115-14.825 8.47-14.825 14.825zm290.205 144.01v-254.17c0-8.455-6.355-14.83-14.85-14.83-8.45 0-14.805 6.356-14.805 14.83v256.31c0 8.475 6.356 14.83 14.805 14.83 8.495-2.12 14.85-8.474 14.85-16.97zm-97.434 67.78c-91.08 0-165.215 74.16-165.215 165.215 0 29.677 8.475 59.332 23.3 82.63l14.825 31.77 31.774 63.547 95.316 194.844L828.65 753.807l12.71-23.3c6.33-12.666 12.666-25.395 16.921-40.245 4.26-12.704 6.355-27.534 6.355-42.36-2.096-93.174-76.25-167.335-167.33-167.335zm0 213.974c-38.106 0-69.9-31.795-69.9-69.898 0-38.125 31.795-69.915 69.9-69.915 38.124 0 69.92 31.79 69.92 69.915 0 40.243-31.796 69.898-69.92 69.898zm0 0" fill="#999"/></svg>