<svg class="icon" viewBox="0 0 1024 1024" xmlns="http://www.w3.org/2000/svg" width="16" height="16"><defs><style/></defs><path d="M875.055 581.818c-4.655-41.89-27.928-74.473-65.164-93.09l-32.582-153.6c-9.309-55.855-65.164-102.4-125.673-102.4h-256c-60.509 0-116.363 46.545-125.672 102.4l-32.582 153.6c-37.237 18.617-60.51 51.2-65.164 93.09l-9.309 97.746c-4.654 41.89 23.273 79.127 60.51 97.745 9.308 37.236 37.236 60.51 74.472 60.51 32.582 0 60.509-23.274 74.473-51.2h302.545c9.31 32.581 41.891 51.2 74.473 51.2 37.236 0 65.163-23.274 74.473-60.51 37.236-13.964 60.509-55.854 60.509-97.745l-9.31-97.746zm-544.582-102.4L358.4 363.055c4.655-18.619 23.273-32.582 41.89-32.582h251.346c18.619 0 37.237 13.963 41.891 32.582l27.928 116.363c0 9.31 0 13.964-4.655 18.618-4.655 4.655-9.31 9.31-18.618 9.31H353.745c-9.309 0-13.963-4.655-18.618-9.31-4.654 0-9.309-9.309-4.654-18.618 0 4.655 0 0 0 0zm32.582 195.491c-9.31 9.31-23.273 13.964-37.237 13.964-13.963 0-27.927-4.655-37.236-13.964-4.655-9.309-9.31-23.273-9.31-37.236 0-13.964 4.655-27.928 13.964-37.237 9.31-9.309 23.273-13.963 37.237-13.963 13.963 0 27.927 4.654 37.236 13.963 9.31 9.31 13.964 23.273 13.964 37.237-4.655 13.963-9.31 27.927-18.618 37.236zm390.981 0c-9.309 9.31-23.272 13.964-37.236 13.964-13.964 0-27.927-4.655-37.236-13.964-9.31-9.309-13.964-23.273-13.964-37.236 0-13.964 4.655-27.928 13.964-37.237 9.309-9.309 23.272-13.963 37.236-13.963 13.964 0 27.927 4.654 37.236 13.963 9.31 9.31 13.964 23.273 13.964 37.237 0 13.963-4.655 27.927-13.964 37.236z" fill="#999"/></svg>