<svg class="icon" viewBox="0 0 1024 1024" xmlns="http://www.w3.org/2000/svg" width="16" height="16"><defs><style/></defs><path d="M774.82 303.35c6.82 106.598-44.892 181.33-44.892 181.33 6.717-82.105-26.563-195.584-26.563-195.584-28.426-5.57-73.85.41-73.85.41 6.553 88.555-38.483 165.887-71.742 194.354 16.445-98.201-9.728-172.503-9.728-172.503-44.995-11.345-109.486-4.403-109.486-4.403 14.008 104.469-43.623 181.33-43.623 181.33 9.544-72.827-29.368-166.236-29.368-166.236-33.034-2.15-85.668 8.602-85.668 8.602 27.75 49.582 5.591 158.556 5.591 158.556-15.135-89.109-66.007-141.66-66.007-141.66C-72.233 471.777 4.608 642.929 147.251 693.903c134.574 48.005 568.197 71.66 762.204-12.513 194.028-84.214 57.406-320.86-134.635-378.04z" fill="#fa9596"/></svg>