<svg class="icon" viewBox="0 0 1024 1024" xmlns="http://www.w3.org/2000/svg" width="16" height="16"><defs><style/></defs><path d="M1023.202 1023.284l-.307-512.809c0-282.014-228.91-510.495-510.926-510.495C229.954-.02 1.044 228.624 1.044 510.66L5.157 1024l117.627-.286V510.68c0-219.804 169.074-397.964 388.817-397.964 219.784 0 388.817 178.18 388.817 397.985v512.583h122.784zm-343.857-185.69l-1.883-3.439.982-1.269.9-1.268c17.6-7.265 33.582-16.167 47.866-26.808 14.284-10.683 22.633-26.317 27.586-46.986.552-2.394 2.373-7.96 2.373-16.453V314.635a63.03 63.03 0 0 0-7.92-31.842c-6.057-11.051-13.035-20.935-22.305-29.714-8.984-8.697-18.847-14.755-30.123-20.587-11.255-5.77-21.774-7.306-32.149-7.306H359.308c-9.741 0-20.219 1.371-31.515 6.856-11.276 5.464-21.651 11.807-31.024 20.361a111.98 111.98 0 0 0-22.428 28.282 61.904 61.904 0 0 0-8.309 31.269v433.1c0 7.225 1.106 14.899 4.666 22.716 3.663 7.96 7.797 15.389 13.261 22.265 5.484 7.121 11.235 13.526 17.64 19.256 6.385 5.771 12.442 10.478 18.581 14.08 2.968 1.248 8.247 3.151 15.9 5.545 7.552 2.436 11.031 3.888 10.458 5.034l-124.933 189.334h72.873L385.706 900.5h251.749l91.106 122.784h73.793l-123.01-185.69zM409.28 266.113c0-11.255 9.209-20.464 20.464-20.464h163.712c11.255 0 20.464 9.21 20.464 20.464v20.464c0 11.256-9.209 20.464-20.464 20.464H429.745c-11.255 0-20.464-9.208-20.464-20.464v-20.464zm-80.547 99.967c2.722-5.77 4.85-11.01 9.086-15.941 4.318-4.87 8.636-11.87 14.387-14.919 5.75-3.07 11.05-7.715 17.128-7.715h283.57c5.464 0 10.887 4.4 16.392 6.713 5.484 2.455 10.477 7.428 15.082 11.644 4.543 4.236 6.344 9.659 9.168 14.509 2.68 4.747 2.23 10.764 2.23 16.228v96.672c0 5.525.266 10.662-2.721 15.86-3.03 5.32-6.099 9.904-11.01 13.854-4.891 3.867-9.536 4.87-15 7.223-5.485 2.579-10.519 1.474-15.921 1.474H371.156c-.675 0-2.19 1.903-4.604 1.412l-5.525-.798c-10.294-1.801-16.617-6.733-24.557-15.86-7.879-9.188-9.045-18.56-9.045-29.53v-82.96c0-6.079-1.392-12.054 1.31-17.866zm77.498 394.445c-9.393 9.72-21.16 14.57-35.076 14.57-13.977 0-25.396-4.85-34.236-14.57-8.84-9.7-13.22-21.651-13.22-35.587 0-12.77 4.605-23.841 13.69-33.234a45.041 45.041 0 0 1 33.766-14.182c13.916 0 25.662 4.482 35.076 13.159 9.434 8.963 14.16 20.505 14.16 35.218 0 13.384-4.726 24.946-14.16 34.626zm208.794 0c-9.372-9.7-14.1-21.651-14.1-35.587 0-14.039 4.973-25.314 15.021-34.278a52.347 52.347 0 0 1 35.198-13.158c13.875 0 25.294 4.727 34.093 14.181 8.861 9.393 13.281 20.465 13.281 33.234 0 13.957-4.522 25.908-13.73 35.587-9.087 9.72-20.65 14.57-34.647 14.57-13.976.02-25.641-4.83-35.116-14.55z" fill="#69a6f5"/></svg>