<svg class="icon" viewBox="0 0 1024 1024" xmlns="http://www.w3.org/2000/svg" width="18" height="18"><defs><style/></defs><path d="M514.676 302.371c-114.94 0-208.352 93.534-208.352 208.352 0 114.94 93.533 208.351 208.352 208.351s208.473-93.29 208.473-208.23c0-114.94-93.533-208.473-208.473-208.473zm0 357.348c-82.1 0-148.875-66.774-148.875-148.874S432.576 361.97 514.676 361.97 663.55 428.745 663.55 510.845s-66.775 148.874-148.875 148.874z" fill="#19ac9e"/><path d="M979.423 482.018h-75.41c-6.934-93.898-46.95-181.35-114.21-248.61-67.262-67.262-154.714-107.278-248.612-114.21V44.272c0-16.42-13.38-29.8-29.8-29.8s-29.798 13.38-29.798 29.8v74.924c-93.899 6.933-181.35 46.95-248.611 114.21C165.72 300.668 125.704 388 118.772 482.018H44.576c-16.42 0-29.799 13.38-29.799 29.8s13.38 29.799 29.8 29.799h74.193c6.933 93.898 46.95 181.35 114.21 248.61 67.262 67.262 154.713 107.278 248.612 114.211v76.627c0 16.42 13.379 29.799 29.799 29.799s29.8-13.38 29.8-29.8v-76.626c93.897-6.933 181.349-46.949 248.61-114.21 67.261-67.261 107.277-154.713 114.21-248.611h75.41c16.42 0 29.8-13.38 29.8-29.8 0-16.541-13.38-29.799-29.8-29.799zM747.718 748.144c-63.126 63.126-147.05 97.912-236.326 97.912s-173.2-34.786-236.327-97.912c-63.125-63.126-97.911-147.05-97.911-236.326s34.786-173.201 97.911-236.327c63.126-63.126 147.05-97.912 236.327-97.912s173.2 34.786 236.326 97.912c63.126 63.126 97.912 147.05 97.912 236.327s-34.786 173.2-97.912 236.326z" fill="#19ac9e"/></svg>