<svg class="icon" viewBox="0 0 1024 1024" xmlns="http://www.w3.org/2000/svg" width="16" height="16"><defs><style/></defs><path d="M370.688 502.64L182.19 396.35l65.516-114.893 188.538 106.23zm376.218 98.06L428.4 421.294l-32.748 57.508 318.464 179.425zm38.666 21.811l-32.85 57.467 164.25 92.447 32.85-57.406zm-44.237 57.467c-2.519 4.485-9.4 5.55-15.38 2.273-5.96-3.358-8.602-9.728-6.063-14.274l38.4-67.277c2.642-4.567 9.524-5.673 15.442-2.273 5.878 3.358 8.54 9.871 6.001 14.438l-38.4 67.113zm242.32 36.843a40.55 40.55 0 0 0-20.706-5.079l-42.004 73.565c3.379 6.164 8.417 11.55 15.052 15.155 18.514 10.486 41.8 4.444 51.979-13.353l10.772-19.047c10.2-17.92 3.482-40.755-15.094-51.24zM454.471 365.548a18.412 18.412 0 0 1-25.088 7.004l-164.987-93.02a18.268 18.268 0 0 1-6.943-25.048 18.514 18.514 0 0 1 25.19-6.84l164.946 92.897a18.227 18.227 0 0 1 6.882 25.007zm23.122-40.387a18.473 18.473 0 0 1-25.13 6.963l-165.048-93a18.125 18.125 0 0 1-6.901-24.924 18.432 18.432 0 0 1 25.19-6.983l164.987 92.917a18.248 18.248 0 0 1 6.902 25.027zM338.166 569.774a18.575 18.575 0 0 1-25.17 6.84l-165.11-93.02a18.31 18.31 0 0 1-6.922-25.047 18.637 18.637 0 0 1 25.17-6.84l165.028 93.02a18.391 18.391 0 0 1 7.004 25.047zm23.06-40.53a18.473 18.473 0 0 1-25.272 6.861l-164.987-92.918a18.432 18.432 0 0 1-6.943-25.047 18.473 18.473 0 0 1 25.211-6.86l164.967 92.917a18.391 18.391 0 0 1 7.024 25.047zM84.357 694.702h290.898v33.444H84.357zm354.427 69.755a23.593 23.593 0 0 0-23.245-19.722H44.155a23.552 23.552 0 0 0-23.245 19.722h-.43v54.763h418.734v-54.763h-.43z" fill="#ffad7f"/></svg>