<svg xmlns="http://www.w3.org/2000/svg" viewBox="0 0 30 30"><path fill="#FFF" d="M13 19.5h3.9v10H13z"/><ellipse fill="#FFF" cx="15.1" cy="11.6" rx="10.9" ry="11.1"/><path fill="#526DFE" d="M13.9 19.5h2v9h-2z"/><circle fill="#526DFE" cx="15" cy="11.6" r="9.8"/><path fill="#FFF" d="M11.1 8.8l.7-.4c.5.7.9 1.5 1.4 2.3.4-.8.7-1.6 1-2.4l.8.2c-.4 1.1-.8 2-1.3 3 .4.8.9 1.5 1.3 2.3l-.8.4c-.3-.6-.7-1.2-1-1.9-.5.9-1 1.8-1.6 2.6l-.6-.3V17h-.9V6.3h10v9.4c0 .8-.4 1.3-1.3 1.3H17c0-.3-.1-.6-.2-.9.7.1 1.2.1 1.7.1s.8-.2.8-.6V7.1H11v7.4c.7-1 1.3-2 1.8-3-.6-.9-1.1-1.8-1.7-2.7zm3.9.5l.7-.4c.4.6.8 1.3 1.2 2 .4-.9.8-1.8 1.1-2.6l.8.3c-.4 1.1-.9 2.2-1.4 3.2.5.8 1 1.7 1.5 2.7l-.8.4c-.4-.7-.8-1.5-1.2-2.3-.5.9-1 1.7-1.5 2.5l-.7-.5c.7-1 1.3-1.9 1.8-2.9-.5-.7-1-1.5-1.5-2.4z"/></svg>