<svg xmlns="http://www.w3.org/2000/svg" viewBox="0 0 30 30"><path fill="#999" d="M15 8.8c-3.3 0-6.2 2.7-6.2 6.2 0 3.3 2.7 6.2 6.2 6.2s6.2-2.8 6.2-6.2-2.7-6.2-6.2-6.2zm0 10.5c-2.3 0-4.3-2-4.3-4.3s2-4.3 4.3-4.3 4.3 2 4.3 4.3-1.8 4.3-4.3 4.3z"/><path fill="#999" d="M28.7 14.2h-2.2c-.2-2.8-1.3-5.3-3.3-7.3s-4.5-3.2-7.3-3.3V1.3c0-.5-.3-.8-.8-.8s-.8.3-.8.8v2.2C11.5 3.7 9 4.8 7 6.8s-3.2 4.5-3.3 7.3H1.3c-.5 0-.8.3-.8.8s.3.8.8.8h2.2c.2 2.8 1.3 5.3 3.3 7.3s4.5 3.2 7.3 3.3v2.2c0 .5.3.8.8.8s.8-.3.8-.8v-2.2C18.5 26.1 21 25 23 23s3.2-4.5 3.3-7.3h2.2c.5 0 .8-.3.8-.8.2-.4-.1-.7-.6-.7zM21.8 22c-1.8 1.8-4.2 2.8-6.8 2.8s-5-1-7-2.8-2.8-4.3-2.8-7 1-5 2.8-7 4.3-2.8 7-2.8 5 1 7 2.8 2.8 4.3 2.8 7-1 5-3 7z"/></svg>