<svg class="icon" viewBox="0 0 1024 1024" xmlns="http://www.w3.org/2000/svg" width="12" height="12"><defs><style/></defs><path d="M776.304 327.96l71.973 71.947c0 30.951-25.12 56.048-56.044 56.048h-168.14c-30.98 0-56.048-25.097-56.048-56.048v-168.14c0-30.95 25.068-56.048 56.047-56.048l71.973 71.975L880.46 63.272l80.24 80.266L776.304 327.96zM399.906 848.278l-71.974-71.973-184.395 184.423-80.238-80.266 184.395-184.396-71.973-71.973c0-30.953 25.067-56.048 56.046-56.048h168.14c30.978 0 56.047 25.094 56.047 56.048v168.138c-.001 30.953-25.069 56.047-56.048 56.047z" fill="#999"/></svg>