<svg class="icon" viewBox="0 0 1024 1024" xmlns="http://www.w3.org/2000/svg" width="16" height="16"><defs><style/></defs><path d="M523.817 183.05c47.043 3.461 88.187-30.064 91.914-74.71 3.769-44.872-31.334-84.133-78.377-87.594-47.104-3.42-88.248 29.901-91.894 74.773-3.665 44.85 31.458 84.03 78.357 87.531zm352.379 656.63L847.77 593.92h-46.121c.43-20.48.368-22.753-1.045-35.185-1.372-12.718-5.407-22.016-11.98-24.944 5.386-5.735 8.97-13.026 9.666-21.238a36.045 36.045 0 0 0-15.155-32.256l-117.392-77.169-86.425-162.734c-14.316-21.299-38.564-38.482-67.83-40.94-22.487-1.556-43.172 5.878-59.904 16.938l-171.5 132.751a33.956 33.956 0 0 0-11.816 17.715L228.31 527.647l-3.031 4.772v.061h-.328c-6.697 0-12.8 6.39-15.134 14.848-2.253 8.294-5.018 19.251-5.018 28.119v18.473h-44.524L131.85 839.68h114.873l-50.36 80.589c-3.278 6.246-7.128 15.073-7.804 23.593-2.478 30.515 21.28 57.037 53.125 59.474 22.754 1.515 42.333-9.462 54.232-26.993l84.992-136.663h11.12l-1.74-15.094 23.572-37.929c2.56-5.079 10.69-17.51 11.592-23.408l28.794-125.133 122.9 128.47 38.585 193.148c6.165 22.835 25.866 41.677 52.08 43.602 31.888 2.416 59.802-20.091 62.342-50.545l-.348-11.223-20.153-101.888h166.544zM224.399 573.235c1.147-9.687 4.772-15.196 11.162-15.196l2.396-.04c6.451 7.802 16.036 13.147 27.095 14.048a38.994 38.994 0 0 0 31.806-12.963 13.865 13.865 0 0 1 4.034 6.676c1.7 5.878 2.683 12.616 2.683 18.166 0 3.318-.164 9.994-.39 9.994h-79.38c-.266 0-.184-13.169.594-20.685zM341.77 593.92h-24.269c.512-20.48.37-22.753-.962-35.185-1.147-10.65-4.158-18.882-8.93-23.101l30.29-131.932 59.74-46.224L341.77 593.92zm445.604 0h-79.442c-.328 0-.225-13.169.594-20.685 1.065-9.687 4.751-15.196 11.162-15.196 9.195 0 17.53-.287 24.924-.45 7.434-.267 17.572-.635 30.33-.635 4.895 0 8.213 2.908 10.056 8.826 1.762 5.878 2.704 12.616 2.704 18.166l-.328 9.974zm-256.942-46.756l38.502-162.53 32.38 61.093c2.56 4.198 5.59 7.66 9.584 10.916l115.65 75.837H709.08c-6.697 0-9.155 6.39-11.469 14.848-2.191 8.294-1.29 19.251-1.29 28.119v18.473h-51.855l-8.377 72.294-105.656-119.05z" fill="#a1ace7"/></svg>