<svg class="icon" viewBox="0 0 1024 1024" xmlns="http://www.w3.org/2000/svg" width="16" height="16"><defs><style/></defs><path d="M710.287 528.404c-29.45-23.224-73.646-41.779-132.587-55.644l-45.22-10.67V268.964l6.124 2.498c38.379 19.436 59.002 56.218 61.829 97.178H754.36c-2.805-81.92-33.075-142.5-90.808-185.303-38.359-28.447-82.104-46.735-131.072-55.951V20.48H389.12v103.629c-66.294 8.192-118.866 29.532-157.47 64.225-50.545 45.425-75.797 102.441-75.797 171.09 0 75.223 25.825 130.519 77.476 165.888 28.917 20.05 81.039 38.666 155.791 55.91v209.224c-27.259-7.516-48.62-19.886-63.672-37.765-14.52-17.367-24.249-35.881-29.205-76.841H143.36c0 81.92 28.897 140.698 86.712 186.286 41.739 32.891 94.864 52.88 159.048 61.542v79.852h143.36v-78.5c68.26-8.171 123.372-29.962 165.11-65.618 54.128-46.285 81.203-104.448 81.203-174.469 0-68.3-22.835-120.463-68.506-156.529zM341.361 409.272c-24.884-13.516-37.315-34.037-37.315-61.44 0-29.819 12.616-53.186 37.847-69.816 13.312-8.786 29.164-15.176 47.227-19.395V427.05c-22.22-6.472-38.257-12.41-47.76-17.777zm214.528 376.976a199.475 199.475 0 0 1-23.409 6.267V614.4c24.678 7.311 44.155 15.278 58.327 23.839 22.364 13.865 33.567 33.587 33.567 58.88-.02 43.335-22.856 73.175-68.485 89.129z" fill="#3fb9ae"/></svg>