<svg class="icon" viewBox="0 0 1024 1024" xmlns="http://www.w3.org/2000/svg" width="16" height="16"><defs><style/></defs><path d="M984.044 743.629c10.71 3.46 19.476-2.908 19.476-14.172V657.9c0-11.264-7.926-25.19-17.592-30.966l-374.416-223.13c-9.666-5.755-17.592-19.702-17.592-30.945V122.88c0-11.264-3.44-29.02-7.66-39.485 0 0-22.343-55.46-61.44-61.645a73.073 73.073 0 0 0-12.677-1.27h-.204a75.612 75.612 0 0 0-14.603 1.475l-4.423.983-6.718 2.089c-32.522 10.854-49.275 58.06-49.275 58.06a142.91 142.91 0 0 0-6.84 39.793v249.979c0 11.264-7.926 25.19-17.592 30.966L38.072 626.934c-9.666 5.775-17.592 19.702-17.592 30.966v71.557c0 11.264 8.765 17.633 19.476 14.151l370.648-120.32c10.71-3.46 19.476 2.908 19.476 14.172v195.236c0 11.264-7.373 26.03-16.384 32.789l-49.152 36.905c-9.011 6.758-16.384 21.524-16.384 32.788v47.862c0 11.264 8.868 17.94 19.681 14.828l124.416-35.738c10.814-3.113 28.55-3.113 39.363 0l124.539 35.738c10.813 3.112 19.681-3.564 19.681-14.828v-47.882c0-11.264-7.373-26.03-16.384-32.789l-49.152-36.905c-8.99-6.758-16.384-21.524-16.384-32.788V637.44c0-11.264 8.765-17.633 19.476-14.152l370.648 120.34z" fill="#69a6f5"/></svg>