<svg xmlns="http://www.w3.org/2000/svg" viewBox="0 0 30 30"><path fill="#FFF" d="M13 19.5h3.9v10H13z"/><ellipse fill="#FFF" cx="15.1" cy="11.6" rx="10.9" ry="11.1"/><path fill="#14B5C7" d="M13.9 19.5h2v9h-2z"/><circle fill="#14B5C7" cx="15" cy="11.6" r="9.8"/><path fill="#FFF" d="M9.9 6.9h4.6v.9h-1.3v1.3h1.1v8h-.8v-.6h-2.6v.8h-.8V9.1h1.1V7.8H9.9v-.9zm3.2 5.8c-.4 0-.6-.1-.6-.7v-2H12v.9c0 .7-.1 1.6-.7 2.2l-.3-.3v.9h2.6v-1.1h-.5zM10.9 10v2.7c.4-.6.5-1.2.5-1.8V10h-.5zm2.6 5.6v-1h-2.6v1h2.6zm-1-7.8H12v1.3h.5V7.8zm1 2.2H13v1.9c0 .1 0 .2.1.2h.5V10zm7.3 5.2h-2.4v1.1c0 .5-.1.8-.5 1-.4.2-1 .1-1.8.1 0-.3-.2-.7-.3-1h1.3c.2 0 .2 0 .2-.2v-1h-2.7v-.9h2.7v-.5c.4-.2.8-.4 1.2-.7H15v-.9h4.5l.2-.1.6.5c-.6.5-1.3 1-2 1.4v.3h2.4v.9zm-.1-6.8h-6v-.9h2.5c-.1-.3-.3-.6-.4-.8l.9-.4c.3.4.5.8.6 1.2h2.4v.9zm-5.4 3.2V9h4.8v2.6h-4.8zm1-.8h2.8v-1h-2.8v1z"/></svg>