<svg class="icon" viewBox="0 0 1024 1024" xmlns="http://www.w3.org/2000/svg" width="16" height="16"><defs><style/></defs><path d="M871.629 350.372c5.693-67.707 26.112-129.864 62.054-186.86L795.771 30.72c-43.561 36.106-93.205 56.115-149.402 59.638-51.527 4.485-100.352-4.936-146.309-28.324-47.227 22.61-95.867 32.092-146.555 28.324a271.36 271.36 0 0 1-142.192-54.15L73.053 168.96c34.016 57.795 52.96 118.272 56.667 181.412 1.762 29.061-6.84 69.12-26.194 120.832a861.716 861.716 0 0 0-22.999 74.342c-4.833 20.665-7.843 37.417-8.867 50.012-.697 55.112 15.36 104.878 48.291 149.136 25.744 32.297 68.199 67.973 127.14 106.987 64.471 31.6 114.381 52.101 149.34 60.846l29 13.005c9.114 4.178 18.883 8.295 29.061 12.76 22.016 12.697 37.438 26.439 45.568 40.632 9.994-15.381 25.784-28.754 46.756-40.633a1017.446 1017.446 0 0 0 37.396-16.322l21.894-9.421c7.475-3.543 17.244-7.64 29.122-12.165a1719.01 1719.01 0 0 1 44.319-16.2c34.058-11.592 58.86-22.59 74.609-32.502 57.18-38.994 98.98-74.117 125.583-105.472 34.1-44.4 50.688-94.413 49.93-150.61-2.027-25.19-13.107-65.454-33.218-120.32-19.129-53.473-27.587-94.965-24.822-124.907z" fill="#297ae8"/></svg>