<svg class="icon" viewBox="0 0 1024 1024" xmlns="http://www.w3.org/2000/svg" width="16" height="16"><defs><style/></defs><path d="M972.698 441.856C968.09 192.86 823.644 93.921 817.725 90.01l-22.343-15.278-22.508 15.237c-37.396 25.374-76.165 38.256-115.22 38.256-64.676 0-108.585-34.816-110.449-36.331l-25.19-20.214-25.006 20.275c-1.844 1.475-45.732 36.27-110.429 36.27-39.014 0-77.762-12.861-115.22-38.318l-22.405-15.114-22.57 15.258c-15.318 10.526-149.79 109.854-154.664 350.576-1.946 20.972 55.89 417.26 450.499 532.173 429.015-125.379 452.69-504.791 450.478-530.944z" fill="#297ae8"/></svg>