<svg class="icon" viewBox="0 0 1036 1024" xmlns="http://www.w3.org/2000/svg" width="14.164" height="14"><defs><style/></defs><path d="M991.217 92.308H27.94c-15.973 0-28.899 12.926-28.899 28.899v19.265c0 15.955 12.926 28.898 28.9 28.898h963.277c15.972 0 28.898-12.943 28.898-28.898v-19.265c0-15.973-12.926-28.899-28.898-28.899zm0 770.625H27.94c-15.973 0-28.899 12.923-28.899 28.897v19.267c0 15.952 12.926 28.897 28.9 28.897h963.277c15.972 0 28.898-12.945 28.898-28.897V891.83c0-15.975-12.926-28.897-28.898-28.897zm0-385.313H27.94c-15.973 0-28.899 12.925-28.899 28.898v19.267c0 15.953 12.926 28.897 28.9 28.897h963.277c15.972 0 28.898-12.944 28.898-28.897v-19.267c0-15.973-12.926-28.898-28.898-28.898z" fill="#999"/></svg>