<svg class="icon" viewBox="0 0 1025 1024" xmlns="http://www.w3.org/2000/svg" width="12.012" height="12"><defs><style/></defs><path d="M899.322 21.391L512 408.714 124.677 21.391c-28.52-28.521-74.763-28.521-103.286 0-28.522 28.521-28.52 74.764 0 103.286L408.714 512 21.391 899.322c-28.52 28.521-28.52 74.765 0 103.287 28.521 28.521 74.765 28.521 103.286 0L512 615.286l387.322 387.323c28.521 28.521 74.765 28.521 103.287 0 28.521-28.521 28.521-74.766 0-103.287L615.286 512l387.323-387.323c28.521-28.521 28.521-74.764 0-103.286-28.52-28.521-74.764-28.521-103.287 0z" fill="#999"/></svg>