<svg class="icon" viewBox="0 0 1024 1024" xmlns="http://www.w3.org/2000/svg" width="18" height="18"><defs><style/></defs><path d="M947.295 563.502c-6.105-46.52-37.02-86.04-80.701-103.168l-40.407-170.232C806.158 221.273 742.2 174.63 670.542 176.596H353.495c-71.665-1.986-135.633 44.665-155.645 113.506L157.5 460.334c-43.681 17.128-74.596 56.649-80.701 103.168l-11.57 108.365c-1.308 48.584 29.019 92.41 74.945 108.31 11.098 41.239 49.447 69.161 92.102 67.064a108.867 108.867 0 0 0 92.213-56.725h374.443c15.66 36.708 52.847 59.474 92.661 56.725 42.696 2.153 81.106-25.782 92.213-67.065 45.333-16.682 75.333-60.005 75-108.31l-11.51-108.364zm-674.5-113.507l34.593-128.931c7.875-21.822 28.665-36.294 51.863-36.103h311.29c23.199-.192 43.99 14.281 51.864 36.103l34.65 128.93a23.081 23.081 0 0 1-5.589 20.623 31.185 31.185 0 0 1-23.081 10.34H301.576a31.188 31.188 0 0 1-23.082-10.34 13.246 13.246 0 0 1-5.589-20.622h-.11zm40.35 216.675a70.017 70.017 0 0 1-46.107 15.48 70.027 70.027 0 0 1-45.939-15.48 89.42 89.42 0 0 1-11.513-41.245 55.22 55.22 0 0 1 17.101-41.3 70.018 70.018 0 0 1 46.107-15.48 70.03 70.03 0 0 1 46.106 15.48 55.216 55.216 0 0 1 17.27 41.244 99.988 99.988 0 0 1-23.082 41.245l.056.056zm484.26 0c-27.277 20.622-64.935 20.622-92.213 0a57.904 57.904 0 0 1 0-82.546c27.278-20.622 64.936-20.622 92.213 0a57.899 57.899 0 0 1 0 82.546z" fill="#999"/></svg>