<svg id="图层_1" xmlns="http://www.w3.org/2000/svg" viewBox="-286 410 22 21.9"><style>.st0{fill:#7b7b7b}</style><path class="st0" d="M-279.9 421.2c0-.4.3-.8.8-.8.4 0 .8.4.8.8 0 .5-.3.8-.8.8-.5-.1-.8-.4-.8-.8zm4.1 0c0-.4.3-.8.8-.8.4 0 .8.4.8.8 0 .5-.3.8-.8.8-.5-.1-.8-.4-.8-.8zm4.1 0c0-.4.3-.8.8-.8.4 0 .8.4.8.8 0 .5-.3.8-.8.8-.5-.1-.8-.4-.8-.8z"/><path class="st0" d="M-275.1 431.8c-6 0-10.9-4.9-10.9-10.9s4.9-10.9 10.9-10.9 10.9 4.9 10.9 10.9-4.8 10.9-10.9 10.9zm0-20.8c-5.4 0-9.8 4.4-9.8 9.8s4.4 9.8 9.8 9.8 9.8-4.4 9.8-9.8c.1-5.3-4.4-9.8-9.8-9.8z"/></svg>