<svg class="icon" viewBox="0 0 1024 1024" xmlns="http://www.w3.org/2000/svg" width="18" height="18"><defs><style/></defs><path d="M881.682 253.923c-9.087-14.537-19.247-27.998-29.842-41.025l40.505-40.505-40.74-40.739-37.915 37.915c-3.428-3.027-6.548-5.61-9.126-8.186-9.256-9.255-27.762-9.255-37.015 3.084-9.25 9.255-9.25 27.762 3.088 37.014 1.191 1.193 3.313 2.854 5.992 5.147L585.557 397.703V149.045c0-67.862-52.439-92.537-101.788-49.352L274.005 278.598H169.13c-55.519 0-104.875 46.27-104.875 104.879v262.19c0 58.61 46.275 104.874 104.875 104.874h63.589L131.654 851.605l40.74 40.74L290.987 773.75l192.782 152.615c52.43 40.102 101.788 15.43 101.788-49.352V479.182L699.73 365.008c2.04 2.044 4.08 4.087 6.126 6.13 9.254 9.255 18.51 21.592 24.678 33.93 55.518 83.285 55.518 172.744-37.015 268.364-9.256 9.254-9.256 27.764 0 37.015 9.248 9.254 27.759 9.254 37.015 0 107.963-117.219 107.963-234.43 43.184-336.222-12.497-20-27.021-35.946-37.007-46.2l77.674-77.673c8.036 10.381 16.071 21.557 24.105 34.415 101.796 154.231 101.796 323.89-67.854 499.714-9.256 9.25-9.256 27.76 0 37.009 9.254 9.256 27.76 9.256 37.007 0 188.174-197.415 188.174-394.83 74.04-567.567zM270.924 698.111H169.129c-27.76 0-52.438-24.68-52.438-52.445v-262.19c0-27.761 24.678-52.44 52.438-52.44h114.13c6.174 0 12.343-3.084 15.43-6.168l215.925-185.08c15.423-12.338 15.423-12.338 15.423 6.172l-.002 307.263L282.09 701.17c-3.16-1.755-7.158-3.058-11.166-3.058zm259.11 175.823c0 21.592 0 21.592-15.425 9.249l-186.713-146.34 202.14-202.14-.003 339.231z" fill="#999"/></svg>