<svg class="icon" width="18" height="18" viewBox="0 0 1024 1024" xmlns="http://www.w3.org/2000/svg"><path d="M791.245 1024H232.748c-76.89 0-139.445-62.535-139.445-139.403V139.402C93.303 62.536 155.857 0 232.748 0c4.336.009 430.454.89 434.388.89 4.083 0 7.997 1.613 10.879 4.484L926.236 252.88a15.138 15.138 0 0 1 4.46 10.72v620.998C930.695 961.464 868.139 1024 791.247 1024zM232.715 30.408c-59.944 0-108.738 48.894-108.738 108.995v745.195c0 60.1 48.793 108.995 108.77 108.995h558.497c59.979 0 108.775-48.894 108.775-108.995V269.87L660.745 31.286c-52.646-.102-411.667-.845-428.03-.878z" fill="#a7a7a7"/><path d="M834.142 302.029H641.631c-8.47 0-15.336-6.807-15.336-15.204V117.187c0-8.396 6.866-15.204 15.336-15.204s15.337 6.808 15.337 15.204V271.62h177.174c8.471 0 15.338 6.808 15.338 15.204 0 8.397-6.867 15.204-15.338 15.204zM711.389 519.326H317.314c-.92 0-1.843.014-2.764 0-1.614-.024-3.076-.017-4.736.282-2.655.476-6.1 1.06-8.138 2.858-2.03 1.789-3.28 2.775-4.725 5.082-.573.916-2.308 6.416-2.134 7.835.14 1.132.245 2.227.564 3.331a15.197 15.197 0 0 0 3.11 5.718c2.907 3.354 7.203 5.303 11.64 5.303h401.26c8.471 0 15.338-6.807 15.338-15.205-.003-8.396-6.87-15.204-15.34-15.204zm0 189.079H317.314c-.92 0-1.843.014-2.764 0-1.614-.024-3.076-.017-4.736.282-2.655.476-6.1 1.06-8.138 2.858-2.03 1.789-3.28 2.775-4.725 5.082-.573.916-2.308 6.416-2.134 7.835.14 1.132.245 2.227.564 3.331a15.197 15.197 0 0 0 3.11 5.718c2.907 3.354 7.203 5.303 11.64 5.303h401.26c8.471 0 15.338-6.807 15.338-15.205-.003-8.396-6.87-15.204-15.34-15.204z" fill="#a7a7a7"/></svg>