<svg xmlns="http://www.w3.org/2000/svg" viewBox="0 0 30 30"><path fill="#19AC9E" d="M2.2 11.9c.2.2.4.4.6.4l.7.9.8-.2 7.9-1.1 1.1-.2.6-1.1c.4-.9.9-1.5 1.5-2.2.7-.7 1.5-1.1 2.3-1.7.6-.2.9-.6 1.5-.6v17.1c-.9-.2-1.9-.8-2.6-1.1-1.1-.9-2.1-1.9-2.6-3.4l-.6-.9-1.1-.2-7.9-1.1-.9.2-.7.9-.4.4-.2-6.1M.4 9.5c-.2.2-.4.5-.4.7v9.4c0 .8.6 1.1 1.1 1.1 1.1-.2 2.1-.9 2.8-1.5l.2-.2 7.9 1.1c1.7 3.4 4.7 5.6 8.3 5.8.4 0 .8-.2.8-.4s.4-.6.4-.8V16H29c.4 0 .6-.2.8-.4.4-.2.4-.4.4-.8 0-.6-.6-1.1-.9-1.1h-7.5V5.2C21.6 4.4 21 4 20.4 4c-2.4.4-4.7 1.3-6.4 3.2-.7 1-1.4 1.7-2 2.8l-7.9 1.1c-.7-.9-1.9-1.3-2.8-1.7-.4-.1-.7-.1-.9.1z"/></svg>