<svg xmlns="http://www.w3.org/2000/svg" viewBox="0 0 20 20"><path fill="#E49421" stroke="#E49421" stroke-width=".75" stroke-miterlimit="10" d="M15.1 6.7c-1.1-2-3.2-3.2-5.5-3.2-1.6 0-3 .6-4.2 1.5-1.1 1-1.8 2.2-2.1 3.5-1.7.4-2.9 2.1-2.9 3.7 0 1.9 1.4 3.6 3.3 3.8h11.1c2.6 0 4.8-2.1 4.8-4.7 0-2.5-2.1-4.4-4.5-4.6zm-.4 8.4H4.3c-1.5 0-2.8-1.3-2.8-2.9 0-1.3 1-2.5 2.2-2.8l.4-.1V9C4.3 7.8 5 6.6 6 5.8s2.2-1.3 3.5-1.3c1.7 0 3.3.8 4.3 2.2-1.2.3-2.2.8-3 1.8-.3.3-.1.6.1.7.3.1.6.1.7-.1.7-1 1.8-1.4 3-1.4 2.1 0 3.7 1.7 3.7 3.7s-1.5 3.7-3.6 3.7z"/></svg>