<svg id="图层_1" xmlns="http://www.w3.org/2000/svg" viewBox="-286 409.9 22 22"><style>.st0{fill:#7b7b7b}</style><path class="st0" d="M-267.6 420.8c-.2.2-3.7 4.2-7.7 4.2-3.9 0-7.6-4.1-7.7-4.3l-.3-.3.3-.3c.2-.2 3.9-4.2 7.7-4.2 3.9 0 7.6 4.1 7.7 4.3l.2.3-.2.3zm-7.7-3.9c-2.8 0-5.8 2.7-6.7 3.6.9.9 3.8 3.6 6.6 3.6 3.1 0 5.8-2.7 6.7-3.6-.9-.8-3.8-3.6-6.6-3.6zm.2 6.3c-.8 0-1.5-.3-2-.8s-.8-1.2-.8-1.9c0-1.4 1.3-2.6 2.9-2.6 1.6 0 2.9 1.2 2.9 2.6-.1 1.5-1.5 2.7-3 2.7zm0-4.4c-1 0-1.9.8-1.9 1.7 0 .5.2.9.5 1.2.4.3.8.5 1.3.5 1 0 1.9-.8 1.9-1.7.1-.9-.8-1.7-1.8-1.7z"/><path class="st0" d="M-267.5 430.2c1 0 1.8-.8 1.8-1.8v-15.6c0-1-.8-1.8-1.8-1.8h-15.6c-1 0-1.8.8-1.8 1.8v15.6c0 1 .8 1.8 1.8 1.8h15.6m0 1h-15.6c-1.6 0-2.8-1.3-2.8-2.8v-15.6c0-1.6 1.3-2.8 2.8-2.8h15.6c1.6 0 2.8 1.3 2.8 2.8v15.6c0 1.5-1.3 2.8-2.8 2.8z"/></svg>