<svg id="图层_1" xmlns="http://www.w3.org/2000/svg" viewBox="-286 409.9 22 22"><style>.st0{fill:#7b7b7b}</style><path class="st0" d="M-280.2 429.8h-3.2c.3-4.4 4-7.9 8.5-7.9 1.1 0 2.1.2 3 .5l1-1s-.1 0-.1-.1c-.3-.1-.6-.2-.8-.3.5-.3.9-.6 1.3-1 1.1-1.1 1.8-2.6 1.8-4.2s-.6-3.1-1.8-4.2c-1.1-1.1-2.6-1.8-4.2-1.8s-3.1.6-4.2 1.8c-1.1 1.1-1.8 2.6-1.8 4.2s.6 3.1 1.8 4.2c.4.4.8.7 1.3 1-.3.1-.6.2-.8.3-1.2.5-2.2 1.2-3.1 2.1-.9.9-1.6 2-2.1 3.1-.5 1.2-.8 2.5-.8 3.8 0 .3.3.6.6.6h3.8c.3 0 .6-.3.6-.6s-.4-.5-.8-.5zm.6-13.9c0-2.6 2.1-4.7 4.7-4.7s4.7 2.1 4.7 4.7-2.1 4.7-4.7 4.7c-2.5 0-4.7-2.1-4.7-4.7zm13.8 10.7c-.4-1.1-1.1-2-1.8-2.8l-.9.9c1.3 1.4 2.1 3.2 2.2 5.2h-3.2c-.3 0-.6.3-.6.6s.3.6.6.6h3.8c.3 0 .6-.3.6-.6.1-1.4-.2-2.7-.7-3.9zm-2.2-5.2c-.2-.2-.6-.2-.9 0l-6 6-2.6-2.6c-.2-.2-.6-.2-.9 0s-.2.6 0 .9l3.1 3.1c.1.1.3.2.4.2s.3-.1.4-.2l6.4-6.4c.4-.4.4-.8.1-1z"/></svg>