<svg id="图层_1" xmlns="http://www.w3.org/2000/svg" viewBox="-286 409.9 22 22"><style>.st0{fill:#7b7b7b}</style><path class="st0" d="M-283 431.9c-1.7 0-3-1.3-3-3v-10.4c0-1.7 1.3-3 3-3h.7c.1 0 .2.1.2.2v.7c0 .1-.1.2-.2.2h-.7c-1 0-1.8.8-1.8 1.8v10.4c0 1 .8 1.8 1.8 1.8h10.4c1 0 1.8-.8 1.8-1.8v-.7c0-.1.1-.2.2-.2h.7c.1 0 .2.1.2.2v.7c0 1.7-1.3 3-3 3l-10.3.1zm5.6-5.6c-1.7 0-3-1.3-3-3v-10.4c0-.8.4-1.5 1-2.1.6-.5 1.4-.9 2.2-.9h10.4c1.6 0 2.7 1.3 2.7 3v10.4c0 1.7-1.3 3-3 3h-10.3zm0-15.3c-1 0-1.8.8-1.9 1.8v10.4c0 1 .9 1.8 1.9 1.8h10.4c1 0 1.8-.8 1.8-1.8v-10.4c0-1-.8-1.8-1.8-1.8h-10.4z"/></svg>