<svg class="icon" viewBox="0 0 1024 1024" xmlns="http://www.w3.org/2000/svg" width="18" height="18"><defs><style/></defs><path d="M932.42 140.194L493.95 49.613c-8.434-1.779-17.414-.213-24.303 4.164-6.874 4.404-10.902 11.142-10.902 18.274v879.897c0 7.938 4.949 15.292 13.11 19.525 4.61 2.413 9.884 3.632 15.175 3.632 4.09 0 8.19-.73 12.009-2.186l438.47-168.215c9.95-3.814 16.283-11.985 16.283-20.97V162.638c0-10.613-8.797-19.86-21.372-22.444zm-35.204 628.818L515.323 915.52V101.772l381.893 78.898v588.342zM385.901 889.22l-68.6 26.3V101.772l66.21 13.695c15.146 3.094 30.537-4.394 34.352-16.797 3.821-12.406-5.357-24.98-20.508-28.116L295.93 49.597c-8.444-1.73-17.414-.216-24.303 4.18-6.874 4.405-10.902 11.143-10.902 18.275v879.897c0 7.938 4.949 15.292 13.113 19.525 4.606 2.413 9.887 3.632 15.172 3.632 4.093 0 8.192-.73 12.009-2.207l108.899-41.777c14.144-5.416 20.238-19.192 13.606-30.77-6.631-11.58-23.451-16.588-37.623-11.132zm-212.137 5.401l-54.482 20.9V101.77l55.377 11.437c15.13 3.136 30.523-4.383 34.34-16.779 3.818-12.403-5.36-24.988-20.512-28.103L97.909 49.613c-8.444-1.758-17.41-.213-24.303 4.164-6.871 4.404-10.902 11.142-10.902 18.274v879.897c0 7.938 4.949 15.292 13.113 19.525 4.61 2.413 9.887 3.632 15.172 3.632 4.093 0 8.19-.73 12.026-2.207l94.766-36.356c14.144-5.432 20.237-19.21 13.605-30.79-6.63-11.566-23.465-16.562-37.622-11.13z" fill="#999"/></svg>