<svg xmlns="http://www.w3.org/2000/svg" viewBox="0 0 30 30"><path fill="#19AC9E" d="M8.6 22.9c0 .4.4.7.7.7.4 0 .6-.4.8-.7V10.5c0-.4-.4-.7-.8-.7s-.6.4-.7.7v12.4z"/><path fill="#19AC9E" d="M29.4 5.6c0-.4-.4-.7-.8-.7h-7.9V2.4c0-.7-.8-1.5-1.5-1.5h-8.6c-.8 0-1.5.7-1.5 1.5v2.4H1.3c-.4 0-.8.2-.8.7 0 .4.2.7.8.7h2.1v21.2c0 .7.8 1.5 1.5 1.5h20.6c.8 0 1.5-.8 1.5-1.5v-21h1.9c.2 0 .5-.4.5-.8zm-18.7-3h8.6v2.2h-8.6V2.6zm14.6 25H4.7V6.4h20.6v21.2z"/><path fill="#19AC9E" d="M15 23.6c.4 0 .8-.4.8-.7V10.5c0-.4-.4-.7-.8-.7s-.6.4-.7.7v12.4c0 .5.3.7.7.7zm5.6 0c.4 0 .8-.4.8-.7V10.5c0-.4-.4-.7-.8-.7s-.6.4-.8.7v12.4c.1.5.5.7.8.7z"/></svg>