<svg class="icon" viewBox="0 0 1024 1024" xmlns="http://www.w3.org/2000/svg" width="16" height="16"><defs><style/></defs><path d="M454.436 791.723c-182.65 0-331.243-148.594-331.243-331.243 0-182.656 148.594-331.25 331.243-331.25 182.656 0 331.25 148.594 331.25 331.25 0 182.642-148.594 331.243-331.25 331.243zm0-598.493c-147.364 0-267.243 119.886-267.243 267.25s119.879 267.243 267.243 267.243 267.25-119.88 267.25-267.243-119.887-267.25-267.25-267.25z" fill="#999"/><path d="M855.204 890.951c-8.185 0-16.384-3.122-22.628-9.372L657.948 706.95c-12.5-12.494-12.5-32.754 0-45.248 12.488-12.501 32.761-12.501 45.248 0L877.824 836.33c12.501 12.494 12.501 32.753 0 45.248-6.244 6.25-14.436 9.372-22.62 9.372z" fill="#999"/></svg>