<svg class="icon" viewBox="0 0 1024 1024" xmlns="http://www.w3.org/2000/svg" width="22" height="22"><defs><style/></defs><path d="M661.636 917.743h-.006c-16.273-.008-32.097-6.733-42.312-18.008-13.921-15.264-58.031-54.955-94.135-54.955-35.857 0-80.65 39.921-93.515 53.902-10.192 11.084-25.904 17.7-42.02 17.7-7.681 0-14.923-1.47-21.54-4.378l-1.16-.503-109.745-61.374-1.092-.761c-19.976-13.987-27.58-41.343-17.68-63.634.077-.167 10.123-23.351 10.123-44.49 0-64.146-52.19-116.337-116.335-116.337h-3.89c-.24.009-.479.014-.704.014-18.378 0-33.337-16.323-38.123-41.587-.379-2.026-9.36-49.938-9.36-87.688 0-37.753 8.978-85.67 9.36-87.695 4.84-25.582 20.125-42.015 38.828-41.575h3.89c64.146 0 116.335-52.19 116.335-116.332 0-21.132-10.041-44.311-10.148-44.544-9.889-22.266-2.235-49.619 17.832-63.56l1.137-.788 115.82-63.621 1.206-.512c6.524-2.78 13.665-4.19 21.232-4.19 16.086 0 31.824 6.473 42.114 17.316 13.709 14.35 57.036 51.681 92.108 51.681 34.744 0 77.81-36.59 91.471-50.692 10.233-10.62 25.86-16.983 41.782-16.983 7.72 0 14.996 1.46 21.628 4.34l1.17.512 111.866 62.148 1.104.774c20.017 13.965 27.639 41.324 17.731 63.625-.072.17-10.124 23.355-10.124 44.493 0 64.143 52.19 116.332 116.334 116.332h3.896c18.673-.416 33.98 15.99 38.822 41.575.38 2.024 9.36 49.936 9.36 87.688 0 37.755-8.98 85.67-9.367 87.694-4.837 25.584-20.144 41.955-38.824 41.573h-3.887c-64.144 0-116.334 52.191-116.334 116.337 0 21.128 10.042 44.304 10.145 44.534 9.882 22.257 2.243 49.614-17.786 63.567l-1.119.786L683.967 913l-1.183.514c-6.511 2.803-13.621 4.229-21.148 4.229zm-3.455-53.594c.506.332 1.946.896 3.455.896.062 0 .118 0 .17-.004l106.28-58.74c-2.566-5.957-14.295-34.885-14.295-65.05 0-90.232 71.065-164.178 160.167-168.802 1.28-7.082 8.242-46.918 8.242-76.801 0-29.883-6.962-69.7-8.242-76.803-89.1-4.627-160.167-78.573-160.167-168.8 0-30.213 11.765-59.175 14.308-65.09l-104.555-58.089c-.12-.005-.268-.016-.439-.016-1.78 0-3.443.65-3.996 1.023-1.758 1.804-16.91 17.173-38.682 32.486-32.226 22.67-62.697 34.167-90.575 34.167-28.142 0-58.86-11.724-91.292-34.84-21.906-15.609-37.132-31.274-38.89-33.111-.557-.377-2.245-1.046-4.04-1.046-.14 0-.263.005-.372.011l-108.299 59.482c2.6 6.033 14.283 34.909 14.283 65.025 0 90.226-71.063 164.172-160.166 168.8-1.28 7.086-8.241 46.916-8.241 76.802 0 29.88 6.96 69.695 8.248 76.795 89.094 4.63 160.16 78.572 160.16 168.801 0 30.278-11.812 59.286-14.328 65.124l102.502 57.316c.064.009.143.009.23.009 1.495 0 2.914-.55 3.423-.877 1.916-2.055 17.223-18.262 39.277-34.425 32.866-24.09 64.1-36.3 92.836-36.3 29.004 0 60.477 12.443 93.535 36.994 22.18 16.466 37.554 32.973 39.463 35.063zM525.556 649.985c-85.424 0-154.923-69.501-154.923-154.928 0-85.424 69.5-154.924 154.923-154.924 85.428 0 154.932 69.5 154.932 154.924 0 85.427-69.504 154.928-154.932 154.928zm0-257.156c-56.368 0-102.224 45.858-102.224 102.226 0 56.372 45.857 102.231 102.224 102.231 56.373 0 102.238-45.859 102.238-102.23 0-56.369-45.863-102.227-102.238-102.227z" fill="#999"/></svg>