<svg id="图层_1" xmlns="http://www.w3.org/2000/svg" viewBox="-286 409.9 22 22"><style>.st0{fill:#7b7b7b}</style><path class="st0" d="M-264.9 419.6c0-.6-.3-1-.8-1-.5-.1-2-.3-2.2-.4-.2 0-.4-.2-.4-.3 0-.1-.2-.6-.3-.7-.1-.2 0-.4.1-.6.2-.2 1-1.4 1.2-1.7.2-.3.2-.9-.1-1.2l-1.4-1.4c-.2-.2-.8-.2-1.1 0-.3.2-1.8 1.3-1.8 1.3s-.3.2-.5.1c-.3-.1-.8-.4-.8-.4s-.2-.1-.2-.5c-.1-.4-.3-1.6-.4-2.1-.1-.4-.5-.7-1-.7h-1.9c-.4 0-.8.4-.9.7-.1.3-.3 1.7-.4 2.1-.1.4-.3.5-.3.5s-.5.2-.8.3c-.3.1-.4.1-.8-.2-.4-.3-1.1-.8-1.6-1.1-.5-.3-1-.2-1.2.1l-1.3 1.3c-.4.4-.3.9 0 1.4.3.5.8 1.1 1 1.5.2.3.3.5.2.7-.1.2-.2.4-.3.7-.1.3-.2.3-.7.4-.4.1-1.5.2-2 .3-.5.1-.8.5-.8 1.1v1.6c0 .6.3.9 1 1.1.6.1 1.6.3 1.9.3.3 0 .4.2.5.4.1.2.1.3.2.6s.2.4-.1.8l-1.2 1.6c-.3.4-.2 1 .1 1.3l1.2 1.2c.3.3.9.4 1.3.1.5-.3 1.4-1 1.7-1.2.3-.2.6-.1.7-.1.1.1.3.1.6.2s.3.3.4.6c.1.3.3 1.4.4 2 .1.5.5.8 1 .8h1.6c.7 0 1.1-.3 1.1-.8.1-.5.3-1.8.4-2.1 0-.3.1-.4.3-.5.2-.1.4-.2.7-.3.3-.1.5 0 .7.1.2.2 1.2.9 1.6 1.1.4.3.9.3 1.3-.1l1.2-1.2c.4-.4.3-1 .1-1.3-.2-.3-1.1-1.6-1.3-1.8-.1-.2-.1-.5 0-.6.1-.2.2-.5.3-.6.1-.2.2-.3.5-.3.2 0 1.6-.3 2.1-.4.5-.1.8-.5.8-1 .4-.6.4-1.3.4-1.7zm-.9 1.6c0 .1-.1.3-.2.3s-1.6.3-2.1.4c-.5.1-.8.4-1 .7-.1.2-.1.3-.3.7-.1.3-.1.8.1 1.1.2.3 1.2 1.6 1.3 1.8.1.1.1.3 0 .4l-1.2 1.2c-.2.2-.3.1-.5 0s-1-.7-1.6-1.1c-.4-.3-.8-.3-1.2-.2-.4.2 0 0-.6.2s-.8.7-.8 1.2c-.1.5-.3 1.6-.3 1.8 0 .2-.1.3-.3.3h-1.6c-.2 0-.3-.1-.4-.3-.1-.2-.3-1.4-.3-1.9-.1-.5-.3-.9-.6-1-.3-.1-.1-.1-.7-.3-.6-.2-1-.1-1.3.1-.3.2-1.5 1.1-1.6 1.2-.2.1-.4.1-.5 0l-1.2-1.2c-.2-.2-.1-.3 0-.5s.7-1 1-1.5c.3-.4.5-.9.2-1.3-.2-.5-.1-.3-.3-.7-.2-.5-.6-.6-1-.7-.4-.1-1.7-.3-1.9-.3-.2 0-.3-.2-.3-.4v-1.7c0-.2.2-.3.3-.3.1 0 1.4-.2 1.8-.3.5-.1.9-.3 1.1-.7.2-.4.1-.3.3-.7.2-.4.1-.9-.2-1.3-.3-.4-1-1.4-1.1-1.6-.1-.2-.1-.3 0-.5l1.2-1.2c.1-.1.3-.1.5 0s1.2.9 1.6 1.2c.4.3.8.3 1.2.1.4-.2.3-.1.7-.3.4-.2.6-.5.7-1 .1-.5.3-1.9.3-2 0-.1.1-.3.3-.3h1.8c.1 0 .3.1.3.2s.3 1.9.4 2.2c0 .3.4.7.6.8s.5.2.8.3c.3.1.8 0 .9-.1.2-.1 1.8-1.2 1.9-1.3.1-.1.3-.1.4.1l1.2 1.2c.1.1.1.2 0 .3-.1.1-.9 1.3-1.2 1.7-.3.4-.3.8-.1 1.2.2.4.1.2.2.6.1.3.4.7.8.8.4.1 1.9.3 2.1.4.2 0 .3.2.3.3.1.4.1 1.8.1 1.9z"/><path class="st0" d="M-275.4 415.3c-2.8 0-5 2.3-5 5s2.3 5 5 5c2.8 0 5-2.3 5-5s-2.2-5-5-5zm0 9.2c-2.3 0-4.2-1.9-4.2-4.2s1.9-4.2 4.2-4.2c2.3 0 4.2 1.9 4.2 4.2s-1.9 4.2-4.2 4.2z"/></svg>