<svg id="图层_1" xmlns="http://www.w3.org/2000/svg" viewBox="-286 409.9 22 22"><style>.st0{fill:#7b7b7b}</style><path class="st0" d="M-275 431.4c-1.5 0-2.9-.3-4.3-.8-1.3-.5-2.5-1.3-3.5-2.2-1-1-1.8-2.1-2.4-3.3-.6-1.3-.9-2.7-.9-4.1 0-1.8.5-3.6 1.4-5.1.9-1.5 2.2-2.8 3.7-3.7.3-.2.8-.1 1 .2.2.3.1.8-.2 1-1.3.8-2.4 1.9-3.2 3.2-.8 1.3-1.2 2.9-1.2 4.4 0 2.4 1 4.7 2.8 6.4 1.8 1.7 4.2 2.7 6.8 2.7s5-.9 6.8-2.7c1.8-1.7 2.8-4 2.8-6.4 0-3.1-1.6-5.9-4.3-7.6-.3-.2-.4-.7-.2-1s.7-.4 1-.2c1.5.9 2.8 2.2 3.6 3.7.9 1.6 1.4 3.3 1.4 5.1 0 1.4-.3 2.8-.9 4.1-.6 1.3-1.4 2.4-2.4 3.3-1 1-2.2 1.7-3.5 2.2-1.4.6-2.8.8-4.3.8zm0-9.2c-.4 0-.7-.3-.7-.7v-10.4c0-.4.3-.7.7-.7.4 0 .7.3.7.7v10.4c0 .4-.3.7-.7.7z"/></svg>