<svg class="icon" viewBox="0 0 1024 1024" xmlns="http://www.w3.org/2000/svg" width="12" height="12"><defs><style/></defs><path d="M971.659 397.958c-7.996-23.113-28.575-40.037-53.336-43.712L677.319 318.42 572.536 101.042c-10.997-22.831-34.592-37.438-60.546-37.438-25.919 0-49.525 14.607-60.551 37.438L346.687 318.418l-241.029 35.826c-24.757 3.676-45.339 20.599-53.3 43.713-7.98 23.161-1.948 48.676 15.538 66.106l176.613 176.278-40.965 244.506c-4.155 24.601 6.535 49.323 27.456 63.741 11.501 7.878 25.009 11.889 38.526 11.889 11.103 0 22.24-2.716 32.369-8.108L511.99 839.298 722.122 952.37c10.127 5.392 21.261 8.108 32.343 8.108 13.538 0 27.017-4.011 38.549-11.889 20.912-14.419 31.576-39.138 27.446-63.741l-40.984-244.507 176.642-176.277c17.486-17.429 23.484-42.944 15.541-66.106zM731.628 594.884c-14.815 14.771-21.546 35.535-18.126 55.939l40.963 244.53-210.107-113.037a68.284 68.284 0 0 0-32.367-8.134 68.198 68.198 0 0 0-32.333 8.134L269.527 895.353l40.979-244.53c3.418-20.403-3.302-41.168-18.117-55.94L115.786 418.637l240.997-35.881c22.015-3.278 40.985-17.038 50.457-36.677l104.752-217.355 104.783 217.355c9.474 19.639 28.408 33.399 50.437 36.677l241.025 35.881-176.609 176.247z" fill="#999"/></svg>