<svg class="icon" viewBox="0 0 1024 1024" xmlns="http://www.w3.org/2000/svg" width="18" height="18"><defs><style/></defs><path d="M534.528 67.584c-18.432-8.192-39.936-5.12-55.296 7.168L226.304 286.72H73.728c-28.672 0-52.224 23.552-52.224 52.224v345.088c0 28.672 23.552 52.224 52.224 52.224h175.104v-64.512H84.992V351.232h163.84l250.88-210.944v743.424l-250.88-210.944-40.96 49.152 270.336 227.328c9.216 8.192 21.504 12.288 33.792 12.288 8.192 0 15.36-2.048 22.528-5.12 18.432-8.192 30.72-26.624 30.72-47.104V114.688c-1.024-20.48-12.288-38.912-30.72-47.104zm155.648 186.368l-40.96 49.152c62.464 52.224 98.304 130.048 98.304 211.968 0 78.848-33.792 153.6-92.16 206.848l43.008 48.128c72.704-64.512 113.664-157.696 113.664-254.976 0-100.352-44.032-195.584-121.856-261.12zm0 0" fill="#999"/><path d="M798.72 156.672l-32.768 55.296C872.448 274.432 939.008 389.12 939.008 512S873.472 749.568 768 812.032l32.768 55.296C925.696 793.6 1002.496 657.408 1002.496 512S924.672 230.4 798.72 156.672zm0 0" fill="#999"/></svg>