<svg xmlns="http://www.w3.org/2000/svg" viewBox="0 0 20 20"><path fill="#E49421" d="M20 10.6V1.8c0-.2-.1-.5-.5-.6-.3-.1-.6-.1-.9 0-1.1.5-2.5.8-3.7.8-2 0-2.9-.4-4-.9C9.4.4 7.7 0 6 .1 4.8.1 3.4.2 2.3.7L2 .9 1.9.6C1.7.2 1.1 0 .7.2.3.4 0 .6 0 1v18.2c0 .4.5.7.9.7s.9-.4.9-.7v-8.1H2c1.2-.5 2.4-.9 3.8-.7 2 0 2.9.4 4 .9 1.5.7 3.2 1.1 4.9 1 1.5 0 3.2-.2 4.6-.9.4-.3.7-.6.7-.8zm-1.9-.4H18c-.9.4-2 .5-3.1.5-2 0-2.9-.4-4-.9-1.5-.7-3.2-1.1-4.9-1-1.2 0-2.4.2-3.7.5l-.3.2V2.3h.1c1.3-.5 2.5-.8 3.9-.7 2 0 2.9.4 4 .9 1.5.7 3.2 1.1 4.9 1 .9 0 2-.1 2.9-.4l.3-.1v7.2z"/></svg>