<svg xmlns="http://www.w3.org/2000/svg" viewBox="-7 9 14 14"><path fill="#E6A629" stroke="#E6A629" stroke-width=".5" stroke-miterlimit="10" d="M5.1 15.7c-.2 0-.3.1-.3.3v4.8c0 .5-.4.9-.9.9H2.6v-4.3c0-.2-.1-.3-.3-.3h-4.5c-.2 0-.3.1-.3.3v4.3h-1.3c-.5 0-.9-.4-.9-.9V16c0-.2-.1-.3-.3-.3-.2 0-.3.1-.3.3v4.8c0 .9.7 1.6 1.6 1.6H4c.9 0 1.6-.7 1.6-1.6V16c-.2-.2-.3-.3-.5-.3zm-7 6.1v-4h3.8v4h-3.8zm8.6-9.2L5.6 9.8c0-.1-.2-.2-.3-.2H-5.3c-.1 0-.3.1-.3.2l-1.1 2.8v.1c0 1.1.9 1.9 1.9 1.9.6 0 1.2-.3 1.6-.9.6.9 1.8 1.1 2.7.5.2-.1.4-.3.5-.5.6.9 1.8 1.1 2.7.5.2-.1.4-.3.5-.5.6 1 1.8 1.3 2.7.7.5-.4.9-1 .9-1.6 0-.1 0-.1-.1-.2zM4.8 14c-.7 0-1.3-.6-1.3-1.3 0-.2-.1-.3-.3-.3-.2 0-.3.1-.3.3 0 .7-.6 1.3-1.3 1.3-.7 0-1.3-.6-1.3-1.3 0-.2-.1-.3-.3-.3-.2 0-.3.1-.3.3 0 .7-.5 1.3-1.2 1.3s-1.3-.5-1.3-1.2v-.1c0-.2-.1-.3-.3-.3-.2 0-.3.1-.3.3 0 .7-.6 1.3-1.3 1.3-.7 0-1.2-.5-1.3-1.2l1-2.6H5.1l1 2.6c0 .7-.6 1.2-1.3 1.2z"/></svg>