<svg xmlns="http://www.w3.org/2000/svg" viewBox="0 9 28 14"><path fill="#E6A629" stroke="#E6A629" stroke-width=".5" stroke-miterlimit="10" d="M20.2 18.6c.5 0 .9-.4.9-.9s-.4-.9-.9-.9-.9.4-.9.9.4.9.9.9zM6 17.3h9v.9H6v-.9zm11.2 1.3c.5 0 .9-.4.9-.9s-.4-.9-.9-.9-.9.4-.9.9.4.9.9.9z"/><path fill="#E6A629" stroke="#E6A629" stroke-width=".5" stroke-miterlimit="10" d="M23.1 14.9l-2.3-3.6H7.1l-2.7 3.6-.1.3v4.3c0 .7.6 1.3 1.3 1.3h16.3c.7 0 1.3-.6 1.3-1.3v-4.3l-.1-.3zM7.5 12.1h12.8l1.6 2.6H5.6l1.9-2.6zm14.8 7.3c0 .2-.2.4-.4.4H5.6c-.2 0-.4-.2-.4-.4v-3.9h17.1v3.9z"/></svg>