<svg class="icon" viewBox="0 0 1024 1024" xmlns="http://www.w3.org/2000/svg" width="13" height="13"><defs><style/></defs><path d="M938.565 674.864c-17.495-6.97-50.02 4.589-56.663 21.33-57.778 145.669-195.888 239.792-351.854 239.792-208.77 0-378.61-170.817-378.61-380.744 0-209.946 169.84-380.743 378.61-380.743 70.902 0 140 19.808 199.85 57.291 1.119.69 2.317 1.158 3.474 1.707l-99.303 35.98c-16.844 6.094-28.039 34.619-21.965 51.541 4.776 13.287 24.605 26.494 37.872 26.494 3.654 0 12.29-.632 15.927-1.952l182.092-80.756a34.226 34.226 0 0 0 19.3-17.676 34.52 34.52 0 0 0 1.218-26.228L803.747 40.17c-6.4-17.84-22.247-41.831-48.596-37.87-18.628 2.804-31.835 28.544-25.435 46.382l35.899 100.178C693.309 105.221 610.602 82 525.763 82 268.358 82 58.959 292.577 58.959 551.424c0 258.867 209.4 469.463 466.804 469.463 192.29 0 362.56-116.045 433.788-295.64 6.988-17.613-3.494-43.354-20.986-50.383z" fill="#999"/></svg>