<svg class="icon" viewBox="0 0 1024 1024" xmlns="http://www.w3.org/2000/svg" width="13" height="13"><defs><style/></defs><path d="M1014.792 532.504C1003.936 801.264 783.416 1016 512 1016 233.648 1016 8 790.352 8 512S233.648 8 512 8c174.56 0 327.2 89.6 417.6 224.464V36.8c0-15.896 12.872-28.8 28.8-28.8s28.8 12.904 28.8 28.8V296c0 15.928-12.872 28.8-28.8 28.8H699.2a28.768 28.768 0 0 1-28.8-28.8c0-15.896 12.872-28.8 28.8-28.8h184.608C804 146.184 667.808 65.6 512 65.6 265.44 65.6 65.6 265.44 65.6 512c0 246.528 199.84 446.4 446.4 446.4 241.688 0 437.992-192.184 445.68-431.968h.752a28.784 28.784 0 0 1 57.568.08c0 2.136-.752 4.008-1.208 5.992z" fill="#999"/></svg>