<svg xmlns="http://www.w3.org/2000/svg" viewBox="-6 8 16 16"><path fill="#19AC9E" d="M8.4 10.6c0 .8-.7 1.4-1.5 1.4s-1.5-.6-1.5-1.4c0-.8.7-1.4 1.5-1.4s1.5.7 1.5 1.4zm-1.5 4c.8 0 1.5.6 1.5 1.4 0 .8-.7 1.4-1.5 1.4s-1.5-.6-1.5-1.4c0-.8.6-1.4 1.5-1.4zm-9.8 2.8c-.8 0-1.5-.6-1.5-1.4 0-.8.7-1.4 1.5-1.4s1.5.6 1.5 1.4c0 .8-.6 1.4-1.5 1.4zM6.9 20c.8 0 1.5.6 1.5 1.4 0 .8-.7 1.4-1.5 1.4s-1.5-.6-1.5-1.4c0-.8.6-1.4 1.5-1.4zm-2.3-9.7h-3c-.1 0-.2 0-.3.1-.1.1-.1.2-.1.3v4.9H-.7c-.2-1-1.1-1.8-2.3-1.8-1.3 0-2.3 1-2.3 2.2 0 1.2 1 2.2 2.3 2.2 1.1 0 2.1-.8 2.3-1.8h1.9v4.9c0 .1 0 .2.1.3.1.1.2.1.3.1h3c.2 1 1.1 1.8 2.3 1.8 1.3 0 2.3-1 2.3-2.2 0-1.2-1-2.2-2.3-2.2-1.1 0-2 .7-2.2 1.7H2.1v-4.5h2.6c.2 1 1.1 1.8 2.3 1.8 1.3 0 2.3-1 2.3-2.2 0-1.2-1-2.2-2.3-2.2-1.1 0-2.1.8-2.3 1.8H2.1V11h2.6c.2 1 1.1 1.7 2.2 1.7 1.3 0 2.3-1 2.3-2.2 0-1.2-1-2.2-2.3-2.2-1.2.2-2.1 1-2.3 2z"/></svg>