<svg class="icon" viewBox="0 0 1024 1024" xmlns="http://www.w3.org/2000/svg" width="200" height="200"><defs><style/></defs><path d="M93.09 931.32c0-.185 838.23-.41 838.23-.41-.185 0-.41-838.23-.41-838.23 0 .185-838.23.41-838.23.41.185 0 .41 838.23.41 838.23zM92.68 0h838.64C982.507 0 1024 41.41 1024 92.68v838.64c0 51.186-41.41 92.68-92.68 92.68H92.68C41.493 1024 0 982.59 0 931.32V92.68C0 41.493 41.41 0 92.68 0zm140.366 465.455h557.908c25.882 0 46.864 21.59 46.864 46.545 0 25.706-21.681 46.545-46.864 46.545H233.046c-25.882 0-46.864-21.59-46.864-46.545 0-25.706 21.681-46.545 46.864-46.545z"/></svg>