<svg id="图层_1" xmlns="http://www.w3.org/2000/svg" viewBox="-286 409.9 22 22"><style>.st0{fill:#7b7b7b}</style><path class="st0" d="M-264.2 422l-6.3 6c-.1.1-.2.1-.3.1-.1 0-.2 0-.3-.1l-2.7-2.5c-.2-.2-.2-.5 0-.7.2-.2.5-.2.7 0l2.3 2.2 6-5.7c.2-.2.5-.2.7 0 .1.2.1.5-.1.7zm-10.9-4.4c1.8 0 3.3 1.5 3.3 3.3s-1.5 3.3-3.3 3.3-3.3-1.5-3.3-3.3c0-1.9 1.5-3.3 3.3-3.3zm0 .8c-1.3 0-2.4 1.1-2.4 2.4s1.1 2.4 2.4 2.4 2.4-1.1 2.4-2.4-1.1-2.4-2.4-2.4zm.2 8c-1.3 0-2.6-.3-4-.8-1.1-.4-2.2-1.1-3.2-1.8-1.5-1.1-2.6-2.4-2.9-2.9v-.1c.3-.4 1.4-1.6 3-2.8 1.1-.8 2.2-1.4 3.2-1.8 1.4-.6 2.7-.8 4-.8 1.3 0 2.6.3 4 .8 1.1.4 2.2 1.1 3.2 1.8.7.5 1.3 1 1.9 1.6.2.2.5.2.6 0 .2-.2.2-.5 0-.6-.6-.6-1.3-1.2-2-1.7-1.1-.8-2.3-1.5-3.4-1.9-1.5-.6-2.9-.9-4.3-.9s-2.9.3-4.3.9c-1.1.5-2.3 1.1-3.4 1.9-1.6 1.2-2.7 2.4-3.1 2.9-.3.3-.3.8 0 1.1.4.5 1.5 1.9 3.1 3.1 1.1.8 2.3 1.5 3.4 1.9 1.5.6 2.9.9 4.3.9.2 0 .4-.2.4-.4s-.2-.4-.5-.4z"/></svg>