<svg id="图层_1" xmlns="http://www.w3.org/2000/svg" viewBox="-287.4 408.8 26 23.1"><style>.st0{fill:#7b7b7b}</style><path class="st0" d="M-272.7 416.5l.6-.6 1.8-1.8 2.3 2.3-4.4 4.4.5.5 4.7-4.7.3-.3-.3-.3-2.9-2.9-.3-.3-.3.3-2.1 2.1-.6.6-2 2 .5.5 2.2-1.8zm-9.9 8.9l2.9 2.9.3.3.3-.3 4.3-4.3-.5-.5-4 4-2.3-2.3 1.6-1.6.5-.5 1.9-1.9-.5-.5-1.9 1.9-.5.5-1.9 1.9-.3.3.1.1zm10.5-1.1c.1.1.4.1.5 0 .1-.1.1-.4 0-.5l-6.1-6.1c-.1-.1-.4-.1-.5 0s-.1.4 0 .5l6.1 6.1z"/><path class="st0" d="M-286 409.9v22h22v-22h-22zm21.3 21.3h-20.5v-20.5h20.5v20.5z"/></svg>