<svg id="图层_1" xmlns="http://www.w3.org/2000/svg" viewBox="-286 409.9 23.5 22.8"><style>.st0{fill:#7b7b7b}</style><path class="st0" d="M-283.2 411.7h12.3l3 3v3.5h1.1v-4.1l-3.5-3.5h-13.9v20.8h6.6v-1.3h-5.5v-18.4z"/><path class="st0" d="M-280.2 415.6h8.4v1.1h-8.4v-1.1zm.2 5h3.5v1.1h-3.5v-1.1zm0 5.1h2.5v1.1h-2.5v-1.1zm13.7 3.2c.8-.9 1.4-2.3 1.4-3.6 0-3-2.4-5.4-5.4-5.4s-5.4 2.4-5.4 5.4 2.4 5.4 5.4 5.4c1.2 0 2.4-.5 3.3-1.2l3.2 3.3.7-.7-3.2-3.2zm-3.9.8c-2.3 0-4.5-2.2-4.5-4.5s2.2-4.5 4.5-4.5 4.5 2.2 4.5 4.5c0 2.4-2.2 4.5-4.5 4.5z"/></svg>