<svg xmlns="http://www.w3.org/2000/svg" viewBox="-6 8 16 16"><path fill="#19AC9E" d="M2.1 15c1.1 0 1.9-.9 1.9-1.9 0-1-.9-1.9-1.9-1.9-1.1 0-1.9.9-1.9 1.9 0 1 .9 1.9 1.9 1.9zm0-2.9c.5 0 1 .5 1 1s-.4 1-1 1c-.5 0-1-.4-1-1 .1-.5.5-1 1-1zM.3 17.9c.7.9 1.4 1.4 1.4 1.5l.5.4.5-.4s.7-.6 1.3-1.4l.1-.1c.9-1.2 2.1-3 2.4-4.6.1-.4.1-.6.1-.6 0-1.2-.4-2.2-1.3-3-.8-.8-1.9-1.2-3-1.2s-2.2.4-3 1.2c-.8.8-1.3 1.9-1.3 3.1 0 0 0 .2.1.6.1 1.5 1.4 3.4 2.2 4.5zm1.8-8.3c1.8 0 3.2 1.4 3.2 3.2v.4c-.2 1.2-1.2 2.8-2 3.8-.6.7-1.1 1.2-1.1 1.2s-.6-.4-1.2-1.1c-.8-1-1.8-2.6-2-3.8v-.4c-.1-1.8 1.4-3.3 3.1-3.3zm-4.6 14H8.1c.9 0 1.7-.7 1.7-1.6 0-.9-.8-1.6-1.7-1.6H-4c-.3 0-.6-.2-.6-.5s.3-.5.6-.5h1.9c.3 0 .5-.2.5-.5s-.2-.5-.5-.5H-4c-.9 0-1.7.7-1.7 1.6 0 .9.8 1.6 1.7 1.6H8.1c.3 0 .6.2.6.5s-.3.5-.6.5H-2.5c-.3-.1-.5.1-.5.4 0 .3.2.6.5.6z"/></svg>