<svg id="图层_1" xmlns="http://www.w3.org/2000/svg" viewBox="-287.1 410.7 24.5 20.2"><style>.st0{fill:#7b7b7b}</style><path class="st0" d="M-265 411.8h-20c-.5 0-1 .4-1 1v14.3c0 .5.4 1 1 1h9.6v1.9h-2.9v1h6.7v-1h-2.9v-2h9.6c.5 0 1-.4 1-1v-14.3c-.1-.5-.5-.9-1.1-.9zm0 15.3h-20v-2.9h20.1v2.9zm0-3.9h-20v-10.5h20.1v10.5zm-9.5 2h-1v1h1v-1zm8.3-4.5v-.5s0-.1-.1-.1l-.1-.1-.1-.1c-.1-.1-.1-.1-.2-.1s-.1-.1-.2-.1h-1l-3.6-3.6c.1-.1.1-.3.1-.5v-.6s0-.1-.1-.1l-.1-.1-.1-.1c-.1-.1-.1-.1-.2-.1s-.1-.1-.2-.1h-.9c-.1 0-.1 0-.2.1 0 0-.1 0-.1.1l-.1.1-.1.1-.1.1-.1.1s0 .1-.1.1c0 .1-.1.1-.1.2v1l-3.1 3.1h-.1c-.1 0-.2-.1-.2-.1h-.6c-.1 0-.2 0-.2.1h-.1l-3.4-3.4c.1-.2.1-.3.1-.5v-.6s0-.1-.1-.1l-.1-.1-.1-.1c-.1-.1-.1-.1-.2-.1s-.1-.1-.2-.1h-1c-.1 0-.1 0-.2.1-.1 0-.1.1-.2.1l-.1.1-.1.1s0 .1-.1.1v.6c0 .7.6 1.2 1.2 1.2.2 0 .3 0 .5-.1l3.5 3.5v.9c0 .1 0 .1.1.2v.1c.1.1.1.2.2.3l.1.1s.1 0 .1.1c.1 0 .1.1.2.1s.2.1.2.1h.6c.1 0 .2 0 .2-.1.1 0 .1-.1.2-.1 0 0 .1 0 .1-.1l.1-.1c.1-.1.1-.2.2-.3v-.1c0-.1 0-.1.1-.2v-.9l3.2-3.2h.4c.2 0 .3 0 .5-.1l3.6 3.6v1.1s0 .1.1.1l.1.1.1.1c.1.1.1.1.2.1s.1.1.2.1h1c.1 0 .1 0 .2-.1.1 0 .1-.1.2-.1l.1-.1.1-.1s0-.1.1-.1v-.9zm-16.3-5.8c.1 0 .2 0 .3.1.1.1.1.2.1.3 0 .2-.2.4-.4.4-.1 0-.2 0-.3-.1-.1-.1-.1-.2-.1-.3 0-.2.1-.4.4-.4zm5.5 5.5c0 .2-.2.4-.4.4s-.4-.2-.4-.4.2-.4.4-.4.4.1.4.4zm4.8-4.8c0 .2-.2.4-.4.4s-.4-.2-.4-.4.2-.4.4-.4.4.2.4.4zm4.8 5.6c-.1 0-.2-.1-.3-.1-.1-.1-.1-.2-.1-.3 0-.2.2-.4.4-.4.1 0 .2 0 .3.1.1.1.1.2.1.3-.1.2-.2.4-.4.4z"/></svg>