<svg class="icon" viewBox="0 0 1024 1024" xmlns="http://www.w3.org/2000/svg" width="16" height="16"><defs><style/></defs><path d="M746.301 656.027s-14.255 18.862-33.343 37.35l219.773 215.354 36.477-34.102-222.907-218.602zm78.048-233.454c0 213.79-164.683 374.277-368.803 374.277-212.841-3.09-367.178-170.693-367.178-373.988C88.368 226.488 254.492 60.9 455.546 60.9c204.12 0 368.804 167.744 368.804 361.673zm-370.146-312.61c-174.962 0-316.77 141.92-316.77 318.912 0 176.993 141.808 319.894 316.77 319.894 174.987 0 321.082-142.9 321.082-319.894 0-176.993-146.095-318.912-321.082-318.912z" fill="#999"/></svg>