<svg xmlns="http://www.w3.org/2000/svg" viewBox="0 0 30 30"><path fill="#999" stroke="#999" stroke-miterlimit="10" d="M16.1 15.1l5.8-5.8c.1-.1.1-.8 0-1-.1-.1-.8-.1-1 0l-5.8 5.8-5.8-5.8c-.1-.4-.8-.4-1 0-.4.1-.4.8-.1 1l5.8 5.8L8.2 21c-.1.1-.1.8 0 1s.8.1 1 0l5.8-5.8 5.8 5.8c.1.1.8.1 1 0 .1-.1.1-.8 0-1l-5.7-5.9z"/><path d="M12.7 29.5C6.4 28.5 1.4 23.6.5 17.2m29 0c-.9 6.3-5.9 11.3-12.2 12.3m0-29c6.3.9 11.3 5.9 12.2 12.3m-29-.1C.5 8.4 6.5 1.4 12.8.5" fill="none" stroke="#999" stroke-linecap="round" stroke-miterlimit="10"/></svg>