<svg xmlns="http://www.w3.org/2000/svg" viewBox="0 0 30 30"><path fill="#999" d="M11.4 20c-.8-1.5-1.2-3.1-1.2-5 0-.8 0-1.5.4-2.3H5.2l2.7-5.4h6.2c1.5-1.5 3.9-2.7 6.6-2.7H6l-4.2 9.3h-.5c-.4 0-1.2.4-1.2 1.2v4.2c0 .4.4 1.2 1.2 1.2h.8V24c0 .8.4 1.2.8 1.2h3.5c.4 0 1.2-.4 1.2-1.2v-3.5l3.8-.5zm-6.2-1.2c-.4 0-1.2-.4-1.2-1.2v-.8c0-.4.4-1.2 1.2-1.2h3.1c.8 0 1.2.8 1.2 1.2v.8c0 .4-.4 1.2-1.2 1.2H5.2z"/><path fill="#DC3C3B" d="M20.7 4.9c-5.4 0-10 4.6-10 10s4.2 9.7 9.7 9.7 9.7-4.2 9.7-9.7-4-10-9.4-10z"/><path fill="#FFF" d="M21.1 18.1h-1.5l-.4-.4-.5-9.7s0-.4.4-.4h2.3l.4.4-.4 9.3c0 .4 0 .8-.3.8zm.7 2.3c0 .8-.8 1.5-1.5 1.5-.8 0-1.5-.8-1.5-1.5 0-.8.8-1.5 1.5-1.5.8-.1 1.5.7 1.5 1.5z"/></svg>