<svg xmlns="http://www.w3.org/2000/svg" viewBox="0 0 30 30"><path fill="#999" d="M11.7 20c-.8-1.5-1.5-3.1-1.5-5 0-.8 0-1.5.4-2.3H5.2l2.7-5.4h6.2c1.5-1.5 3.9-2.7 6.6-2.7H5.9l-4.3 9.3h-.3c-.4 0-1.2.4-1.2 1.2v4.3c0 .4.4 1.2 1.2 1.2h.8v3.5c0 .8.4 1.2.8 1.2h3.5c.4 0 1.2-.4 1.2-1.2v-3.5l4.1-.6zm-6.5-1.2c-.4 0-1.2-.4-1.2-1.2v-.8c0-.4.4-1.2 1.2-1.2h3.1c.8 0 1.2.8 1.2 1.2v.8c0 .4-.4 1.2-1.2 1.2H5.2z"/><g fill="#DC3C3B"><path d="M21 9.1h-1.9v5.4H21c.8 0 1.2-.4 1.5-.8.4-.4.8-1.2.8-1.9.4-1.9-.3-2.7-2.3-2.7z"/><path d="M20.6 4.9c-5.4 0-10.1 4.6-10.1 10.1s4.3 9.7 9.7 9.7 9.7-4.3 9.7-9.7-3.8-10.1-9.3-10.1zM24.1 15c-.4.8-1.5 1.2-2.7 1.2h-2.3v6.2h-1.5V8H21c1.2 0 1.9 0 2.7.4 1.2.8 1.5 1.9 1.5 3.5.1 1.1-.3 2.3-1.1 3.1z"/></g></svg>