<svg xmlns="http://www.w3.org/2000/svg" viewBox="0 0 20 20"><path d="M7.8 13.3c-.5-1-1-2.1-1-3.3 0-.5 0-1 .3-1.5H3.5l1.8-3.6h4.1c1-1 2.6-1.8 4.4-1.8H3.9L1.1 9.3H.9c-.3 0-.8.3-.8.8V13c0 .3.3.8.8.8h.5v2.3c0 .5.3.8.5.8h2.3c.3 0 .8-.3.8-.8v-2.3l2.8-.5zm-4.3-.8c-.3 0-.8-.3-.8-.8v-.5c0-.3.3-.8.8-.8h2.1c.5 0 .8.5.8.8v.5c0 .3-.3.8-.8.8H3.5zM13.7 3z" fill="#24A287"/><g fill="#DC3C3B"><path d="M14 6.1h-1.3v3.6H14c.5 0 .8-.3 1-.5.3-.3.5-.8.5-1.3.3-1.3-.2-1.8-1.5-1.8z"/><path d="M13.7 3.3C10.1 3.3 7 6.3 7 10s2.9 6.5 6.5 6.5S20 13.6 20 10s-2.6-6.7-6.3-6.7zm2.4 6.7c-.3.5-1 .8-1.8.8h-1.5v4.1h-1V5.3H14c.8 0 1.3 0 1.8.3.8.5 1 1.3 1 2.3.1.8-.2 1.6-.7 2.1z"/></g><circle fill="#0014E9" stroke="#FFF" stroke-width=".5" stroke-miterlimit="10" cx="17.5" cy="14.4" r="2.5"/></svg>