<svg xmlns="http://www.w3.org/2000/svg" viewBox="0 0 30 30"><path fill="#DC3C3B" stroke="#DC3C3B" stroke-width=".5" stroke-miterlimit="10" d="M13.6 21.1v2.3h2.3v-2.3h-2.3zm5.6-7.6c.3-.6.5-1.1.5-1.9 0-1.1-.5-2.3-1.5-3.1-.8-.8-2.1-1.1-3.7-1.1-1.3 0-2.4.5-3.2 1.1-.8.8-1.5 1.9-1.6 3.4l2.1.2c.2-1.1.5-1.9 1-2.4s1.1-.8 2.1-.8c.8 0 1.5.3 2.1.8.6.6.8 1.1.8 1.9 0 .5-.2.8-.3 1.1-.2.2-.6.8-1.3 1.5-.8.6-1.1 1-1.5 1.3-.3.5-.6.8-.8 1.1-.2.5-.3 1.1-.3 1.9v.6h1.8c0-.8.2-1.3.2-1.6.2-.3.2-.6.5-.8.2-.3.6-.8 1.1-1.1 1.2-.8 1.7-1.4 2-2.1z"/><path d="M12.7 29.5C6.4 28.5 1.4 23.6.5 17.2m29 0c-.9 6.3-5.9 11.3-12.2 12.3m0-29c6.3.9 11.3 5.9 12.2 12.3m-29-.1C.5 8.4 6.5 1.4 12.8.5" fill="none" stroke="#19AC9E" stroke-linecap="round" stroke-miterlimit="10"/></svg>