<svg xmlns="http://www.w3.org/2000/svg" viewBox="0 0 30 30"><path fill="#19AC9E" d="M15 6c-.3 0-.5.1-.8.4l-6.8 15v.2c0 .1 0 .1.2.1 0 0 0 .1.2.1 0 0 .2 0 .2.1h.2c.2 0 .2 0 .2-.1h.2l6.5-4.4 6.4 4.3h1v-.3L15.9 6.2c-.3 0-.6-.2-.9-.2z"/><path d="M12.7 29.5C6.4 28.5 1.4 23.6.5 17.2m29 0c-.9 6.3-5.9 11.3-12.2 12.3m0-29c6.3.9 11.3 5.9 12.2 12.3m-29-.1C.5 8.4 6.5 1.4 12.8.5" fill="none" stroke="#19AC9E" stroke-linecap="round" stroke-miterlimit="10"/><path fill="#FF9455" d="M23.7 10.4s1.2-1.5 2.1-1.1c.9.5-2 7-2 7s-.1.5.5.5h5.1s1.3.3.1 2C28.4 20.3 21 29.7 21 29.7s-1.8 1.2-1.5-.9c.3-2.1 1.9-6.6 1.9-6.6H16s-1.8 0-.6-1.6c.9-1.1 8.3-10.2 8.3-10.2z"/></svg>