<svg xmlns="http://www.w3.org/2000/svg" viewBox="0 0 30 30"><path fill="#19AC9E" d="M13.3 15.5V9.9h2.3c2.1 0 2.9 1.3 2.9 3 0 1.4-.5 2.7-2.9 2.7l-2.3-.1zm-3-8.2v16h3.1v-5.1h3.2c1.2 0 1.8-.2 2.9-.8 1.4-.8 1.8-1.8 1.8-4.6 0-1.9 0-3.4-2.3-5-.8-.2-1.4-.5-2.3-.5h-6.4z"/><path d="M12.7 29.5C6.4 28.5 1.4 23.6.5 17.2m29 0c-.9 6.3-5.9 11.3-12.2 12.3m0-29c6.3.9 11.3 5.9 12.2 12.3m-29-.1C.5 8.4 6.5 1.4 12.8.5" fill="none" stroke="#19AC9E" stroke-linecap="round" stroke-miterlimit="10"/><path fill="#FF9455" d="M23.7 10.4s1.2-1.5 2.1-1.1c.9.5-2 7-2 7s-.1.5.5.5h5.1s1.3.3.1 2C28.4 20.3 21 29.7 21 29.7s-1.8 1.2-1.5-.9c.3-2.1 1.9-6.6 1.9-6.6H16s-1.8 0-.6-1.6c.9-1.1 8.3-10.2 8.3-10.2z"/></svg>