<svg xmlns="http://www.w3.org/2000/svg" viewBox="0 0 30 30"><path d="M12.7 29.5C6.4 28.5 1.4 23.6.5 17.2m29 0c-.9 6.3-5.9 11.3-12.2 12.3m0-29c6.3.9 11.3 5.9 12.2 12.3m-29-.1C.5 8.4 6.5 1.4 12.8.5" fill="none" stroke="#19AC9E" stroke-linecap="round" stroke-miterlimit="10"/><path fill="#DC3C3B" d="M15.3 5.8c-.3 0-.5.2-.8.5l-7 14.8v.4c0 .2 0 .2.2.2 0 0 0 .2.2.2 0 0 .2 0 .2.2h.2c.2 0 .2 0 .2-.2h.2l6.7-4.4 6.6 4.3h1v-.6L16.3 6c-.4 0-.7-.2-1-.2z"/><path fill="#FF9455" d="M23.7 10.4s1.2-1.5 2.1-1.1c.9.5-2 7-2 7s-.1.5.5.5h5.1s1.3.3.1 2C28.4 20.3 21 29.7 21 29.7s-1.8 1.2-1.5-.9 1.9-6.6 1.9-6.6H16s-1.8 0-.6-1.6c.9-1.1 8.3-10.2 8.3-10.2z"/></svg>