<svg xmlns="http://www.w3.org/2000/svg" viewBox="0 0 30 30"><g fill="#19AC9E"><path d="M21.1 14.1c-.4-2.7-2.5-4.9-5.2-5.3V7.7h-1.8v1.1c-2.7.4-4.8 2.6-5.2 5.3H8v1.6h1c.4 2.9 2.5 5.1 5.2 5.5v1.1h1.6v-1.1c2.7-.4 5-2.6 5.2-5.3h1.2v-1.8h-1.1zm-6 5.5c-2.5 0-4.5-2.2-4.5-4.6s2-4.6 4.5-4.6 4.5 2.2 4.5 4.6-2 4.6-4.5 4.6zm0-7c-1.4 0-2.3.9-2.3 2.4s.9 2.4 2.3 2.4 2.3-1.1 2.3-2.4-.9-2.4-2.3-2.4z"/><path d="M19.7 14.1H24v1.8h-4.3zm-3.92 5.53l.018 4.4-1.8.007-.018-4.4zm.267-13.615l.019 4.4-1.8.007-.02-4.4zM5.995 14.11l3.6-.02.01 1.8-3.6.02z"/></g><path d="M12.7 29.5C6.4 28.5 1.4 23.6.5 17.2m29 0c-.9 6.3-5.9 11.3-12.2 12.3m0-29c6.3.9 11.3 5.9 12.2 12.3m-29-.1C.5 8.4 6.5 1.4 12.8.5" fill="none" stroke="#19AC9E" stroke-linecap="round" stroke-miterlimit="10"/><path fill="#FF9455" d="M23.7 10.2s1.2-1.5 2.1-1.1-2 7.1-2 7.1-.1.5.5.5h5.1s1.3.3.1 1.9c-1.2 1.5-8.5 11-8.5 11s-1.8 1.2-1.5-.9c.3-2.1 1.9-6.6 1.9-6.6H16s-1.8 0-.6-1.6c.9-1.2 8.3-10.3 8.3-10.3z"/></svg>