<?xml version="1.0" standalone="no"?><!DOCTYPE svg PUBLIC "-//W3C//DTD SVG 1.1//EN" "http://www.w3.org/Graphics/SVG/1.1/DTD/svg11.dtd"><svg t="1499137674231" class="icon" style="" viewBox="0 0 1024 1024" version="1.1" xmlns="http://www.w3.org/2000/svg" p-id="4958" xmlns:xlink="http://www.w3.org/1999/xlink" width="20" height="20"><defs><style type="text/css"></style></defs><path d="M391.86963 300.6522c-23.525229 0-42.649935 19.135861-42.649935 42.649935v337.384575c0 23.525229 19.130283 42.655512 42.649935 42.655512 23.519651 0 42.649935-19.135861 42.649934-42.655512V343.302135c0-23.519651-19.130283-42.649935-42.649934-42.649935zM632.135948 300.6522c-23.519651 0-42.655512 19.135861-42.655512 42.649935v337.384575c0 23.525229 19.141438 42.655512 42.655512 42.655512s42.644357-19.135861 42.644357-42.655512V343.302135c0-23.519651-19.130283-42.649935-42.644357-42.649935z" p-id="4959" fill="#19ac91"></path><path d="M511.994423 1024C229.641481 1024 0 794.319477 0 512S229.674946 0 511.994423 0C794.3139 0 1024 229.680523 1024 512c-0.016732 282.319477-229.6861 512-512.005577 512z m0-971.712418C258.498649 52.287582 52.287582 258.509804 52.287582 512s206.2278 459.712418 459.706841 459.712418c253.462309 0 459.717996-206.222222 459.717995-459.712418S765.490196 52.287582 511.994423 52.287582z" p-id="4960" fill="#19ac91"></path></svg>