<?xml version="1.0" encoding="utf-8"?>
<!-- Generator: Adobe Illustrator 18.1.0, SVG Export Plug-In . SVG Version: 6.00 Build 0)  -->
<svg version="1.1" id="图层_1" xmlns="http://www.w3.org/2000/svg" xmlns:xlink="http://www.w3.org/1999/xlink" x="0px" y="0px"
	 viewBox="0 0 20 20" enable-background="new 0 0 20 20" xml:space="preserve">
<path fill="#19AC91" d="M14.1,8.6l-5-2.9C8.7,5.4,8,5.4,7.5,5.7C7,6,6.7,6.6,6.7,7.2V13c0,0.6,0.3,1.1,0.8,1.5
	c0.3,0.2,0.6,0.2,0.9,0.2s0.6-0.1,0.8-0.2l5-2.9c0.5-0.3,0.8-0.9,0.8-1.5C14.9,9.4,14.6,8.9,14.1,8.6z M13.4,10.4l-5,2.9
	c-0.2,0.1-0.4,0-0.5,0c-0.1,0-0.2-0.2-0.2-0.4V7.1C7.8,6.9,8,6.8,8,6.7c0.1,0,0.2-0.1,0.2-0.1c0.1,0,0.2,0,0.2,0.1l5,2.9
	c0.2,0.1,0.2,0.3,0.2,0.4C13.7,10.2,13.6,10.3,13.4,10.4z"/>
<path fill="#19AC91" d="M10,20C4.5,20,0,15.5,0,10S4.5,0,10,0s10,4.5,10,10C19.9,15.6,15.4,20,10,20z M10,1.1c-5,0-9,4-9,9s4,9,9,9
	s9-4,9-9S14.9,1.1,10,1.1z"/>
</svg>
