<?xml version="1.0" standalone="no"?><!DOCTYPE svg PUBLIC "-//W3C//DTD SVG 1.1//EN" "http://www.w3.org/Graphics/SVG/1.1/DTD/svg11.dtd"><svg t="1522203141857" class="icon" style="" viewBox="0 0 1024 1024" version="1.1" xmlns="http://www.w3.org/2000/svg" p-id="18609" xmlns:xlink="http://www.w3.org/1999/xlink" width="18" height="18"><defs><style type="text/css"></style></defs><path d="M852.570629 149.527548c-7.446599-11.169387-18.614963-26.060539-33.507138-26.060539L96.795557 123.467009c-11.169387 0-26.061562 14.892175-29.78435 26.060539-7.445576 11.169387-3.722788 29.78435 3.722788 40.953737l253.165953 279.227516 0 309.010843c0 11.169387 7.446599 26.061562 22.337751 29.78435l189.874465 85.630263c3.723811 3.722788 11.169387 3.722788 14.893198 3.722788 7.445576 0 14.892175 0 18.61394-3.722788 11.169387-7.446599 18.615986-14.892175 18.615986-29.78435l11.169387-398.364917 245.720378-279.227516C856.293417 179.311899 856.293417 164.4187 852.570629 149.527548L852.570629 149.527548zM517.498224 812.226782l-119.137401-55.845912L398.360823 495.76934l130.306788 0L517.498224 812.226782 517.498224 812.226782zM547.281551 417.585677c-3.722788 0-3.722788 3.722788-7.445576 3.722788L379.74586 421.308465 178.702008 197.926862l562.178843 0L547.281551 417.585677 547.281551 417.585677z" p-id="18610" fill="#999999"></path><path d="M956.815855 674.474418c0-14.892175-14.892175-29.78435-29.78435-29.78435L688.757726 644.690068c-14.892175 0-29.78435 14.893198-29.78435 29.78435l0 14.892175c0 14.893198 14.893198 29.78435 29.78435 29.78435l238.273778 0c14.893198 0 29.78435-14.892175 29.78435-29.78435L956.815855 674.474418 956.815855 674.474418z" p-id="18611" fill="#999999"></path><path d="M956.815855 525.553691c0-14.893198-14.892175-29.78435-29.78435-29.78435L688.757726 495.76934c-14.892175 0-29.78435 14.892175-29.78435 29.78435l0 14.892175c0 14.892175 14.893198 29.78435 29.78435 29.78435l238.273778 0c14.893198 0 29.78435-14.893198 29.78435-29.78435L956.815855 525.553691 956.815855 525.553691z" p-id="18612" fill="#999999"></path><path d="M956.815855 823.396169c0-14.892175-14.892175-29.783327-29.78435-29.783327L688.757726 793.612842c-14.892175 0-29.78435 14.892175-29.78435 29.783327l0 14.892175c0 14.892175 14.893198 29.78435 29.78435 29.78435l238.273778 0c14.893198 0 29.78435-14.892175 29.78435-29.78435L956.815855 823.396169 956.815855 823.396169z" p-id="18613" fill="#999999"></path></svg>