<?xml version="1.0" standalone="no"?><!DOCTYPE svg PUBLIC "-//W3C//DTD SVG 1.1//EN" "http://www.w3.org/Graphics/SVG/1.1/DTD/svg11.dtd"><svg t="1499137717180" class="icon" style="" viewBox="0 0 1024 1024" version="1.1" xmlns="http://www.w3.org/2000/svg" p-id="6697" xmlns:xlink="http://www.w3.org/1999/xlink" width="20" height="20"><defs><style type="text/css"></style></defs><path d="M951.299 423.389c-4.853-25.86-20.192-42.442-38.907-42.019h-3.905c-64.28 0-116.579-52.75-116.579-117.578 0-21.364 10.073-44.799 10.143-44.97 9.93-22.54 2.291-50.192-17.767-64.306l-1.108-0.784-112.104-62.814-1.174-0.517c-6.644-2.912-13.935-4.387-21.674-4.387-15.954 0-31.616 6.43-41.87 17.163-13.691 14.255-56.849 51.236-91.667 51.236-35.145 0-78.567-37.728-92.303-52.235-10.314-10.959-26.084-17.5-42.205-17.5-7.585 0-14.739 1.424-21.279 4.236l-1.208 0.517-116.067 64.302-1.138 0.796c-20.111 14.09-27.782 41.738-17.871 64.242 0.107 0.235 10.169 23.663 10.169 45.021 0 64.831-52.299 117.578-116.584 117.578h-3.898c-18.742-0.446-34.06 16.163-38.911 42.019-0.382 2.047-9.379 50.478-9.379 88.635 0 38.153 9.001 86.579 9.379 88.627 4.797 25.536 19.789 42.032 38.204 42.032 0.226 0 0.465-0.004 0.707-0.013h3.898c64.282 0 116.584 52.75 116.584 117.583 0 21.364-10.068 44.797-10.145 44.968-9.921 22.528-2.301 50.177 17.718 64.314l1.095 0.769 109.98 62.032 1.161 0.508c6.631 2.94 13.89 4.426 21.586 4.426 16.151 0 31.896-6.687 42.109-17.891 12.893-14.131 57.781-54.479 93.714-54.479 36.183 0 80.386 40.115 94.338 55.544 10.237 11.394 26.093 18.192 42.402 18.2h0.006c7.543 0 14.667-1.441 21.193-4.274l1.185-0.521 114-63.546 1.123-0.794c20.07-14.101 27.724-41.753 17.822-64.248-0.102-0.233-10.164-23.655-10.164-45.01 0-64.833 52.299-117.583 116.579-117.583h3.896c18.721 0.386 34.06-16.161 38.907-42.019 0.389-2.045 9.387-50.474 9.387-88.633 0.001-38.156-8.998-86.582-9.378-88.627z m-41.505 168.492c-91.641 4.806-164.73 81.68-164.73 175.484 0 31.36 12.062 61.432 14.703 67.626l-109.308 61.065c-0.056 0.004-0.113 0.004-0.177 0.004-1.55 0-3.032-0.585-3.552-0.931-1.962-2.173-17.775-19.334-40.587-36.452-34.001-25.523-66.368-38.458-96.201-38.458-29.554 0-61.678 12.694-95.48 37.737-22.683 16.804-38.424 33.653-40.395 35.788-0.523 0.342-1.983 0.912-3.523 0.912-0.088 0-0.169 0-0.237-0.009l-105.42-59.583c2.588-6.072 14.735-36.227 14.735-67.705 0-93.8-73.091-170.672-164.724-175.484-1.324-7.38-8.482-48.774-8.482-79.835 0-31.069 7.161-72.476 8.476-79.844 91.641-4.81 164.73-81.684 164.73-175.482 0-31.309-12.017-61.328-14.69-67.598l111.383-61.838c0.113-0.006 0.239-0.013 0.384-0.013 1.847 0 3.582 0.698 4.155 1.089 1.808 1.909 17.468 18.196 39.998 34.423 33.358 24.031 64.951 36.219 93.894 36.219 28.672 0 60.013-11.953 93.155-35.521 22.393-15.92 37.976-31.896 39.784-33.772 0.568-0.386 2.28-1.063 4.11-1.063 0.177 0 0.329 0.011 0.453 0.017l107.534 60.388c-2.615 6.149-14.716 36.257-14.716 67.668 0 93.798 73.091 170.67 164.73 175.482 1.317 7.383 8.478 48.776 8.478 79.842-0.002 31.067-7.163 72.48-8.48 79.844zM512.345 362.217c-82.536 0-149.444 66.908-149.444 149.444s66.908 149.444 149.444 149.444 149.444-66.908 149.444-149.444-66.908-149.444-149.444-149.444z m0 256.19c-58.954 0-106.746-47.792-106.746-106.746s47.792-106.746 106.746-106.746c58.954 0 106.746 47.792 106.746 106.746s-47.792 106.746-106.746 106.746z" fill="#999999" p-id="6698"></path></svg>