<?xml version="1.0" encoding="utf-8"?>
<!-- Generator: Adobe Illustrator 18.1.0, SVG Export Plug-In . SVG Version: 6.00 Build 0)  -->
<svg version="1.1" id="图层_1" xmlns="http://www.w3.org/2000/svg" xmlns:xlink="http://www.w3.org/1999/xlink" x="0px" y="0px"
	 viewBox="7 -8 28 28" enable-background="new 7 -8 28 28" xml:space="preserve" width="25" height="25">
<g>
	<g>
		<ellipse fill="#FFFFFF" cx="33.2" cy="17.9" rx="0" ry="0"/>
	</g>
</g>
<circle fill="#FFFFFF" stroke="#1E84F2" stroke-width="2" stroke-miterlimit="10" cx="21.1" cy="5.7" r="11"/>
<path fill="#19AC9E" d="M20.7,16.5L20.7,16.5 M26.1,2.7c0,1.4-0.4,2.5-1.1,3.3c-0.8,0.8-1.8,1.2-3.1,1.2h-2.3v5.9h-1.9V-1.8h4.2
	c1.3,0,2.4,0.4,3.1,1.2C25.7,0.2,26.1,1.3,26.1,2.7L26.1,2.7L26.1,2.7z M24.3,2.7c0-1.1-0.2-1.9-0.7-2.3C23,0,22.3-0.2,21.3-0.2
	h-1.9v5.8h1.9c1,0,1.7-0.2,2.2-0.6C24,4.6,24.3,3.9,24.3,2.7L24.3,2.7z"/>
</svg>
