<?xml version="1.0" encoding="utf-8"?>
<!-- Generator: Adobe Illustrator 18.1.0, SVG Export Plug-In . SVG Version: 6.00 Build 0)  -->
<svg version="1.1" id="图层_1" xmlns="http://www.w3.org/2000/svg" xmlns:xlink="http://www.w3.org/1999/xlink" x="0px" y="0px"
	 viewBox="0 0 20 20" enable-background="new 0 0 20 20" xml:space="preserve">
<path fill="#999999" d="M10,20C4.5,20,0,15.5,0,10S4.5,0,10,0s10,4.5,10,10S15.4,20,10,20z M10,1c-5,0-9,4-9,9s4,9,9,9s9-4,9-9
	S14.9,1,10,1z"/>
<path fill="#999999" d="M11.9,13.5H8.1c-0.9,0-1.6-0.7-1.6-1.6V8.1c0-0.9,0.7-1.6,1.6-1.6h3.8c0.9,0,1.6,0.7,1.6,1.6v3.8
	C13.4,12.8,12.7,13.5,11.9,13.5z"/>
</svg>
