<?xml version="1.0" encoding="utf-8"?>
<!-- Generator: Adobe Illustrator 19.0.0, SVG Export Plug-In . SVG Version: 6.00 Build 0)  -->
<svg version="1.1" id="图层_1" xmlns="http://www.w3.org/2000/svg" xmlns:xlink="http://www.w3.org/1999/xlink" x="0px" y="0px"
	 viewBox="-286 409.9 22 22" style="enable-background:new -286 409.9 22 22;" xml:space="preserve">
<style type="text/css">
	.st0{fill:#7B7B7B;}
</style>
<path class="st0" d="M-275.5,409.9c-5.8,0-10.5,4.7-10.5,10.5c0,2.3,0.8,4.4,2,6.1l0.8-0.8c-1.1-1.5-1.7-3.3-1.7-5.3
	c0-5.2,4.2-9.3,9.3-9.3c5.2,0,9.3,4.2,9.3,9.3c0,5.2-4.2,9.3-9.3,9.3c-2,0-3.8-0.6-5.3-1.6l-0.7,0.9c1.7,1.2,3.8,1.9,6,1.9
	c5.8,0,10.4-4.7,10.4-10.4S-269.8,409.9-275.5,409.9L-275.5,409.9z M-275.9,415.1v4.9h-4.9v1.1h4.9v4.9h1.1v-4.9h4.9V420h-4.9v-4.9
	H-275.9z"/>
</svg>
