<?xml version="1.0" encoding="utf-8"?>
<!-- Generator: Adobe Illustrator 18.1.0, SVG Export Plug-In . SVG Version: 6.00 Build 0)  -->
<svg version="1.1" id="图层_1" xmlns="http://www.w3.org/2000/svg" xmlns:xlink="http://www.w3.org/1999/xlink" x="0px" y="0px"
	 viewBox="0 0 30 30" enable-background="new 0 0 30 30" xml:space="preserve">
<path fill="#19AC9E" d="M15.1,0C7.2,0,0.8,6.4,0.8,14.3c0,3.1,1.1,6,2.7,8.3l1.1-1.1c-1.5-2-2.3-4.5-2.3-7.2C2.3,7.2,8,1.6,15,1.6
	c7.1,0,12.7,5.7,12.7,12.7C27.7,21.4,22,27,15,27c-2.7,0-5.2-0.8-7.2-2.2l-1,1.2c2.3,1.6,5.2,2.6,8.2,2.6c7.9,0,14.2-6.4,14.2-14.2
	S22.9,0,15.1,0L15.1,0z M14.6,7.1v6.7H7.9v1.5h6.7V22h1.5v-6.7h6.7v-1.5h-6.7V7.1H14.6z"/>
</svg>
