<?xml version="1.0" standalone="no"?><!DOCTYPE svg PUBLIC "-//W3C//DTD SVG 1.1//EN" "http://www.w3.org/Graphics/SVG/1.1/DTD/svg11.dtd"><svg t="1505717123447" class="icon" style="" viewBox="0 0 1024 1024" version="1.1" xmlns="http://www.w3.org/2000/svg" p-id="6573" xmlns:xlink="http://www.w3.org/1999/xlink" width="18" height="18"><defs><style type="text/css"></style></defs><path d="M779.776 121.499826 244.224 121.499826l0 691.734261 535.552 0L779.776 121.499826 779.776 121.499826zM567.785739 65.714087c0-6.144-5.030957-11.152696-11.152696-11.152696l-111.571478 0c-6.144 0-11.174957 5.008696-11.174957 11.152696l0 11.130435c0 6.144 5.030957 11.152696 11.174957 11.152696l111.571478 0c6.121739 0 11.152696-5.008696 11.152696-11.152696L567.785739 65.714087 567.785739 65.714087zM512 947.133217c24.553739 0 44.633043-20.057043 44.633043-44.633043 0-24.531478-20.079304-44.610783-44.633043-44.610783-24.553739 0-44.633043 20.079304-44.633043 44.610783C467.366957 927.076174 487.446261 947.133217 512 947.133217L512 947.133217zM779.776 1014.093913 244.224 1014.093913c-36.841739 0-66.938435-30.118957-66.938435-66.960696L177.285565 76.844522c0-36.819478 30.096696-66.938435 66.938435-66.938435l535.552 0c36.841739 0 66.960696 30.118957 66.960696 66.938435l0 870.288696C846.736696 983.974957 816.617739 1014.093913 779.776 1014.093913L779.776 1014.093913zM779.776 1014.093913" p-id="6574" fill="#19ac9e"></path></svg>