<?xml version="1.0" standalone="no"?><!DOCTYPE svg PUBLIC "-//W3C//DTD SVG 1.1//EN" "http://www.w3.org/Graphics/SVG/1.1/DTD/svg11.dtd"><svg t="1499394954909" class="icon" style="" viewBox="0 0 1024 1024" version="1.1" xmlns="http://www.w3.org/2000/svg" p-id="5907" xmlns:xlink="http://www.w3.org/1999/xlink" width="18" height="18"><defs><style type="text/css"></style></defs><path d="M844.8 593.066667h-12.8l-59.733333-128c51.2-42.666667 85.333333-110.933333 85.333333-183.466667 0-132.266667-106.666667-243.2-243.2-243.2-132.266667 0-243.2 106.666667-243.2 243.2 0 51.2 17.066667 98.133333 42.666667 136.533333l-170.666667 234.666667c-12.8-4.266667-25.6-4.266667-38.4-4.266667C115.2 648.533333 42.666667 725.333333 42.666667 814.933333 42.666667 908.8 115.2 981.333333 209.066667 981.333333c89.6 0 166.4-72.533333 166.4-166.4 0-51.2-21.333333-93.866667-59.733334-128l153.6-213.333333c42.666667 29.866667 89.6 51.2 145.066667 51.2 34.133333 0 64-8.533333 93.866667-17.066667l55.466666 115.2c-34.133333 25.6-55.466667 64-55.466666 110.933334 0 76.8 59.733333 136.533333 136.533333 136.533333 76.8 0 136.533333-59.733333 136.533333-136.533333 0-76.8-59.733333-140.8-136.533333-140.8z" p-id="5908" fill="#999999"></path></svg>