<?xml version="1.0" encoding="utf-8"?>
<!-- Generator: Adobe Illustrator 19.0.0, SVG Export Plug-In . SVG Version: 6.00 Build 0)  -->
<svg version="1.1" id="图层_1" xmlns="http://www.w3.org/2000/svg" xmlns:xlink="http://www.w3.org/1999/xlink" x="0px" y="0px"
	 viewBox="-286 409.9 23.8 22" style="enable-background:new -286 409.9 23.8 22;" xml:space="preserve">
<style type="text/css">
	.st0{fill:#7B7B7B;}
</style>
<path class="st0" d="M-272,413.5l-0.5-0.1c-0.1,0-0.3,0-0.3,0.2l-4.7,14.6c0,0.1,0,0.3,0.2,0.3l0.5,0.1c0.1,0,0.3,0,0.3-0.2
	l4.7-14.6C-271.8,413.7-271.8,413.6-272,413.5z M-280.4,415.7l-0.3-0.3c-0.1-0.1-0.3-0.1-0.3,0l-4.8,5.2c-0.1,0.1-0.1,0.2,0,0.3
	c-0.1,0.1-0.1,0.2,0,0.3l4.8,5.3c0.1,0.1,0.3,0.1,0.3,0l0.3-0.3c0.1-0.1,0.1-0.3,0-0.3l-4.5-4.9l4.5-4.9
	C-280.3,416-280.3,415.8-280.4,415.7z M-263.4,420.6l-4.8-5.2c-0.1-0.1-0.3-0.1-0.3,0l-0.3,0.3c-0.1,0.1-0.1,0.3,0,0.3l4.5,4.9
	l-4.5,4.9c-0.1,0.1-0.1,0.3,0,0.3l0.3,0.3c0.1,0.1,0.3,0.1,0.3,0l4.8-5.3c0.1-0.1,0.1-0.2,0-0.3
	C-263.3,420.9-263.3,420.7-263.4,420.6z"/>
</svg>
