<?xml version="1.0" standalone="no"?><!DOCTYPE svg PUBLIC "-//W3C//DTD SVG 1.1//EN" "http://www.w3.org/Graphics/SVG/1.1/DTD/svg11.dtd"><svg class="icon" width="18px" height="18.00px" viewBox="0 0 1024 1024" version="1.1" xmlns="http://www.w3.org/2000/svg"><path d="M517.333031 850.449625c7.902031 0 14.965406-1.507188 19.598469-2.838563l116.4895-141.78925 95.207125 0c61.518062 0 111.482687-48.342188 111.482687-107.807L860.110812 305.9315c0-59.456047-49.964625-107.826859-111.482687-107.826859L289.8895 198.104641c-61.488437 0-111.540531 48.371891-111.540531 107.826859l0 292.083313c0 59.462688 50.050984 107.807 111.540531 107.807l78.625875 0 8.797875 9.382688 123.896906 132.750375c4.921063 1.683125 10.303781 2.493875 16.129469 2.493875L517.333031 850.449625zM517.333031 880.037062c-10.454406 0-22.057375-1.742-33.38225-7.117438L355.630688 735.47125l-65.741187 0c-77.986141 0-141.185109-61.541187-141.185109-137.452063L148.704391 305.933594c0-75.934922 63.196797-137.473953 141.185109-137.473953l458.738625 0c77.959625 0 141.185875 61.542313 141.185875 137.473953l0 292.084531c0 75.910812-63.227313 137.450938-141.185875 137.450938l-81.2035 0-112.891875 137.448875c0 0.000875-16.267937 7.11925-37.198625 7.11925l0 0 0 0L517.333031 880.037062" fill="#a7a7a7" /><path d="M356.179219 494.529781c-16.358094 0-29.615375-13.254-29.615375-29.613219 0-16.388844 13.255094-29.646125 29.615375-29.646125 16.385531 0 29.641687 13.257281 29.641687 29.646125C385.820906 481.274687 372.56475 494.529781 356.179219 494.529781L356.179219 494.529781 356.179219 494.529781 356.179219 494.529781z" fill="#a7a7a7" /><path d="M534.029625 494.529781c-16.322875 0-29.64175-13.254-29.64175-29.613219 0-16.388844 13.313344-29.646125 29.64175-29.646125 16.388875 0 29.703312 13.257281 29.703312 29.646125C563.732938 481.274687 550.419625 494.529781 534.029625 494.529781L534.029625 494.529781 534.029625 494.529781 534.029625 494.529781z" fill="#a7a7a7" /><path d="M715.123812 494.529781c-16.330687 0-29.644-13.254-29.644-29.613219 0-16.388844 13.31225-29.646125 29.644-29.646125 16.392125 0 29.70325 13.257281 29.70325 29.646125C744.827062 481.274687 731.514875 494.529781 715.123812 494.529781L715.123812 494.529781 715.123812 494.529781 715.123812 494.529781z" fill="#a7a7a7" /></svg>