<?xml version="1.0" standalone="no"?><!DOCTYPE svg PUBLIC "-//W3C//DTD SVG 1.1//EN" "http://www.w3.org/Graphics/SVG/1.1/DTD/svg11.dtd"><svg class="icon" width="22px" height="22.00px" viewBox="0 0 1024 1024" version="1.1" xmlns="http://www.w3.org/2000/svg"><path d="M511.999 936.4L68.421 732.984c1.503 0.949-39.268-17.438-68.257-33.906 0 24.598 6.217 69.699 29.3 81.873L463.749 975.15c38.372 18 54.933 18 96.529 0l434.285-194.199c21.414-9.947 29.272-56.686 29.272-81.873-27.923 13.895-67.473 33.73-68.238 33.906L511.999 936.4zM29.464 374.076l434.281 194.211c38.376 17.994 54.93 17.994 96.527 0l434.281-194.211c31.985-14.833 33.062-77.901 0-95.903L560.278 50.052c-34.134-20.116-58.153-19.083-96.529 0L29.464 278.176c-33.061 21.165-34.137 77.876 0 95.9zM511.999 88.802c0.465 0.145 0.878 0.39 1.208 0.641l442.396 236.679-443.602 185.946-443.58-185.943L511.999 88.802z" fill="#7b7b7b" /><path d="M513.2 89.443l-1.207-0.641c2.591 2.976 2.538 1.673 1.207 0.641zM29.464 577.484l434.281 194.213c38.376 18.006 54.93 18.006 96.527 0l434.281-194.213c21.425-9.926 29.277-56.656 29.277-81.818-27.924 13.904-67.467 33.707-68.232 33.873L511.999 732.986 68.421 529.541c1.503 0.943-39.268-17.408-68.257-33.875-0.003 24.602 6.217 69.67 29.3 81.818z" fill="#7b7b7b" /></svg>