<?xml version="1.0" encoding="utf-8"?>
<!-- Generator: Adobe Illustrator 19.0.0, SVG Export Plug-In . SVG Version: 6.00 Build 0)  -->
<svg version="1.1" id="图层_1" xmlns="http://www.w3.org/2000/svg" xmlns:xlink="http://www.w3.org/1999/xlink" x="0px" y="0px"
	 viewBox="-286 409.9 22 22" style="enable-background:new -286 409.9 22 22;" xml:space="preserve">
<style type="text/css">
	.st0{fill:#7B7B7B;}
</style>
<path class="st0" d="M-281.3,427.3h-0.9V411h13v0.9h0.9V411c0,0,0-0.9-0.9-0.9h-13c-0.9,0-0.9,0.9-0.9,0.9v16.4c0,0,0,0.9,0.9,0.9
	h0.9V427.3z M-279.5,431.9c-0.9,0-0.9-0.9-0.9-0.9v-17.3c0,0,0-0.9,0.9-0.9h13.9c0.9,0,0.9,0.9,0.9,0.9v11.8l-6.5,6.4H-279.5z
	 M-279.5,431h8.3l5.6-5.5v-11.8h-13.9V431z M-271.2,431.8c0,0-0.1,0-0.1,0c-0.1,0-0.7-0.6-0.7-0.8v-5.5c0,0,0-0.9,0.9-0.9h6.5
	c0,0-0.7,0.6-0.7,0.7l-5.6,6.3C-271.1,431.7-271.1,431.8-271.2,431.8 M-271.1,425.5v5.5l5.6-5.5H-271.1z M-267.4,419.2h-7.4v-0.9
	h7.4V419.2z M-267.4,421.9h-7.4V421h7.4V421.9z M-271.1,415.5h-2.8v0.9h2.8V415.5z M-277.6,418.3h1.9v0.9h-1.9V418.3z M-277.6,421
	h1.9v0.9h-1.9V421z"/>
</svg>
