<?xml version="1.0" encoding="utf-8"?>
<!-- Generator: Adobe Illustrator 18.1.0, SVG Export Plug-In . SVG Version: 6.00 Build 0)  -->
<svg version="1.1" id="图层_1" xmlns="http://www.w3.org/2000/svg" xmlns:xlink="http://www.w3.org/1999/xlink" x="0px" y="0px"
	 viewBox="0 0 30 30" enable-background="new 0 0 30 30" xml:space="preserve">
<path fill="#7B7B7B" d="M4.8,23.6H3.6V1.4h17.7v1.2h1.2V1.4c0,0,0-1.2-1.2-1.2H3.6c-1.2,0-1.2,1.2-1.2,1.2v22.4c0,0,0,1.2,1.2,1.2
	h1.2V23.6z M7.3,29.9c-1.2,0-1.2-1.2-1.2-1.2V5c0,0,0-1.2,1.2-1.2h19c1.2,0,1.2,1.2,1.2,1.2v16.1l-8.9,8.7H7.3z M7.3,28.6h11.3
	l7.6-7.5V5h-19V28.6z M18.6,29.7h-0.1c-0.1,0-1-0.8-1-1.1v-7.5c0,0,0-1.2,1.2-1.2h8.9c0,0-1,0.8-1,1L19,29.5
	C18.8,29.6,18.8,29.7,18.6,29.7 M18.8,21.1v7.5l7.6-7.5H18.8z M23.8,12.5H13.7v-1.2h10.1V12.5z M23.8,16.2H13.7V15h10.1V16.2z
	 M18.8,7.5h-3.8v1.2h3.8V7.5z M9.9,11.3h2.6v1.2H9.9V11.3z M9.9,15h2.6v1.2H9.9V15z"/>
</svg>
