<?xml version="1.0" encoding="utf-8"?>
<!-- Generator: Adobe Illustrator 19.0.0, SVG Export Plug-In . SVG Version: 6.00 Build 0)  -->
<svg version="1.1" id="图层_1" xmlns="http://www.w3.org/2000/svg" xmlns:xlink="http://www.w3.org/1999/xlink" x="0px" y="0px"
	 viewBox="-286 409.9 22 22" style="enable-background:new -286 409.9 22 22;" xml:space="preserve">
<style type="text/css">
	.st0{fill:#7B7B7B;}
</style>
<path class="st0" d="M-275,431.9c-6.1,0-11-4.9-11-11c0-6.1,4.9-11,11-11c6.1,0,11,4.9,11,11C-264,427-268.9,431.9-275,431.9z
	 M-275,411.1c-5.4,0-9.8,4.4-9.8,9.8s4.4,9.8,9.8,9.8c5.4,0,9.8-4.4,9.8-9.8S-269.6,411.1-275,411.1z M-270.1,421.6
	C-270.1,421.6-270.1,421.6-270.1,421.6l-4.2,4.2c-0.2,0.2-0.6,0.2-0.8,0c-0.2-0.2-0.2-0.6,0-0.8l3.2-3.2h-8.1
	c-0.3,0-0.6-0.3-0.6-0.6s0.3-0.6,0.6-0.6h8.1l-3.2-3.1c-0.2-0.2-0.2-0.6,0-0.8c0.2-0.2,0.6-0.2,0.8,0l4.2,4.2c0,0,0,0,0,0
	c0.1,0.1,0.2,0.3,0.2,0.4C-269.9,421.3-270,421.5-270.1,421.6z"/>
</svg>
