<?xml version="1.0" encoding="utf-8"?>
<!-- Generator: Adobe Illustrator 18.1.0, SVG Export Plug-In . SVG Version: 6.00 Build 0)  -->
<svg version="1.1" id="图层_1" xmlns="http://www.w3.org/2000/svg" xmlns:xlink="http://www.w3.org/1999/xlink" x="0px" y="0px"
	 viewBox="0 0 30 30" enable-background="new 0 0 30 30" xml:space="preserve">
<path fill="#24A2E2" d="M29.4,15c0,1.5-1.1,2.6-2.6,2.6H3.2c-1.5,0-2.6-1.1-2.6-2.6l0,0c0-1.5,1.1-2.6,2.6-2.6h23.4
	C28.1,12.4,29.4,13.5,29.4,15L29.4,15z"/>
<path fill="#24A2E2" d="M14.8,0.6c1.5,0,2.6,1.1,2.6,2.6v23.6c0,1.5-1.1,2.6-2.6,2.6l0,0c-1.5,0-2.6-1.1-2.6-2.6V3.2
	C12.2,1.9,13.3,0.6,14.8,0.6L14.8,0.6z"/>
</svg>
