<?xml version="1.0" encoding="utf-8"?>
<!-- Generator: Adobe Illustrator 19.0.0, SVG Export Plug-In . SVG Version: 6.00 Build 0)  -->
<svg version="1.1" id="图层_1" xmlns="http://www.w3.org/2000/svg" xmlns:xlink="http://www.w3.org/1999/xlink" x="0px" y="0px"
	 viewBox="-286 409.9 22 22" style="enable-background:new -286 409.9 22 22;" xml:space="preserve">
<style type="text/css">
	.st0{fill:#7B7B7B;}
</style>
<path class="st0" d="M-286,431.1h21.1v0.8H-286C-286,431.9-286,431.1-286,431.1z"/>
<path class="st0" d="M-284.5,428.5h2.4c0.8,0,1.5-0.7,1.5-1.5v-4.8c0-0.8-0.7-1.5-1.5-1.5h-2.4c-0.8,0-1.5,0.7-1.5,1.5v4.8
	C-286,427.8-285.3,428.5-284.5,428.5z M-285.2,422.2c0-0.4,0.3-0.7,0.7-0.7h2.4c0.4,0,0.7,0.3,0.7,0.7v4.8c0,0.4-0.3,0.7-0.7,0.7
	h-2.4c-0.4,0-0.7-0.3-0.7-0.7V422.2z"/>
<path class="st0" d="M-276.6,428.5h2.4c0.8,0,1.5-0.7,1.5-1.5v-13.8c0-0.8-0.7-1.5-1.5-1.5h-2.4c-0.8,0-1.5,0.7-1.5,1.5V427
	C-278.2,427.8-277.5,428.5-276.6,428.5z M-277.4,413.2c0-0.4,0.3-0.7,0.7-0.7h2.4c0.4,0,0.7,0.3,0.7,0.7V427c0,0.4-0.3,0.7-0.7,0.7
	h-2.4c-0.4,0-0.7-0.3-0.7-0.7V413.2z"/>
<path class="st0" d="M-268.8,428.5h2.4c0.8,0,1.5-0.7,1.5-1.5v-9.7c0-0.8-0.7-1.5-1.5-1.5h-2.4c-0.8,0-1.5,0.7-1.5,1.5v9.7
	C-270.3,427.8-269.6,428.5-268.8,428.5z M-269.5,417.3c0-0.4,0.3-0.7,0.7-0.7h2.4c0.4,0,0.7,0.3,0.7,0.7v9.7c0,0.4-0.3,0.7-0.7,0.7
	h-2.4c-0.4,0-0.7-0.3-0.7-0.7V417.3z"/>
</svg>
