<?xml version="1.0" encoding="utf-8"?>
<!-- Generator: Adobe Illustrator 19.0.0, SVG Export Plug-In . SVG Version: 6.00 Build 0)  -->
<svg version="1.1" id="图层_1" xmlns="http://www.w3.org/2000/svg" xmlns:xlink="http://www.w3.org/1999/xlink" x="0px" y="0px"
	 viewBox="-286 409.9 22 22" style="enable-background:new -286 409.9 22 22;" xml:space="preserve">
<style type="text/css">
	.st0{fill:#7B7B7B;}
</style>
<path class="st0" d="M-264.6,413.9h-6l0-2.5c0-0.3-0.3-0.6-0.6-0.6h-6.8c-0.3,0-0.6,0.3-0.6,0.6l0,2.5h-6c-0.3,0-0.6,0.3-0.6,0.6
	s0.3,0.6,0.6,0.6h1.7v15.9c0,0.3,0.3,0.6,0.6,0.6h15.5c0.3,0,0.6-0.3,0.6-0.6v-15.9h1.7c0.3,0,0.6-0.3,0.6-0.6
	C-264,414.2-264.3,413.9-264.6,413.9z M-277.4,412h5.6l0,1.9h-5.6L-277.4,412z M-267.5,430.5h-14.3v-15.3h14.3L-267.5,430.5
	L-267.5,430.5z"/>
<path class="st0" d="M-278.8,427.7c0.3,0,0.6-0.3,0.6-0.6v-8.6c0-0.3-0.3-0.6-0.6-0.6c-0.3,0-0.6,0.3-0.6,0.6v8.6
	C-279.4,427.5-279.1,427.7-278.8,427.7z"/>
<path class="st0" d="M-274.8,427.7c0.3,0,0.6-0.3,0.6-0.6v-8.6c0-0.3-0.3-0.6-0.6-0.6s-0.6,0.3-0.6,0.6v8.6
	C-275.4,427.5-275.1,427.7-274.8,427.7z"/>
<path class="st0" d="M-270.7,427.7c0.3,0,0.6-0.3,0.6-0.6v-8.6c0-0.3-0.3-0.6-0.6-0.6c-0.3,0-0.6,0.3-0.6,0.6v8.6
	C-271.3,427.5-271.1,427.7-270.7,427.7z"/>
</svg>
