<?xml version="1.0" encoding="utf-8"?>
<!-- Generator: Adobe Illustrator 19.0.0, SVG Export Plug-In . SVG Version: 6.00 Build 0)  -->
<svg version="1.1" id="图层_1" xmlns="http://www.w3.org/2000/svg" xmlns:xlink="http://www.w3.org/1999/xlink" x="0px" y="0px"
	 viewBox="-286 409.9 22 22" style="enable-background:new -286 409.9 22 22;" xml:space="preserve">
<style type="text/css">
	.st0{fill:#D81E06;}
</style>
<path class="st0" d="M-274.9,410c-6,0-10.9,4.9-10.9,10.9c0,6,4.9,10.9,10.9,10.9S-264,427-264,421C-264,414.9-268.9,410-274.9,410z
	 M-284.8,421c0-5.5,4.4-9.9,9.9-9.9c2.6,0,5,1,6.7,2.7l-14,14C-283.8,425.9-284.8,423.6-284.8,421z M-274.9,430.8
	c-2.5,0-4.8-0.9-6.5-2.4l14-14c1.5,1.7,2.4,4,2.4,6.5C-265,426.4-269.5,430.8-274.9,430.8z"/>
</svg>
