<?xml version="1.0" encoding="utf-8"?>
<!-- Generator: Adobe Illustrator 19.0.0, SVG Export Plug-In . SVG Version: 6.00 Build 0)  -->
<svg version="1.1" id="图层_1" xmlns="http://www.w3.org/2000/svg" xmlns:xlink="http://www.w3.org/1999/xlink" x="0px" y="0px"
	 viewBox="-286 409.9 22 22" style="enable-background:new -286 409.9 22 22;" xml:space="preserve">
<style type="text/css">
	.st0{fill:#7B7B7B;}
</style>
<path class="st0" d="M-264.6,420.4c-0.4,0-0.6,0.3-0.6,0.6v9.2c0,0.2-0.2,0.4-0.4,0.4h-18.6c-0.2,0-0.4-0.2-0.4-0.4V421
	c0-0.4-0.3-0.6-0.6-0.6c-0.4,0-0.6,0.3-0.6,0.6v9.2c0,0.9,0.8,1.7,1.7,1.7h18.6c0.9,0,1.7-0.8,1.7-1.7V421
	C-264,420.7-264.3,420.4-264.6,420.4z"/>
<path class="st0" d="M-275.4,427.6c0.1,0.1,0.3,0.2,0.5,0.2s0.3-0.1,0.5-0.2l6.1-6.1c0.3-0.3,0.3-0.7,0-0.9c-0.3-0.3-0.7-0.3-0.9,0
	l-5,5v-15c0-0.4-0.3-0.6-0.6-0.6s-0.6,0.3-0.6,0.6v15l-5-5c-0.3-0.3-0.7-0.3-0.9,0c-0.3,0.3-0.3,0.7,0,0.9L-275.4,427.6z"/>
</svg>
