<?xml version="1.0" standalone="no"?><!DOCTYPE svg PUBLIC "-//W3C//DTD SVG 1.1//EN" "http://www.w3.org/Graphics/SVG/1.1/DTD/svg11.dtd"><svg t="1502265719187" class="icon" style="" viewBox="0 0 1024 1024" version="1.1" xmlns="http://www.w3.org/2000/svg" p-id="1920" xmlns:xlink="http://www.w3.org/1999/xlink" width="20" height="20"><defs><style type="text/css"></style></defs><path d="M283.412403 455.47058a28.884499 28.884499 0 0 0 0 41.974761l209.896902 210.015471c2.021823 1.954069 2.982689 2.981149 5.002972 3.972812 0 0 1.062496 1.079435 1.954069 1.079435 1.02708 0.943928 2.089576 2.021823 3.047362 2.021822 1.011681 0 2.023362 0.959326 2.982689 0.959327 1.011681 0 1.954069 0.943928 2.96575 0.943927 3.923537 1.145648 8.102689 1.145648 12.043164 0 0.926989 0 1.937131-0.943928 2.914936-0.943927 1.010141 0 2.021823-0.959326 3.031964-0.959327 1.02862-1.12717 1.955609-1.12717 2.981148-2.021822 0 0 0.962406-1.079435 1.955609-1.079435a22.352457 22.352457 0 0 0 5.001432-3.972812l209.964656-210.015471a28.964571 28.964571 0 0 0 0-41.974761 30.353516 30.353516 0 0 0-21.020488-8.994261 30.533678 30.533678 0 0 0-21.006628 8.994261L546.30015 614.463134V116.646689a29.406508 29.406508 0 0 0-8.589281-21.442406 29.622087 29.622087 0 0 0-21.410069-8.693991 29.643645 29.643645 0 0 0-21.383892 8.717088 29.637486 29.637486 0 0 0-8.632397 21.417769V614.461594L327.324295 455.47058a28.761311 28.761311 0 0 0-21.003549-8.994261 36.928674 36.928674 0 0 0-22.908343 8.994261z" fill="#999999" p-id="1921"></path><path d="M984.67378 587.173919a29.585131 29.585131 0 0 0-30.065563 30.065564v231.912132c-0.029257 43.061895-34.926869 77.968746-77.988764 78.004162H152.851633c-43.020319-0.110869-77.857877-34.983844-77.92101-78.004162v-231.962947a29.463483 29.463483 0 0 0-8.658575-21.41007 29.642105 29.642105 0 0 0-21.408529-8.657034A29.511218 29.511218 0 0 0 14.864168 617.171729v231.947549c0 76.000818 61.969708 137.972066 137.972067 137.972066h724.808757c76.019296 0 137.975146-61.986647 137.975146-137.972066V617.173269c-0.540487-16.708908-14.22975-29.980872-30.946358-29.99935z" fill="#999999" p-id="1922"></path></svg>