<?xml version="1.0" standalone="no"?><!DOCTYPE svg PUBLIC "-//W3C//DTD SVG 1.1//EN" "http://www.w3.org/Graphics/SVG/1.1/DTD/svg11.dtd"><svg t="1494581953665" class="icon" style="" viewBox="0 0 1024 1024" version="1.1" xmlns="http://www.w3.org/2000/svg" p-id="14246" xmlns:xlink="http://www.w3.org/1999/xlink" width="18" height="18"><defs><style type="text/css"></style></defs><path d="M512 509.952m-137.216 0a13.4 13.4 0 1 0 274.432 0 13.4 13.4 0 1 0-274.432 0Z" p-id="14247" fill="#19ac9e"></path><path d="M815.104 482.304c-12.288-147.456-131.072-264.192-278.528-274.432l0-77.824-52.224 0 0 78.848C340.992 222.208 227.328 337.92 215.04 482.304l-77.824 0 0 52.224L215.04 534.528c12.288 144.384 125.952 259.072 269.312 273.408l0 78.848 52.224 0L536.576 808.96c147.456-10.24 266.24-126.976 278.528-274.432l77.824 0 0-52.224L815.104 482.304 815.104 482.304zM515.072 754.688c-136.192 0-245.76-110.592-245.76-245.76s110.592-245.76 245.76-245.76c136.192 0 245.76 110.592 245.76 245.76S651.264 754.688 515.072 754.688z" p-id="14248" fill="#19ac9e"></path></svg>