<?xml version="1.0" encoding="utf-8"?>
<!-- Generator: Adobe Illustrator 18.1.0, SVG Export Plug-In . SVG Version: 6.00 Build 0)  -->
<svg version="1.1" id="图层_1" xmlns="http://www.w3.org/2000/svg" xmlns:xlink="http://www.w3.org/1999/xlink" x="0px" y="0px"
	 viewBox="0 0 30 30" enable-background="new 0 0 30 30" xml:space="preserve">
<path fill="#19AC9E" d="M9.4,16.4C9.4,16.4,9.4,16.6,9.4,16.4L7.9,22c0,0.4,0,0.7,0.2,0.9c0.2,0.2,0.4,0.2,0.8,0.2H9l5.4-1.5l0,0
	h0.2L29.3,7C29.6,6.7,30,6.1,30,5.4s-0.4-1.5-0.9-2.1L27.8,2c-0.6-0.6-1.3-0.8-2.1-0.8c-0.6,0-1.1,0.2-1.7,0.6L9.4,16.4L9.4,16.4
	 M27.9,5.5L26.4,7L24,4.6l1.5-1.5c0.2-0.2,0.8-0.2,0.9,0l1.3,1.3c0.2,0.4,0.4,0.6,0.4,0.8C28.1,5.4,27.9,5.5,27.9,5.5 M12,16.8
	L22.5,6.1l2.4,2.4L14.4,19L12,16.8L12,16.8L12,16.8z M9.9,20.9l0.8-2.8l2.1,2.1L9.9,20.9L9.9,20.9L9.9,20.9z M28.9,11.4
	c-0.6,0-0.9,0.4-0.9,0.9V26c0,0.8-0.6,1.3-1.3,1.3H3.4c-0.8,0-1.3-0.6-1.3-1.3V3.9c0-0.7,0.6-1.3,1.3-1.3h15c0.6,0,0.9-0.4,0.9-0.9
	s-0.4-0.9-0.9-0.9h-15C1.5,0.5,0,2,0,3.7v22.5c0,1.7,1.5,3.2,3.2,3.2h23.4c1.7,0,3.2-1.5,3.2-3.2V12.5
	C29.8,11.9,29.4,11.4,28.9,11.4"/>
</svg>
