<?xml version="1.0" encoding="utf-8"?>
<!-- Generator: Adobe Illustrator 19.0.0, SVG Export Plug-In . SVG Version: 6.00 Build 0)  -->
<svg version="1.1" id="图层_1" xmlns="http://www.w3.org/2000/svg" xmlns:xlink="http://www.w3.org/1999/xlink" x="0px" y="0px"
	 viewBox="-286 408 24.1 23.9" style="enable-background:new -286 408 24.1 23.9;" xml:space="preserve">
<style type="text/css">
	.st0{fill:#7B7B7B;}
</style>
<path class="st0" d="M-276.4,424.5l0.8-0.8l-1.9-1.9l-0.8,0.7c-0.4,0.4-0.6,1-0.3,1.1l1.1,1.2C-277.2,424.9-276.6,424.7-276.4,424.5
	z M-267.3,415.4l-1.9-1.9l-7.6,7.6l1.9,1.9L-267.3,415.4z M-266.9,411.8c-0.3-0.3-0.7-0.1-1.1,0.3l-0.7,0.5l1.9,1.9l0.5-0.5
	c0.4-0.4,0.6-0.8,0.3-1.1L-266.9,411.8z M-280.1,426.3l2.1-0.7l-1.4-1.4L-280.1,426.3z M-279.5,422.4l11.4-11.4
	c0.4-0.4,1.1-0.4,1.4-0.1l1.9,1.9c0.4,0.4,0.3,1-0.1,1.4l-11.4,11.4c-0.1,0.1-0.3,0.3-0.4,0.3l0.1,0.1l-5,1.8l1.8-5h0.1
	C-279.7,422.7-279.7,422.5-279.5,422.4z"/>
<path class="st0" d="M-265,431.9H-285c-0.5,0-1-0.4-1-1v-20.1c0-0.5,0.4-1,1-1h12.4v1h-11.5c-0.4,0-0.8,0.4-0.8,0.8V430
	c0,0.5,0.4,1,1,1h18.3c0.6,0,1-0.4,1-1v-11.4h0.8v12.4C-264,431.5-264.4,431.9-265,431.9z"/>
</svg>
