<?xml version="1.0" encoding="utf-8"?>
<!-- Generator: Adobe Illustrator 19.0.0, SVG Export Plug-In . SVG Version: 6.00 Build 0)  -->
<svg version="1.1" id="图层_1" xmlns="http://www.w3.org/2000/svg" xmlns:xlink="http://www.w3.org/1999/xlink" x="0px" y="0px"
	 viewBox="-286 409.9 22 22" style="enable-background:new -286 409.9 22 22;" xml:space="preserve">
<style type="text/css">
	.st0{fill:#7B7B7B;}
</style>
<path class="st0" d="M-271.1,431.9h-7.8c-3.9,0-7.1-3.2-7.1-7.1V417c0-3.9,3.2-7.1,7.1-7.1h7.8c3.9,0,7.1,3.2,7.1,7.1v7.8
	C-264,428.7-267.2,431.9-271.1,431.9z M-278.9,411c-3.3,0-6,2.7-6,6v7.8c0,3.3,2.7,6,6,6h7.8c3.3,0,6-2.7,6-6V417c0-3.3-2.7-6-6-6
	H-278.9z"/>
<path class="st0" d="M-274.2,416.6v3.9c0,0.4-0.4,0.8-0.8,0.8c-0.4,0-0.8-0.4-0.8-0.8v-3.9c0-0.4,0.4-0.8,0.8-0.8
	C-274.6,415.8-274.2,416.1-274.2,416.6L-274.2,416.6z M-269.9,420.9c0-1.6-0.7-3-1.9-4c-0.3-0.2-0.6-0.2-0.8,0.1
	c-0.2,0.3-0.2,0.6,0.1,0.8c0.9,0.7,1.5,1.8,1.5,3c0,2.1-1.7,3.9-3.9,3.9c-2.1,0-3.9-1.7-3.9-3.9c0-1.2,0.5-2.3,1.5-3
	c0.3-0.2,0.3-0.6,0.1-0.8c-0.2-0.3-0.6-0.3-0.8-0.1c-1.2,1-1.9,2.4-1.9,4c0,2.8,2.3,5.1,5.1,5.1C-272.2,426-269.9,423.7-269.9,420.9
	L-269.9,420.9z"/>
</svg>
