<?xml version="1.0" encoding="utf-8"?>
<!-- Generator: Adobe Illustrator 19.0.0, SVG Export Plug-In . SVG Version: 6.00 Build 0)  -->
<svg version="1.1" id="图层_1" xmlns="http://www.w3.org/2000/svg" xmlns:xlink="http://www.w3.org/1999/xlink" x="0px" y="0px"
	 viewBox="-286 409.9 22 22" style="enable-background:new -286 409.9 22 22;" xml:space="preserve">
<style type="text/css">
	.st0{fill:#7B7B7B;}
</style>
<path class="st0" d="M-264,420.8c0-1-0.8-1.7-1.7-1.7c-1,0-1.7,0.8-1.7,1.7c0,0.7,0.4,1.3,1.1,1.6c-0.3,1.7-1.1,3.3-2.4,4.6
	c-1.6,1.6-3.8,2.6-6.2,2.6c-3.2,0-6.1-1.7-7.7-4.5c-0.1-0.3-0.5-0.4-0.7-0.2c-0.3,0.1-0.4,0.5-0.2,0.7c1.7,3.1,5,5.1,8.6,5.1
	c1.3,0,2.6-0.3,3.8-0.8c1.2-0.5,2.2-1.2,3.1-2.1c0.9-0.9,1.6-1.9,2.1-3.1c0.3-0.7,0.5-1.4,0.6-2.1C-264.6,422.3-264,421.6-264,420.8
	L-264,420.8z M-282.5,420.8c0-0.7-0.4-1.3-1.1-1.6c0.3-1.7,1.1-3.3,2.4-4.6c1.6-1.6,3.8-2.6,6.2-2.6c3.2,0,6.1,1.7,7.7,4.5
	c0.1,0.3,0.5,0.4,0.7,0.2c0.3-0.1,0.4-0.5,0.2-0.7c-1.7-3.1-5-5.1-8.6-5.1c-1.3,0-2.6,0.3-3.8,0.8c-1.2,0.5-2.2,1.2-3.1,2.1
	c-0.9,0.9-1.6,1.9-2.1,3.1c-0.3,0.7-0.5,1.4-0.6,2.1c-0.8,0.2-1.4,0.9-1.4,1.7c0,1,0.8,1.7,1.7,1.7
	C-283.3,422.6-282.5,421.8-282.5,420.8z"/>
</svg>
