<?xml version="1.0" standalone="no"?><!DOCTYPE svg PUBLIC "-//W3C//DTD SVG 1.1//EN" "http://www.w3.org/Graphics/SVG/1.1/DTD/svg11.dtd"><svg t="1494238969197" class="icon" style="" viewBox="0 0 1024 1024" version="1.1" xmlns="http://www.w3.org/2000/svg" p-id="4525" xmlns:xlink="http://www.w3.org/1999/xlink" width="18" height="18"><defs><style type="text/css"></style></defs><path d="M511.999488 676.360372c-90.629113 0-164.361395-73.732282-164.361395-164.360372 0-90.629113 73.732282-164.361395 164.361395-164.361395 90.62809 0 164.360372 73.732282 164.360372 164.361395s-73.732282 164.360372-164.360372 164.360372z m0-267.323395c-56.774051 0-102.963023 46.188972-102.963023 102.963023 0 56.773028 46.188972 102.962 102.963023 102.962 56.773028 0 102.962-46.188972 102.962-102.962 0-56.774051-46.188972-102.963023-102.962-102.963023z" fill="#999999" p-id="4526"></path><path d="M511.999488 819.011302c-0.224104 0-0.447185-0.002047-0.670265-0.007163-61.842487-1.350764-124.605949-17.72571-186.544627-48.668443-48.701189-24.329105-97.006358-57.68991-143.571906-99.154277-78.729086-70.100568-125.199467-138.881071-127.138632-141.774981a30.55797 30.55797 0 0 1-5.200442-17.384949 30.5549 30.5549 0 0 1 5.200442-17.427927c1.940189-2.89391 48.41057-71.674413 127.138632-141.776004 46.565549-41.464367 94.869694-74.824149 143.571906-99.153254 61.939701-30.942733 124.70214-47.316655 186.544627-48.66742 0.448208-0.010233 0.893346-0.010233 1.341554 0 61.84351 1.350764 124.605949 17.724687 186.54565 48.66742 48.702212 24.329105 97.006358 57.688887 143.571907 99.153254 78.728062 70.101591 125.198443 138.883117 127.137608 141.776004a30.691 30.691 0 0 1 5.199419 17.093306v0.62524a30.699186 30.699186 0 0 1-5.199419 17.093307c-1.940189 2.89391-48.409546 71.674413-127.136585 141.776004-46.566572 41.464367-94.870718 74.824149-143.57293 99.154277-61.938678 30.94171-124.70214 47.316655-186.54565 48.668443-0.225127 0.005117-0.447185 0.007163-0.671289 0.007163zM117.277542 512.00614c17.954931 23.707958 54.937217 69.133543 105.875352 114.309442 65.787332 58.344826 169.262008 128.419811 288.846594 131.289162 196.931185-4.716418 351.377766-188.451046 394.721947-245.611907-17.948791-23.698748-54.933123-69.128427-105.876376-114.308419-65.787332-58.344826-169.260985-128.420835-288.846594-131.289162-196.930161 4.717442-351.375719 188.450023-394.720923 245.610884z" fill="#999999" p-id="4527"></path></svg>