<?xml version="1.0" standalone="no"?><!DOCTYPE svg PUBLIC "-//W3C//DTD SVG 1.1//EN" "http://www.w3.org/Graphics/SVG/1.1/DTD/svg11.dtd"><svg t="1499754410984" class="icon" style="" viewBox="0 0 1024 1024" version="1.1" xmlns="http://www.w3.org/2000/svg" p-id="14987" xmlns:xlink="http://www.w3.org/1999/xlink" width="14" height="14"><defs><style type="text/css"></style></defs><path d="M722.187453 193.807548h191.76006a29.496626 29.496626 0 0 0-8.63784-19.643089L738.75931 7.614096a26.04149 26.04149 0 0 0-18.299425-7.550112h-0.191952v191.888028a1.91952 1.91952 0 0 0 1.91952 1.855536z" fill="#aaaaaa" p-id="14988"></path><path d="M683.797051 206.028493V0.063984H151.194201a41.397651 41.397651 0 0 0-41.333666 41.333667v940.884778c0 22.842289 18.555361 41.333667 41.333666 41.333667h721.547614a41.333667 41.333667 0 0 0 41.333666-41.333667V230.406398h-206.028493a24.313922 24.313922 0 0 1-24.249937-24.377905z m47.540115 471.754061a16.827793 16.827793 0 0 1-16.891777 16.827793h-405.018746a16.827793 16.827793 0 0 1-16.827793-16.827793v-39.542114c0-9.213697 7.550112-16.763809 16.827793-16.763809h405.018746c9.341665 0 16.891777 7.550112 16.891777 16.763809v39.542114z m0-146.203449a16.827793 16.827793 0 0 1-16.891777 16.763809h-405.018746a16.827793 16.827793 0 0 1-16.827793-16.763809v-39.47813c0-9.277681 7.550112-16.827793 16.827793-16.827793h405.018746c9.341665 0 16.891777 7.550112 16.891777 16.827793v39.47813z m0-185.745563v39.542114a16.827793 16.827793 0 0 1-16.891777 16.763809h-405.018746a16.827793 16.827793 0 0 1-16.827793-16.763809v-39.542114c0-9.277681 7.550112-16.827793 16.827793-16.827793h405.018746a16.955761 16.955761 0 0 1 16.891777 16.827793z" fill="#aaaaaa" p-id="14989"></path></svg>