<?xml version="1.0" encoding="utf-8"?>
<!-- Generator: Adobe Illustrator 19.0.0, SVG Export Plug-In . SVG Version: 6.00 Build 0)  -->
<svg version="1.1" id="图层_1" xmlns="http://www.w3.org/2000/svg" xmlns:xlink="http://www.w3.org/1999/xlink" x="0px" y="0px"
	 viewBox="-286 410.3 22 21.6" style="enable-background:new -286 410.3 22 21.6;" xml:space="preserve">
<style type="text/css">
	.st0{fill:#7B7B7B;}
</style>
<path class="st0" d="M-264.6,431.4v-0.5H-285V411h19.9v20.4H-264.6v-0.5V431.4h0.5V410H-286v21.9h21.9v-0.5H-264.6z"/>
<path class="st0" d="M-277.6,421.4C-277.7,421.4-277.7,421.4-277.6,421.4c-1.4-0.4-2.3-1.5-2.4-2.8c-0.1-0.8,0.2-1.6,0.8-2.3
	c0.6-0.6,1.3-1,2.2-1.1c0.1,0,0.1,0,0.2,0c0.8,0,1.5,0.3,2.1,0.8c0.6,0.6,1,1.3,1.1,2.1c0,0.5,0,0.9-0.2,1.3
	c-0.1,0.1-0.2,0.2-0.3,0.2c0,0-0.1,0-0.1,0c-0.1,0-0.2-0.1-0.2-0.2c0-0.1,0-0.2,0-0.3c0.1-0.3,0.2-0.7,0.1-1
	c-0.1-1.3-1.1-2.3-2.4-2.3c-0.1,0-0.1,0-0.2,0c-0.6,0-1.2,0.3-1.7,0.8c-0.4,0.5-0.6,1.1-0.6,1.8c0.1,1,0.8,1.9,1.8,2.2
	c0.1,0,0.2,0.1,0.2,0.2c0,0.1,0.1,0.2,0,0.3C-277.3,421.3-277.5,421.4-277.6,421.4z M-272.8,420.5c-0.1,0-0.3-0.1-0.3-0.2
	c-0.1-0.2-0.1-0.4,0.1-0.6c0.1-0.2,0.3-0.3,0.5-0.4l0.2-0.1c0.1,0,0.2-0.1,0.3-0.1c0.1,0,0.2,0,0.3,0.1c0.2,0.1,0.3,0.2,0.4,0.4
	c0.1,0.2,0,0.4-0.2,0.4c0,0-0.1,0-0.1,0c-0.1,0-0.3-0.1-0.3-0.2l0-0.1h-0.1c0,0,0,0-0.1,0l-0.2,0.1c-0.1,0-0.1,0.1-0.1,0.1l0,0l0,0
	c0,0.1,0,0.2,0,0.3c0,0.1-0.1,0.1-0.2,0.2C-272.8,420.5-272.8,420.5-272.8,420.5z"/>
<path class="st0" d="M-274.6,426.6c-0.3,0-0.7-0.2-0.9-0.4c-0.1-0.1-0.1-0.4,0-0.5c0.1-0.1,0.2-0.1,0.2-0.1c0.1,0,0.2,0,0.2,0.1
	c0.1,0.1,0.3,0.2,0.4,0.2c0,0,0.1,0,0.1,0l3.4-1.4c0.1-0.1,0.3-0.3,0.3-0.4l0,0l0,0l-1.2-4.3c0-0.1,0-0.2,0-0.3
	c0-0.1,0.1-0.1,0.2-0.2c0,0,0.1,0,0.1,0c0.2,0,0.3,0.1,0.3,0.2l1.2,4.3c0.2,0.5-0.2,1.1-0.7,1.2l-3.4,1.4
	C-274.3,426.6-274.4,426.6-274.6,426.6z M-275.9,423.8c-0.1,0-0.3-0.1-0.3-0.2l-1.7-4.9c-0.1-0.2-0.1-0.4,0.1-0.6
	c0.1-0.2,0.3-0.3,0.5-0.4l0.3-0.1c0.2-0.1,0.3-0.1,0.5-0.1c0.1,0,0.2,0,0.3,0.1c0.2,0.1,0.3,0.2,0.4,0.4l1.2,3.6c0,0.1,0,0.2,0,0.3
	c0,0.1-0.1,0.1-0.2,0.2c-0.2,0.1-0.4,0-0.4-0.2c0,0,0,0,0,0l-1.2-3.7l-0.1,0c0,0-0.1,0-0.2,0.1l-0.3,0.1c-0.1,0-0.1,0.1-0.1,0.1l0,0
	l1.7,4.9c0,0.1,0,0.2,0,0.3c0,0.1-0.1,0.1-0.2,0.2C-275.8,423.8-275.8,423.8-275.9,423.8z"/>
<path class="st0" d="M-275.1,426.4c-0.1,0-0.2,0-0.2-0.1l-2.9-2.6c-0.2-0.1-0.3-0.3-0.3-0.6c0-0.2,0.1-0.4,0.2-0.6l0.2-0.3
	c0.1-0.2,0.4-0.3,0.6-0.3c0,0,0.1,0,0.1,0c0.2,0,0.3,0.1,0.5,0.2l1.3,1.2c0.1,0.1,0.1,0.1,0.1,0.2c0,0.1,0,0.2-0.1,0.2
	c-0.1,0.1-0.2,0.1-0.3,0.1c-0.1,0-0.2,0-0.2-0.1l-1.3-1.2l-0.1,0.1c0,0,0,0,0,0l-0.2,0.3c0,0.1-0.1,0.1-0.1,0.2l0,0l2.9,2.7
	c0.1,0.1,0.1,0.1,0.1,0.2c0,0.1,0,0.2-0.1,0.2C-274.9,426.3-275,426.4-275.1,426.4z M-275.1,421.4c-0.1,0-0.3-0.1-0.3-0.2
	c-0.1-0.2-0.1-0.4,0.1-0.6c0.1-0.2,0.3-0.3,0.5-0.4l0.2-0.1c0.1,0,0.2-0.1,0.3-0.1c0.1,0,0.2,0,0.3,0.1c0.2,0.1,0.3,0.2,0.4,0.4
	c0,0.1,0,0.2,0,0.3c0,0.1-0.1,0.1-0.2,0.2c0,0-0.1,0-0.1,0c-0.1,0-0.3-0.1-0.3-0.2l0-0.1h-0.1c0,0,0,0-0.1,0l-0.2,0.1
	c-0.1,0-0.1,0.1-0.1,0.1l0,0l0,0c0.1,0.2,0,0.4-0.2,0.4C-275.1,421.4-275.1,421.4-275.1,421.4z"/>
<path class="st0" d="M-273.8,421.6c-0.1,0-0.3-0.1-0.3-0.2l-0.2-0.6c-0.1-0.2-0.1-0.4,0.1-0.6c0.1-0.2,0.3-0.3,0.5-0.4l0.2-0.1
	c0.1,0,0.2-0.1,0.3-0.1c0.1,0,0.2,0,0.3,0.1c0.2,0.1,0.3,0.2,0.4,0.4l0.2,0.6c0,0.1,0,0.2,0,0.3c0,0.1-0.1,0.1-0.2,0.2
	c-0.2,0.1-0.4,0-0.4-0.2c0,0,0,0,0,0l-0.2-0.7l-0.1,0c0,0,0,0-0.1,0l-0.2,0.1c-0.1,0-0.1,0.1-0.1,0.1l0,0l0.2,0.7c0,0.1,0,0.2,0,0.3
	c0,0.1-0.1,0.1-0.2,0.2C-273.7,421.6-273.7,421.6-273.8,421.6z"/>
</svg>
