<?xml version="1.0" standalone="no"?><!DOCTYPE svg PUBLIC "-//W3C//DTD SVG 1.1//EN" "http://www.w3.org/Graphics/SVG/1.1/DTD/svg11.dtd"><svg t="1499754848818" class="icon" style="" viewBox="0 0 1085 1024" version="1.1" xmlns="http://www.w3.org/2000/svg" p-id="18254" xmlns:xlink="http://www.w3.org/1999/xlink" width="16.953125" height="16"><defs><style type="text/css"></style></defs><path d="M818.695498 905.89199c-7.809239 32.224332-25.761513 57.447276-57.447276 57.447276l-718.090955 0 100.532734-473.94003c7.539955-33.750275 25.58199-57.447276 57.357515-57.447276l660.823202 0c31.685763 0 57.357515 25.761513 57.357515 57.447276L818.695498 905.89199 818.695498 905.89199 818.695498 905.89199zM157.962058 388.866502l646.371621 0L804.333679 332.406601c0-31.775525-25.761513-57.447276-57.447276-57.447276l-344.683658 0 0-52.061594c0-31.685763-25.761513-57.447276-57.447276-57.447276L57.429324 165.450454c-31.685763 0-57.447276 25.761513-57.447276 57.447276l0 682.99426 100.442972-459.578211C107.875214 415.076822 126.276294 388.866502 157.962058 388.866502L157.962058 388.866502 157.962058 388.866502z" p-id="18255" fill="#aaaaaa"></path></svg>