<?xml version="1.0" standalone="no"?><!DOCTYPE svg PUBLIC "-//W3C//DTD SVG 1.1//EN" "http://www.w3.org/Graphics/SVG/1.1/DTD/svg11.dtd"><svg t="1511321289916" class="icon" style="" viewBox="0 0 1024 1024" version="1.1" xmlns="http://www.w3.org/2000/svg" p-id="1440" xmlns:xlink="http://www.w3.org/1999/xlink" width="14" height="14"><defs><style type="text/css"></style></defs><path d="M354.740709 451.368786v326.654639c0 18.090591 7.16797 35.24252 20.266582 48.341132l176.68193 176.639264c12.671947 13.61061 30.463873 21.205245 49.066463 20.991912 9.215962-0.170666 18.34659-2.047991 26.965221-5.503977 25.215895-10.879955 41.55716-35.669185 41.599826-63.146403V451.411452l333.993275-333.993275c20.05325-19.029254 26.282557-49.322461 15.274603-75.81835A68.991713 68.991713 0 0 0 955.442206 0H68.619234A69.119712 69.119712 0 0 0 5.344831 41.941159c-10.922621 26.111891-4.693314 56.405098 14.933271 74.965021l334.462607 334.462606zM49.931312 60.970413a20.735914 20.735914 0 0 1 18.645256-12.458615h886.865638a20.607914 20.607914 0 0 1 18.474589 12.074616 19.626585 19.626585 0 0 1-4.479981 22.015908l-348.670547 348.670548v524.115149c0 7.8933-4.991979 15.359936-11.263953 18.133258a27.775884 27.775884 0 0 1-8.831963 1.919992 17.706593 17.706593 0 0 1-13.994609-6.058641l-177.364594-177.321928a19.92525 19.92525 0 0 1-6.101308-14.079942v-346.707888L54.069961 82.132991a19.327919 19.327919 0 0 1-4.095983-21.162578z" fill="#999999" p-id="1441"></path></svg>