<?xml version="1.0" encoding="utf-8"?>
<!-- Generator: Adobe Illustrator 18.1.0, SVG Export Plug-In . SVG Version: 6.00 Build 0)  -->
<svg version="1.1" id="图层_1" xmlns="http://www.w3.org/2000/svg" xmlns:xlink="http://www.w3.org/1999/xlink" x="0px" y="0px"
	 viewBox="0 0 20 20" enable-background="new 0 0 20 20" xml:space="preserve">
<g id="图层_1_1_" display="none">
</g>
<g id="图层_2" display="none">
	<g display="inline">
		<path fill="#3465B0" d="M13.7,6.8h-1.2V10h1.2c0.5,0,0.8-0.1,1.1-0.5s0.5-0.8,0.5-1.2C15.1,7.2,14.6,6.8,13.7,6.8z"/>
		<path fill="#3465B0" d="M13.2,4.1C10,4.1,7.3,6.7,7.3,10s2.6,5.9,5.9,5.9s5.9-2.6,5.9-5.9C19.2,6.8,16.6,4.1,13.2,4.1z M15.5,10.1
			c-0.5,0.5-1.1,0.6-1.9,0.6h-1.2v3.7h-1.1V5.9h2.1c0.6,0,1.2,0.1,1.5,0.3c0.8,0.3,1.1,1.1,1.1,2.1C16.3,9.1,16,9.7,15.5,10.1z"/>
	</g>
	<path display="inline" fill="#279B81" d="M9.2,5.5c1.1-0.9,2.5-1.5,4-1.5H4.6L1.8,9.5H1.5c-0.3,0-0.6,0.3-0.6,0.6v2.6
		c0,0.3,0.3,0.6,0.6,0.6H2c0,0,0,0,0,0.1v2.1c0,0.3,0.3,0.6,0.6,0.6h2.1c0.3,0,0.6-0.3,0.6-0.6v-2.3c0,0,0,0,0-0.1H8
		c-0.5-0.8-0.8-2-0.8-3.1c0-0.5,0-0.9,0.1-1.4H3.9l1.5-3.4C5.5,5.5,9.2,5.5,9.2,5.5z M4,10.8h2c0.3,0,0.6,0.3,0.6,0.6v0.5
		c0,0.3-0.3,0.6-0.6,0.6H4c-0.3,0-0.6-0.3-0.6-0.6v-0.5C3.4,11.1,3.7,10.8,4,10.8z"/>
</g>
<g id="图层_3" display="none">
	<g display="inline">
		<polygon fill="#040000" points="0.9,14.8 9.1,17.9 9.1,9.7 0.9,6.8 		"/>
		<polygon fill="#040000" points="9.4,9.7 9.4,17.9 17.4,14.8 17.4,6.8 		"/>
		<polygon fill="#040000" points="9.1,3.2 0.9,6.5 9.2,9.5 17.4,6.5 		"/>
	</g>
</g>
<g id="图层_4" display="none">
	<path display="inline" fill="#040000" d="M1.9,1.7v15.9h15.9V1.7H1.9z M16.5,16.5H2.9V8.8h1.2l2.8,3.5l2.1-6.1l2,7.5h0.5l0.9-4.1
		l0.3,0.3h3.7C16.5,9.9,16.5,16.5,16.5,16.5z M16.5,9.1h-3.7L12.3,8l-1.1,4.1l-2-8.3l-2.5,7.1L4.2,7.7H2.9V2.8h13.7L16.5,9.1
		L16.5,9.1z"/>
</g>
<g id="图层_5" display="none">
	<path display="inline" d="M19.5,9.7h-1.2c0-2.1-0.9-4-2.3-5.4l0.9-0.9c0.1-0.1,0.1-0.3,0-0.5c-0.1-0.1-0.3-0.1-0.5,0l-0.9,0.9
		c-1.2-1.4-3.2-2.3-5.2-2.3V0.3C10.3,0.1,10.1,0,10,0S9.7,0.1,9.7,0.3v1.2c-2.1,0-4,0.9-5.5,2.3L3.4,2.9c-0.1-0.1-0.3-0.1-0.5,0
		s-0.1,0.3,0,0.5l0.9,0.9C2.5,5.7,1.5,7.5,1.5,9.7H0.3C0.1,9.7,0,9.9,0,10l0,0c0,0.1,0.1,0.3,0.3,0.3h1.2c0,2,0.9,4,2.3,5.4
		l-0.9,0.9c-0.1,0.1-0.1,0.3,0,0.5c0.1,0.1,0.3,0.1,0.5,0l0.9-0.9c1.4,1.4,3.4,2.1,5.4,2.3v1.2c0,0.1,0.1,0.3,0.3,0.3
		c0.2,0,0.3-0.1,0.3-0.3v-1.2c2.1,0,4-0.9,5.4-2.3l0.9,0.9c0.1,0.1,0.3,0.1,0.5,0c0.1-0.1,0.1-0.3,0-0.5l-0.9-0.9
		c1.4-1.4,2.1-3.4,2.3-5.4h1.2c0.1,0,0.3-0.1,0.3-0.3l0,0C19.9,9.9,19.7,9.7,19.5,9.7z M17.2,9.7h-6.5l4.6-4.6
		C16.5,6.1,17.2,7.9,17.2,9.7z M14.9,4.6l-4.6,4.6V2.6C12,2.8,13.7,3.4,14.9,4.6z M9.7,2.6v6.6L5.1,4.6C6.1,3.4,7.9,2.8,9.7,2.6z
		 M4.6,4.9l4.6,4.6H2.6C2.8,7.9,3.4,6.1,4.6,4.9z M2.6,10.3h6.6l-4.6,4.6C3.4,13.7,2.8,12,2.6,10.3z M4.9,15.4l4.6-4.6v6.6
		C7.9,17.2,6.1,16.5,4.9,15.4z M10.3,17.2v-6.5l4.6,4.6C13.7,16.5,12,17.2,10.3,17.2z M15.4,14.9l-4.6-4.6h6.6
		C17.2,12,16.5,13.7,15.4,14.9z"/>
	<path display="inline" d="M19.7,9.7h-1.5c-0.1-2-0.9-3.9-2.1-5.2l1.1-1.1c0.1-0.1,0.1-0.3,0-0.5s-0.3-0.1-0.5,0L15.5,4
		c-1.4-1.2-3.2-2-5.2-2.1V0.3C10.3,0.1,10.1,0,10,0S9.7,0.1,9.7,0.3v1.5C7.7,2,5.9,2.8,4.5,4L3.4,2.9c-0.1-0.1-0.3-0.1-0.5,0
		s-0.1,0.3,0,0.5L4,4.5C2.8,5.9,2,7.7,1.9,9.7H0.3C0.1,9.7,0,9.9,0,10s0.1,0.3,0.3,0.3h1.5c0.1,2,0.9,3.9,2.1,5.2l-1.1,1.1
		c-0.1,0.1-0.1,0.3,0,0.5s0.3,0.1,0.5,0L4.5,16c1.4,1.2,3.2,2,5.2,2.1v1.5c0,0.1,0.1,0.3,0.3,0.3c0.2,0,0.3-0.1,0.3-0.3v-1.5
		c2-0.1,3.9-0.9,5.2-2.1l1.1,1.1c0.1,0.1,0.3,0.1,0.5,0s0.1-0.3,0-0.5L16,15.5c1.2-1.4,2-3.2,2.1-5.2h1.5c0.1,0,0.3-0.1,0.3-0.3
		C20,9.8,19.9,9.7,19.7,9.7z M15.2,9.7h-4.5L14,6.5C14.8,7.4,15.2,8.5,15.2,9.7z M13.5,6l-3.2,3.2V4.8C11.5,4.8,12.6,5.2,13.5,6z
		 M9.7,4.8v4.5L6.5,6C7.4,5.2,8.5,4.8,9.7,4.8z M6,6.5l3.2,3.2H4.8C4.8,8.5,5.2,7.4,6,6.5z M4.8,10.3h4.5L6,13.5
		C5.2,12.6,4.8,11.5,4.8,10.3z M6.5,14l3.2-3.2v4.5C8.5,15.2,7.4,14.8,6.5,14z M10.3,15.2v-4.5l3.2,3.2
		C12.6,14.8,11.5,15.2,10.3,15.2z M14,13.5l-3.2-3.2h4.5C15.2,11.5,14.8,12.6,14,13.5z"/>
</g>
<g id="图层_6" display="none">
	<circle display="inline" cx="10" cy="10" r="2.6"/>
	<path display="inline" d="M19.4,8.9H18l0,0c-0.5-3.7-3.4-6.5-6.9-6.9V0.6C10.9,0.3,10.8,0,10.5,0H9.5C9.2,0,8.9,0.3,8.9,0.6V2
		C5.4,2.5,2.5,5.2,2,8.9l0,0H0.6C0.3,8.9,0,9.3,0,9.5v0.8c0,0.3,0.3,0.6,0.6,0.6H2l0,0c0.5,3.7,3.4,6.5,6.9,6.9l0,0v1.4
		c0,0.5,0.3,0.8,0.6,0.8h0.8c0.3,0,0.6-0.3,0.6-0.6V18l0,0c3.7-0.5,6.5-3.4,6.9-6.9l0,0h1.4c0.3,0,0.6-0.3,0.6-0.6V9.5
		C20,9.2,19.7,8.9,19.4,8.9z M10,14.1c-2.3,0-4.1-1.9-4.1-4.1S7.7,5.9,10,5.9s4.1,1.9,4.1,4.1S12.3,14.1,10,14.1z"/>
</g>
<g id="图层_7" display="none">
	<path display="inline" d="M19.4,0H6.8C6.5,0,6.1,0.3,6.1,0.6v0.6H18c0.3,0,0.6,0.3,0.6,0.6v12h0.6c0.5,0,0.8-0.3,0.8-0.6V0.6
		C20,0.3,19.7,0,19.4,0z"/>
	<path display="inline" d="M14.3,3.7H2c-1.1,0-2,0.8-2,2V18c0,1.1,0.9,2,2,2h12.3c1.1,0,2-0.9,2-2V5.7C16.3,4.5,15.4,3.7,14.3,3.7z"
		/>
</g>
<g id="图层_8" display="none">
	<path display="inline" d="M0,15.1L4.9,20L20,4.9l-4.9-4.8L0,15.1z M18,4.9L5.1,17.9l-2.9-2.8l0.5-0.5l1.5,1.5l0.3-0.3l-1.5-1.5
		L3.2,14l1.5,1.5l0.3-0.1l-1.5-1.5l0.3-0.3l1.5,1.5l0.3-0.3l-1.5-1.5l0.5-0.6L7,14.9L7.8,14l-2.1-2.1L6,11.4l1.5,1.5l0.3-0.3
		l-1.5-1.5l0.1-0.3L8,12.3l0.3-0.3l-1.5-1.5l0.3-0.3l1.5,1.5L9,11.3L7.5,9.7l0.6-0.6l2.3,2.3l0.9-0.9L9,8.2l0.5-0.5L11,9.3l0.3-0.3
		L9.8,7.4l0.3-0.3l1.5,1.5L12,8.3l-1.5-1.5l0.3-0.3l1.5,1.5l0.3-0.3l-1.5-1.5l0.5-0.5l2.3,2.3L14.9,7l-2.3-2.3L13,4.2L14.3,6
		l0.3-0.3l-1.5-1.5l0.3-0.3L15,5.3L15.5,5l-1.5-1.5L14.3,3l1.5,1.5L16,4.3l-1.5-1.5l0.6-0.6L18,4.9z"/>
</g>
<g id="图层_9">
	<path fill="#999999" d="M19.4,9.5h-0.3l-2.9-6.1H4L0.9,9.5H0.6C0.3,9.5,0,9.9,0,10.3v2.9c0,0.3,0.3,0.6,0.6,0.6h0.6c0,0,0,0,0,0.1
		v2.5c0,0.3,0.3,0.6,0.6,0.6h2.3c0.3,0,0.6-0.3,0.6-0.6v-2.6c0,0,0,0,0-0.1h10c0,0,0,0,0,0.1v2.5c0,0.3,0.3,0.6,0.6,0.6h2.3
		c0.3,0,0.6-0.3,0.6-0.6v-2.5c0,0,0,0,0-0.1h0.8c0.6,0.1,0.9-0.1,0.9-0.6v-2.8C20,9.9,19.7,9.5,19.4,9.5z M5.1,5.1h10l1.7,3.7H3.2
		L5.1,5.1z M6.1,12.1c0,0.3-0.3,0.6-0.6,0.6H3.4c-0.3,0-0.6-0.3-0.6-0.6v-0.6c0-0.3,0.3-0.6,0.6-0.6h2.1c0.3,0,0.6,0.3,0.6,0.6V12.1
		L6.1,12.1z M13.5,12.1v-0.6c0-0.3,0.3-0.6,0.6-0.6h2.1c0.3,0,0.6,0.3,0.6,0.6V12c0,0.3-0.3,0.6-0.6,0.6h-2.1
		C13.9,12.8,13.5,12.5,13.5,12.1z"/>
</g>
</svg>
