<?xml version="1.0" encoding="utf-8"?>
<!-- Generator: Adobe Illustrator 18.1.0, SVG Export Plug-In . SVG Version: 6.00 Build 0)  -->
<svg xmlns="http://www.w3.org/2000/svg" xmlns:xlink="http://www.w3.org/1999/xlink" x="0px" y="0px" viewBox="0 0 30 30" enable-background="new 0 0 30 30" xml:space="preserve"><g id="图层_2"><g><path fill="#999999" d="M11.3,21c-0.8-1.5-1.2-3.1-1.2-5c0-0.8,0-1.5,0.4-2.4H5.1l2.8-5.4h6.2c1.5-1.5,3.9-2.8,6.7-2.8H5.9l-4.3,9.3H1.2c-0.4,0-1.2,0.4-1.2,1.2v4.3c0,0.4,0.4,1.2,1.2,1.2H2l0,0v3.5c0,0.8,0.4,1.2,0.8,1.2h3.5c0.4,0,1.2-0.4,1.2-1.2v-3.5l0,0L11.3,21L11.3,21zM5.1,19.8c-0.4,0-1.2-0.4-1.2-1.2v-0.8c0-0.4,0.4-1.2,1.2-1.2h3.1c0.8,0,1.2,0.8,1.2,1.2v1 c0,0.4-0.4,1.2-1.2,1.2H5.1V19.8z"/><path fill="#24A287" d="M20.8,5.5L20.8,5.5L20.8,5.5L20.8,5.5z"/></g><g><path fill="#999999" d="M20.8,5.7c-5.4,0-10.1,4.6-10.1,10s4.3,9.7,9.7,9.7s9.7-4.3,9.7-9.7S26.2,5.7,20.8,5.7z"/></g></g><path fill="#FFFFFF" d="M16.1,20.2L16.1,20.2c-0.4-0.4-0.4-0.8,0-1.2l8.2-7.8c0.4-0.4,0.8-0.4,1.2,0l0,0c0.4,0.4,0.4,0.8,0,1.2l-8.2,7.8C16.7,20.6,16.3,20.6,16.1,20.2z"/><path fill="#FFFFFF" d="M24.5,20.6L24.5,20.6c-0.4,0.4-0.8,0.4-1.2,0l-7.8-8.2c-0.4-0.4-0.4-0.8,0-1.2l0,0c0.4-0.4,0.8-0.4,1.2,0l7.8,8.2C24.9,19.8,24.9,20.2,24.5,20.6z"/></svg>
