<?xml version="1.0" encoding="utf-8"?>
<!-- Generator: Adobe Illustrator 18.1.0, SVG Export Plug-In . SVG Version: 6.00 Build 0)  -->
<svg version="1.1" id="图层_1" xmlns="http://www.w3.org/2000/svg" xmlns:xlink="http://www.w3.org/1999/xlink" x="0px" y="0px"
	 viewBox="0 0 30 30" enable-background="new 0 0 30 30" xml:space="preserve">
<g id="图层_1_1_" display="none">
</g>
<g id="图层_2">
	<g>
		<path fill="#999999" d="M11.7,20c-0.8-1.5-1.5-3.1-1.5-5c0-0.8,0-1.5,0.4-2.3H5.2l2.7-5.4h6.2c1.5-1.5,3.9-2.7,6.6-2.7H5.9
			l-4.3,9.3H1.3c-0.4,0-1.2,0.4-1.2,1.2v4.3c0,0.4,0.4,1.2,1.2,1.2h0.8l0,0v3.5c0,0.8,0.4,1.2,0.8,1.2h3.5c0.4,0,1.2-0.4,1.2-1.2
			v-3.5l0,0L11.7,20L11.7,20z M5.2,18.8c-0.4,0-1.2-0.4-1.2-1.2v-0.8c0-0.4,0.4-1.2,1.2-1.2h3.1c0.8,0,1.2,0.8,1.2,1.2v0.8
			c0,0.4-0.4,1.2-1.2,1.2H5.2z"/>
		<path fill="#24A287" d="M20.6,4.5L20.6,4.5L20.6,4.5L20.6,4.5z"/>
	</g>
	<g>
		<path fill="#DC3C3B" d="M21,9.1h-1.9v5.4H21c0.8,0,1.2-0.4,1.5-0.8c0.4-0.4,0.8-1.2,0.8-1.9C23.7,9.9,23,9.1,21,9.1z"/>
		<path fill="#DC3C3B" d="M20.6,4.9c-5.4,0-10.1,4.6-10.1,10.1s4.3,9.7,9.7,9.7s9.7-4.3,9.7-9.7S26.1,4.9,20.6,4.9z M24.1,15
			c-0.4,0.8-1.5,1.2-2.7,1.2h-2.3v6.2h-1.5V8H21c1.2,0,1.9,0,2.7,0.4c1.2,0.8,1.5,1.9,1.5,3.5C25.3,13,24.9,14.2,24.1,15z"/>
	</g>
</g>
</svg>
