<?xml version="1.0" encoding="utf-8"?>
<!-- Generator: Adobe Illustrator 18.1.0, SVG Export Plug-In . SVG Version: 6.00 Build 0)  -->
<svg version="1.1" id="图层_1" xmlns="http://www.w3.org/2000/svg" xmlns:xlink="http://www.w3.org/1999/xlink" x="0px" y="0px"
	 viewBox="0 0 20 20" enable-background="new 0 0 20 20" xml:space="preserve">
<g id="图层_1_1_" display="none">
</g>
<g id="图层_2">
	<g>
		<path fill="#24A287" d="M8.1,13.3c-0.5-1-0.8-2.1-0.8-3.3c0-0.5,0-1,0.3-1.5H3.9l1.8-3.6h3.8c0.9-1.2,2.9-1.8,4.7-1.8H4.5L1.7,9.3
			H1.3C1,9.3,0,9.6,0,10.1v2.8c0,0.3,0.7,0.9,1.3,0.9h0.5l0,0V16c0,0.5,0.3,0.8,0.5,0.8h2.3c0.3,0,0.8-0.3,0.8-0.8v-2.3l0,0
			L8.1,13.3L8.1,13.3z M3.9,12.5c-0.3,0-0.8-0.3-0.8-0.8v-0.5c0-0.3,0.3-0.8,0.8-0.8H6c0.5,0,0.8,0.5,0.8,0.8v0.5
			c0,0.3-0.3,0.8-0.8,0.8H3.9z"/>
		<path fill="#24A287" d="M14.3,3L14.3,3L14.3,3L14.3,3z"/>
	</g>
</g>
<path fill="#FFFFFF" d="M14.5,12.1h-1l-0.3-0.3l-0.3-6.5c0,0,0-0.3,0.3-0.3h1.5L15,5.3l-0.3,6.2C14.7,11.9,14.7,12.1,14.5,12.1z
	 M15,13.6c0,0.5-0.5,1-1,1s-1-0.5-1-1s0.5-1,1-1C14.5,12.5,15,13.1,15,13.6z"/>
<path fill="#DC3C3B" d="M13.8,3.7c-3.4,0-6.2,2.9-6.2,6.3s2.8,6.3,6.2,6.3S20,13.5,20,10S17.2,3.7,13.8,3.7z M14.5,14.7h-1.3v-1.3
	h1.3V14.7z M16.4,9c-0.2,0.3-0.5,0.7-1.1,1.2c-0.3,0.3-0.6,0.5-0.7,0.7c-0.1,0.1-0.2,0.3-0.3,0.5s-0.1,0.5-0.1,1h-1.1
	c0-0.1,0-0.3,0-0.3c0-0.5,0.1-0.8,0.2-1.1c0.1-0.3,0.2-0.5,0.4-0.7c0.1-0.2,0.4-0.5,0.8-0.8c0.4-0.3,0.6-0.6,0.7-0.8
	c0.1-0.2,0.2-0.4,0.2-0.7c0-0.5-0.1-0.8-0.5-1.1c-0.3-0.3-0.7-0.5-1.2-0.5s-0.9,0.1-1.1,0.5c-0.3,0.3-0.5,0.7-0.6,1.4L10.9,8
	c0.1-0.9,0.4-1.5,0.9-1.9c0.5-0.5,1.1-0.7,2-0.7s1.5,0.3,2.1,0.7c0.5,0.5,0.8,1.1,0.8,1.7C16.7,8.3,16.6,8.7,16.4,9z"/>
<path fill="#FF9455" d="M6.4,3.7c0,0,0.8-1,1.4-0.7c0.6,0.3-1.3,4.7-1.3,4.7S6.4,8,6.8,8h3.4c0,0,0.9,0.2,0.1,1.3
	c-0.8,1-5.7,7.3-5.7,7.3s-1.2,0.8-1-0.6s1.3-4.4,1.3-4.4l-3.6,0c0,0-1.2,0-0.4-1.1C1.5,9.8,6.4,3.7,6.4,3.7L6.4,3.7z"/>
</svg>
