<?xml version="1.0" standalone="no"?><!DOCTYPE svg PUBLIC "-//W3C//DTD SVG 1.1//EN" "http://www.w3.org/Graphics/SVG/1.1/DTD/svg11.dtd"><svg t="1493888152075" class="icon" style="" viewBox="0 0 1024 1024" version="1.1" xmlns="http://www.w3.org/2000/svg" p-id="1013" xmlns:xlink="http://www.w3.org/1999/xlink" width="200" height="200"><defs><style type="text/css"></style></defs><path d="M1002.07 751.616V284.309c0-24.213-16.918-49.578-42.07-49.578h-64l1.152-6.4c0-31.339-26.005-57.6-58.539-57.6H186.432c-31.936 0-58.41 31.957-58.41 64l-0.214-0.96h-60.63c-25.151 0-45.226 20.288-45.226 44.501V745.6h-0.597c0 24.79 20.629 44.693 45.312 44.693h61.12v5.184c0 31.488 26.005 57.856 58.645 57.856h652.843c31.658 0 56.277-10.901 56.725-42.602h64c24.661 0 42.667-34.326 42.667-59.115h-0.598zM128 746.731H64V277.397h64v469.334z m725.333 42.666c0 6.422-14.848 21.334-21.333 21.334H192c-6.485 0-21.333-14.848-21.333-21.334V234.731c0-6.379 9.258-18.56 15.744-18.56l5.589-2.774h640c6.443 0 21.333 14.955 21.333 21.334v554.666zM960 768.064h-64V277.397l60.843-1.984c4.97 0 3.157-2.944 3.157 1.984v469.334c0 4.97 5.013 21.333 0 21.333zM412.459 496.171c43.925 0 79.637-34.774 79.637-77.483 0-42.752-35.712-77.483-79.637-77.483-43.926 0-79.638 34.731-79.638 77.483-0.021 42.71 35.712 77.483 79.638 77.483z m0-116.224c21.952 0 39.829 17.365 39.829 38.741 0 21.333-17.877 38.741-39.83 38.741-21.951 0-39.829-17.408-39.829-38.741 0-21.397 17.878-38.741 39.83-38.741z m373.461 58.666c-95.915 23.339-137.728 87.766-168.256 134.806-24.213 37.269-39.083 58.346-65.11 58.346h-0.042c-35.456 0-57.11-14.272-80.043-28.16-24.362-14.741-49.536-29.952-88.64-29.952-75.648 0-156.906 93.27-165.93 103.894l-4.566 51.072c0 10.709 8.918 18.112 19.926 18.112h557.504c10.986 0 19.904-7.403 19.904-18.112v-271.19c0-5.973-2.838-11.626-7.659-15.296-4.821-3.669-11.136-4.992-17.088-3.52z m-15.061 268.864H253.163c24.874-27.733 85.29-95.082 130.666-95.082 27.734 0 46.23 11.157 67.606 24.128 25.152 15.168 53.632 32.426 99.712 33.941l2.944 0.064c47.637 0 71.722-37.12 97.237-76.416 26.645-41.088 56.47-79.104 119.53-102.485v215.85z" fill="" p-id="1014"></path></svg>