<?xml version="1.0" standalone="no"?><!DOCTYPE svg PUBLIC "-//W3C//DTD SVG 1.1//EN" "http://www.w3.org/Graphics/SVG/1.1/DTD/svg11.dtd"><svg class="icon" width="16px" height="16.00px" viewBox="0 0 1024 1024" version="1.1" xmlns="http://www.w3.org/2000/svg"><path d="M722.432 46.592c38.4 0 70.144 31.232 70.144 69.632v342.016l6.656-16.384-397.312 402.432 16.896-7.168H138.24c-38.912 0-70.144-31.232-70.144-69.632V23.04l-23.552 23.04h677.888z m-700.928-46.592v768c0 64 52.224 116.224 116.736 116.224H428.544l6.656-7.168 397.312-402.432 6.656-6.656v-351.744c0-64-52.224-116.224-116.736-116.224h-700.928z m754.176 588.8l-16.384 16.384 16.384 16.384 93.696 93.184 16.384 16.384 16.384-16.384 70.144-69.632 16.384-16.384-16.384-16.384-93.696-93.184-16.384-16.384-16.384 16.384-70.144 69.632z m70.144-36.864l93.696 93.184v-32.768l-70.144 69.632h33.28L808.96 588.8v32.768l70.144-69.632h-33.28z m-327.168 292.864l-5.12 5.12-1.536 6.656-23.552 116.224-6.656 34.304 34.304-6.656 116.736-23.04 7.168-1.536 5.12-5.12 257.024-256 16.384-16.384-16.384-16.384L808.96 588.8l-16.384-16.384-16.384 16.384-257.536 256z m257.024-223.232l93.696 93.184v-32.768l-257.024 256 11.776-6.144-116.736 23.04 27.648 27.136 23.552-116.224-6.144 11.776 257.024-256h-33.792z m-349.184-24.064c17.408 0 31.744 14.336 31.744 31.744v8.192c0 17.408-14.336 31.744-31.744 31.744-17.408 0-31.744-14.336-31.744-31.744v-8.192c0-17.408 13.824-31.744 31.744-31.744z m-147.968-253.952s2.56 22.016 27.136 22.016 26.112-22.016 26.112-22.016c-1.536-71.168 31.232-104.96 99.328-101.376 45.056 5.12 68.608 30.208 70.144 76.288-3.072 20.48-19.968 46.592-50.688 78.848-40.448 40.448-60.416 76.8-60.416 109.056v32.768s3.072 19.456 25.6 19.456 25.6-19.456 25.6-19.456v-23.04c0-26.624 19.456-58.88 57.856-96.256 40.448-36.864 60.416-71.168 60.416-101.376-3.584-84.48-47.616-128.512-133.12-132.096-98.816-1.536-147.968 50.688-147.968 157.184z" fill="#7b7b7b" /></svg>