<?xml version="1.0" standalone="no"?><!DOCTYPE svg PUBLIC "-//W3C//DTD SVG 1.1//EN" "http://www.w3.org/Graphics/SVG/1.1/DTD/svg11.dtd"><svg t="1493885141440" class="icon" style="" viewBox="0 0 1024 1024" version="1.1" xmlns="http://www.w3.org/2000/svg" p-id="11094" xmlns:xlink="http://www.w3.org/1999/xlink" width="200" height="200"><defs><style type="text/css"></style></defs><path d="M799.5904 834.3808 224.4096 834.3808c-91.4432 0-165.8112-74.368-165.8112-165.8112L58.5984 371.712c0-91.4176 74.368-165.8112 165.8112-165.8112l575.1808 0c91.4176 0 165.8368 74.368 165.8368 165.8112l0 296.8832C965.4016 760.0128 891.008 834.3808 799.5904 834.3808zM224.4096 240.64c-72.2688 0-131.072 58.8032-131.072 131.0464l0 296.8832c0 72.2432 58.8032 131.0464 131.072 131.0464l575.1808 0c72.2688 0 131.0464-58.8032 131.0464-131.0464L930.6368 371.712c0-72.2432-58.7776-131.0464-131.0464-131.0464L224.4096 240.6656z" p-id="11095"></path><path d="M229.504 627.584l0-183.296L253.696 444.288l0 161.664 90.0096 0 0 21.632L229.504 627.584z" p-id="11096"></path><path d="M386.816 627.584l0-183.296 24.192 0 0 183.296L386.816 627.584z" p-id="11097"></path><path d="M516.096 627.584l-70.8096-183.296 26.1632 0 47.488 133.1712c3.8144 10.6496 7.0144 20.6592 9.6 30.0032 2.816-10.0096 6.1184-19.9936 9.856-30.0032l49.3824-133.1712 24.6784 0-71.552 183.296L516.096 627.584z" p-id="11098"></path><path d="M644.864 627.584l0-183.296 132.1728 0L777.0368 465.92l-107.9808 0 0 56.1152 101.12 0 0 21.504-101.12 0 0 62.4128 112.2048 0 0 21.632L644.864 627.584z" p-id="11099"></path></svg>