<?xml version="1.0" standalone="no"?><!DOCTYPE svg PUBLIC "-//W3C//DTD SVG 1.1//EN" "http://www.w3.org/Graphics/SVG/1.1/DTD/svg11.dtd"><svg t="1493883601089" class="icon" style="" viewBox="0 0 1025 1024" version="1.1" xmlns="http://www.w3.org/2000/svg" p-id="4335" xmlns:xlink="http://www.w3.org/1999/xlink" width="200.1953125" height="200"><defs><style type="text/css"></style></defs><path d="M362.150287 685.153343c-6.295871 0-12.564097-2.379509-17.375334-7.190747-9.595853-9.595853-9.595853-25.154815 0-34.750668l297.606604-299.935943c9.595853-9.595853 25.130241-9.595853 34.726095 0 9.595853 9.595853 9.595853 25.154815 0 34.750668L379.500024 677.962596C374.739981 682.772809 368.445134 685.153343 362.150287 685.153343L362.150287 685.153343z" p-id="4336"></path><path d="M483.13872 625.631817c8.112243 35.80015-0.639928 70.934775-28.303262 98.597085L334.151119 842.969907c-20.881117 20.881117-48.620219 32.370135-78.176716 32.370135-29.529877 0-57.294575-11.490041-78.150095-32.370135-43.093286-43.118883-43.093286-113.260147-0.254947-156.097461l118.380597-122.578527c20.881117-20.881117 48.645816-32.396756 78.176716-32.396756 10.107796 0 19.806038 1.817396 29.299502 4.42728l38.35884-38.35884c-21.394084-10.006431-44.501128-15.199578-67.659366-15.199578-40.867359 0-81.733694 15.583535-112.927384 46.777225L143.048043 651.892428c-62.361783 62.361783-62.361783 163.440767 0 225.828147 31.167069 31.19369 72.034428 46.752652 112.901787 46.752652 40.866335 0 81.73267-15.558961 112.901787-46.752652l120.478538-118.535204c47.674148-47.674148 58.012319-114.155023 32.729518-172.49908L483.13872 625.631817 483.13872 625.631817 483.13872 625.631817z" p-id="4337"></path><path d="M880.258787 139.028269c-31.19369-31.192666-72.035452-46.777225-112.901787-46.777225-40.867359 0-81.759291 15.584559-112.927384 46.777225L532.397843 258.241285c-49.439327 49.439327-59.522549 123.188763-30.553762 182.735886l38.128466-38.102868c-11.28424-37.694338-2.635481-80.096501 26.919993-109.651975l122.261123-119.444414c20.882141-20.85552 48.621242-32.370135 78.176716-32.370135 29.505303 0 57.295599 11.515638 78.176716 32.370135 43.093286 43.118883 43.093286 113.260147 0.230374 156.122034L723.476347 452.41397c-20.882141 20.882141-48.645816 32.371158-78.176716 32.371158-7.523509 0-14.151119 0.741293-21.367463-0.71672l-39.126754 39.151327c19.550066 8.112243 39.637673 10.695506 60.493193 10.695506 40.867359 0 81.708097-15.583535 112.901787-46.777225L880.232166 364.854368c62.387381-62.361783 62.387381-163.467388 0.025597-225.829171L880.258787 139.028269 880.258787 139.028269z" p-id="4338"></path></svg>