<?xml version="1.0" standalone="no"?><!DOCTYPE svg PUBLIC "-//W3C//DTD SVG 1.1//EN" "http://www.w3.org/Graphics/SVG/1.1/DTD/svg11.dtd"><svg t="1493887374019" class="icon" style="" viewBox="0 0 1024 1024" version="1.1" xmlns="http://www.w3.org/2000/svg" p-id="5905" xmlns:xlink="http://www.w3.org/1999/xlink" width="200" height="200"><defs><style type="text/css"></style></defs><path d="M858.64448 213.77024c-3.6864-2.37568-16.91648-8.97024-32.64512 5.81632-1.96608 1.86368-3.87072 3.72736-5.8368 5.55008-40.96 38.93248-68.03456 64.67584-218.39872 14.09024-40.448-13.6192-81.55136-19.68128-122.20416-18.06336-32.5632 1.31072-64.86016 7.53664-95.9488 18.51392-53.1456 18.7392-84.60288 44.93312-85.89312 46.01856a18.88256 18.88256 0 0 0-3.03104 3.25632 18.51392 18.51392 0 0 0-7.12704 23.1424l232.7552 525.86496a18.47296 18.47296 0 0 0 33.75104-14.92992l-107.88864-243.75296c0.59392-1.16736 1.2288-2.27328 1.82272-3.4816 24.4736-46.71488 52.20352-99.71712 194.72384-87.06048a151.63392 151.63392 0 0 0 80.0768-14.76608c21.95456-10.52672 42.94656-26.39872 62.19776-47.24736 30.22848-32.58368 56.81152-78.336 73.0112-125.50144 6.18496-17.96096 10.28096-34.6112 11.83744-48.128 1.55648-12.77952 2.06848-30.76096-11.20256-39.3216z m-39.36256 86.15936c-13.84448 36.00384-33.71008 70.0416-56.03328 95.80544-35.5328 41.04192-74.99776 59.96544-117.248 56.19712-72.92928-6.43072-127.488 2.8672-166.78912 28.4672-25.00608 16.2816-40.38656 36.80256-51.83488 56.29952l-100.39296-226.85696a280.12544 280.12544 0 0 1 70.3488-35.81952c62.70976-21.74976 127.54944-21.68832 192.67584 0.22528 77.14816 25.94816 131.74784 34.59072 171.90912 27.21792 30.0032-5.5296 50.31936-19.43552 68.01408-35.00032-2.29376 9.17504-5.65248 20.39808-10.6496 33.46432z" fill="#050505" p-id="5906"></path></svg>