<?xml version="1.0" standalone="no"?><!DOCTYPE svg PUBLIC "-//W3C//DTD SVG 1.1//EN" "http://www.w3.org/Graphics/SVG/1.1/DTD/svg11.dtd"><svg t="1493889804981" class="icon" style="" viewBox="0 0 1024 1024" version="1.1" xmlns="http://www.w3.org/2000/svg" p-id="7657" xmlns:xlink="http://www.w3.org/1999/xlink" width="200" height="200"><defs><style type="text/css"></style></defs><path d="M811.722292 422.38703l0 74.487481L763.592109 496.874511 763.592109 297.478182c0-97.311303-62.204737-186.870038-153.283082-221.085304-93.087095-34.970466-200.506617-6.069229-264.113283 70.098521-35.19764 42.147936-54.745858 96.076172-54.745858 150.987806l0 199.396329-48.130184 0 0-74.487481L215.816301 422.388053l0 98.552573c0 167.233815 132.476197 303.731606 297.948903 311.00322l0 96.957239 27.503401 0 0-96.957239c165.470659-7.27366 297.956066-143.770428 297.956066-311.004243l0-98.552573L811.722292 422.38703 811.722292 422.38703zM318.951239 453.327716l139.234111 0 0-27.503401L318.951239 425.824315l0-46.411029 139.234111 0 0-27.503401L318.951239 351.909885l0-46.411029 139.234111 0 0-27.503401L319.93873 277.995455c7.033184-75.509764 54.517661-139.29551 120.484072-169.778778l0 91.852988 27.503401 0L467.926202 97.696066c14.665001-4.38282 30.02585-7.045463 45.837978-8.085142l0 110.460788 27.503401 0L541.267581 89.610924c15.813151 1.039679 31.174 3.703345 45.837978 8.085142l0 102.374622 27.503401 0 0-91.852988c65.966411 30.483268 113.450888 94.26799 120.484072 169.778778L596.84641 277.996478l0 27.503401 139.234111 0 0 46.411029L596.84641 351.910908l0 27.503401 139.234111 0 0 46.411029L596.84641 425.825338l0 27.503401 139.234111 0 0 43.546795L318.951239 496.875534 318.951239 453.327716zM735.789902 524.376888c-2.316765 84.712357-57.840336 161.576979-137.513934 190.446493-80.009242 28.991288-171.715897 4.959965-227.608881-59.038628-31.719422-36.320207-50.107211-83.187631-51.426253-131.406842L735.789902 524.376888 735.789902 524.376888zM527.515369 805.136294c-155.548682 0-282.152125-125.644605-284.022729-280.759405l48.245817 0c2.312672 95.688339 64.609507 182.730765 154.411789 215.855186 91.069135 33.592073 195.888436 6.28003 259.422448-66.922179 35.776831-41.221844 56.409754-94.358041 57.728796-148.933007l48.245817 0C809.677727 679.491689 683.065074 805.136294 527.515369 805.136294z" p-id="7658"></path></svg>