<?xml version="1.0" standalone="no"?><!DOCTYPE svg PUBLIC "-//W3C//DTD SVG 1.1//EN" "http://www.w3.org/Graphics/SVG/1.1/DTD/svg11.dtd"><svg class="icon" width="16px" height="16.00px" viewBox="0 0 1024 1024" version="1.1" xmlns="http://www.w3.org/2000/svg"><path d="M754.703 361.73c-24.934 0-48.375-9.713-65.996-27.35-36.406-36.408-36.406-95.668-0.02-132.073 17.605-17.64 41.06-27.36 66.016-27.36 24.934 0 48.39 9.711 66.01 27.36 36.41 36.388 36.41 95.64 0.022 132.073-17.658 17.637-41.096 27.35-66.032 27.35m0.184-141.213c-12.733 0-24.681 4.953-33.657 13.954-18.57 18.568-18.55 48.79 0.017 67.368 17.953 17.974 49.326 17.983 67.31-0.008 18.57-18.57 18.57-48.792 0-67.36-8.993-9.001-20.96-13.954-33.67-13.954M460.63 940.726c-14.43 0-28-5.617-38.177-15.833L97.933 600.418c-10.194-10.199-15.814-23.76-15.814-38.185 0-14.428 5.619-27.981 15.835-38.176L522.482 99.543c17.985-17.987 45.493-17.987 63.7-17.987l11.906 0.038 277.86-0.038c36.046 0 65.375 29.332 65.375 65.371l-0.056 277.857 0.034 6.03c0.095 25.272 0.223 51.408-17.982 69.566L498.807 924.91c-10.2 10.199-23.766 15.816-38.177 15.816m125.551-821.814c-15.305 0-30.793 0.548-37.288 7.04L124.347 550.476c-3.14 3.148-4.87 7.313-4.87 11.756 0 4.45 1.73 8.625 4.87 11.763l324.516 324.504c6.275 6.293 17.239 6.273 23.53 0l424.53-424.531c7.17-7.167 7.097-24.569 7.024-43l-0.02-6.184 0.036-277.857c0-15.448-12.568-28.015-28.017-28.015l-277.86 0.038-11.905-0.038z" fill="#7b7b7b" /></svg>