<?xml version="1.0" standalone="no"?><!DOCTYPE svg PUBLIC "-//W3C//DTD SVG 1.1//EN" "http://www.w3.org/Graphics/SVG/1.1/DTD/svg11.dtd"><svg t="1493887249052" class="icon" style="" viewBox="0 0 1024 1024" version="1.1" xmlns="http://www.w3.org/2000/svg" p-id="3740" xmlns:xlink="http://www.w3.org/1999/xlink" width="200" height="200"><defs><style type="text/css"></style></defs><path d="M956.487374 170.639379L692.863231 57.658188c-7.720845-3.314489-16.796548-1.054005-22.106484 5.536086l-75.321476 94.151334a18.691711 18.691711 0 0 0-3.691066 15.817244c1.167592 5.309936 4.632507 9.67843 9.339716 12.277627l-236.5843 88.728834c-19.847024 7.456832-36.83186 21.579481-47.715744 39.73191l-78.183664 130.305765c-16.646122 27.756157-17.96414 61.612243-3.464915 90.535992l5.498224 10.996449h-82.43857c-10.394744 0-18.829857 8.436136-18.829858 18.829857v357.775476H82.874499c-10.394744 0-18.829857 8.436136-18.829857 18.829858 0 10.394744 8.436136 18.829857 18.829857 18.829857h640.2305c10.394744 0 18.829857-8.436136 18.829857-18.829857 0-10.394744-8.436136-18.829857-18.829857-18.829858h-56.490596v-263.624143c0-1.430582-0.527003-2.673899-0.791015-3.991917 35.325553-23.914666 75.698053-60.822251 110.910019-117.839849 59.842946-96.78737 93.473905-174.708044 107.294678-209.769584l2.109034 1.054006c8.05956 4.02978 16.683984 6.025227 25.308409 6.025226 10.281157 0 20.525476-2.824325 29.639041-8.510837 16.796548-10.355859 26.813692-28.319999 26.813692-48.054459v-89.707115a18.798135 18.798135 0 0 0-11.410887-17.286711zM628.953665 922.345786H177.025832V583.400167h94.415347c0.452301 0 0.903579 0.037862 1.393743 0h149.287071c-16.984836 10.31902-37.849026 23.311939-64.249303 40.108486-20.073174 12.766768-33.819247 32.57593-38.714743 55.851029-4.933359 23.274076-0.376577 47.038316 12.917194 66.923202 16.83441 25.345248 44.590568 39.129182 72.986291 39.129183 15.365966 0 30.957059-4.067642 45.079708-12.465916l129.402186-77.618799c7.41897-1.808182 25.609261-7.042393 49.410339-18.905582v245.924016zM378.962008 498.17411c28.810163-12.352329 67.337641-34.722826 86.882789-57.507762 15.026228 8.812713 38.677904 20.148899 68.241221 25.947975-21.014616 26.0237-42.104957 57.658188-51.030234 80.066547-1.544169-0.414439-3.050476-0.941442-4.745071-0.941441H400.955928c-3.991917-18.717294-13.219069-35.250852-21.99392-47.565319zM744.797044 517.079692c-74.266447 120.137171-174.971034 141.867078-175.950338 142.055366a20.25123 20.25123 0 0 0-6.025227 2.335185l-131.962497 79.162968c-22.973224 13.821797-52.574403 7.15598-67.488067-15.214517-7.532557-11.336186-10.130731-24.89397-7.344269-38.187741 2.824325-13.256932 10.657734-24.592095 22.106484-31.860638 101.193727-64.437591 119.459742-71.517847 119.083165-71.931263 10.431583 0 18.793018-7.532557 18.793019-17.926278 1.920746-11.787464 36.229133-66.923202 69.860091-100.55416a18.789948 18.789948 0 0 0 4.067642-20.525476c-2.90005-7.042393-9.792017-11.637038-17.399276-11.637038-58.599629 0-100.779288-33.178657-101.193726-33.518394-5.64865-4.482081-13.219069-6.591115-19.772323-3.427053-6.553253 3.1262-10.54517 8.5487-10.54517 15.779382-6.665817 16.155958-78.936817 57.018621-94.52791 58.787918-7.757684 0-14.649652 4.707209-17.475 11.938913a18.87386 18.87386 0 0 0 4.745071 20.713764c0.226151 0.226151 19.960611 18.981307 28.019147 42.669822h-79.011518l-13.896499-27.868721c-8.699126-17.361413-7.945973-37.660738 2.071172-54.30686l78.183664-130.305765c6.553253-10.921747 16.720823-19.357883 28.621874-23.838941l268.971941-100.855012 203.480344 101.721752C837.743946 342.108658 804.489564 420.48061 744.797044 517.079692z m185.441502-239.370763c0 9.490142-6.251378 14.3488-8.925276 16.005533-2.673899 1.656733-9.866718 5.046946-18.302855 0.828878l-263.624143-131.812072 51.821249-64.738443 239.032049 102.437044v77.27906z" p-id="3741"></path></svg>