<?xml version="1.0" standalone="no"?><!DOCTYPE svg PUBLIC "-//W3C//DTD SVG 1.1//EN" "http://www.w3.org/Graphics/SVG/1.1/DTD/svg11.dtd"><svg t="1522126276751" class="icon" style="" viewBox="0 0 1024 1024" version="1.1" xmlns="http://www.w3.org/2000/svg" p-id="1765" xmlns:xlink="http://www.w3.org/1999/xlink" width="24" height="24"><defs><style type="text/css"></style></defs><path d="M219.52 914.848l-32.832 100.224h651.936l-32.928-100.224H219.52z m102.336 81.664H214.688l20.8-63.104h149.408c-20.992 20.96-42.048 42.048-63.04 63.104zM510.752 309.888a259.808 259.808 0 0 0-259.808 259.808v319.168h523.328v-319.168a259.808 259.808 0 0 0-259.808-259.808h-3.712z m213.408 267.2a22.24 22.24 0 1 1-44.512 0 163.52 163.52 0 0 0-163.328-163.296h-3.68a22.24 22.24 0 0 1 0-44.544h3.68a208.096 208.096 0 0 1 207.84 207.84zM209.152 465.504a42.336 42.336 0 0 0-33.216-49.824l-122.496-24.608a42.4 42.4 0 0 0-50.208 47.872c2.624 17.088 15.584 31.584 33.6 35.168l122.496 24.576a42.368 42.368 0 0 0 49.824-33.184zM181.024 181.6l78.112 97.632c14.592 18.24 41.184 21.248 59.424 6.592a42.24 42.24 0 0 0 6.624-59.488l-78.016-97.6a42.336 42.336 0 0 0-66.144 52.864zM517.952 218.56a42.4 42.4 0 0 0 43.328-41.344l-0.32-124.928a42.304 42.304 0 1 0-84.64-1.984l0.288 124.928a42.304 42.304 0 0 0 41.344 43.328zM713.888 295.104a42.24 42.24 0 0 0 59.712-3.808l82.528-93.824a42.336 42.336 0 0 0-63.52-55.904l-82.56 93.824a42.24 42.24 0 0 0-10.048 34.304c1.408 9.536 6.016 18.56 13.888 25.408zM1021.984 448.192a42.368 42.368 0 0 0-48.256-35.488l-123.488 18.816a42.368 42.368 0 1 0 12.768 83.68l123.456-18.784a42.336 42.336 0 0 0 35.52-48.224z" p-id="1766" fill="#d81e06"></path></svg>