<?xml version="1.0" encoding="utf-8"?>
<!-- Generator: Adobe Illustrator 15.0.0, SVG Export Plug-In . SVG Version: 6.00 Build 0)  -->
<!DOCTYPE svg PUBLIC "-//W3C//DTD SVG 1.1//EN" "http://www.w3.org/Graphics/SVG/1.1/DTD/svg11.dtd">
<svg version="1.1" id="图层_1" xmlns="http://www.w3.org/2000/svg" xmlns:xlink="http://www.w3.org/1999/xlink" x="0px" y="0px"
	 width="10px" height="10px" viewBox="0 0 10 10" enable-background="new 0 0 10 10" xml:space="preserve">
<path fill="#BED8D3" d="M9.325,0.682H0.943c-0.094,0-0.169,0.076-0.169,0.169v8.381c0,0.094,0.076,0.17,0.169,0.17h8.382
	c0.094,0,0.169-0.076,0.169-0.17V0.851C9.494,0.757,9.419,0.682,9.325,0.682L9.325,0.682z M8.864,8.77L1.397,8.773V1.304L8.864,1.3
	V8.77L8.864,8.77z"/>
<rect x="1.401" y="1.309" fill="#FFFFFF" width="7.466" height="7.465"/>
<path fill="#BED8D3" d="M2.009,4.72h6.252v0.643H2.009V4.72z"/>
<path fill="#BED8D3" d="M4.813,1.916h0.643v6.252H4.813V1.916z"/>
</svg>
