<?xml version="1.0" encoding="utf-8"?>
<!-- Generator: Adobe Illustrator 19.0.0, SVG Export Plug-In . SVG Version: 6.00 Build 0)  -->
<svg version="1.1" id="图层_1" xmlns="http://www.w3.org/2000/svg" xmlns:xlink="http://www.w3.org/1999/xlink" x="0px" y="0px"
	 viewBox="-286 409.9 22 22" style="enable-background:new -286 409.9 22 22;" xml:space="preserve">
<style type="text/css">
	.st0{fill:#7B7B7B;}
</style>
<path class="st0" d="M-268.2,413c-2-2-4.6-3.1-7.4-3.1c-2.8,0-5.4,1.1-7.4,3.1c-4.1,4.1-4.1,10.7,0,14.8c2,2,4.6,3.1,7.4,3.1
	c2.8,0,5.4-1.1,7.4-3.1C-264.1,423.7-264.1,417-268.2,413z M-268.8,427.1c-1.8,1.8-4.2,2.8-6.8,2.8c-2.6,0-5-1-6.8-2.8
	c-3.7-3.7-3.7-9.8,0-13.5c1.8-1.8,4.2-2.8,6.8-2.8c2.6,0,5,1,6.8,2.8C-265,417.3-265,423.4-268.8,427.1z"/>
<path class="st0" d="M-269.1,416.1c-1.2-1.2-3-1.2-4.2,0l-2.6,2.6c-1.2,1.2-1.2,3,0,4.2l0.1,0.1l0.6-0.6l-0.1-0.1
	c-0.8-0.8-0.8-2.2,0-3l2.6-2.6c0.8-0.8,2.2-0.8,3,0l0.1,0.1c0.8,0.8,0.8,2.2,0,3l-1.3,1.3l0.6,0.6l1.3-1.3c1.2-1.2,1.2-3,0-4.2
	L-269.1,416.1z"/>
<path class="st0" d="M-273.2,419.9l-0.6,0.6l0.1,0.1c0.4,0.4,0.6,0.9,0.6,1.5c0,0.6-0.2,1.1-0.6,1.5l-2.6,2.6
	c-0.4,0.4-0.9,0.6-1.5,0.6c0,0,0,0,0,0c-0.6,0-1.1-0.2-1.5-0.6l-0.1-0.1c-0.8-0.8-0.8-2.2,0-3l1.6-1.6l-0.6-0.6l-1.6,1.6
	c-1.2,1.2-1.2,3,0,4.2l0.1,0.1c0.6,0.6,1.3,0.9,2.1,0.9c0,0,0,0,0,0c0.8,0,1.5-0.3,2.1-0.9l2.6-2.6c0.6-0.6,0.9-1.3,0.9-2.1
	c0-0.8-0.3-1.5-0.9-2.1L-273.2,419.9z"/>
</svg>
