<?xml version="1.0" standalone="no"?><!DOCTYPE svg PUBLIC "-//W3C//DTD SVG 1.1//EN" "http://www.w3.org/Graphics/SVG/1.1/DTD/svg11.dtd"><svg t="1494580907011" class="icon" style="" viewBox="0 0 1024 1024" version="1.1" xmlns="http://www.w3.org/2000/svg" p-id="9114" xmlns:xlink="http://www.w3.org/1999/xlink" width="18" height="18"><defs><style type="text/css"></style></defs><path d="M796.749788 407.088602c0 84.791152-284.751323 479.440443-284.751323 479.440443s-284.751323-397.09397-284.751323-479.440443c0-157.266813 127.476323-284.751323 284.751323-284.751323C669.260162 122.337279 796.749788 249.821789 796.749788 407.088602zM167.300842 407.088602c0 98.036827 320.549643 554.522466 320.549643 554.522466l48.298006 0c0 0 320.54862-460.08563 320.54862-554.522466 0-190.372815-154.317645-344.698646-344.698646-344.698646C321.61951 62.389956 167.300842 216.715787 167.300842 407.088602zM422.078503 407.088602c0-49.659003 40.263006-89.922009 89.920986-89.922009 49.659003 0 89.922009 40.263006 89.922009 89.922009s-40.263006 89.928149-89.922009 89.928149C462.341508 497.016751 422.078503 456.746582 422.078503 407.088602zM362.131179 407.088602c0 82.772168 67.090001 149.876496 149.868309 149.876496 82.765005 0 149.869333-67.104327 149.869333-149.876496s-67.104327-149.869333-149.869333-149.869333C429.220157 257.219269 362.131179 324.316433 362.131179 407.088602z" p-id="9115" fill="#19ac9e"></path></svg>