<?xml version="1.0" encoding="utf-8"?>
<!-- Generator: Adobe Illustrator 19.0.0, SVG Export Plug-In . SVG Version: 6.00 Build 0)  -->
<svg version="1.1" id="图层_1" xmlns="http://www.w3.org/2000/svg" xmlns:xlink="http://www.w3.org/1999/xlink" x="0px" y="0px"
	 viewBox="-286 409.9 22 22" style="enable-background:new -286 409.9 22 22;" xml:space="preserve">
<style type="text/css">
	.st0{fill:#7B7B7B;}
</style>
<path class="st0" d="M-275,431.9c-6.1,0-11-4.9-11-11c0-6.1,4.9-11,11-11c6.1,0,11,4.9,11,11C-264,427-268.9,431.9-275,431.9z
	 M-275,411.3c-5.3,0-9.6,4.3-9.6,9.6c0,5.3,4.3,9.6,9.6,9.6s9.6-4.3,9.6-9.6C-265.4,415.6-269.7,411.3-275,411.3z M-271.1,424.8
	c-0.3,0.3-0.7,0.3-1,0l-2.9-2.9l-2.9,2.9c-0.3,0.3-0.7,0.3-1,0c-0.3-0.3-0.3-0.7,0-1l2.9-2.9l-2.9-2.9c-0.3-0.3-0.3-0.7,0-1
	c0.3-0.3,0.7-0.3,1,0l2.9,2.9l2.9-2.9c0.3-0.3,0.7-0.3,1,0c0.3,0.3,0.3,0.7,0,1l-2.9,2.9l2.9,2.9
	C-270.8,424.1-270.8,424.5-271.1,424.8z"/>
</svg>
