<?xml version="1.0" encoding="utf-8"?>
<!-- Generator: Adobe Illustrator 19.0.0, SVG Export Plug-In . SVG Version: 6.00 Build 0)  -->
<svg version="1.1" id="图层_1" xmlns="http://www.w3.org/2000/svg" xmlns:xlink="http://www.w3.org/1999/xlink" x="0px" y="0px"
	 viewBox="-286 409.9 22 22" style="enable-background:new -286 409.9 22 22;" xml:space="preserve">
<style type="text/css">
	.st0{fill:#7B7B7B;}
</style>
<path class="st0" d="M-268.3,430.7h-13.4c-1.7,0-3.1-1.4-3.1-3.1v-0.9c0-0.4,0.3-0.6,0.6-0.6s0.6,0.3,0.6,0.6v0.9
	c0,1,0.8,1.8,1.8,1.8h13.4c1,0,1.8-0.8,1.8-1.8v-4.2c0-0.4,0.3-0.6,0.6-0.6c0.4,0,0.6,0.3,0.6,0.6v4.2
	C-265.3,429.3-266.6,430.7-268.3,430.7L-268.3,430.7z M-284.1,423.4c-0.4,0-0.6-0.3-0.6-0.6V419c0-0.4,0.3-0.6,0.6-0.6
	s0.6,0.3,0.6,0.6v3.8C-283.5,423.1-283.8,423.4-284.1,423.4L-284.1,423.4z M-265.9,419c-0.4,0-0.6-0.3-0.6-0.6v-4.2
	c0-1-0.8-1.8-1.8-1.8l-13.4,0c-1,0-1.8,0.8-1.8,1.8v0.8c0,0.4-0.3,0.6-0.6,0.6s-0.6-0.3-0.6-0.6v-0.8c0-1.7,1.4-3.1,3.1-3.1h13.4
	c1.7,0,3.1,1.4,3.1,3.1v4.2C-265.3,418.7-265.5,419-265.9,419L-265.9,419z"/>
<path class="st0" d="M-282.3,417.7h-3.8c-0.4,0-0.6-0.3-0.6-0.6s0.3-0.6,0.6-0.6h3.8c0.4,0,0.6,0.3,0.6,0.6
	C-281.7,417.4-282,417.7-282.3,417.7L-282.3,417.7z"/>
<path class="st0" d="M-282.3,425.4h-3.8c-0.4,0-0.6-0.3-0.6-0.6c0-0.4,0.3-0.6,0.6-0.6h3.8c0.4,0,0.6,0.3,0.6,0.6
	C-281.7,425.1-282,425.4-282.3,425.4L-282.3,425.4z"/>
<path class="st0" d="M-270.9,417.7h-7.7c-0.4,0-0.6-0.3-0.6-0.6s0.3-0.6,0.6-0.6h7.7c0.4,0,0.6,0.3,0.6,0.6
	S-270.5,417.7-270.9,417.7L-270.9,417.7z"/>
<path class="st0" d="M-270.9,421.5h-7.7c-0.4,0-0.6-0.3-0.6-0.6s0.3-0.6,0.6-0.6h7.7c0.4,0,0.6,0.3,0.6,0.6
	S-270.5,421.5-270.9,421.5L-270.9,421.5z"/>
<path class="st0" d="M-270.9,425.4h-7.7c-0.4,0-0.6-0.3-0.6-0.6c0-0.4,0.3-0.6,0.6-0.6h7.7c0.4,0,0.6,0.3,0.6,0.6
	C-270.2,425.1-270.5,425.4-270.9,425.4L-270.9,425.4z"/>
<path class="st0" d="M-265.8,423.5c-1.4,0-2.6-1.2-2.6-2.6c0-1.4,1.2-2.6,2.6-2.6c1.4,0,2.6,1.2,2.6,2.6
	C-263.2,422.3-264.4,423.5-265.8,423.5L-265.8,423.5z M-265.8,419.6c-0.7,0-1.3,0.6-1.3,1.3c0,0.7,0.6,1.3,1.3,1.3
	c0.7,0,1.3-0.6,1.3-1.3C-264.5,420.2-265.1,419.6-265.8,419.6L-265.8,419.6z"/>
</svg>
