<?xml version="1.0" standalone="no"?><!DOCTYPE svg PUBLIC "-//W3C//DTD SVG 1.1//EN" "http://www.w3.org/Graphics/SVG/1.1/DTD/svg11.dtd"><svg class="icon" width="18px" height="18.00px" viewBox="0 0 1024 1024" version="1.1" xmlns="http://www.w3.org/2000/svg"><path d="M495.4112 51.48672c-248.85248 0-450.56 201.728-450.56 450.56 0 248.832 201.70752 450.56 450.56 450.56s450.56-201.728 450.56-450.56C945.95072 253.21472 744.26368 51.48672 495.4112 51.48672zM495.4112 914.39104c-227.75808 0-412.34432-184.60672-412.34432-412.34432 0-227.7376 184.60672-412.34432 412.34432-412.34432s412.34432 184.60672 412.34432 412.34432C907.75552 729.8048 723.16928 914.39104 495.4112 914.39104z" fill="#a7a7a7" /><path d="M474.09152 218.89024 514.43712 218.89024 514.43712 483.36896 759.35744 483.36896 759.35744 524.12416 474.09152 524.12416Z" fill="#a7a7a7" /></svg>