<?xml version="1.0" standalone="no"?><!DOCTYPE svg PUBLIC "-//W3C//DTD SVG 1.1//EN" "http://www.w3.org/Graphics/SVG/1.1/DTD/svg11.dtd"><svg class="icon" width="18px" height="18.00px" viewBox="0 0 1024 1024" version="1.1" xmlns="http://www.w3.org/2000/svg"><path d="M928 710.656 96 710.656 96 178.432l832 0L928 710.656zM123.52 683.264l776.96 0L900.48 205.952l-776.96 0L123.52 683.264z" fill="#a7a7a7" /><path d="M497.152 703.744l29.696 0 0 112.128-29.696 0 0-112.128Z" fill="#a7a7a7" /><path d="M649.472 356.48 649.472 356.48c-5.76-5.76-15.232-5.76-20.992 0L483.712 501.248 395.52 413.184c-5.76-5.76-15.232-5.76-20.992 0l0 0c-5.76 5.76-5.76 15.232 0 20.992l98.56 98.56c2.944 2.944 6.784 4.352 10.496 4.352 3.84 0 7.68-1.408 10.496-4.352l155.264-155.264C655.232 371.712 655.232 362.24 649.472 356.48z" fill="#a7a7a7" /><path d="M323.580928 845.570944l0-29.696 376.832 0 0 29.696-376.832 0Z" fill="#a7a7a7" /></svg>