<?xml version="1.0" encoding="utf-8"?>
<!-- Generator: Adobe Illustrator 19.0.0, SVG Export Plug-In . SVG Version: 6.00 Build 0)  -->
<svg version="1.1" id="图层_1" xmlns="http://www.w3.org/2000/svg" xmlns:xlink="http://www.w3.org/1999/xlink" x="0px" y="0px"
	 viewBox="-286 409.9 22 22" style="enable-background:new -286 409.9 22 22;" xml:space="preserve">
<style type="text/css">
	.st0{fill:#7B7B7B;}
</style>
<path class="st0" d="M-284.7,431.2c0-0.4,0.3-0.7,0.7-0.7h19.2c0.4,0,0.7,0.3,0.7,0.7l0,0c0,0.4-0.3,0.7-0.7,0.7H-284
	C-284.4,431.9-284.7,431.6-284.7,431.2L-284.7,431.2z"/>
<path class="st0" d="M-284.8,417.9l9.9,9.9c0.1,0.1,0.2,0.2,0.4,0.2c0,0,0,0,0,0c0,0,0,0,0,0c0.1,0,0.3,0,0.4-0.2l9.9-9.9
	c0.2-0.2,0.2-0.6,0-0.9c-0.2-0.2-0.6-0.3-0.9,0l-8.8,8.8c0,0,0,0,0,0v-15.2c0-0.4-0.3-0.6-0.6-0.6c-0.4,0-0.6,0.3-0.6,0.6v15.2v0
	l-8.8-8.8c-0.2-0.2-0.6-0.2-0.9,0C-285,417.3-285,417.7-284.8,417.9z M-274.5,426.4C-274.5,426.4-274.5,426.4-274.5,426.4
	L-274.5,426.4L-274.5,426.4L-274.5,426.4z"/>
</svg>
