<?xml version="1.0" standalone="no"?><!DOCTYPE svg PUBLIC "-//W3C//DTD SVG 1.1//EN" "http://www.w3.org/Graphics/SVG/1.1/DTD/svg11.dtd"><svg t="1494238781073" class="icon" style="" viewBox="0 0 1024 1024" version="1.1" xmlns="http://www.w3.org/2000/svg" p-id="3468" xmlns:xlink="http://www.w3.org/1999/xlink" width="18" height="18"><defs><style type="text/css"></style></defs><path d="M511.872 770.389333c-0.042667 0-0.085333 0-0.128 0-9.258667-0.021333-18.090667-4.074667-24.128-11.114667-9.216-10.730667-19.285333-22.208-29.909333-34.325333-94.698667-107.946667-222.506667-248.661333-222.506667-381.056 0-153.621333 124.970667-278.592 278.592-278.592s278.570667 124.970667 278.570667 278.592c0 135.061333-134.549333 277.781333-231.381333 387.2-8.789333 9.92-17.173333 19.413333-25.002667 28.373333C529.898667 766.421333 521.109333 770.389333 511.872 770.389333zM513.792 129.301333c-118.314667 0-214.592 96.256-214.592 214.592 0 146.282667 151.957333 271.573333 214.826667 349.290667 62.336-81.258667 214.314667-202.325333 214.314667-349.290667C728.362667 225.557333 632.106667 129.301333 513.792 129.301333z" p-id="3469" fill="#999999"></path><path d="M513.792 449.578667c-67.050667 0-121.578667-54.549333-121.578667-121.6s54.549333-121.6 121.578667-121.6c67.072 0 121.6 54.549333 121.6 121.6S580.864 449.578667 513.792 449.578667zM513.792 270.378667c-31.744 0-57.578667 25.834667-57.578667 57.6s25.834667 57.578667 57.578667 57.578667c31.765333 0 57.6-25.813333 57.6-57.578667S545.557333 270.378667 513.792 270.378667z" p-id="3470" fill="#999999"></path><path d="M930.538667 940.416 93.461333 940.416c-11.029333 0-21.269333-5.696-27.114667-15.018667-5.845333-9.344-6.485333-21.034667-1.664-30.954667l123.52-255.637333c5.354667-11.029333 16.533333-18.026667 28.8-18.026667l71.786667 0c17.664 0 32 14.336 32 32 0 17.685333-14.336 32-32 32L237.013333 684.778667l-92.437333 191.637333 736.96 0-83.626667-191.658667-62.208 0c-17.664 0-32-14.314667-32-32 0-17.664 14.336-32 32-32l83.114667 0c12.693333 0 24.192 7.530667 29.290667 19.114667l111.722667 255.658667c4.352 9.898667 3.413333 21.312-2.496 30.357333C951.445333 934.954667 941.354667 940.416 930.538667 940.416z" p-id="3471" fill="#999999"></path></svg>