<?xml version="1.0" standalone="no"?><!DOCTYPE svg PUBLIC "-//W3C//DTD SVG 1.1//EN" "http://www.w3.org/Graphics/SVG/1.1/DTD/svg11.dtd"><svg t="1494239205064" class="icon" style="" viewBox="0 0 1145 1024" version="1.1" xmlns="http://www.w3.org/2000/svg" p-id="7579" xmlns:xlink="http://www.w3.org/1999/xlink" width="17.890625" height="16"><defs><style type="text/css"></style></defs><path d="M575.245311 295.921771c-118.10107 0-214.183134 96.082065-214.183134 214.184494 0 118.10107 96.082065 214.183134 214.183134 214.183134s214.183134-96.082065 214.183134-214.183134C789.429805 392.003835 693.34638 295.921771 575.245311 295.921771zM575.245311 663.091498c-84.356547 0-152.985233-68.628686-152.985233-152.985233s68.628686-152.986593 152.985233-152.986593c84.356547 0 152.985233 68.628686 152.985233 152.986593S659.603218 663.091498 575.245311 663.091498z" p-id="7580" fill="#999999"></path><path d="M1052.86909 480.49872l-77.471103 0c-7.171034-96.559408-48.213066-186.365288-117.385734-255.537956-69.172668-69.172668-158.978548-110.21334-255.537956-117.385734l0-76.97608c0-16.89878-13.69881-30.598951-30.598951-30.598951s-30.598951 13.70017-30.598951 30.598951L541.276396 107.575031c-96.559408 7.171034-186.365288 48.213066-255.537956 117.385734-69.172668 69.172668-110.21334 158.977188-117.385734 255.537956L92.062043 480.49872c-16.90014 0-30.598951 13.70017-30.598951 30.598951s13.69881 30.598951 30.598951 30.598951l76.290663 0c7.171034 96.559408 48.213066 186.365288 117.385734 255.536596 69.172668 69.172668 158.978548 110.21334 255.537956 117.385734l0 78.782098c0 16.90014 13.69881 30.598951 30.598951 30.598951s30.598951-13.69881 30.598951-30.598951l0-78.782098c96.559408-7.171034 186.366648-48.213066 255.537956-117.385734 69.172668-69.172668 110.21334-158.977188 117.385734-255.536596l77.471103 0c16.90014 0 30.598951-13.70017 30.598951-30.598951S1069.76923 480.49872 1052.86909 480.49872zM814.739897 753.960861c-64.871135 64.869775-151.122097 100.59711-242.864551 100.59711-91.741094 0-177.992055-35.727335-242.863191-100.59711-64.871135-64.871135-100.59847-151.122097-100.59847-242.864551s35.727335-177.992055 100.59847-242.863191 151.122097-100.59711 242.863191-100.59711c91.742454 0 177.993415 35.725975 242.864551 100.59711 64.869775 64.871135 100.59711 151.122097 100.59711 242.863191S879.609672 689.089726 814.739897 753.960861z" p-id="7581" fill="#999999"></path></svg>