<?xml version="1.0" standalone="no"?><!DOCTYPE svg PUBLIC "-//W3C//DTD SVG 1.1//EN" "http://www.w3.org/Graphics/SVG/1.1/DTD/svg11.dtd"><svg t="1519627383939" class="icon" style="" viewBox="0 0 1024 1024" version="1.1" xmlns="http://www.w3.org/2000/svg" p-id="6942" xmlns:xlink="http://www.w3.org/1999/xlink" width="16" height="16"><defs><style type="text/css"></style></defs><path d="M871.6288 350.37184c5.69344-67.70688 26.112-129.86368 62.0544-186.85952L795.77088 30.72c-43.56096 36.10624-93.20448 56.1152-149.4016 59.63776-51.52768 4.48512-100.352-4.93568-146.30912-28.32384-47.22688 22.60992-95.86688 32.09216-146.55488 28.32384a271.36 271.36 0 0 1-142.19264-54.14912L73.05216 168.96c34.01728 57.79456 52.96128 118.272 56.66816 181.41184 1.76128 29.06112-6.84032 69.12-26.19392 120.832a861.71648 861.71648 0 0 0-22.99904 74.3424c-4.83328 20.66432-7.84384 37.41696-8.86784 50.01216-0.69632 55.11168 15.36 104.87808 48.29184 149.13536 25.74336 32.29696 68.1984 67.97312 127.13984 106.98752 64.47104 31.60064 114.3808 52.10112 149.34016 60.84608l28.99968 13.0048c9.1136 4.17792 18.88256 8.2944 29.06112 12.75904 22.016 12.6976 37.43744 26.43968 45.568 40.63232 9.99424-15.38048 25.78432-28.75392 46.75584-40.63232a1017.4464 1017.4464 0 0 0 37.39648-16.32256l21.89312-9.4208c7.4752-3.54304 17.24416-7.63904 29.12256-12.16512a1719.00928 1719.00928 0 0 1 44.31872-16.19968c34.05824-11.59168 58.85952-22.58944 74.60864-32.50176 57.18016-38.99392 98.97984-74.11712 125.58336-105.472 34.0992-44.40064 50.688-94.4128 49.93024-150.60992-2.02752-25.1904-13.1072-65.45408-33.21856-120.32-19.12832-53.47328-27.58656-94.96576-24.82176-124.90752z" fill="#297ae8" p-id="6943"></path></svg>