<?xml version="1.0" standalone="no"?><!DOCTYPE svg PUBLIC "-//W3C//DTD SVG 1.1//EN" "http://www.w3.org/Graphics/SVG/1.1/DTD/svg11.dtd"><svg t="1519627314659" class="icon" style="" viewBox="0 0 1024 1024" version="1.1" xmlns="http://www.w3.org/2000/svg" p-id="4460" xmlns:xlink="http://www.w3.org/1999/xlink" width="16" height="16"><defs><style type="text/css"></style></defs><path d="M434.40128 122.88C175.69792 122.88 20.48 330.40384 20.48 434.176s51.73248 181.59616 155.21792 181.59616 155.2384 25.92768 155.2384 103.75168c0 103.75168 77.59872 181.57568 181.08416 181.57568 336.32256 0 491.52-181.57568 491.52-363.15136C1003.52 226.65216 744.77568 122.88 434.40128 122.88z m-64.67584 103.77216a64.75776 64.75776 0 0 1 64.67584 64.83968c0 35.84-28.95872 64.86016-64.67584 64.86016s-64.67584-29.04064-64.67584-64.86016a64.75776 64.75776 0 0 1 64.67584-64.83968z m206.92992 0a64.75776 64.75776 0 0 1 64.67584 64.83968 64.75776 64.75776 0 0 1-64.67584 64.86016A64.75776 64.75776 0 0 1 512 291.49184a64.75776 64.75776 0 0 1 64.65536-64.83968z m206.97088 103.75168a64.75776 64.75776 0 0 1 64.69632 64.86016 64.73728 64.73728 0 0 1-64.69632 64.83968 64.7168 64.7168 0 0 1-64.65536-64.83968 64.73728 64.73728 0 0 1 64.65536-64.86016zM188.64128 382.30016a64.7168 64.7168 0 0 1 64.65536 64.8192c0 35.84-28.95872 64.86016-64.65536 64.86016s-64.67584-29.04064-64.67584-64.86016a64.75776 64.75776 0 0 1 64.67584-64.8192zM512 641.69984c42.86464 0 77.59872 34.816 77.59872 77.84448 0 42.96704-34.73408 77.80352-77.59872 77.80352s-77.59872-34.83648-77.59872-77.80352A77.70112 77.70112 0 0 1 512 641.69984z" fill="#3fb9ae" p-id="4461"></path></svg>