<?xml version="1.0" standalone="no"?><!DOCTYPE svg PUBLIC "-//W3C//DTD SVG 1.1//EN" "http://www.w3.org/Graphics/SVG/1.1/DTD/svg11.dtd"><svg t="1519627344752" class="icon" style="" viewBox="0 0 1024 1024" version="1.1" xmlns="http://www.w3.org/2000/svg" p-id="5578" xmlns:xlink="http://www.w3.org/1999/xlink" width="16" height="16"><defs><style type="text/css"></style></defs><path d="M709.44768 774.28736l-2.31424-4.42368 1.16736-1.65888 1.16736-1.65888a273.53088 273.53088 0 0 0 58.59328-32.84992c17.48992-13.1072 29.20448-32.23552 35.24608-57.52832l4.4032-20.23424V133.26336c0-12.61568-3.76832-25.7024-11.20256-39.0144a149.68832 149.68832 0 0 0-27.9552-36.39296 160.54272 160.54272 0 0 0-37.35552-26.84928C717.35296 23.9616 704.16384 20.48 691.48672 20.48H317.41952c-11.93984 0-24.82176 3.2768-38.6048 9.97376a160.01024 160.01024 0 0 0-37.96992 25.74336 142.15168 142.15168 0 0 0-28.4672 35.08224c-7.45472 13.2096-11.20256 25.94816-11.20256 38.7072v530.45248c0 8.92928 2.3552 18.24768 6.69696 27.91424 4.5056 9.70752 10.07616 18.78016 16.75264 27.25888 6.67648 8.72448 14.0288 16.52736 21.85216 23.552s15.42144 12.84096 22.89664 17.28512c3.60448 1.51552 10.21952 3.85024 19.59936 6.81984 9.17504 2.94912 13.47584 5.14048 12.77952 6.57408L148.64384 1002.20928h89.31328l111.75936-161.97632h308.3264l111.63648 161.97632H860.16l-150.71232-227.92192zM415.62112 65.10592c0-3.74784 1.78176-7.5776 5.59104-11.776 3.66592-4.07552 7.3728-6.0416 11.1616-6.0416h142.99136c1.4336 0 4.52608 1.4336 8.97024 4.36224 4.4032 2.99008 6.63552 5.95968 6.63552 8.92928V115.3024c0 3.74784-1.88416 7.18848-5.55008 10.0352-3.76832 3.072-7.168 4.62848-10.0352 4.62848H431.3088l-4.54656-3.54304a40.77568 40.77568 0 0 1-7.22944-6.16448 11.18208 11.18208 0 0 1-3.91168-8.21248V65.10592z m-144.11776 153.02656c0-7.43424 1.76128-14.72512 5.05856-21.83168 3.31776-7.0656 7.63904-13.5168 12.84096-19.5584 5.24288-5.98016 11.38688-10.67008 18.39104-14.41792a46.2848 46.2848 0 0 1 21.87264-5.61152H677.0688c6.59456 0 13.312 1.55648 20.00896 4.38272 6.71744 2.99008 12.84096 7.168 18.47296 12.32896 5.61152 5.16096 10.01472 10.89536 13.4144 16.83456 3.31776 5.81632 4.95616 12.20608 4.95616 18.90304v118.43584c0 6.71744-1.80224 13.06624-5.5296 19.456a60.3136 60.3136 0 0 1-14.52032 16.93696 83.53792 83.53792 0 0 1-19.00544 11.55072 46.08 46.08 0 0 1-20.04992 4.5056H331.89888l-5.65248-1.00352a33.792 33.792 0 0 1-6.73792-2.31424c-12.5952-2.17088-23.73632-8.9088-33.44384-20.11136-9.70752-11.18208-14.56128-23.42912-14.56128-36.80256v-101.6832z m103.40352 461.33248c-11.53024 11.89888-25.96864 17.83808-43.008 17.83808-17.14176 0-31.1296-5.9392-41.984-17.83808-10.77248-11.8784-16.15872-26.50112-16.15872-43.64288 0-15.62624 5.61152-29.16352 16.81408-40.67328 11.14112-11.5712 24.92416-17.42848 41.32864-17.42848 17.03936 0 31.45728 5.5296 43.008 16.15872 11.55072 10.91584 17.3056 25.10848 17.3056 43.1104 0 16.40448-5.75488 30.59712-17.3056 42.47552z m255.77472 0c-11.50976-11.8784-17.36704-26.50112-17.36704-43.64288 0-17.16224 6.12352-31.0272 18.432-41.94304a63.97952 63.97952 0 0 1 43.08992-16.15872c16.9984 0 31.04768 5.8368 41.84064 17.42848 10.752 11.50976 16.24064 25.06752 16.24064 40.67328 0 17.14176-5.632 31.76448-16.7936 43.64288-11.24352 11.89888-25.31328 17.83808-42.51648 17.83808-17.08032 0-31.41632-5.9392-42.92608-17.83808z" fill="#69a6f5" p-id="5579"></path></svg>