<?xml version="1.0" standalone="no"?><!DOCTYPE svg PUBLIC "-//W3C//DTD SVG 1.1//EN" "http://www.w3.org/Graphics/SVG/1.1/DTD/svg11.dtd"><svg t="1519627356294" class="icon" style="" viewBox="0 0 1024 1024" version="1.1" xmlns="http://www.w3.org/2000/svg" p-id="5950" xmlns:xlink="http://www.w3.org/1999/xlink" width="16" height="16"><defs><style type="text/css"></style></defs><path d="M984.04352 743.6288c10.71104 3.46112 19.47648-2.90816 19.47648-14.17216v-71.55712c0-11.264-7.92576-25.1904-17.59232-30.96576L611.51232 403.80416c-9.66656-5.75488-17.59232-19.70176-17.59232-30.94528V122.88c0-11.264-3.44064-29.02016-7.65952-39.48544 0 0-22.34368-55.45984-61.44-61.6448A73.07264 73.07264 0 0 0 512.14336 20.48h-0.2048a75.61216 75.61216 0 0 0-14.60224 1.47456l-4.42368 0.98304-6.71744 2.08896c-32.52224 10.8544-49.27488 58.0608-49.27488 58.0608A142.90944 142.90944 0 0 0 430.08 122.88v249.97888c0 11.264-7.92576 25.1904-17.59232 30.96576L38.07232 626.93376c-9.66656 5.77536-17.59232 19.70176-17.59232 30.96576v71.55712c0 11.264 8.76544 17.63328 19.47648 14.15168l370.64704-120.32c10.71104-3.46112 19.47648 2.90816 19.47648 14.17216v195.23584c0 11.264-7.3728 26.03008-16.384 32.78848l-49.152 36.90496c-9.0112 6.7584-16.384 21.52448-16.384 32.78848V983.04c0 11.264 8.86784 17.94048 19.68128 14.82752l124.416-35.7376c10.81344-3.11296 28.54912-3.11296 39.36256 0l124.53888 35.7376c10.81344 3.11296 19.68128-3.56352 19.68128-14.82752v-47.88224c0-11.264-7.3728-26.03008-16.384-32.78848l-49.152-36.90496c-8.99072-6.7584-16.384-21.52448-16.384-32.78848v-195.23584c0-11.264 8.76544-17.63328 19.47648-14.15168l370.64704 120.34048z" fill="#69a6f5" p-id="5951"></path></svg>