<?xml version="1.0" standalone="no"?><!DOCTYPE svg PUBLIC "-//W3C//DTD SVG 1.1//EN" "http://www.w3.org/Graphics/SVG/1.1/DTD/svg11.dtd"><svg t="1519627374039" class="icon" style="" viewBox="0 0 1024 1024" version="1.1" xmlns="http://www.w3.org/2000/svg" p-id="6570" xmlns:xlink="http://www.w3.org/1999/xlink" width="16" height="16"><defs><style type="text/css"></style></defs><path d="M879.08352 266.24H778.24V159.21152C778.24 82.69824 717.86496 20.48 641.14688 20.48H382.8736C306.11456 20.48 245.76 82.69824 245.76 159.21152V266.24H144.896C76.16512 266.24 20.48 319.30368 20.48 387.82976v471.18336C20.48 927.51872 76.16512 983.04 144.896 983.04h734.18752C947.79392 983.04 1003.52 927.51872 1003.52 858.99264V387.82976C1003.52 319.30368 947.79392 266.24 879.08352 266.24zM327.68 159.21152C327.68 130.56 354.14016 102.4 382.8736 102.4h258.27328C669.7984 102.4 696.32 130.56 696.32 159.21152V266.24H327.68V159.21152zM737.28 716.8h-143.36v143.36h-163.84v-143.36h-143.36v-163.84h143.36v-143.36h163.84v143.36h143.36v163.84z" fill="#3bc1d0" p-id="6571"></path></svg>