<?xml version="1.0" standalone="no"?><!DOCTYPE svg PUBLIC "-//W3C//DTD SVG 1.1//EN" "http://www.w3.org/Graphics/SVG/1.1/DTD/svg11.dtd"><svg t="1495015004468" class="icon" style="" viewBox="0 0 1024 1024" version="1.1" xmlns="http://www.w3.org/2000/svg" p-id="8203" xmlns:xlink="http://www.w3.org/1999/xlink" width="16" height="16"><defs><style type="text/css"></style></defs><path d="M880.454188 787.120988" p-id="8204" fill="#999999"></path><path d="M511.411087 63.423495C282.670429 63.423495 97.235067 248.858858 97.235067 477.603609c0 228.736565 185.435363 414.171927 414.180114 414.171927 228.735541 0 414.170904-185.435363 414.170904-414.171927C925.586085 248.858858 740.150722 63.423495 511.411087 63.423495L511.411087 63.423495 511.411087 63.423495zM511.411087 814.118875c-185.845709 0-336.51936-150.668535-336.51936-336.515267 0-185.850825 150.673651-336.51936 336.51936-336.51936l0 336.51936 237.9586 237.954507C688.468642 776.455067 604.340593 814.118875 511.411087 814.118875L511.411087 814.118875 511.411087 814.118875zM511.411087 814.118875" p-id="8205" fill="#999999"></path></svg>