<?xml version="1.0" standalone="no"?><!DOCTYPE svg PUBLIC "-//W3C//DTD SVG 1.1//EN" "http://www.w3.org/Graphics/SVG/1.1/DTD/svg11.dtd"><svg t="1519627284661" class="icon" style="" viewBox="0 0 1024 1024" version="1.1" xmlns="http://www.w3.org/2000/svg" p-id="3465" xmlns:xlink="http://www.w3.org/1999/xlink" width="16" height="16"><defs><style type="text/css"></style></defs><path d="M942.08 593.92v409.6H634.88v-81.92H368.64v81.92H81.92V593.92z m-185.36448-74.6496c-11.75552-51.38432-38.27712-96.5632-80.0768-131.09248C636.14976 354.52928 588.24704 348.16 532.6848 327.68H532.48V198.08256l10.73152-2.88768 23.49056-8.704c9.03168-3.05152 17.2032-5.61152 25.72288-7.41376 8.35584-1.98656 14.15168-2.82624 18.1248-2.82624 7.72096 0 17.48992 1.2288 28.91776 3.72736 11.63264 2.82624 24.02304 5.87776 36.61824 9.33888 13.12768 3.97312 24.84224 6.98368 36.20864 9.54368 10.83392 2.47808 19.90656 3.50208 27.42272 3.50208 11.96032 0.02048 18.04288-1.6384 38.52288-5.28384V48.76288c-20.48 4.87424-24.10496 7.55712-38.54336 7.55712-7.51616 0-16.81408-1.14688-27.66848-3.8912-11.32544-2.17088-22.99904-5.55008-36.12672-9.35936a460.84096 460.84096 0 0 0-35.49184-9.13408c-11.12064-2.64192-18.35008-3.91168-26.2144-3.91168-26.07104 0-61.2352 6.16448-81.7152 17.53088V20.48h-40.96v307.2h-1.29024c-55.13216 20.48-103.40352 28.01664-143.85152 61.66528-41.00096 34.57024-67.62496 76.82048-80.22016 128.22528 0 0-39.26016-5.57056-39.26016 35.38944h572.8256c0-40.96-43.008-33.6896-43.008-33.6896z" fill="#ffad7f" p-id="3466"></path></svg>