<?xml version="1.0" standalone="no"?><!DOCTYPE svg PUBLIC "-//W3C//DTD SVG 1.1//EN" "http://www.w3.org/Graphics/SVG/1.1/DTD/svg11.dtd"><svg t="1519627341562" class="icon" style="" viewBox="0 0 1024 1024" version="1.1" xmlns="http://www.w3.org/2000/svg" p-id="5454" xmlns:xlink="http://www.w3.org/1999/xlink" width="16" height="16"><defs><style type="text/css"></style></defs><path d="M450.56 39.56736V266.24h-40.96V40.96a20.48 20.48 0 0 0-40.96 0v225.28h-40.96V40.22272c0-26.35776-40.96-25.45664-40.96-0.67584V266.24h-40.96V41.1648c0-27.91424-40.96-26.89024-40.96-1.10592v296.38656c0 42.74176 40.96 70.92224 81.92 70.92224V942.08c0 81.92 122.88 81.92 122.88 0V407.38816c40.96 0 81.92-34.03776 81.92-66.08896V40.22272c0-26.112-40.96-25.10848-40.96-0.65536zM634.88 102.4v512h40.96v327.68c0 81.92 143.36 81.92 143.36 0V102.4c0-102.4-184.32-102.4-184.32 0z" fill="#fa9596" p-id="5455"></path></svg>