<?xml version="1.0" standalone="no"?><!DOCTYPE svg PUBLIC "-//W3C//DTD SVG 1.1//EN" "http://www.w3.org/Graphics/SVG/1.1/DTD/svg11.dtd"><svg t="1519627288892" class="icon" style="" viewBox="0 0 1024 1024" version="1.1" xmlns="http://www.w3.org/2000/svg" p-id="3589" xmlns:xlink="http://www.w3.org/1999/xlink" width="16" height="16"><defs><style type="text/css"></style></defs><path d="M940.60544 592.87552l-2.23232-6.02112c-7.00416-18.88256-15.6672-42.35264-37.86752-55.64416-15.4624-9.25696-33.44384-12.47232-49.29536-15.29856a203.5712 203.5712 0 0 1-22.48704-4.87424l-5.81632-2.048-0.9216-0.3072c-63.65184-51.11808-192.53248-52.51072-272.81408-124.80512C434.11456 280.33024 341.77024 176.20992 237.91616 20.48L108.15488 124.3136c-9.0112 7.20896-26.2144 12.98432-26.2144 38.93248 0 12.96384 13.18912 14.9504 28.73344 10.1376l73.19552-23.12192L389.12 435.83488v155.77088c0 36.0448-0.59392 68.85376 29.98272 87.49056L342.016 1003.52h51.9168l48.78336-154.05056L491.52 773.28384V1003.52h61.44V747.35616s-0.7168-51.9168 51.2-51.9168l51.2 51.9168V1003.52h40.96V798.72l112.96768 204.8h51.9168C835.23584 921.6 798.72 929.03424 798.72 851.16928v-51.9168c0-54.43584 61.44-103.8336 61.44-155.7504v-51.87584c0-12.32896-1.59744-23.2448-4.4032-33.11616 9.05216 1.8432 17.36704 4.07552 23.69536 7.8848 9.80992 5.87776 15.23712 20.54144 20.48 34.7136l2.37568 6.38976a20.48 20.48 0 0 0 26.4192 11.83744l0.02048-0.02048a20.48 20.48 0 0 0 11.85792-26.43968z" fill="#a1ace7" p-id="3590"></path></svg>