<?xml version="1.0" encoding="utf-8"?>
<!-- Generator: Adobe Illustrator 18.1.0, SVG Export Plug-In . SVG Version: 6.00 Build 0)  -->
<svg version="1.1" id="图层_1" xmlns="http://www.w3.org/2000/svg" xmlns:xlink="http://www.w3.org/1999/xlink" x="0px" y="0px"
	 viewBox="0 0 30 30" enable-background="new 0 0 30 30" xml:space="preserve">
<path fill="#999999" d="M15,8.8c-3.3,0-6.2,2.7-6.2,6.2c0,3.3,2.7,6.2,6.2,6.2s6.2-2.8,6.2-6.2S18.5,8.8,15,8.8z M15,19.3
	c-2.3,0-4.3-2-4.3-4.3s2-4.3,4.3-4.3s4.3,2,4.3,4.3S17.5,19.3,15,19.3z"/>
<path fill="#999999" d="M28.7,14.2h-2.2c-0.2-2.8-1.3-5.3-3.3-7.3s-4.5-3.2-7.3-3.3V1.3c0-0.5-0.3-0.8-0.8-0.8s-0.8,0.3-0.8,0.8v2.2
	c-2.8,0.2-5.3,1.3-7.3,3.3s-3.2,4.5-3.3,7.3H1.3c-0.5,0-0.8,0.3-0.8,0.8c0,0.5,0.3,0.8,0.8,0.8h2.2c0.2,2.8,1.3,5.3,3.3,7.3
	s4.5,3.2,7.3,3.3v2.2c0,0.5,0.3,0.8,0.8,0.8s0.8-0.3,0.8-0.8v-2.2c2.8-0.2,5.3-1.3,7.3-3.3s3.2-4.5,3.3-7.3h2.2
	c0.5,0,0.8-0.3,0.8-0.8C29.5,14.5,29.2,14.2,28.7,14.2z M21.8,22c-1.8,1.8-4.2,2.8-6.8,2.8s-5-1-7-2.8s-2.8-4.3-2.8-7s1-5,2.8-7
	s4.3-2.8,7-2.8s5,1,7,2.8s2.8,4.3,2.8,7S23.8,20,21.8,22z"/>
</svg>
