<?xml version="1.0" standalone="no"?><!DOCTYPE svg PUBLIC "-//W3C//DTD SVG 1.1//EN" "http://www.w3.org/Graphics/SVG/1.1/DTD/svg11.dtd"><svg t="1519627257457" class="icon" style="" viewBox="0 0 1024 1024" version="1.1" xmlns="http://www.w3.org/2000/svg" p-id="3217" xmlns:xlink="http://www.w3.org/1999/xlink" width="16" height="16"><defs><style type="text/css"></style></defs><path d="M585.33888 420.74112c0 68.99712-57.11872 68.99712-87.90016 68.99712h-38.37952v-130.43712h48.2304c26.97216 0 78.04928 0 78.04928 61.44z m294.83008-68.87424c5.69344-70.20544 26.03008-134.63552 61.91104-193.69984L804.47488 20.48c-43.47904 37.43744-92.95872 58.1632-149.07392 61.82912a256.57344 256.57344 0 0 1-145.96096-29.36832c-47.12448 23.47008-95.66208 33.28-146.26816 29.36832-52.34688-4.68992-99.57376-23.2448-141.88544-56.13568l-137.99424 137.6256c33.93536 59.904 52.8384 122.61376 56.56576 188.06784 1.76128 30.14656-6.84032 71.63904-26.13248 125.27616-10.09664 29.73696-17.73568 55.54176-22.9376 77.08672-4.8128 21.4016-7.82336 38.8096-8.82688 51.83488-0.7168 57.15968 15.31904 108.76928 48.18944 154.624 25.68192 33.4848 68.03456 70.4512 126.85312 110.8992 64.34816 32.768 114.15552 54.04672 149.03296 63.09888l28.91776 13.43488c9.09312 4.38272 18.8416 8.62208 29.02016 13.25056 21.93408 13.14816 37.35552 27.42272 45.4656 42.12736 9.95328-15.91296 25.7024-29.81888 46.63296-42.12736a950.31296 950.31296 0 0 0 37.33504-16.95744c10.0352-4.4032 17.5104-7.72096 21.85216-9.74848a382.976 382.976 0 0 1 29.02016-12.5952c11.93984-4.68992 26.66496-10.4448 44.25728-16.7936 33.9968-12.06272 58.73664-23.42912 74.46528-33.71008 57.0368-40.448 98.73408-76.8 125.27616-109.34272 34.03776-46.05952 50.56512-97.8944 49.80736-156.18048-2.00704-26.09152-13.04576-67.85024-33.09568-124.74368-19.12832-55.37792-27.60704-98.38592-24.82176-129.4336z m-252.928 188.6208c-32.6656 21.38112-77.57824 21.38112-101.02784 21.38112h-64.4096v176.25088H364.9536V286.0032h137.48224c63.8976 0 117.32992 4.11648 154.43968 49.3568 23.16288 28.79488 27.07456 61.50144 27.07456 84.74624-0.04096 52.65408-21.72928 97.09568-56.70912 120.38144z" fill="#ffad7f" p-id="3218"></path></svg>