<?xml version="1.0" standalone="no"?><!DOCTYPE svg PUBLIC "-//W3C//DTD SVG 1.1//EN" "http://www.w3.org/Graphics/SVG/1.1/DTD/svg11.dtd"><svg t="1519627367725" class="icon" style="" viewBox="0 0 1024 1024" version="1.1" xmlns="http://www.w3.org/2000/svg" p-id="6322" xmlns:xlink="http://www.w3.org/1999/xlink" width="16" height="16"><defs><style type="text/css"></style></defs><path d="M508.86656 558.44864c72.64256 0 106.31168 55.0912 113.37728 133.36576 1.65888 18.71872-0.02048 46.01856-2.4576 77.63968C611.6352 874.47552 602.25536 1003.52 672.1536 1003.52c59.1872 0 89.51808-113.4592 107.08992-242.81088 16.91648-128.04096-1.04448-191.75424 7.82336-248.6272 16.81408-107.7248 110.83776-204.30848 81.79712-341.66784-16.09728-76.20608-58.08128-112.0256-99.61472-127.11936-95.72352-34.83648-157.57312 32.29696-260.38272 32.29696-102.78912 0-164.59776-67.13344-260.36224-32.29696-41.51296 15.07328-83.51744 50.91328-99.65568 127.11936-28.9792 137.35936 65.024 233.92256 81.89952 341.66784 8.78592 56.85248-9.07264 120.58624 7.82336 248.6272C256.1024 890.0608 286.49472 1003.52 345.62048 1003.52c69.85728 0 60.53888-129.04448 52.38784-234.06592-2.37568-31.6416-4.17792-58.94144-2.47808-77.66016 7.04512-78.25408 41.20576-133.34528 113.33632-133.34528z" fill="#3bc1d0" p-id="6323"></path></svg>