<?xml version="1.0" standalone="no"?><!DOCTYPE svg PUBLIC "-//W3C//DTD SVG 1.1//EN" "http://www.w3.org/Graphics/SVG/1.1/DTD/svg11.dtd"><svg t="1519627328884" class="icon" style="" viewBox="0 0 1024 1024" version="1.1" xmlns="http://www.w3.org/2000/svg" p-id="4958" xmlns:xlink="http://www.w3.org/1999/xlink" width="16" height="16"><defs><style type="text/css"></style></defs><path d="M189.8496 389.12h80.19968l12.32896 368.64H179.17952l10.67008-368.64zM122.88 778.24h778.24v40.96h61.44v61.44h40.96v40.96H20.48v-40.96h40.96v-61.44h61.44v-40.96z m819.2-495.37024L512.04096 102.4 81.92 282.86976V307.2h860.16v-24.33024zM163.84 327.68h696.32v40.96H163.84v-40.96z m588.51328 61.44h80.15872l12.43136 368.64h-103.34208l10.752-368.64z m-187.43296 0h80.15872l12.288 368.64h-103.23968l10.79296-368.64z m-187.47392 0h80.1792l12.20608 368.64h-103.19872l10.81344-368.64z" fill="#3fb9ae" p-id="4959"></path></svg>