<?xml version="1.0" standalone="no"?><!DOCTYPE svg PUBLIC "-//W3C//DTD SVG 1.1//EN" "http://www.w3.org/Graphics/SVG/1.1/DTD/svg11.dtd"><svg t="1519627387298" class="icon" style="" viewBox="0 0 1024 1024" version="1.1" xmlns="http://www.w3.org/2000/svg" p-id="7066" xmlns:xlink="http://www.w3.org/1999/xlink" width="16" height="16"><defs><style type="text/css"></style></defs><path d="M972.6976 441.856c-4.608-248.99584-149.05344-347.93472-154.97216-351.8464l-22.34368-15.27808-22.50752 15.23712c-37.39648 25.37472-76.16512 38.25664-115.22048 38.25664-64.67584 0-108.58496-34.816-110.44864-36.33152l-25.1904-20.21376-25.00608 20.2752c-1.8432 1.47456-45.73184 36.27008-110.42816 36.27008-39.0144 0-77.76256-12.86144-115.22048-38.31808l-22.40512-15.11424-22.56896 15.2576c-15.31904 10.52672-149.79072 109.85472-154.66496 350.57664-1.9456 20.97152 55.88992 417.25952 450.49856 532.1728 429.01504-125.37856 452.68992-504.79104 450.47808-530.944z" fill="#297ae8" p-id="7067"></path></svg>