<?xml version="1.0" standalone="no"?><!DOCTYPE svg PUBLIC "-//W3C//DTD SVG 1.1//EN" "http://www.w3.org/Graphics/SVG/1.1/DTD/svg11.dtd"><svg t="1519627277732" class="icon" style="" viewBox="0 0 1024 1024" version="1.1" xmlns="http://www.w3.org/2000/svg" p-id="3341" xmlns:xlink="http://www.w3.org/1999/xlink" width="16" height="16"><defs><style type="text/css"></style></defs><path d="M518.8608 497.60256s-99.10272 79.72864-99.10272 144.1792c0 28.85632 42.47552 57.69216 99.10272 57.69216 56.58624 0 99.06176-28.83584 99.06176-57.69216 0-66.7648-99.06176-144.1792-99.06176-144.1792z m361.28768-145.73568c5.7344-70.20544 26.09152-134.656 61.93152-193.72032L804.47488 20.48c-43.45856 37.43744-92.9792 58.1632-149.0944 61.82912-51.4048 4.64896-100.12672-5.12-145.94048-29.3888-47.14496 23.47008-95.68256 33.28-146.28864 29.3888-52.3264-4.68992-99.57376-23.2448-141.86496-56.13568L83.29216 163.77856c33.93536 59.92448 52.8384 122.61376 56.54528 188.08832 1.76128 30.14656-6.84032 71.61856-26.13248 125.27616a914.55488 914.55488 0 0 0-22.9376 77.08672c-4.83328 21.4016-7.84384 38.8096-8.82688 51.83488-0.7168 57.1392 15.31904 108.76928 48.18944 154.624 25.68192 33.4848 68.03456 70.47168 126.85312 110.8992 64.36864 32.768 114.15552 54.02624 149.03296 63.11936l28.91776 13.43488c9.1136 4.34176 18.86208 8.6016 29.02016 13.25056 21.93408 13.12768 37.33504 27.38176 45.48608 42.10688 9.9328-15.91296 25.68192-29.81888 46.65344-42.10688a1028.05504 1028.05504 0 0 0 37.31456-16.95744l21.83168-9.74848c7.45472-3.70688 17.26464-7.94624 29.06112-12.61568a1734.59456 1734.59456 0 0 1 44.2368-16.81408c33.97632-12.02176 58.75712-23.40864 74.4448-33.6896 57.05728-40.42752 98.77504-76.8 125.29664-109.3632 34.05824-46.03904 50.5856-97.87392 49.82784-156.16-2.02752-26.09152-13.06624-67.85024-33.11616-124.7232-19.10784-55.3984-27.58656-98.4064-24.84224-129.45408zM518.8608 757.1456c-125.07136 0-240.64-103.30112-240.64-230.7072 0-86.528 66.1504-168.26368 84.93056-201.87136l56.60672 86.528 99.10272-144.1792 99.06176 144.1792 56.68864-86.528c18.71872 33.60768 84.93056 115.34336 84.93056 201.87136 0 127.40608-115.58912 230.7072-240.68096 230.7072z" fill="#ffad7f" p-id="3342"></path></svg>