<?xml version="1.0" standalone="no"?><!DOCTYPE svg PUBLIC "-//W3C//DTD SVG 1.1//EN" "http://www.w3.org/Graphics/SVG/1.1/DTD/svg11.dtd"><svg t="1519627299667" class="icon" style="" viewBox="0 0 1024 1024" version="1.1" xmlns="http://www.w3.org/2000/svg" p-id="3961" xmlns:xlink="http://www.w3.org/1999/xlink" width="16" height="16"><defs><style type="text/css"></style></defs><path d="M962.56 184.32H655.36s-20.48 163.84 20.48 327.68c16.46592 27.4432 57.1392 42.22976 102.4 45.9776V757.76h-6.81984L696.32 819.2h225.28l-73.40032-61.44H839.68v-201.27744c43.4176-5.632 83.21024-20.76672 102.4-44.48256 40.96-143.36 20.48-327.68 20.48-327.68z m-20.48 122.88H675.84v-102.4h266.24v102.4zM440.32 757.76H327.68v-174.08L552.96 245.76H20.48l225.28 337.92V757.76H133.12a30.72 30.72 0 1 0 0 61.44h307.2a30.72 30.72 0 1 0 0-61.44z" fill="#a1ace7" p-id="3962"></path></svg>