<?xml version="1.0" encoding="utf-8"?>
<!-- Generator: Adobe Illustrator 18.1.0, SVG Export Plug-In . SVG Version: 6.00 Build 0)  -->
<svg version="1.1" id="图层_1" xmlns="http://www.w3.org/2000/svg" xmlns:xlink="http://www.w3.org/1999/xlink" x="0px" y="0px"
	 viewBox="0 0 30 30" enable-background="new 0 0 30 30" xml:space="preserve">
<rect x="13" y="19.5" fill="#FFFFFF" width="3.9" height="10"/>
<ellipse fill="#FFFFFF" cx="15.1" cy="11.6" rx="10.9" ry="11.1"/>
<rect x="13.9" y="19.5" fill="#14B5C7" width="2" height="9"/>
<circle fill="#14B5C7" cx="15" cy="11.6" r="9.8"/>
<g enable-background="new    ">
	<path fill="#FFFFFF" d="M9.9,6.9h4.6v0.9h-1.3v1.3h1.1v8h-0.8v-0.6h-2.6v0.8h-0.8V9.1h1.1V7.8H9.9V6.9z M13.1,12.7
		c-0.4,0-0.6-0.1-0.6-0.7V10H12v0.9c0,0.7-0.1,1.6-0.7,2.2c-0.1-0.1-0.2-0.2-0.3-0.3v0.9h2.6v-1.1h-0.1H13.1z M10.9,10v2.7
		c0.4-0.6,0.5-1.2,0.5-1.8V10H10.9z M13.5,15.6v-1h-2.6v1H13.5z M12.5,7.8H12v1.3h0.5V7.8z M13.5,10H13v1.9c0,0.1,0,0.2,0.1,0.2h0.3
		c0.1,0,0.1,0,0.2,0V10z M20.8,15.2h-2.4v1.1c0,0.5-0.1,0.8-0.5,1c-0.4,0.2-1,0.1-1.8,0.1c0-0.3-0.2-0.7-0.3-1c0.6,0,1.2,0,1.3,0
		c0.2,0,0.2,0,0.2-0.2v-1h-2.7v-0.9h2.7v-0.5c0.4-0.2,0.8-0.4,1.2-0.7H15v-0.9h4.5l0.2-0.1l0.6,0.5c-0.6,0.5-1.3,1-2,1.4v0.3h2.4
		V15.2z M20.7,8.4h-6V7.5h2.5c-0.1-0.3-0.3-0.6-0.4-0.8l0.9-0.4c0.3,0.4,0.5,0.8,0.6,1.2h2.4V8.4z M15.3,11.6V9h4.8v2.6H15.3z
		 M16.3,10.8h2.8v-1h-2.8V10.8z"/>
</g>
</svg>
