<?xml version="1.0" encoding="utf-8"?>
<!-- Generator: Adobe Illustrator 18.1.0, SVG Export Plug-In . SVG Version: 6.00 Build 0)  -->
<svg version="1.1" id="图层_1" xmlns="http://www.w3.org/2000/svg" xmlns:xlink="http://www.w3.org/1999/xlink" x="0px" y="0px"
	 viewBox="0 0 30 30" enable-background="new 0 0 30 30" xml:space="preserve">
<rect x="13" y="19.5" fill="#FFFFFF" width="3.9" height="10"/>
<ellipse fill="#FFFFFF" cx="15.1" cy="11.6" rx="10.9" ry="11.1"/>
<rect x="13.9" y="19.5" fill="#526DFE" width="2" height="9"/>
<circle fill="#526DFE" cx="15" cy="11.6" r="9.8"/>
<g>
	<path fill="#FFFFFF" d="M11.1,8.8l0.7-0.4c0.5,0.7,0.9,1.5,1.4,2.3c0.4-0.8,0.7-1.6,1-2.4L15,8.5c-0.4,1.1-0.8,2-1.3,3
		c0.4,0.8,0.9,1.5,1.3,2.3l-0.8,0.4c-0.3-0.6-0.7-1.2-1-1.9c-0.5,0.9-1,1.8-1.6,2.6L11,14.6V17h-0.9V6.3h10v9.4
		c0,0.8-0.4,1.3-1.3,1.3c-0.5,0-1.1,0-1.8,0c0-0.3-0.1-0.6-0.2-0.9c0.7,0.1,1.2,0.1,1.7,0.1c0.5,0,0.8-0.2,0.8-0.6V7.1H11v7.4
		c0.7-1,1.3-2,1.8-3C12.2,10.6,11.7,9.7,11.1,8.8z M15,9.3l0.7-0.4c0.4,0.6,0.8,1.3,1.2,2c0.4-0.9,0.8-1.8,1.1-2.6l0.8,0.3
		c-0.4,1.1-0.9,2.2-1.4,3.2c0.5,0.8,1,1.7,1.5,2.7l-0.8,0.4c-0.4-0.7-0.8-1.5-1.2-2.3c-0.5,0.9-1,1.7-1.5,2.5l-0.7-0.5
		c0.7-1,1.3-1.9,1.8-2.9C16,11,15.5,10.2,15,9.3z"/>
</g>
</svg>
