<?xml version="1.0" standalone="no"?><!DOCTYPE svg PUBLIC "-//W3C//DTD SVG 1.1//EN" "http://www.w3.org/Graphics/SVG/1.1/DTD/svg11.dtd"><svg t="1519627303108" class="icon" style="" viewBox="0 0 1024 1024" version="1.1" xmlns="http://www.w3.org/2000/svg" p-id="4085" xmlns:xlink="http://www.w3.org/1999/xlink" width="16" height="16"><defs><style type="text/css"></style></defs><path d="M122.88 972.8c0 25.25184 15.72864 40.96 40.96 40.96 25.2928 0 40.96-15.70816 40.96-40.96V593.92h40.96v378.88c0 25.21088 15.70816 40.96 40.96 40.96s40.96-15.70816 40.96-40.96V327.68h20.48v231.71072c0 49.0496 61.56288 49.0496 61.44 0V310.49728C409.6 256.3072 370.56512 225.28 307.2 225.28H143.36c-57.7536 0-102.4 24.96512-102.4 83.70176V573.44c0 40.96 61.44 40.96 61.44 0V327.68h20.48v645.12z" fill="#3fb9ae" p-id="4086"></path><path d="M222.72 104.96m-84.48 0a84.48 84.48 0 1 0 168.96 0 84.48 84.48 0 1 0-168.96 0Z" fill="#3fb9ae" p-id="4087"></path><path d="M734.72 104.96m-84.48 0a84.48 84.48 0 1 0 168.96 0 84.48 84.48 0 1 0-168.96 0Z" fill="#3fb9ae" p-id="4088"></path><path d="M940.29824 665.6l-121.01632-332.53376-0.69632-3.42016c0-4.85376 4.07552-8.78592 9.15456-8.78592 4.32128 0 7.94624 2.88768 8.9088 6.73792L918.91712 542.72c5.46816 12.30848 27.9552 20.48 42.74176 20.48 19.7632 0 21.8112-38.8096 21.38112-40.96l-82.26816-206.99136C893.62432 267.71456 845.6192 225.28 790.8352 225.28H683.6224c-54.784 0-106.33216 42.43456-113.50016 89.96864l-78.58176 209.55136c-1.78176 4.07552 0 39.69024 21.38112 39.69024 16.60928 0 38.7072-6.43072 42.72128-21.11488l79.36-216.35072a9.3184 9.3184 0 0 1 8.64256-5.98016c5.03808 0 9.1136 3.85024 9.1136 8.68352l-0.55296 3.09248-117.92384 332.82048c-0.24576 0.98304 0 24.576 0 25.57952 0 7.08608 17.12128 25.6 24.53504 25.6H634.88v257.9456c0 21.2992 18.75968 39.0144 40.96 39.0144s40.96-17.73568 40.96-39.0144V706.37568c0-5.79584 40.96-5.61152 40.96 0.18432v266.24c0 21.2992 18.78016 40.96 40.96 40.96 22.24128 0 40.96-19.68128 40.96-40.96V716.8h79.23712c7.41376 0 21.38112-18.51392 21.38112-25.6 0-1.6384 0.59392-24.18688 0-25.6z" fill="#3fb9ae" p-id="4089"></path></svg>