<?xml version="1.0" standalone="no"?><!DOCTYPE svg PUBLIC "-//W3C//DTD SVG 1.1//EN" "http://www.w3.org/Graphics/SVG/1.1/DTD/svg11.dtd"><svg t="1519627293290" class="icon" style="" viewBox="0 0 1024 1024" version="1.1" xmlns="http://www.w3.org/2000/svg" p-id="3713" xmlns:xlink="http://www.w3.org/1999/xlink" width="16" height="16"><defs><style type="text/css"></style></defs><path d="M523.81696 183.05024c47.04256 3.46112 88.18688-30.06464 91.91424-74.71104 3.76832-44.87168-31.3344-84.13184-78.37696-87.59296-47.104-3.42016-88.24832 29.9008-91.89376 74.77248-3.66592 44.8512 31.45728 84.02944 78.35648 87.53152zM876.19584 839.68l-28.42624-245.76h-46.12096c0.43008-20.48 0.36864-22.75328-1.04448-35.18464-1.37216-12.71808-5.40672-22.016-11.9808-24.94464 5.38624-5.7344 8.97024-13.02528 9.66656-21.23776a36.0448 36.0448 0 0 0-15.1552-32.256l-117.39136-77.16864-86.4256-162.73408c-14.31552-21.2992-38.56384-38.48192-67.82976-40.93952-22.48704-1.55648-43.17184 5.87776-59.904 16.93696l-171.49952 132.75136a33.95584 33.95584 0 0 0-11.81696 17.7152l-39.95648 160.78848-3.03104 4.77184V532.48h-0.32768c-6.69696 0-12.8 6.38976-15.13472 14.848-2.2528 8.2944-5.0176 19.2512-5.0176 28.11904V593.92H160.27648L131.85024 839.68h114.87232l-50.36032 80.5888c-3.2768 6.2464-7.12704 15.07328-7.80288 23.59296-2.47808 30.5152 21.27872 57.0368 53.12512 59.47392 22.75328 1.51552 42.33216-9.46176 54.23104-26.99264L380.90752 839.68h11.12064l-1.7408-15.09376 23.57248-37.92896c2.56-5.07904 10.69056-17.5104 11.59168-23.40864l28.79488-125.1328 122.90048 128.47104 38.58432 193.14688c6.16448 22.8352 25.86624 41.6768 52.08064 43.60192 31.88736 2.41664 59.8016-20.09088 62.34112-50.54464l-0.34816-11.22304L709.65248 839.68h166.54336zM224.39936 573.2352c1.14688-9.68704 4.77184-15.19616 11.1616-15.19616l2.39616-0.04096c6.4512 7.80288 16.03584 13.14816 27.09504 14.04928a38.99392 38.99392 0 0 0 31.80544-12.96384 13.86496 13.86496 0 0 1 4.03456 6.67648c1.69984 5.87776 2.68288 12.61568 2.68288 18.16576 0 3.31776-0.16384 9.99424-0.38912 9.99424h-79.38048c-0.26624 0-0.18432-13.16864 0.59392-20.6848zM341.77024 593.92h-24.2688c0.512-20.48 0.36864-22.75328-0.96256-35.18464-1.14688-10.6496-4.15744-18.88256-8.92928-23.10144l30.28992-131.93216 59.74016-46.22336L341.77024 593.92z m445.60384 0h-79.44192c-0.32768 0-0.22528-13.16864 0.59392-20.6848 1.06496-9.68704 4.75136-15.19616 11.1616-15.19616 9.19552 0 17.53088-0.28672 24.92416-0.45056 7.43424-0.26624 17.57184-0.63488 30.33088-0.63488 4.89472 0 8.21248 2.90816 10.05568 8.82688 1.76128 5.87776 2.70336 12.61568 2.70336 18.16576l-0.32768 9.97376zM530.432 547.16416l38.5024-162.52928 32.37888 61.09184c2.56 4.1984 5.59104 7.65952 9.58464 10.91584L726.54848 532.48h-17.46944c-6.69696 0-9.15456 6.38976-11.4688 14.848-2.19136 8.2944-1.29024 19.2512-1.29024 28.11904V593.92h-51.85536l-8.37632 72.2944-105.65632-119.05024z" fill="#a1ace7" p-id="3714"></path></svg>