<?xml version="1.0" standalone="no"?><!DOCTYPE svg PUBLIC "-//W3C//DTD SVG 1.1//EN" "http://www.w3.org/Graphics/SVG/1.1/DTD/svg11.dtd"><svg t="1519627360933" class="icon" style="" viewBox="0 0 1024 1024" version="1.1" xmlns="http://www.w3.org/2000/svg" p-id="6074" xmlns:xlink="http://www.w3.org/1999/xlink" width="16" height="16"><defs><style type="text/css"></style></defs><path d="M935.91552 494.4896l-161.5872-272.24064c-6.43072-11.96032-21.95456-17.44896-35.24608-17.44896H593.92V81.92c0-22.528-18.432-40.96-40.96-40.96h-102.4c-22.528 0-40.96 18.432-40.96 40.96v122.88h-122.0608c-13.312 0-29.4912 5.48864-35.92192 17.44896L89.3952 496.64C62.75072 496.64 40.96 516.85376 40.96 544.19456v248.60672C40.96 820.14208 62.75072 839.68 89.3952 839.68H143.36v77.4144C143.36 958.13632 170.55744 983.04 210.51392 983.04h24.22784C274.69824 983.04 307.2 958.13632 307.2 917.0944V839.68h409.6v77.4144c0 41.04192 35.10272 65.9456 75.0592 65.9456h24.24832C856.064 983.04 880.64 958.13632 880.64 917.0944V839.68h56.58624c26.624 0 45.81376-19.53792 45.81376-46.87872V544.19456c0-27.3408-20.48-49.70496-47.12448-49.70496z m-761.73312 198.8608c-33.44384 0-60.57984-27.81184-60.57984-62.13632 0-34.34496 27.11552-62.1568 60.57984-62.1568s60.55936 27.81184 60.55936 62.1568c0 34.32448-27.09504 62.13632-60.55936 62.13632zM210.51392 491.52l110.26432-192.04096c5.98016-12.24704 21.77024-12.75904 35.08224-12.75904h314.90048c13.312 0 29.10208 0.512 35.06176 12.75904L816.10752 491.52h-605.5936z m641.90464 201.8304c-33.42336 0-60.55936-27.81184-60.55936-62.13632 0-34.34496 27.136-62.1568 60.55936-62.1568 33.44384 0 60.57984 27.81184 60.57984 62.1568 0 34.32448-27.136 62.13632-60.57984 62.13632z" fill="#69a6f5" p-id="6075"></path></svg>