<?xml version="1.0" standalone="no"?><!DOCTYPE svg PUBLIC "-//W3C//DTD SVG 1.1//EN" "http://www.w3.org/Graphics/SVG/1.1/DTD/svg11.dtd"><svg t="1519627377506" class="icon" style="" viewBox="0 0 1024 1024" version="1.1" xmlns="http://www.w3.org/2000/svg" p-id="6694" xmlns:xlink="http://www.w3.org/1999/xlink" width="16" height="16"><defs><style type="text/css"></style></defs><path d="M1003.52 348.16c0-11.264-9.216-20.48-20.48-20.48H716.8c-11.264 0-20.48-9.216-20.48-20.48V40.96c0-11.264-9.216-20.48-20.48-20.48H348.16c-11.264 0-20.48 9.216-20.48 20.48v266.24c0 11.264-9.216 20.48-20.48 20.48H40.96c-11.264 0-20.48 9.216-20.48 20.48v327.68c0 11.264 9.216 20.48 20.48 20.48h266.24c11.264 0 20.48 9.216 20.48 20.48v266.24c0 11.264 9.216 20.48 20.48 20.48h327.68c11.264 0 20.48-9.216 20.48-20.48V716.8c0-11.264 9.216-20.48 20.48-20.48h266.24c11.264 0 20.48-9.216 20.48-20.48V348.16z" fill="#3bc1d0" p-id="6695"></path></svg>