<?xml version="1.0" standalone="no"?><!DOCTYPE svg PUBLIC "-//W3C//DTD SVG 1.1//EN" "http://www.w3.org/Graphics/SVG/1.1/DTD/svg11.dtd"><svg t="1519627348394" class="icon" style="" viewBox="0 0 1024 1024" version="1.1" xmlns="http://www.w3.org/2000/svg" p-id="5702" xmlns:xlink="http://www.w3.org/1999/xlink" width="16" height="16"><defs><style type="text/css"></style></defs><path d="M1023.201903 1023.283759l-0.306961-512.80833c0-282.014908-228.91073-510.495893-510.925638-510.495893C229.954396-0.020464 1.043666 228.624233 1.043666 510.659606l4.113272 513.340394L122.784228 1023.713503v-513.033433C122.784228 290.875837 291.858111 112.715922 511.600951 112.715922c219.783769 0 388.816723 178.180379 388.816723 397.984612V1023.283759h122.784229z m-343.857232-185.690682l-1.882691-3.437958 0.982273-1.26877 0.900418-1.268771c17.599073-7.264734 33.581486-16.16659 47.865385-26.80789 14.283899-10.682228 22.633226-26.316753 27.585523-46.985431 0.552529-2.394292 2.373828-7.960511 2.373829-16.453087V314.634585a63.029237 63.029237 0 0 0-7.919583-31.842043c-6.057355-11.050581-13.035592-20.934711-22.305801-29.713783-8.983713-8.697216-18.847379-14.754571-30.123064-20.586823-11.255221-5.770859-21.773736-7.305662-32.149004-7.305661H359.30758c-9.740882 0-20.21847 1.371091-31.514619 6.855452-11.275685 5.463898-21.650952 11.80775-31.023481 20.361718a111.979216 111.979216 0 0 0-22.428586 28.281301A61.903715 61.903715 0 0 0 266.032495 311.953796v433.100901c0 7.223805 1.105058 14.89782 4.6658 22.715083 3.663063 7.960511 7.796798 15.388957 13.260697 22.264873 5.484362 7.121485 11.234757 13.526729 17.640001 19.25666 6.38478 5.770859 12.442135 10.477587 18.581346 14.079258 2.967286 1.248306 8.247007 3.151462 15.900558 5.545754 7.55123 2.435221 11.030117 3.888167 10.457123 5.034154L221.605068 1023.283759h72.87244l91.228681-122.784229H637.454785l91.105898 122.784229h73.793321l-123.009333-185.690682zM409.280761 266.114351c0-11.255221 9.208817-20.464038 20.464038-20.464038h163.712304c11.255221 0 20.464038 9.208817 20.464039 20.464038v20.464038c0 11.255221-9.208817 20.464038-20.464039 20.464038h-163.712304c-11.255221 0-20.464038-9.208817-20.464038-20.464038v-20.464038z m-80.546454 99.966826c2.721717-5.770859 4.849977-11.009652 9.086033-15.941486 4.317912-4.870441 8.635824-11.869142 14.386219-14.918284 5.750395-3.069606 11.050581-7.714942 17.1284-7.714942h283.570175c5.463898 0 10.886868 4.399768 16.391694 6.712204 5.484362 2.455685 10.477587 7.428446 15.081997 11.644038 4.543016 4.236056 6.343852 9.659026 9.167889 14.509003 2.680789 4.747657 2.23058 10.764084 2.23058 16.227982v96.672116c0 5.52529 0.266032 10.661764-2.721717 15.859629-3.028678 5.32065-6.098283 9.904594-11.009653 13.854154-4.890905 3.867703-9.536242 4.870441-15.00014 7.223806-5.484362 2.578469-10.518516 1.473411-15.921021 1.47341H371.156258c-0.675313 0-2.189652 1.903156-4.604408 1.412019l-5.525291-0.798097c-10.293411-1.800835-16.616799-6.732669-24.556845-15.85963-7.878655-9.188353-9.045105-18.560883-9.045105-29.529607v-82.96121c0-6.077819-1.391555-12.053318 1.309698-17.865105z m77.497312 394.444333c-9.392993 9.720418-21.159815 14.570395-35.075361 14.570395-13.976938 0-25.395871-4.849977-34.236336-14.570395-8.840464-9.699954-13.219769-21.650952-13.219768-35.586962 0-12.76956 4.604409-23.840604 13.690441-33.233598a45.041348 45.041348 0 0 1 33.765663-14.181578c13.915546 0 25.661904 4.481624 35.075361 13.158376 9.433922 8.963249 14.161114 20.504966 14.161115 35.21861 0 13.383481-4.727193 24.945662-14.161115 34.625152z m208.794581 0c-9.372529-9.699954-14.099722-21.650952-14.099723-35.586962 0-14.03833 4.972761-25.314015 15.020604-34.277264a52.347009 52.347009 0 0 1 35.198146-13.158376c13.874618 0 25.293551 4.727193 34.093087 14.181578 8.860928 9.392993 13.281161 20.464038 13.281161 33.233598 0 13.956474-4.522552 25.907472-13.73137 35.586962-9.086033 9.720418-20.648214 14.570395-34.645616 14.570395-13.976938 0.020464-25.64144-4.829513-35.116289-14.549931z" fill="#69a6f5" p-id="5703"></path></svg>