<?xml version="1.0" standalone="no"?><!DOCTYPE svg PUBLIC "-//W3C//DTD SVG 1.1//EN" "http://www.w3.org/Graphics/SVG/1.1/DTD/svg11.dtd"><svg t="1494575334053" class="icon" style="" viewBox="0 0 1024 1024" version="1.1" xmlns="http://www.w3.org/2000/svg" p-id="3507" xmlns:xlink="http://www.w3.org/1999/xlink" width="12" height="12"><defs><style type="text/css"></style></defs><path d="M904.358621 343.844186l-71.980381-71.980381-184.411033 184.440709-80.244602-80.274278L752.133637 191.619202l-71.980381-71.980381c0-30.953989 25.069979-56.051597 56.050574-56.051597l168.153768 0c30.983665 0 56.053644 25.097608 56.053644 56.051597l0 168.153768C960.412264 318.746578 935.342286 343.844186 904.358621 343.844186zM343.844697 904.360156c0 30.953989-25.125237 56.050574-56.051597 56.050574L119.639333 960.41073c-30.982642 0-56.05262-25.096585-56.05262-56.050574L63.586712 736.206388c0-30.953989 25.069979-56.050574 56.05262-56.050574l71.979358 71.980381 184.412057-184.440709 80.245625 80.274278L271.863293 832.40638 343.844697 904.360156z" p-id="3508" fill="#999999"></path></svg>