<?xml version="1.0" standalone="no"?><!DOCTYPE svg PUBLIC "-//W3C//DTD SVG 1.1//EN" "http://www.w3.org/Graphics/SVG/1.1/DTD/svg11.dtd"><svg t="1519627318318" class="icon" style="" viewBox="0 0 1024 1024" version="1.1" xmlns="http://www.w3.org/2000/svg" p-id="4584" xmlns:xlink="http://www.w3.org/1999/xlink" width="16" height="16"><defs><style type="text/css"></style></defs><path d="M710.28736 528.40448c-29.45024-23.22432-73.64608-41.7792-132.58752-55.64416L532.48 462.09024v-193.1264l6.12352 2.49856C576.98304 290.89792 597.6064 327.68 600.43264 368.64h153.92768c-2.80576-81.92-33.0752-142.49984-90.80832-185.30304C625.19296 154.89024 581.44768 136.6016 532.48 127.3856V20.48h-143.36v103.6288c-66.29376 8.192-118.86592 29.53216-157.47072 64.22528-50.54464 45.42464-75.79648 102.44096-75.79648 171.08992 0 75.22304 25.82528 130.51904 77.47584 165.888 28.91776 20.04992 81.03936 38.66624 155.79136 55.9104v209.22368c-27.25888-7.51616-48.61952-19.88608-63.67232-37.76512-14.52032-17.36704-24.24832-35.88096-29.20448-76.84096H143.36c0 81.92 28.89728 140.6976 86.71232 186.28608 41.73824 32.89088 94.86336 52.87936 159.04768 61.5424V1003.52h143.36v-78.49984c68.25984-8.17152 123.37152-29.96224 165.10976-65.61792 54.12864-46.2848 81.2032-104.448 81.2032-174.46912 0-68.3008-22.8352-120.46336-68.5056-156.52864z m-368.92672-119.13216c-24.8832-13.5168-37.31456-34.03776-37.31456-61.44 0-29.81888 12.61568-53.18656 37.84704-69.81632 13.312-8.78592 29.16352-15.17568 47.22688-19.39456v168.42752c-22.2208-6.47168-38.25664-12.41088-47.75936-17.77664z m214.528 376.97536a199.4752 199.4752 0 0 1-23.40864 6.26688V614.4c24.6784 7.31136 44.15488 15.27808 58.32704 23.83872 22.36416 13.86496 33.56672 33.5872 33.56672 58.88-0.02048 43.33568-22.85568 73.17504-68.48512 89.12896z" fill="#3fb9ae" p-id="4585"></path></svg>