<?xml version="1.0" encoding="utf-8"?>
<!-- Generator: Adobe Illustrator 18.1.0, SVG Export Plug-In . SVG Version: 6.00 Build 0)  -->
<svg version="1.1" id="图层_1" xmlns="http://www.w3.org/2000/svg" xmlns:xlink="http://www.w3.org/1999/xlink" x="0px" y="0px"
	 viewBox="0 0 30 30" enable-background="new 0 0 30 30" xml:space="preserve">
<rect x="13" y="19.5" fill="#FFFFFF" width="3.9" height="10"/>
<ellipse fill="#FFFFFF" cx="15.1" cy="11.6" rx="10.9" ry="11.1"/>
<rect x="13.9" y="19.5" fill="#F98182" width="2" height="9"/>
<circle fill="#F98182" cx="15" cy="11.6" r="9.8"/>
<g enable-background="new    ">
	<path fill="#FFFFFF" d="M14,13.8h-1.1v2.4h-1.3v-2.4H7.8v-0.9l3.5-5.5h1.6v5.4H14V13.8z M11.6,12.7v-2.3c0-0.5,0-1.2,0.1-1.7h0
		c-0.2,0.4-0.5,0.9-0.7,1.4l-1.7,2.7H11.6z"/>
	<path fill="#FFFFFF" d="M14.9,15l0.8-1c0.6,0.6,1.5,1,2.4,1c1.1,0,1.7-0.5,1.7-1.2c0-0.8-0.6-1.1-1.4-1.4l-1.2-0.5
		c-0.9-0.4-1.8-1-1.8-2.3c0-1.4,1.2-2.4,2.9-2.4c1,0,2,0.4,2.7,1.1l-0.7,0.9c-0.6-0.5-1.2-0.8-1.9-0.8c-0.9,0-1.5,0.4-1.5,1.1
		c0,0.8,0.7,1,1.4,1.3l1.2,0.5c1,0.4,1.8,1.1,1.8,2.4c0,1.4-1.2,2.6-3.1,2.6C16.9,16.3,15.7,15.8,14.9,15z"/>
</g>
</svg>
