<?xml version="1.0" standalone="no"?><!DOCTYPE svg PUBLIC "-//W3C//DTD SVG 1.1//EN" "http://www.w3.org/Graphics/SVG/1.1/DTD/svg11.dtd"><svg t="1494575427816" class="icon" style="" viewBox="0 0 1025 1024" version="1.1" xmlns="http://www.w3.org/2000/svg" p-id="5395" xmlns:xlink="http://www.w3.org/1999/xlink" width="12.01171875" height="12"><defs><style type="text/css"></style></defs><path d="M899.322125 21.391 512.000125 408.714 124.677125 21.391c-28.52-28.521-74.763-28.521-103.286 0-28.522 28.521-28.521 74.764 0 103.286L408.714125 512 21.391125 899.322c-28.521 28.521-28.521 74.765 0 103.287 28.521 28.521 74.765 28.521 103.286 0L512.000125 615.286l387.322 387.323c28.521 28.521 74.765 28.521 103.287 0 28.521-28.521 28.521-74.766 0-103.287L615.286125 512l387.323-387.323c28.521-28.521 28.521-74.764 0-103.286C974.088125-7.13 927.845125-7.13 899.322125 21.391z" p-id="5396" fill="#999999"></path></svg>