<?xml version="1.0" standalone="no"?><!DOCTYPE svg PUBLIC "-//W3C//DTD SVG 1.1//EN" "http://www.w3.org/Graphics/SVG/1.1/DTD/svg11.dtd"><svg t="1519627325150" class="icon" style="" viewBox="0 0 1024 1024" version="1.1" xmlns="http://www.w3.org/2000/svg" p-id="4834" xmlns:xlink="http://www.w3.org/1999/xlink" width="16" height="16"><defs><style type="text/css"></style></defs><path d="M367.86176 919.01952a20.62336 20.62336 0 0 1-1.024 28.99968l-44.48256 41.59488a20.45952 20.45952 0 0 1-28.89728-1.04448L34.4064 709.38624a20.62336 20.62336 0 0 1 1.04448-28.99968l44.544-41.53344a20.43904 20.43904 0 0 1 28.89728 1.04448l258.9696 279.12192z m330.5472-525.312a20.62336 20.62336 0 0 1-1.04448 28.99968l-279.9616 261.5296a20.45952 20.45952 0 0 1-28.89728-1.04448l-66.82624-72.11008a20.62336 20.62336 0 0 1 1.04448-28.99968l279.90016-261.5296a20.41856 20.41856 0 0 1 28.8768 1.04448l66.90816 72.11008zM463.11424 829.99296c7.65952 8.25344 7.18848 21.2992-1.04448 28.99968l-44.544 41.5744a20.43904 20.43904 0 0 1-28.89728-1.04448L129.72032 620.3392a20.62336 20.62336 0 0 1 1.024-28.99968l44.46208-41.55392a20.45952 20.45952 0 0 1 28.89728 1.04448l259.01056 279.16288z m431.37024-426.27072a20.62336 20.62336 0 0 1-1.06496 28.99968l-44.52352 41.5744a20.48 20.48 0 0 1-28.91776-1.024L561.02912 194.1504a20.60288 20.60288 0 0 1 1.024-28.99968l44.6464-41.6768a20.41856 20.41856 0 0 1 28.8768 1.04448l258.90816 279.20384z m95.10912-88.8832a20.66432 20.66432 0 0 1-1.04448 29.02016l-44.4416 41.55392a20.41856 20.41856 0 0 1-28.8768-1.024L656.32256 105.14432a20.66432 20.66432 0 0 1 1.024-29.02016l44.48256-41.63584a20.3776 20.3776 0 0 1 28.85632 1.024L989.5936 314.83904z" fill="#3fb9ae" p-id="4835"></path></svg>