<?xml version="1.0" standalone="no"?><!DOCTYPE svg PUBLIC "-//W3C//DTD SVG 1.1//EN" "http://www.w3.org/Graphics/SVG/1.1/DTD/svg11.dtd"><svg t="1519627338867" class="icon" style="" viewBox="0 0 1024 1024" version="1.1" xmlns="http://www.w3.org/2000/svg" p-id="5330" xmlns:xlink="http://www.w3.org/1999/xlink" width="16" height="16"><defs><style type="text/css"></style></defs><path d="M1001.34912 310.35392L920.76032 942.08H648.56064l-80.26112-634.88h332.30848l65.67936-226.85696L1003.52 91.56608l-63.01696 218.3168 60.84608 0.47104zM529.8176 675.84s10.17856-81.92-130.9696-81.92H174.05952c-140.94336 0-130.9696 81.92-130.9696 81.92H529.8176zM43.08992 860.16s-9.97376 81.92 130.9696 81.92h224.80896c141.14816 0 130.9696-81.92 130.9696-81.92H43.08992z m465.6128-40.96c23.10144 0 41.75872-22.81472 41.75872-51.17952 0-28.52864-18.65728-51.22048-41.75872-51.22048H62.2592C39.26016 716.8 20.48 739.49184 20.48 768.02048 20.48 796.38528 39.26016 819.2 62.2592 819.2h446.44352z" fill="#fa9596" p-id="5331"></path></svg>