<?xml version="1.0" standalone="no"?><!DOCTYPE svg PUBLIC "-//W3C//DTD SVG 1.1//EN" "http://www.w3.org/Graphics/SVG/1.1/DTD/svg11.dtd"><svg t="1519627307125" class="icon" style="" viewBox="0 0 1024 1024" version="1.1" xmlns="http://www.w3.org/2000/svg" p-id="4212" xmlns:xlink="http://www.w3.org/1999/xlink" width="16" height="16"><defs><style type="text/css"></style></defs><path d="M511.97952 560.76288c-110.71488 0-204.77952 32.19456-266.21952 82.65728V737.28h532.48v-93.85984c-61.44-50.46272-155.52512-82.65728-266.26048-82.65728z m488.87808-48.16896L510.68928 286.72 20.72576 512.59392 102.4 549.96992v57.48736c-20.48 4.23936-20.54144 14.97088-20.54144 27.72992 0 7.53664 2.49856 16.36352 7.24992 21.64736L61.09184 716.8h99.9424l-27.77088-60.0064c4.66944-5.28384 8.4992-13.06624 8.4992-20.60288 0-12.73856-18.88256-24.51456-18.88256-28.75392v-47.86176l102.4 45.99808v-4.07552c61.44-53.43232 169.39008-87.3472 286.67904-87.3472C629.28896 514.1504 737.28 548.06528 798.72 601.4976v4.07552l202.1376-92.9792z" fill="#3fb9ae" p-id="4213"></path></svg>