<?xml version="1.0" standalone="no"?><!DOCTYPE svg PUBLIC "-//W3C//DTD SVG 1.1//EN" "http://www.w3.org/Graphics/SVG/1.1/DTD/svg11.dtd"><svg t="1519627333067" class="icon" style="" viewBox="0 0 1024 1024" version="1.1" xmlns="http://www.w3.org/2000/svg" p-id="5082" xmlns:xlink="http://www.w3.org/1999/xlink" width="16" height="16"><defs><style type="text/css"></style></defs><path d="M774.81984 303.34976c6.81984 106.5984-44.89216 181.32992-44.89216 181.32992 6.71744-82.10432-26.56256-195.584-26.56256-195.584-28.42624-5.57056-73.85088 0.4096-73.85088 0.4096 6.5536 88.55552-38.48192 165.888-71.74144 194.3552 16.44544-98.2016-9.728-172.50304-9.728-172.50304-44.99456-11.34592-109.48608-4.4032-109.48608-4.4032 14.00832 104.46848-43.6224 181.32992-43.6224 181.32992 9.54368-72.82688-29.36832-166.23616-29.36832-166.23616-33.03424-2.1504-85.66784 8.6016-85.66784 8.6016 27.7504 49.58208 5.59104 158.55616 5.59104 158.55616-15.13472-89.10848-66.00704-141.66016-66.00704-141.66016C-72.23296 471.77728 4.608 642.92864 147.2512 693.90336c134.57408 48.00512 568.19712 71.65952 762.20416-12.51328 194.02752-84.21376 57.40544-320.86016-134.63552-378.04032z" fill="#fa9596" p-id="5083"></path></svg>