<?xml version="1.0" standalone="no"?><!DOCTYPE svg PUBLIC "-//W3C//DTD SVG 1.1//EN" "http://www.w3.org/Graphics/SVG/1.1/DTD/svg11.dtd"><svg t="1519627370910" class="icon" style="" viewBox="0 0 1024 1024" version="1.1" xmlns="http://www.w3.org/2000/svg" p-id="6446" xmlns:xlink="http://www.w3.org/1999/xlink" width="16" height="16"><defs><style type="text/css"></style></defs><path d="M757.76 20.48c-11.264 0-20.48 9.216-20.48 20.48v286.72c0 11.264-9.216 20.48-20.48 20.48H307.2c-11.264 0-20.48-9.216-20.48-20.48V40.96c0-11.264-9.216-20.48-20.48-20.48H81.92c-11.264 0-20.48 9.216-20.48 20.48v942.08c0 11.264 9.216 20.48 20.48 20.48h184.32c11.264 0 20.48-9.216 20.48-20.48V655.36c0-11.264 9.216-20.48 20.48-20.48h409.6c11.264 0 20.48 9.216 20.48 20.48v327.68c0 11.264 9.216 20.48 20.48 20.48h184.32c11.264 0 20.48-9.216 20.48-20.48V40.96c0-11.264-9.216-20.48-20.48-20.48h-184.32z" fill="#3bc1d0" p-id="6447"></path></svg>