<?xml version="1.0" encoding="utf-8"?>
<!-- Generator: Adobe Illustrator 18.1.0, SVG Export Plug-In . SVG Version: 6.00 Build 0)  -->
<svg version="1.1" id="图层_1" xmlns="http://www.w3.org/2000/svg" xmlns:xlink="http://www.w3.org/1999/xlink" x="0px" y="0px"
	 viewBox="0 0 30 30" enable-background="new 0 0 30 30" xml:space="preserve">
<path fill="#19AC9E" d="M29.2,1.7l-6-1.5c-0.2,0-0.4,0-0.8,0l-7.1,3.4L8.7,0.7C8.5,0.6,8.2,0.6,8,0.7L0.8,3.6
	C0.5,3.8,0.1,4.1,0.1,4.5V24c0,0.4,0.2,0.8,0.4,0.9c0.2,0.2,0.6,0.2,0.9,0.2l6.8-2.6l6.6,2.8c0.2,0,0.2,0,0.4,0s0.4,0,0.4-0.2
	l0.6-0.2l-0.9-1.9l0,0l-6.6-2.8c-0.2,0-0.2,0-0.4,0s-0.2,0-0.4,0l-5.6,2.3V5.3l6-2.4l6.8,2.8c0.2,0,0.6,0,0.8,0L23,2.2l4.9,1.1v17.3
	l-0.9-0.2l-0.6,0.9c0,0.2-0.2,0.4-0.2,0.6l0,0L26,22.5l2.6,0.6c0.4,0,0.6,0,0.9-0.2c0.2-0.2,0.4-0.6,0.4-0.8V2.6
	C29.9,2.2,29.7,1.7,29.2,1.7z M7.8,5.4v12.4c0,0.2,0.2,0.4,0.4,0.4c0.2,0,0.4-0.2,0.4-0.4V5.4c0-0.2-0.2-0.4-0.4-0.4
	C8,5.1,7.8,5.3,7.8,5.4z M14.9,7.9v6.2c0,0.2,0.2,0.4,0.4,0.4s0.4-0.2,0.4-0.4V7.9c0-0.2-0.2-0.4-0.4-0.4
	C15.1,7.5,14.9,7.7,14.9,7.9z M23.3,12V4.5c0-0.2-0.2-0.4-0.4-0.4c-0.2,0-0.4,0.2-0.4,0.4V12c0,0.2,0.2,0.4,0.4,0.4
	C23.2,12.6,23.3,12.4,23.3,12z M20.5,14.1c-2.6,0-4.9,2.3-4.9,4.9c0,0.9,0.2,1.7,0.8,2.4l0.4,0.9l0.9,1.9l2.8,5.6l3.9-7.7l0.4-0.7
	c0.2-0.4,0.4-0.8,0.6-1.1c0.2-0.4,0.2-0.7,0.2-1.3C25.4,16.3,23.2,14.1,20.5,14.1z M20.5,20.4c-1.1,0-2.1-0.9-2.1-2.1
	c0-1.1,0.9-2.1,2.1-2.1s2.1,0.9,2.1,2.1C22.6,19.5,21.7,20.4,20.5,20.4z"/>
</svg>
