<?xml version="1.0" standalone="no"?><!DOCTYPE svg PUBLIC "-//W3C//DTD SVG 1.1//EN" "http://www.w3.org/Graphics/SVG/1.1/DTD/svg11.dtd"><svg t="1519627321678" class="icon" style="" viewBox="0 0 1024 1024" version="1.1" xmlns="http://www.w3.org/2000/svg" p-id="4708" xmlns:xlink="http://www.w3.org/1999/xlink" width="16" height="16"><defs><style type="text/css"></style></defs><path d="M847.9744 448.26624l-50.36032-210.24768c-8.82688-36.67968-45.99808-59.71968-82.88256-50.66752-32.44032 7.92576-48.20992 30.39232-54.59968 46.20288-7.55712 18.65728-41.28768 103.19872-49.17248 120.66816-2.7648 6.06208-8.6016 9.25696-9.78944 9.78944-6.69696 2.9696-73.728 31.25248-73.728 31.25248v0.12288a38.54336 38.54336 0 0 0-22.40512 34.87744c0 21.36064 17.48992 38.68672 39.05536 38.68672 4.64896 0 9.07264-0.96256 13.23008-2.43712v0.14336l88.9856-36.98688c12.20608-5.69344 18.16576-12.9024 24.22784-23.40864 2.53952-4.42368 10.26048-22.9376 16.54784-38.13376l53.69856 224.5632-0.06144 347.9552c-0.1024 34.57024 23.77728 62.75072 58.6752 62.8736 34.93888 0.12288 60.19072-27.79136 60.416-62.42304L860.16 530.41152c-0.04096-19.31264-7.72096-65.20832-12.1856-82.14528z" fill="#3fb9ae" p-id="4709"></path><path d="M574.34112 98.7136a78.9504 78.2336 0 1 0 157.9008 0 78.9504 78.2336 0 1 0-157.9008 0Z" fill="#3fb9ae" p-id="4710"></path><path d="M350.84288 759.84896v87.6544a46.2848 46.2848 0 0 0 27.70944-15.62624c7.08608-8.33536 10.62912-18.08384 10.62912-29.30688 0-10.0352-2.9696-18.69824-8.9088-25.98912-6.02112-7.20896-15.83104-12.77952-29.42976-16.73216z m-54.14912-136.13056c-5.3248 7.168-8.00768 15.11424-8.00768 23.79776 0 7.9872 2.43712 15.31904 7.24992 22.1184 4.87424 6.84032 12.22656 12.36992 21.99552 16.54784v-77.76256a42.10688 42.10688 0 0 0-21.23776 15.29856z m208.2816-104.12032h0.08192l-122.368-245.49376-0.02048 0.22528a55.72608 55.72608 0 0 0-50.2784-31.4368h-112.78336C188.8256 242.87232 163.84 267.61216 163.84 298.12736V1003.52h347.46368V547.28704a64.63488 64.63488 0 0 0-6.32832-27.68896zM419.9424 863.0272c-16.5888 18.57536-39.60832 29.96224-69.03808 34.14016v42.04544h-32.91136v-40.91904c-26.17344-3.13344-47.37024-12.82048-63.75424-28.9792-16.30208-16.19968-26.7264-39.03488-31.25248-68.54656l59.1872-6.32832a73.9328 73.9328 0 0 0 13.6192 31.06816c6.61504 8.68352 14.0288 14.97088 22.17984 18.86208v-94.16704c-29.61408-8.3968-51.38432-21.11488-65.16736-38.05184-13.86496-16.9984-20.7872-37.62176-20.7872-61.91104 0-24.576 7.80288-45.21984 23.51104-61.952 15.64672-16.6912 36.4544-26.33728 62.464-28.85632v-22.26176h32.91136v22.26176c24.00256 2.82624 43.15136 10.9568 57.36448 24.35072 14.17216 13.37344 23.2448 31.37536 27.19744 53.84192l-57.36448 7.41376c-3.50208-17.65376-12.55424-29.67552-27.19744-35.96288v87.8592c36.27008 9.76896 60.98944 22.38464 74.15808 37.86752 13.12768 15.52384 19.72224 35.40992 19.72224 59.67872 0 27.11552-8.27392 49.95072-24.84224 68.54656z" fill="#3fb9ae" p-id="4711"></path></svg>