<?xml version="1.0" standalone="no"?><!DOCTYPE svg PUBLIC "-//W3C//DTD SVG 1.1//EN" "http://www.w3.org/Graphics/SVG/1.1/DTD/svg11.dtd"><svg t="1494575401660" class="icon" style="" viewBox="0 0 1024 1024" version="1.1" xmlns="http://www.w3.org/2000/svg" p-id="4548" xmlns:xlink="http://www.w3.org/1999/xlink" width="12" height="12"><defs><style type="text/css"></style></defs><path d="M776.30413 327.960427l71.973218 71.946612c0 30.950919-25.120121 56.047504-56.044434 56.047504L624.092449 455.954543c-30.978549 0-56.047504-25.096585-56.047504-56.047504L568.044946 231.766574c0-30.949896 25.067932-56.047504 56.047504-56.047504l71.972195 71.975265L880.461351 63.272046l80.239486 80.266092L776.30413 327.960427zM399.905504 848.27786l-71.973218-71.973218L143.536602 960.727954l-80.237439-80.266092L247.693824 696.066179l-71.973218-71.973218c0-30.952966 25.066909-56.047504 56.04648-56.047504l168.139441 0c30.978549 0 56.047504 25.093515 56.047504 56.047504l0 168.138418C455.953008 823.184345 430.885076 848.27786 399.905504 848.27786z" p-id="4549" fill="#999999"></path></svg>