<?xml version="1.0" standalone="no"?><!DOCTYPE svg PUBLIC "-//W3C//DTD SVG 1.1//EN" "http://www.w3.org/Graphics/SVG/1.1/DTD/svg11.dtd"><svg t="1495014933414" class="icon" style="" viewBox="0 0 1024 1024" version="1.1" xmlns="http://www.w3.org/2000/svg" p-id="7352" xmlns:xlink="http://www.w3.org/1999/xlink" width="16" height="16"><defs><style type="text/css"></style></defs><path d="M875.054545 581.818182c-4.654545-41.890909-27.927273-74.472727-65.163636-93.090909l-32.581818-153.6C768 279.272727 712.145455 232.727273 651.636364 232.727273H395.636364C335.127273 232.727273 279.272727 279.272727 269.963636 335.127273l-32.581818 153.6c-37.236364 18.618182-60.509091 51.2-65.163636 93.090909l-9.309091 97.745454c-4.654545 41.890909 23.272727 79.127273 60.509091 97.745455 9.309091 37.236364 37.236364 60.509091 74.472727 60.509091 32.581818 0 60.509091-23.272727 74.472727-51.2h302.545455c9.309091 32.581818 41.890909 51.2 74.472727 51.2 37.236364 0 65.163636-23.272727 74.472727-60.509091 37.236364-13.963636 60.509091-55.854545 60.509091-97.745455l-9.309091-97.745454zM330.472727 479.418182l27.927273-116.363637c4.654545-18.618182 23.272727-32.581818 41.890909-32.581818H651.636364c18.618182 0 37.236364 13.963636 41.890909 32.581818l27.927272 116.363637c0 9.309091 0 13.963636-4.654545 18.618182-4.654545 4.654545-9.309091 9.309091-18.618182 9.309091H353.745455c-9.309091 0-13.963636-4.654545-18.618182-9.309091-4.654545 0-9.309091-9.309091-4.654546-18.618182 0 4.654545 0 0 0 0z m32.581818 195.490909c-9.309091 9.309091-23.272727 13.963636-37.236363 13.963636-13.963636 0-27.927273-4.654545-37.236364-13.963636-4.654545-9.309091-9.309091-23.272727-9.309091-37.236364 0-13.963636 4.654545-27.927273 13.963637-37.236363 9.309091-9.309091 23.272727-13.963636 37.236363-13.963637 13.963636 0 27.927273 4.654545 37.236364 13.963637 9.309091 9.309091 13.963636 23.272727 13.963636 37.236363-4.654545 13.963636-9.309091 27.927273-18.618182 37.236364z m390.981819 0c-9.309091 9.309091-23.272727 13.963636-37.236364 13.963636-13.963636 0-27.927273-4.654545-37.236364-13.963636-9.309091-9.309091-13.963636-23.272727-13.963636-37.236364 0-13.963636 4.654545-27.927273 13.963636-37.236363 9.309091-9.309091 23.272727-13.963636 37.236364-13.963637 13.963636 0 27.927273 4.654545 37.236364 13.963637 9.309091 9.309091 13.963636 23.272727 13.963636 37.236363 0 13.963636-4.654545 27.927273-13.963636 37.236364z" p-id="7353" fill="#999999"></path></svg>