<?xml version="1.0" standalone="no"?><!DOCTYPE svg PUBLIC "-//W3C//DTD SVG 1.1//EN" "http://www.w3.org/Graphics/SVG/1.1/DTD/svg11.dtd"><svg t="1519627310726" class="icon" style="" viewBox="0 0 1024 1024" version="1.1" xmlns="http://www.w3.org/2000/svg" p-id="4336" xmlns:xlink="http://www.w3.org/1999/xlink" width="16" height="16"><defs><style type="text/css"></style></defs><path d="M515.15392 355.26656c80.95744 0 146.30912-65.88416 146.30912-147.10784 0-81.05984-65.3312-146.71872-146.30912-146.71872-80.85504 0-146.49344 65.67936-146.49344 146.71872 0 81.2032 65.65888 147.10784 146.49344 147.10784zM657.5104 389.12c66.99008 0 95.10912 57.22112 95.10912 57.22112l216.20736 297.8816c8.94976 13.29152 14.21312 29.55264 14.21312 47.104 0 46.2848-37.43744 83.90656-83.57888 83.90656a86.6304 86.6304 0 0 1-31.10912-6.0416L737.28 832.86016V962.56H286.72v-129.69984l-131.11296 36.39296c-9.216 3.60448-19.82464 6.06208-30.90432 6.06208a83.82464 83.82464 0 0 1-83.72224-83.7632c0-17.53088 5.18144-33.52576 14.45888-46.85824l216.064-298.35264S299.60192 389.12 366.30528 389.12h291.20512z m-145.38752 483.08224l168.87808-56.1152-3.66592-1.024c-116.8384-34.24256-72.04864-188.98944 44.50304-154.35776l15.44192 5.48864v-174.51008l-225.05472 74.19904L286.72 491.68384v174.51008l15.44192-5.50912c116.49024-34.6112 161.75104 120.1152 44.99456 154.35776l-4.096 1.024 169.0624 56.13568z" fill="#3fb9ae" p-id="4337"></path></svg>