<?xml version="1.0" standalone="no"?><!DOCTYPE svg PUBLIC "-//W3C//DTD SVG 1.1//EN" "http://www.w3.org/Graphics/SVG/1.1/DTD/svg11.dtd"><svg t="1526364386415" class="icon" style="" viewBox="0 0 1024 1024" version="1.1" xmlns="http://www.w3.org/2000/svg" p-id="15503" xmlns:xlink="http://www.w3.org/1999/xlink" width="16" height="16"><defs><style type="text/css"></style></defs><path d="M991.7248 54.84672L784.17024 6.112c-8.47488-2.0992-14.85056 0-23.29984 2.13504L517.26464 122.62656l-224.4992-95.29472c-8.49536-4.25472-16.96512-4.25472-25.44 0L23.74016 122.62656C11.02976 126.86208 2.56 139.57248 2.56 154.39744v662.9952c0 10.58816 6.3744 23.29984 14.82496 29.65504 8.47488 6.37312 21.20448 8.46976 31.7952 4.23424l228.73472-91.0784 226.64064 93.19936c4.23424 2.11584 8.49408 2.11584 12.70912 2.11584 4.23552 0 10.58944-2.11584 14.82496-4.2368l19.0656-8.46848-31.7952-63.5264-2.11456 2.11968-224.50048-93.18016c-4.25984-2.13376-8.49536-2.13376-12.7104-2.13376-4.23424 0-8.49408 0-12.70912 2.13376L72.48 766.57664V177.69728l205.43488-80.48512 226.64064 93.19552c8.49408 4.23424 19.0848 4.23424 27.53408 0l247.80032-112.26112 169.45024 38.1056v590.97472l-33.89056-8.44928-16.92544 33.87008c-2.14016 6.37312-6.3552 12.68992-8.46976 16.96512v2.0992l-6.3744 14.84672 91.10016 21.18016c10.58944 2.14016 21.18016 0 29.64992-6.35008 8.4544-6.3808 12.68992-16.97024 12.68992-27.54176l2.14016-665.10976c0-14.84544-10.59072-29.65504-27.53536-33.89056z m-726.53952 133.44V609.8176c0 8.44928 6.3552 14.82496 14.84928 14.82496 8.45056 0 14.80576-6.37568 14.80576-14.82496V188.28672c0-8.46976-6.3552-14.82496-14.80576-14.82496-8.49408 0-14.84928 6.3552-14.84928 14.82496z m239.34976 80.49024v211.79008c0 8.49536 6.3744 14.85056 14.82496 14.85056 8.47488 0 14.85056-6.3552 14.85056-14.85056V268.77696c0-8.49536-6.3744-14.82496-14.85056-14.82496-8.45056 2.11456-14.82496 8.46976-14.82496 14.82496zM794.74048 412.7872V158.6176c0-8.45568-6.3552-14.83008-14.85056-14.83008-8.45056 0-14.80448 6.3552-14.80448 14.83008v256.30976c0 8.47488 6.3552 14.83008 14.80448 14.83008 8.49536-2.11968 14.85056-8.47488 14.85056-16.97024z m-97.43488 67.77984c-91.07968 0-165.21472 74.16064-165.21472 165.21472 0 29.6768 8.47488 59.33184 23.29984 82.6304l14.82496 31.7696 31.77472 63.54688L697.3056 1018.5728l131.34464-264.76544 12.7104-23.29984c6.3296-12.66688 12.6656-25.3952 16.92032-40.24576 4.25984-12.704 6.3552-27.53408 6.3552-42.35904-2.09664-93.17504-76.25088-167.33568-167.33056-167.33568z m0 213.97376c-38.1056 0-69.89952-31.7952-69.89952-69.89824 0-38.1248 31.7952-69.91488 69.89952-69.91488 38.1248 0 69.92 31.79008 69.92 69.91488 0 40.2432-31.7952 69.89824-69.92 69.89824z m0 0" fill="#999999" p-id="15504"></path></svg>