<?xml version="1.0" standalone="no"?><!DOCTYPE svg PUBLIC "-//W3C//DTD SVG 1.1//EN" "http://www.w3.org/Graphics/SVG/1.1/DTD/svg11.dtd"><svg t="1494580819918" class="icon" style="" viewBox="0 0 1024 1024" version="1.1" xmlns="http://www.w3.org/2000/svg" p-id="7228" xmlns:xlink="http://www.w3.org/1999/xlink" width="18" height="18"><defs><style type="text/css"></style></defs><path d="M514.675852 302.371303c-114.940017 0-208.351586 93.533199-208.351585 208.351586 0 114.940017 93.533199 208.351586 208.351585 208.351585S723.149068 625.784535 723.149068 510.844518c0-114.940017-93.533199-208.473215-208.473216-208.473215z m0 357.347904c-82.100012 0-148.874688-66.774676-148.874688-148.874689S432.57584 361.96983 514.675852 361.96983 663.55054 428.744506 663.55054 510.844518 596.775864 659.719207 514.675852 659.719207z" fill="#19ac9e" p-id="7229"></path><path d="M979.422734 482.018292h-75.410381c-6.93289-93.898088-46.949044-181.349804-114.210239-248.610999C722.540919 166.146098 635.089203 126.129944 541.191115 119.197054V44.273192c0-16.420002-13.379261-29.799264-29.799263-29.799264s-29.799264 13.379261-29.799264 29.799264V119.197054c-93.898088 6.93289-181.349804 46.949044-248.610999 114.210239C165.720394 300.668488 125.70424 387.998575 118.771351 482.018292h-74.194085c-16.420002 0-29.799264 13.379261-29.799264 29.799264s13.379261 29.799264 29.799264 29.799263h74.194085c6.93289 93.898088 46.949044 181.349804 114.210238 248.610999 67.261195 67.261195 154.712911 107.277349 248.610999 114.210239v76.626678c0 16.420002 13.379261 29.799264 29.799264 29.799263s29.799264-13.379261 29.799263-29.799263v-76.626678c93.898088-6.93289 181.349804-46.949044 248.610999-114.210239 67.261195-67.261195 107.277349-154.712911 114.210239-248.610999h75.410381c16.420002 0 29.799264-13.379261 29.799264-29.799263 0-16.541632-13.379261-29.799264-29.799264-29.799264zM747.718256 748.14396c-63.125787 63.125787-147.050243 97.911866-236.326404 97.911866S338.191234 811.269747 275.065447 748.14396c-63.125787-63.125787-97.911866-147.050243-97.911866-236.326404S211.93966 338.616938 275.065447 275.491151c63.125787-63.125787 147.050243-97.911866 236.326405-97.911866s173.200618 34.786079 236.326404 97.911866c63.125787 63.125787 97.911866 147.050243 97.911866 236.326405s-34.786079 173.200618-97.911866 236.326404z" fill="#19ac9e" p-id="7230"></path></svg>