<?xml version="1.0" standalone="no"?><!DOCTYPE svg PUBLIC "-//W3C//DTD SVG 1.1//EN" "http://www.w3.org/Graphics/SVG/1.1/DTD/svg11.dtd"><svg t="1495017705940" class="icon" style="" viewBox="0 0 1024 1024" version="1.1" xmlns="http://www.w3.org/2000/svg" p-id="10852" xmlns:xlink="http://www.w3.org/1999/xlink" width="16" height="16"><defs><style type="text/css"></style></defs><path d="M1024.508-150.803h-1024.999c-83.012 0-150.313 67.122-150.313 149.908v1025.807c0 82.786 67.3 149.908 150.313 149.908h1024.999c83.012 0 150.313-67.122 150.313-149.908v-1025.809c-0.017-82.786-67.3-149.908-150.313-149.908zM1064.589 1024.895c0 22.039-17.979 39.969-40.082 39.969h-1024.999c-22.103 0-40.083-17.93-40.083-39.969v-1025.809c0-22.039 17.979-39.969 40.083-39.969h1025.001c22.103 0 40.082 17.93 40.082 26.164v1039.613z" p-id="10853" fill="#999999"></path><path d="M512.050 97.779c125.327 0 250.655-0.016 375.983 0.017 26.441 0 45.714 26.458 36.117 50.178-2.331 5.746-6.813 10.972-11.295 15.455-94.194 94.422-188.502 188.726-282.921 282.921-3.754 3.754-5.323 7.378-5.308 12.751 0.161 142.399 0.144 284.798 0.113 427.181 0 28.431-24.5 46.83-50.325 37.524-4.967-1.78-9.742-5.195-13.529-8.964-50.066-49.774-99.923-99.792-149.908-149.648-8.414-8.382-12.218-18.254-12.201-30.081 0.113-92.965 0.113-185.927-0.081-278.908 0-2.833-1.844-6.311-3.933-8.399-95.035-95.246-190.055-190.509-285.461-285.381-16.781-16.682-13.981-36.733-3.574-50.94 7.443-10.161 18.059-13.755 30.325-13.74 68.449 0.050 136.897 0.033 205.346 0.033 56.895 0 113.79 0 170.652 0z" p-id="10854" fill="#999999"></path></svg>