<?xml version="1.0" standalone="no"?><!DOCTYPE svg PUBLIC "-//W3C//DTD SVG 1.1//EN" "http://www.w3.org/Graphics/SVG/1.1/DTD/svg11.dtd"><svg t="1519627351731" class="icon" style="" viewBox="0 0 1024 1024" version="1.1" xmlns="http://www.w3.org/2000/svg" p-id="5826" xmlns:xlink="http://www.w3.org/1999/xlink" width="16" height="16"><defs><style type="text/css"></style></defs><path d="M842.99776 512H187.22816c-19.10784 0-34.83648-16.42496-34.83648-35.10272 0-3.11296 0.57344-6.63552 1.20832-9.46176l34.89792-243.69152c2.9696-15.83104 17.22368-18.944 34.28352-18.944h584.76544c16.93696 0 31.31392 2.84672 34.24256 18.61632l34.89792 248.13568c0.53248 2.88768 1.2288 4.58752 1.2288 7.70048-0.02048 18.67776-15.83104 32.74752-34.9184 32.74752z m-26.23488 273.3056c-36.92544 0-66.8672-29.06112-66.8672-65.29024 0-35.98336 29.94176-65.00352 66.8672-65.00352 36.67968 0 66.68288 29.02016 66.68288 65.00352 0 36.22912-30.0032 65.29024-66.68288 65.29024z m-604.18048 0c-36.6592 0-66.62144-29.06112-66.62144-65.29024 0-35.98336 29.96224-65.00352 66.62144-65.00352 37.02784 0 66.92864 29.02016 66.92864 65.00352 0 36.22912-29.9008 65.29024-66.92864 65.29024zM327.68 61.44h409.6v61.44H327.68c-40.96 0-40.96-61.44 0-61.44z m577.57696 94.0032c-11.96032-57.61024-46.8992-80.81408-103.89504-103.99744-56.89344-23.10144-188.74368-50.7904-287.90784-50.7904-99.59424 0-232.12032 27.70944-289.0752 50.7904-56.97536 23.20384-91.3408 46.3872-103.19872 103.99744L81.92 476.13952V921.6h61.44v40.96c0 81.92 102.4 81.92 102.4 0v-40.96h512v40.96c0 81.92 122.88 81.92 122.88 0v-40.96h61.44V476.13952L905.25696 155.4432z" fill="#69a6f5" p-id="5827"></path></svg>