<?xml version="1.0" standalone="no"?><!DOCTYPE svg PUBLIC "-//W3C//DTD SVG 1.1//EN" "http://www.w3.org/Graphics/SVG/1.1/DTD/svg11.dtd"><svg t="1519627251325" class="icon" style="" viewBox="0 0 1024 1024" version="1.1" xmlns="http://www.w3.org/2000/svg" p-id="3093" xmlns:xlink="http://www.w3.org/1999/xlink" width="16" height="16"><defs><style type="text/css"></style></defs><path d="M370.688 502.64064l-188.49792-106.2912 65.51552-114.8928 188.53888 106.22976z m376.2176 98.05824l-318.50496-179.4048-32.74752 57.50784 318.464 179.42528z m38.66624 21.8112l-32.84992 57.46688 164.2496 92.44672 32.84992-57.40544z m-44.2368 57.46688c-2.51904 4.48512-9.40032 5.55008-15.38048 2.27328-5.95968-3.35872-8.6016-9.728-6.06208-14.27456l38.4-67.2768c2.64192-4.56704 9.5232-5.67296 15.44192-2.27328 5.87776 3.35872 8.54016 9.87136 6.00064 14.4384l-38.4 67.11296z m242.31936 36.84352a40.5504 40.5504 0 0 0-20.70528-5.07904l-42.00448 73.56416c3.3792 6.16448 8.41728 11.55072 15.0528 15.1552 18.51392 10.48576 41.79968 4.44416 51.97824-13.35296l10.77248-19.0464c10.19904-17.92 3.4816-40.7552-15.09376-51.24096zM454.47168 365.54752a18.41152 18.41152 0 0 1-25.088 7.00416l-164.98688-93.02016a18.26816 18.26816 0 0 1-6.94272-25.04704 18.51392 18.51392 0 0 1 25.1904-6.84032l164.94592 92.89728a18.2272 18.2272 0 0 1 6.88128 25.00608z m23.12192-40.38656a18.47296 18.47296 0 0 1-25.12896 6.9632l-165.04832-92.99968a18.1248 18.1248 0 0 1-6.90176-24.92416 18.432 18.432 0 0 1 25.1904-6.98368l164.98688 92.91776a18.24768 18.24768 0 0 1 6.90176 25.02656z m-139.42784 244.61312a18.57536 18.57536 0 0 1-25.16992 6.84032l-165.10976-93.02016a18.30912 18.30912 0 0 1-6.92224-25.04704 18.6368 18.6368 0 0 1 25.16992-6.84032l165.02784 93.02016a18.39104 18.39104 0 0 1 7.00416 25.04704z m23.06048-40.52992a18.47296 18.47296 0 0 1-25.27232 6.8608L170.96704 443.1872a18.432 18.432 0 0 1-6.94272-25.04704 18.47296 18.47296 0 0 1 25.21088-6.8608l164.9664 92.91776a18.39104 18.39104 0 0 1 7.02464 25.04704zM84.35712 694.70208h290.89792v33.44384H84.35712z m354.42688 69.75488a23.59296 23.59296 0 0 0-23.2448-19.72224H44.15488a23.552 23.552 0 0 0-23.2448 19.72224H20.48v54.76352h418.73408v-54.76352h-0.43008z" fill="#ffad7f" p-id="3094"></path></svg>