<?xml version="1.0" standalone="no"?><!DOCTYPE svg PUBLIC "-//W3C//DTD SVG 1.1//EN" "http://www.w3.org/Graphics/SVG/1.1/DTD/svg11.dtd"><svg t="1493954390895" class="icon" style="" viewBox="0 0 1036 1024" version="1.1" xmlns="http://www.w3.org/2000/svg" p-id="7747" xmlns:xlink="http://www.w3.org/1999/xlink" width="14.1640625" height="14"><defs><style type="text/css"></style></defs><path d="M991.217363 92.308359 27.939329 92.308359c-15.97381 0-28.89919 12.925381-28.89919 28.898167l0 19.265786c0 15.954367 12.925381 28.898167 28.89919 28.898167l963.278033 0c15.971763 0 28.897144-12.9438 28.897144-28.898167l0-19.265786C1020.114506 105.23374 1007.189126 92.308359 991.217363 92.308359zM991.217363 862.932628 27.939329 862.932628c-15.97381 0-28.89919 12.923334-28.89919 28.897144l0 19.266809c0 15.95232 12.925381 28.897144 28.89919 28.897144l963.278033 0c15.971763 0 28.897144-12.944823 28.897144-28.897144l0-19.266809C1020.114506 875.854938 1007.189126 862.932628 991.217363 862.932628zM991.217363 477.619982 27.939329 477.619982c-15.97381 0-28.89919 12.925381-28.89919 28.898167l0 19.266809c0 15.953344 12.925381 28.897144 28.89919 28.897144l963.278033 0c15.971763 0 28.897144-12.9438 28.897144-28.897144l0-19.266809C1020.114506 490.545362 1007.189126 477.619982 991.217363 477.619982z" p-id="7748" fill="#999999"></path></svg>