<?xml version="1.0" standalone="no"?><!DOCTYPE svg PUBLIC "-//W3C//DTD SVG 1.1//EN" "http://www.w3.org/Graphics/SVG/1.1/DTD/svg11.dtd"><svg t="1500518177364" class="icon" style="" viewBox="0 0 1024 1024" version="1.1" xmlns="http://www.w3.org/2000/svg" p-id="1039" xmlns:xlink="http://www.w3.org/1999/xlink" width="18" height="18"><defs><style type="text/css"></style></defs><path d="M892.297 731.768c-0.048 0.552-0.091 1.097-0.165 1.644-0.501 3.242-1.344 6.153-2.507 8.895 0.59-0.699-0.894 2.741-2.824 5.876 2.987-6.039 2.737-5.447 2.466-4.855-3.303 7.646-9.001 14.311-16.969 18.455l-213.317 109.195c-11.171 8.185-26.386 9.985-39.5 3.157l-231.792-121.753-191.233 103.256c-17.175 8.926-37.928 3.148-48.42-12.598-0.167-0.243-0.321-0.49-0.483-0.738-0.573-0.903-1.249-1.707-1.752-2.674-0.35-0.674-0.519-1.387-0.823-2.070-0.479-1.027-0.871-2.084-1.259-3.16-0.351-1.023-0.697-2.038-0.954-3.076-0.457-1.721-0.748-3.487-0.954-5.294-0.041-0.412-0.098-0.817-0.124-1.226-0.085-1.026-0.308-2.011-0.308-3.056v-380.943c0-3.393 0.595-6.621 1.438-9.75 0.157-0.619 0.379-1.213 0.567-1.827 0.466-1.424 0.935-2.832 1.561-4.177 0.684-1.548 1.527-3.008 2.419-4.457 0.224-0.348 0.412-0.714 0.646-1.052 3.109-4.701 7.192-8.844 12.404-11.856l55.842-32.282c17.968-10.373 40.942-4.219 51.317 13.75 10.373 17.968 4.218 40.942-13.75 51.314l-37.314 21.57v297.399l148.195-80.017c5.883-4.375 13.236-7.081 21.21-7.299-0.579-0.010 0.238 0.043 1.065 0.023 1.2 0.001 2.388-0.054 3.59 0.065 6.747 0.483 13.201 2.806 18.774 6.685l227.037 119.256 181.183-92.745v-288.3c-17.931 10.176-40.736 4.021-51.063-13.863-10.373-17.969-4.217-40.941 13.751-51.315l55.842-32.283c1.105-0.637 2.271-1.020 3.409-1.534 0.556-0.256 1.099-0.523 1.67-0.752 1.635-0.647 3.281-1.137 4.958-1.54 0.792-0.196 1.573-0.395 2.383-0.539 1.541-0.266 3.071-0.395 4.615-0.466 0.675-0.036 1.314-0.202 2-0.202 0.402 0 0.774 0.105 1.173 0.119 1.159 0.045 2.296 0.196 3.446 0.348 1.473 0.182 2.924 0.38 4.339 0.727 0.568 0.145 1.11 0.35 1.671 0.521 1.89 0.56 3.726 1.208 5.479 2.046 0.134 0.064 0.258 0.145 0.389 0.21 12.435 6.123 21.069 18.798 21.069 33.598v375.658c0.001 1.343-0.258 2.62-0.397 3.932zM544.479 595.434c-6.859 7.381-16.572 12.066-27.442 12.066-10.868 0-20.577-4.685-27.436-12.061-52.194-49.315-161.138-165.954-161.138-281.093 0-104.147 84.426-188.577 188.573-188.577s188.577 84.43 188.577 188.578c0 115.135-108.937 231.768-161.134 281.087zM517.037 202.372c-62.238 0-112.694 50.458-112.694 112.696 0 61.599 47.157 134.337 80.42 178.126 6.527 11.099 18.465 18.631 32.273 18.631 13.809 0 25.749-7.533 32.277-18.635 33.264-43.786 80.419-116.524 80.419-178.12 0.001-62.24-50.454-112.698-112.695-112.698z" p-id="1040" fill="#999999"></path></svg>