<?xml version="1.0" standalone="no"?><!DOCTYPE svg PUBLIC "-//W3C//DTD SVG 1.1//EN" "http://www.w3.org/Graphics/SVG/1.1/DTD/svg11.dtd"><svg t="1499394924094" class="icon" style="" viewBox="0 0 1024 1024" version="1.1" xmlns="http://www.w3.org/2000/svg" p-id="4462" xmlns:xlink="http://www.w3.org/1999/xlink" width="18" height="18"><defs><style type="text/css"></style></defs><path d="M947.295232 563.50208c-6.105088-46.519296-37.020672-86.040576-80.70144-103.168l-40.40704-170.231808c-20.028416-68.829184-83.986432-115.472384-155.644928-113.506304H353.49504c-71.66464-1.985536-135.632896 44.664832-155.644928 113.506304l-40.35072 170.231808c-43.680768 17.127424-74.595328 56.648704-80.700416 103.168L65.229824 671.86688c-1.308672 48.58368 29.018112 92.41088 74.944512 108.309504 11.098112 41.239552 49.446912 69.161984 92.101632 67.064832a108.86656 108.86656 0 0 0 92.213248-56.725504h374.443008c15.659008 36.708352 52.846592 59.47392 92.660736 56.725504 42.69568 2.152448 81.10592-25.782272 92.213248-67.064832 45.33248-16.681984 75.332608-60.005376 74.999808-108.309504l-11.510784-108.3648zM272.794624 449.994752l34.593792-128.930816c7.87456-21.82144 28.664832-36.293632 51.862528-36.103168h311.29088c23.197696-0.191488 43.988992 14.281728 51.863552 36.103168l34.650112 128.930816a23.08096 23.08096 0 0 1-5.588992 20.622336 31.184896 31.184896 0 0 1-23.081984 10.339328H301.576192a31.187968 31.187968 0 0 1-23.081984-10.339328 13.246464 13.246464 0 0 1-5.588992-20.622336h-0.110592z m40.349696 216.675328a70.017024 70.017024 0 0 1-46.106624 15.479808 70.027264 70.027264 0 0 1-45.938688-15.479808 89.4208 89.4208 0 0 1-11.512832-41.244672 55.2192 55.2192 0 0 1 17.1008-41.300992 70.018048 70.018048 0 0 1 46.106624-15.479808 70.029312 70.029312 0 0 1 46.106624 15.479808 55.216128 55.216128 0 0 1 17.26976 41.244672 99.98848 99.98848 0 0 1-23.081984 41.244672l0.05632 0.05632z m484.260864 0c-27.277312 20.622336-64.934912 20.622336-92.213248 0a57.904128 57.904128 0 0 1 0-82.545664c27.278336-20.622336 64.935936-20.622336 92.213248 0a57.899008 57.899008 0 0 1 0 82.545664z" p-id="4463" fill="#999999"></path></svg>