<?xml version="1.0" encoding="utf-8"?>
<!-- Generator: Adobe Illustrator 19.0.0, SVG Export Plug-In . SVG Version: 6.00 Build 0)  -->
<svg version="1.1" id="图层_1" xmlns="http://www.w3.org/2000/svg" xmlns:xlink="http://www.w3.org/1999/xlink" x="0px" y="0px"
	 viewBox="-286 410 22 21.9" style="enable-background:new -286 410 22 21.9;" xml:space="preserve">
<style type="text/css">
	.st0{fill:#7B7B7B;}
</style>
<path class="st0" d="M-279.9,421.2c0-0.4,0.3-0.8,0.8-0.8c0.4,0,0.8,0.4,0.8,0.8c0,0.5-0.3,0.8-0.8,0.8
	C-279.6,421.9-279.9,421.6-279.9,421.2z"/>
<path class="st0" d="M-275.8,421.2c0-0.4,0.3-0.8,0.8-0.8c0.4,0,0.8,0.4,0.8,0.8c0,0.5-0.3,0.8-0.8,0.8
	C-275.5,421.9-275.8,421.6-275.8,421.2z"/>
<path class="st0" d="M-271.7,421.2c0-0.4,0.3-0.8,0.8-0.8c0.4,0,0.8,0.4,0.8,0.8c0,0.5-0.3,0.8-0.8,0.8
	C-271.4,421.9-271.7,421.6-271.7,421.2z"/>
<path class="st0" d="M-275.1,431.8c-6,0-10.9-4.9-10.9-10.9s4.9-10.9,10.9-10.9s10.9,4.9,10.9,10.9S-269,431.8-275.1,431.8z
	 M-275.1,411c-5.4,0-9.8,4.4-9.8,9.8c0,5.4,4.4,9.8,9.8,9.8s9.8-4.4,9.8-9.8C-265.2,415.5-269.7,411-275.1,411z"/>
</svg>
