<?xml version="1.0" standalone="no"?><!DOCTYPE svg PUBLIC "-//W3C//DTD SVG 1.1//EN" "http://www.w3.org/Graphics/SVG/1.1/DTD/svg11.dtd"><svg t="1499137982055" class="icon" style="" viewBox="0 0 1024 1024" version="1.1" xmlns="http://www.w3.org/2000/svg" p-id="12787" xmlns:xlink="http://www.w3.org/1999/xlink" width="18" height="18"><defs><style type="text/css"></style></defs><path d="M881.682155 253.9232c-9.086959-14.537088-19.247366-27.998681-29.841655-41.025369l40.504506-40.504506-40.74089-40.738843-37.914518 37.914518c-3.428076-3.02694-6.547113-5.609765-9.125845-8.18645-9.255805-9.254781-27.761274-9.254781-37.015032 3.084245-9.249665 9.254781-9.249665 27.762297 3.088338 37.014009 1.191128 1.193175 3.312442 2.854001 5.991458 5.14723L585.556785 397.702837 585.556785 149.044548c0-67.861574-52.438303-92.536556-101.788268-49.352011L274.005073 278.598182 169.12949 278.598182c-55.519478 0-104.875582 46.269813-104.875582 104.878652l0 262.189468c0 58.610886 46.27493 104.874559 104.875582 104.874559l63.588247 0-101.063767 101.063767 40.739866 40.739866 118.593002-118.593002 192.781678 152.614863c52.43114 40.101323 101.788268 15.429411 101.788268-49.352011L585.556785 479.181547 699.730127 365.008204c2.040473 2.043542 4.079922 4.087085 6.125511 6.129604 9.254781 9.254781 18.510586 21.591761 24.678052 33.930787 55.518454 83.284845 55.518454 172.743296-37.015032 268.363074-9.255805 9.254781-9.255805 27.764344 0 37.015032 9.248641 9.254781 27.759227 9.254781 37.015032 0 107.962897-117.218702 107.962897-234.43024 43.184545-336.221578-12.497639-20.00052-27.021423-35.945677-37.006845-46.199205l77.674057-77.674057c8.036024 10.381441 16.071024 21.556968 24.105001 34.414811 101.795431 154.231687 101.795431 323.890738-67.854411 499.714186-9.255805 9.249665-9.255805 27.759227 0 37.008892 9.253758 9.255805 27.759227 9.255805 37.006845 0C995.816612 624.074541 995.816612 426.659333 881.682155 253.9232zM270.923898 698.110745l-101.794407 0c-27.760251 0-52.438303-24.679076-52.438303-52.444443L116.691187 383.476835c0-27.762297 24.678052-52.440349 52.438303-52.440349l114.130364 0c6.173606 0 12.342096-3.084245 15.428388-6.16849l215.925794-185.079252c15.423271-12.339026 15.423271-12.339026 15.423271 6.17156l-0.002047 307.263036L282.090215 701.169407C278.930245 699.414437 274.932188 698.110745 270.923898 698.110745zM530.033213 873.934193c0 21.591761 0 21.591761-15.424294 9.248641l-186.712449-146.33995L530.03526 534.703071 530.033213 873.934193z" p-id="12788" fill="#999999"></path></svg>