<?xml version="1.0" standalone="no"?><!DOCTYPE svg PUBLIC "-//W3C//DTD SVG 1.1//EN" "http://www.w3.org/Graphics/SVG/1.1/DTD/svg11.dtd"><svg class="icon" width="18px" height="18.00px" viewBox="0 0 1024 1024" version="1.1" xmlns="http://www.w3.org/2000/svg"><path d="M791.245183 1024 232.748465 1024C155.857156 1024 93.30341 961.465309 93.30341 884.596867l0-745.195005C93.30341 62.535961 155.857156 0 232.748465 0c4.335823 0.008893 430.453366 0.889269 434.387748 0.889269 4.083017 0 7.997072 1.613389 10.878305 4.484458l248.221752 247.506525c2.857095 2.849473 4.460321 6.70255 4.460321 10.719507l0 620.998379C930.694049 961.464039 868.137762 1024 791.245183 1024L791.245183 1024zM232.715435 30.40793c-59.944376 0-108.738585 48.894569-108.738585 108.995203l0 745.195005c0 60.100633 48.792938 108.995203 108.770344 108.995203l558.496718 0c59.978676 0 108.775426-48.894569 108.775426-108.995203L900.019339 269.870379 660.744907 31.285766C608.098892 31.184135 249.077991 30.44096 232.715435 30.40793L232.715435 30.40793z" fill="#a7a7a7" /><path d="M834.142266 302.028899 641.630698 302.028899c-8.469655 0-15.336085-6.806722-15.336085-15.203965L626.294613 117.186644c0-8.395973 6.86643-15.203965 15.336085-15.203965s15.337355 6.807992 15.337355 15.203965L656.968053 271.620969l177.174213 0c8.470926 0 15.337355 6.807992 15.337355 15.203965C849.479621 295.222177 842.613191 302.028899 834.142266 302.028899L834.142266 302.028899z" fill="#a7a7a7" /><path d="M711.388796 519.325674c-0.186747 0-0.376034 0-0.564051 0-1.756942 0-3.515155 0-5.272097 0-3.361438 0-6.724147 0-10.085585 0-4.669934 0-218.088225 0-222.758159 0-5.67989 0-11.359781 0-17.039671 0-6.392576 0-12.785152 0-19.178999 0-6.807992 0-13.615984 0-20.423976 0-6.926138 0-13.852276 0-20.778413 0-6.747014 0-13.492757 0-20.23977 0-6.270619 0-12.539968 0-18.809317 0-5.495685 0-10.991369 0-16.487054 0-4.42348 0-8.84823 0-13.27171 0-3.055275 0-6.110551 0-9.165826 0-0.921029 0-1.843328 0.013974-2.764357 0-1.613389-0.024137-3.075602-0.016515-4.735994 0.282025-2.655104 0.476394-6.099117 1.059501-8.138085 2.858366-2.028804 1.788702-3.278863 2.77452-4.724561 5.081539-0.572944 0.915947-2.308289 6.416713-2.134246 7.835733 0.139742 1.131913 0.245184 2.226985 0.564051 3.330949 0.605974 2.102487 1.676908 4.062691 3.109902 5.718002 2.90664 3.353816 7.203082 5.302586 11.639265 5.302586 0.035571 0 401.261194 0 401.261194 0 8.470926 0 15.337355-6.806722 15.337355-15.205235C726.726151 526.133666 719.859722 519.325674 711.388796 519.325674z" fill="#a7a7a7" /><path d="M711.388796 708.404662c-0.186747 0-0.376034 0-0.564051 0-1.756942 0-3.515155 0-5.272097 0-3.361438 0-6.724147 0-10.085585 0-4.669934 0-218.088225 0-222.758159 0-5.67989 0-11.359781 0-17.039671 0-6.392576 0-12.785152 0-19.178999 0-6.807992 0-13.615984 0-20.423976 0-6.926138 0-13.852276 0-20.778413 0-6.747014 0-13.492757 0-20.23977 0-6.270619 0-12.539968 0-18.809317 0-5.495685 0-10.991369 0-16.487054 0-4.42348 0-8.84823 0-13.27171 0-3.055275 0-6.110551 0-9.165826 0-0.921029 0-1.843328 0.013974-2.764357 0-1.613389-0.024137-3.075602-0.016515-4.735994 0.282025-2.655104 0.476394-6.099117 1.059501-8.138085 2.858366-2.028804 1.788702-3.278863 2.77452-4.724561 5.081539-0.572944 0.915947-2.308289 6.416713-2.134246 7.835733 0.139742 1.131913 0.245184 2.226985 0.564051 3.330949 0.605974 2.102487 1.676908 4.062691 3.109902 5.718002 2.90664 3.353816 7.203082 5.302586 11.639265 5.302586 0.035571 0 401.261194 0 401.261194 0 8.470926 0 15.337355-6.806722 15.337355-15.205235C726.726151 715.212654 719.859722 708.404662 711.388796 708.404662z" fill="#a7a7a7" /></svg>