<?xml version="1.0" encoding="utf-8"?>
<!-- Generator: Adobe Illustrator 18.1.0, SVG Export Plug-In . SVG Version: 6.00 Build 0)  -->
<svg version="1.1" id="图层_1" xmlns="http://www.w3.org/2000/svg" xmlns:xlink="http://www.w3.org/1999/xlink" x="0px" y="0px"
	 viewBox="0 0 30 30" enable-background="new 0 0 30 30" xml:space="preserve">
<path fill="#19AC9E" d="M2.2,11.9c0.2,0.2,0.4,0.4,0.6,0.4l0.7,0.9L4.3,13l7.9-1.1l1.1-0.2l0.6-1.1c0.4-0.9,0.9-1.5,1.5-2.2
	c0.7-0.7,1.5-1.1,2.3-1.7c0.6-0.2,0.9-0.6,1.5-0.6v7.3v1.9v0.6l0,0v7.3c-0.9-0.2-1.9-0.8-2.6-1.1c-1.1-0.9-2.1-1.9-2.6-3.4l-0.6-0.9
	l-1.1-0.2l-7.9-1.1l-0.9,0.2l-0.7,0.9l0,0c-0.2,0.2-0.2,0.2-0.4,0.4L2.2,11.9 M0.4,9.5C0.2,9.7,0,10,0,10.2v9.4
	c0,0.8,0.6,1.1,1.1,1.1c1.1-0.2,2.1-0.9,2.8-1.5c0,0,0,0,0.2-0.2l7.9,1.1c1.7,3.4,4.7,5.6,8.3,5.8c0.4,0,0.8-0.2,0.8-0.4
	s0.4-0.6,0.4-0.8V16h7.5c0.4,0,0.6-0.2,0.8-0.4c0.4-0.2,0.4-0.4,0.4-0.8c0-0.6-0.6-1.1-0.9-1.1h-7.5V5.2C21.6,4.4,21,4,20.4,4
	c-2.4,0.4-4.7,1.3-6.4,3.2C13.3,8.2,12.6,8.9,12,10l-7.9,1.1c-0.7-0.9-1.9-1.3-2.8-1.7C0.9,9.3,0.6,9.3,0.4,9.5L0.4,9.5z"/>
</svg>
