<?xml version="1.0" encoding="utf-8"?>
<!-- Generator: Adobe Illustrator 18.1.0, SVG Export Plug-In . SVG Version: 6.00 Build 0)  -->
<svg version="1.1" id="图层_1" xmlns="http://www.w3.org/2000/svg" xmlns:xlink="http://www.w3.org/1999/xlink" x="0px" y="0px"
	 viewBox="0 0 20 20" enable-background="new 0 0 20 20" xml:space="preserve">
<path fill="#E49421" stroke="#E49421" stroke-width="0.75" stroke-miterlimit="10" d="M15.1,6.7c-1.1-2-3.2-3.2-5.5-3.2
	C8,3.5,6.6,4.1,5.4,5C4.3,6,3.6,7.2,3.3,8.5c-1.7,0.4-2.9,2.1-2.9,3.7c0,1.9,1.4,3.6,3.3,3.8l0,0h11.1c2.6,0,4.8-2.1,4.8-4.7
	C19.6,8.8,17.5,6.9,15.1,6.7z M14.7,15.1H4.3l0,0c-1.5,0-2.8-1.3-2.8-2.9c0-1.3,1-2.5,2.2-2.8l0.4-0.1V9C4.3,7.8,5,6.6,6,5.8
	s2.2-1.3,3.5-1.3c1.7,0,3.3,0.8,4.3,2.2c-1.2,0.3-2.2,0.8-3,1.8c-0.3,0.3-0.1,0.6,0.1,0.7c0.3,0.1,0.6,0.1,0.7-0.1
	c0.7-1,1.8-1.4,3-1.4c2.1,0,3.7,1.7,3.7,3.7S16.8,15.1,14.7,15.1z"/>
</svg>
