<?xml version="1.0" encoding="utf-8"?>
<!-- Generator: Adobe Illustrator 19.0.0, SVG Export Plug-In . SVG Version: 6.00 Build 0)  -->
<svg version="1.1" id="图层_1" xmlns="http://www.w3.org/2000/svg" xmlns:xlink="http://www.w3.org/1999/xlink" x="0px" y="0px"
	 viewBox="-286 409.9 22 22" style="enable-background:new -286 409.9 22 22;" xml:space="preserve">
<style type="text/css">
	.st0{fill:#7B7B7B;}
</style>
<path class="st0" d="M-267.6,420.8c-0.2,0.2-3.7,4.2-7.7,4.2c-3.9,0-7.6-4.1-7.7-4.3l-0.3-0.3l0.3-0.3c0.2-0.2,3.9-4.2,7.7-4.2
	c3.9,0,7.6,4.1,7.7,4.3l0.2,0.3L-267.6,420.8L-267.6,420.8z M-275.3,416.9c-2.8,0-5.8,2.7-6.7,3.6c0.9,0.9,3.8,3.6,6.6,3.6
	c3.1,0,5.8-2.7,6.7-3.6C-269.6,419.7-272.5,416.9-275.3,416.9L-275.3,416.9z M-275.1,423.2c-0.8,0-1.5-0.3-2-0.8
	c-0.5-0.5-0.8-1.2-0.8-1.9c0-1.4,1.3-2.6,2.9-2.6c1.6,0,2.9,1.2,2.9,2.6C-272.2,422-273.6,423.2-275.1,423.2L-275.1,423.2z
	 M-275.1,418.8c-1,0-1.9,0.8-1.9,1.7c0,0.5,0.2,0.9,0.5,1.2c0.4,0.3,0.8,0.5,1.3,0.5c1,0,1.9-0.8,1.9-1.7
	C-273.2,419.6-274.1,418.8-275.1,418.8L-275.1,418.8z"/>
<path class="st0" d="M-267.5,430.2c1,0,1.8-0.8,1.8-1.8v-15.6c0-1-0.8-1.8-1.8-1.8h-15.6c-1,0-1.8,0.8-1.8,1.8v15.6
	c0,1,0.8,1.8,1.8,1.8H-267.5 M-267.5,431.2h-15.6c-1.6,0-2.8-1.3-2.8-2.8v-15.6c0-1.6,1.3-2.8,2.8-2.8h15.6c1.6,0,2.8,1.3,2.8,2.8
	v15.6C-264.7,429.9-266,431.2-267.5,431.2L-267.5,431.2L-267.5,431.2z"/>
</svg>
