<?xml version="1.0" encoding="utf-8"?>
<!-- Generator: Adobe Illustrator 19.0.0, SVG Export Plug-In . SVG Version: 6.00 Build 0)  -->
<svg version="1.1" id="图层_1" xmlns="http://www.w3.org/2000/svg" xmlns:xlink="http://www.w3.org/1999/xlink" x="0px" y="0px"
	 viewBox="-286 409.9 22 22" style="enable-background:new -286 409.9 22 22;" xml:space="preserve">
<style type="text/css">
	.st0{fill:#7B7B7B;}
</style>
<path class="st0" d="M-280.2,429.8h-3.2c0.3-4.4,4-7.9,8.5-7.9c1.1,0,2.1,0.2,3,0.5l1-1c0,0-0.1,0-0.1-0.1c-0.3-0.1-0.6-0.2-0.8-0.3
	c0.5-0.3,0.9-0.6,1.3-1c1.1-1.1,1.8-2.6,1.8-4.2c0-1.6-0.6-3.1-1.8-4.2c-1.1-1.1-2.6-1.8-4.2-1.8c-1.6,0-3.1,0.6-4.2,1.8
	c-1.1,1.1-1.8,2.6-1.8,4.2c0,1.6,0.6,3.1,1.8,4.2c0.4,0.4,0.8,0.7,1.3,1c-0.3,0.1-0.6,0.2-0.8,0.3c-1.2,0.5-2.2,1.2-3.1,2.1
	c-0.9,0.9-1.6,2-2.1,3.1c-0.5,1.2-0.8,2.5-0.8,3.8c0,0.3,0.3,0.6,0.6,0.6h3.8c0.3,0,0.6-0.3,0.6-0.6S-279.8,429.8-280.2,429.8z
	 M-279.6,415.9c0-2.6,2.1-4.7,4.7-4.7c2.6,0,4.7,2.1,4.7,4.7s-2.1,4.7-4.7,4.7C-277.4,420.6-279.6,418.5-279.6,415.9z M-265.8,426.6
	c-0.4-1.1-1.1-2-1.8-2.8l-0.9,0.9c1.3,1.4,2.1,3.2,2.2,5.2h-3.2c-0.3,0-0.6,0.3-0.6,0.6s0.3,0.6,0.6,0.6h3.8c0.3,0,0.6-0.3,0.6-0.6
	C-265,429.1-265.3,427.8-265.8,426.6z M-268,421.4c-0.2-0.2-0.6-0.2-0.9,0l-6,6l-2.6-2.6c-0.2-0.2-0.6-0.2-0.9,0s-0.2,0.6,0,0.9
	l3.1,3.1c0.1,0.1,0.3,0.2,0.4,0.2s0.3-0.1,0.4-0.2l6.4-6.4C-267.7,422-267.7,421.6-268,421.4z"/>
</svg>
