<?xml version="1.0" encoding="utf-8"?>
<!-- Generator: Adobe Illustrator 19.0.0, SVG Export Plug-In . SVG Version: 6.00 Build 0)  -->
<svg version="1.1" id="图层_1" xmlns="http://www.w3.org/2000/svg" xmlns:xlink="http://www.w3.org/1999/xlink" x="0px" y="0px"
	 viewBox="-286 409.9 22 22" style="enable-background:new -286 409.9 22 22;" xml:space="preserve">
<style type="text/css">
	.st0{fill:#7B7B7B;}
</style>
<path class="st0" d="M-283,431.9c-1.7,0-3-1.3-3-3v-10.4c0-1.7,1.3-3,3-3h0.7c0.1,0,0.2,0.1,0.2,0.2v0.7c0,0.1-0.1,0.2-0.2,0.2h-0.7
	c-1,0-1.8,0.8-1.8,1.8v10.4c0,1,0.8,1.8,1.8,1.8h10.4c1,0,1.8-0.8,1.8-1.8v-0.7c0-0.1,0.1-0.2,0.2-0.2h0.7c0.1,0,0.2,0.1,0.2,0.2
	v0.7c0,1.7-1.3,3-3,3L-283,431.9L-283,431.9z M-277.4,426.3c-1.7,0-3-1.3-3-3v-10.4c0-0.8,0.4-1.5,1-2.1c0.6-0.5,1.4-0.9,2.2-0.9
	h10.4c1.6,0,2.7,1.3,2.7,3v10.4c0,1.7-1.3,3-3,3L-277.4,426.3L-277.4,426.3z M-277.4,411c-1,0-1.8,0.8-1.9,1.8v10.4
	c0,1,0.9,1.8,1.9,1.8h10.4c1,0,1.8-0.8,1.8-1.8v-10.4c0-1-0.8-1.8-1.8-1.8H-277.4z"/>
</svg>
