<?xml version="1.0" standalone="no"?><!DOCTYPE svg PUBLIC "-//W3C//DTD SVG 1.1//EN" "http://www.w3.org/Graphics/SVG/1.1/DTD/svg11.dtd"><svg t="1494580663335" class="icon" style="" viewBox="0 0 1024 1024" version="1.1" xmlns="http://www.w3.org/2000/svg" p-id="3447" xmlns:xlink="http://www.w3.org/1999/xlink" width="18" height="18"><defs><style type="text/css"></style></defs><path d="M932.420235 140.193972L493.949902 49.612954c-8.43409-1.778506-17.413602-0.212848-24.302499 4.163833-6.874571 4.40431-10.902304 11.141758-10.902304 18.274202v879.896998c0 7.937786 4.948709 15.292288 13.109576 19.524683 4.609994 2.412956 9.884115 3.632737 15.17563 3.632737 4.089132 0 8.190543-0.729617 12.008499-2.186806l438.470333-168.214143c9.949606-3.814886 16.282848-11.984962 16.282848-20.970614v-621.095697c0-10.612709-8.797363-19.859303-21.37175-22.444175z m-35.20378 628.817566L515.322675 915.520333V101.771895l381.89378 78.897931v588.341712z m-511.315408 120.208803l-68.599378 26.299992V101.771895l66.209958 13.694907c15.144932 3.094478 30.53648-4.394077 34.351366-16.796548 3.821025-12.406564-5.357008-24.980951-20.50808-28.116362l-101.424993-20.95731c-8.444323-1.730411-17.413602-0.215918-24.302499 4.181229-6.874571 4.40431-10.902304 11.141758-10.902305 18.274202v879.896998c0 7.937786 4.948709 15.292288 13.112646 19.524682 4.605901 2.412956 9.887184 3.632737 15.172561 3.632737 4.092201 0 8.191566-0.729617 12.008498-2.207272l108.899223-41.777498c14.144138-5.415336 20.237927-19.192108 13.605879-30.769795-6.631024-11.580756-23.451108-16.587793-37.622876-11.131524z m-212.137515 5.40101l-54.481845 20.898982V101.771895l55.377238 11.43647c15.130605 3.13541 30.523177-4.383844 34.34011-16.779152 3.817955-12.403494-5.360078-24.988114-20.512173-28.103058L97.908914 49.612954c-8.444323-1.75804-17.410532-0.212848-24.302499 4.163833-6.871501 4.40431-10.902304 11.141758-10.902304 18.274202v879.896998c0 7.937786 4.948709 15.292288 13.112645 19.524683 4.609994 2.412956 9.887184 3.632737 15.172561 3.632737 4.092201 0 8.190543-0.729617 12.025895-2.207272l94.765317-36.356023c14.144138-5.431709 20.237927-19.209504 13.605879-30.79026-6.630001-11.565407-23.465434-16.562211-37.622876-11.130501z" fill="#19ac9e" p-id="3448"></path></svg>