<?xml version="1.0" encoding="utf-8"?>
<!-- Generator: Adobe Illustrator 18.1.0, SVG Export Plug-In . SVG Version: 6.00 Build 0)  -->
<svg version="1.1" id="图层_1" xmlns="http://www.w3.org/2000/svg" xmlns:xlink="http://www.w3.org/1999/xlink" x="0px" y="0px"
	 viewBox="0 0 30 30" enable-background="new 0 0 30 30" xml:space="preserve">
<path fill="#999999" d="M8.6,22.9c0,0.4,0.4,0.7,0.7,0.7c0.4,0,0.6-0.4,0.8-0.7V10.5c0-0.4-0.4-0.7-0.8-0.7s-0.6,0.4-0.7,0.7V22.9z"
	/>
<path fill="#999999" d="M29.4,5.6c0-0.4-0.4-0.7-0.8-0.7l0,0h-7.9V2.4c0-0.7-0.8-1.5-1.5-1.5h-8.6c-0.8,0-1.5,0.7-1.5,1.5l0,0v2.4
	H1.3c-0.4,0-0.8,0.2-0.8,0.7c0,0.4,0.2,0.7,0.8,0.7h0.2h1.9v21.2c0,0.7,0.8,1.5,1.5,1.5h20.6c0.8,0,1.5-0.8,1.5-1.5V6.4h1.9
	C29.1,6.4,29.4,6,29.4,5.6L29.4,5.6z M10.7,2.6h8.6v2.2h-8.6V2.6z M25.3,27.6H4.7V6.4h20.6V27.6z"/>
<path fill="#999999" d="M15,23.6c0.4,0,0.8-0.4,0.8-0.7l0,0V10.5c0-0.4-0.4-0.7-0.8-0.7c-0.4,0-0.6,0.4-0.7,0.7v12.4
	C14.3,23.4,14.6,23.6,15,23.6z M20.6,23.6c0.4,0,0.8-0.4,0.8-0.7l0,0V10.5c0-0.4-0.4-0.7-0.8-0.7c-0.4,0-0.6,0.4-0.8,0.7v12.4
	C19.9,23.4,20.3,23.6,20.6,23.6z"/>
</svg>
