<?xml version="1.0" standalone="no"?><!DOCTYPE svg PUBLIC "-//W3C//DTD SVG 1.1//EN" "http://www.w3.org/Graphics/SVG/1.1/DTD/svg11.dtd"><svg t="1494580878377" class="icon" style="" viewBox="0 0 1024 1024" version="1.1" xmlns="http://www.w3.org/2000/svg" p-id="8230" xmlns:xlink="http://www.w3.org/1999/xlink" width="18" height="18"><defs><style type="text/css"></style></defs><path d="M1011.633 253.716l-241.388-241.349c-12.327-12.288-32.217-12.288-44.544 0l-713.334 713.413c-5.908 5.868-9.216 13.942-9.216 22.252s3.308 16.384 9.216 22.252l241.388 241.31c6.183 6.183 14.218 9.255 22.292 9.255s16.148-3.072 22.292-9.216l713.295-713.334c5.908-5.908 9.216-13.942 9.216-22.292s-3.308-16.345-9.216-22.292zM276.047 944.798l-196.844-196.766 47.577-47.616 60.101 60.101c6.144 6.144 14.218 9.216 22.292 9.216s16.148-3.072 22.292-9.216c12.288-12.327 12.288-32.217 0-44.544l-60.101-60.101 38.951-38.991 60.101 60.101c6.144 6.144 14.218 9.216 22.292 9.216s16.148-3.072 22.292-9.216c12.288-12.327 12.288-32.217 0-44.583l-60.101-60.101 38.951-38.951 115.121 115.121c6.144 6.144 14.218 9.216 22.292 9.216s16.148-3.072 22.292-9.216c12.288-12.327 12.288-32.256 0-44.583l-115.121-115.121 38.951-38.951 60.101 60.101c6.144 6.144 14.218 9.216 22.292 9.216s16.148-3.072 22.292-9.216c12.288-12.327 12.288-32.256 0-44.583l-60.101-60.101 38.991-38.991 60.14 60.14c6.144 6.144 14.257 9.216 22.292 9.216s16.108-3.072 22.252-9.216c12.327-12.327 12.327-32.256 0-44.583l-60.14-60.14 38.991-38.991 115.121 115.161c6.144 6.144 14.178 9.216 22.252 9.216s16.108-3.072 22.252-9.216c12.327-12.327 12.327-32.256 0-44.544l-115.121-115.161 38.991-39.030 60.14 60.14c6.144 6.144 14.178 9.216 22.252 9.216s16.108-3.072 22.252-9.216c12.327-12.327 12.327-32.256 0-44.583l-60.101-60.14 75.303-75.343 196.805 196.805-668.593 668.83z" p-id="8231" fill="#19ac9e"></path></svg>