<?xml version="1.0" encoding="utf-8"?>
<!-- Generator: Adobe Illustrator 19.0.0, SVG Export Plug-In . SVG Version: 6.00 Build 0)  -->
<svg version="1.1" id="图层_1" xmlns="http://www.w3.org/2000/svg" xmlns:xlink="http://www.w3.org/1999/xlink" x="0px" y="0px"
	 viewBox="-286 409.9 22 22" style="enable-background:new -286 409.9 22 22;" xml:space="preserve">
<style type="text/css">
	.st0{fill:#7B7B7B;}
</style>
<path class="st0" d="M-264.9,419.6c0-0.6-0.3-1-0.8-1c-0.5-0.1-2-0.3-2.2-0.4c-0.2,0-0.4-0.2-0.4-0.3c0-0.1-0.2-0.6-0.3-0.7
	c-0.1-0.2,0-0.4,0.1-0.6c0.2-0.2,1-1.4,1.2-1.7c0.2-0.3,0.2-0.9-0.1-1.2c-0.3-0.3-1.2-1.2-1.4-1.4c-0.2-0.2-0.8-0.2-1.1,0
	c-0.3,0.2-1.8,1.3-1.8,1.3s-0.3,0.2-0.5,0.1c-0.3-0.1-0.8-0.4-0.8-0.4s-0.2-0.1-0.2-0.5c-0.1-0.4-0.3-1.6-0.4-2.1
	c-0.1-0.4-0.5-0.7-1-0.7c-0.4,0-1.5,0-1.9,0s-0.8,0.4-0.9,0.7c-0.1,0.3-0.3,1.7-0.4,2.1c-0.1,0.4-0.3,0.5-0.3,0.5s-0.5,0.2-0.8,0.3
	c-0.3,0.1-0.4,0.1-0.8-0.2c-0.4-0.3-1.1-0.8-1.6-1.1c-0.5-0.3-1-0.2-1.2,0.1c-0.3,0.3-0.9,0.9-1.3,1.3c-0.4,0.4-0.3,0.9,0,1.4
	c0.3,0.5,0.8,1.1,1,1.5c0.2,0.3,0.3,0.5,0.2,0.7c-0.1,0.2-0.2,0.4-0.3,0.7c-0.1,0.3-0.2,0.3-0.7,0.4c-0.4,0.1-1.5,0.2-2,0.3
	c-0.5,0.1-0.8,0.5-0.8,1.1v1.6c0,0.6,0.3,0.9,1,1.1c0.6,0.1,1.6,0.3,1.9,0.3c0.3,0,0.4,0.2,0.5,0.4c0.1,0.2,0.1,0.3,0.2,0.6
	c0.1,0.3,0.2,0.4-0.1,0.8c-0.3,0.4-0.9,1.2-1.2,1.6c-0.3,0.4-0.2,1,0.1,1.3c0.3,0.3,0.9,0.9,1.2,1.2c0.3,0.3,0.9,0.4,1.3,0.1
	c0.5-0.3,1.4-1,1.7-1.2c0.3-0.2,0.6-0.1,0.7-0.1c0.1,0.1,0.3,0.1,0.6,0.2c0.3,0.1,0.3,0.3,0.4,0.6c0.1,0.3,0.3,1.4,0.4,2
	c0.1,0.5,0.5,0.8,1,0.8c0.5,0,0.8,0,1.6,0c0.7,0,1.1-0.3,1.1-0.8c0.1-0.5,0.3-1.8,0.4-2.1c0-0.3,0.1-0.4,0.3-0.5
	c0.2-0.1,0.4-0.2,0.7-0.3c0.3-0.1,0.5,0,0.7,0.1c0.2,0.2,1.2,0.9,1.6,1.1c0.4,0.3,0.9,0.3,1.3-0.1c0.4-0.4,0.8-0.8,1.2-1.2
	c0.4-0.4,0.3-1,0.1-1.3c-0.2-0.3-1.1-1.6-1.3-1.8c-0.1-0.2-0.1-0.5,0-0.6c0.1-0.2,0.2-0.5,0.3-0.6c0.1-0.2,0.2-0.3,0.5-0.3
	c0.2,0,1.6-0.3,2.1-0.4c0.5-0.1,0.8-0.5,0.8-1C-264.9,420.7-264.9,420-264.9,419.6z M-265.8,421.2c0,0.1-0.1,0.3-0.2,0.3
	c-0.1,0-1.6,0.3-2.1,0.4c-0.5,0.1-0.8,0.4-1,0.7c-0.1,0.2-0.1,0.3-0.3,0.7c-0.1,0.3-0.1,0.8,0.1,1.1c0.2,0.3,1.2,1.6,1.3,1.8
	c0.1,0.1,0.1,0.3,0,0.4s-1,1-1.2,1.2c-0.2,0.2-0.3,0.1-0.5,0c-0.2-0.1-1-0.7-1.6-1.1c-0.4-0.3-0.8-0.3-1.2-0.2c-0.4,0.2,0,0-0.6,0.2
	s-0.8,0.7-0.8,1.2c-0.1,0.5-0.3,1.6-0.3,1.8c0,0.2-0.1,0.3-0.3,0.3h-1.6c-0.2,0-0.3-0.1-0.4-0.3c-0.1-0.2-0.3-1.4-0.3-1.9
	c-0.1-0.5-0.3-0.9-0.6-1c-0.3-0.1-0.1-0.1-0.7-0.3c-0.6-0.2-1-0.1-1.3,0.1c-0.3,0.2-1.5,1.1-1.6,1.2c-0.2,0.1-0.4,0.1-0.5,0
	s-1-1-1.2-1.2s-0.1-0.3,0-0.5c0.1-0.2,0.7-1,1-1.5c0.3-0.4,0.5-0.9,0.2-1.3c-0.2-0.5-0.1-0.3-0.3-0.7c-0.2-0.5-0.6-0.6-1-0.7
	c-0.4-0.1-1.7-0.3-1.9-0.3c-0.2,0-0.3-0.2-0.3-0.4v-1.7c0-0.2,0.2-0.3,0.3-0.3c0.1,0,1.4-0.2,1.8-0.3c0.5-0.1,0.9-0.3,1.1-0.7
	c0.2-0.4,0.1-0.3,0.3-0.7c0.2-0.4,0.1-0.9-0.2-1.3c-0.3-0.4-1-1.4-1.1-1.6c-0.1-0.2-0.1-0.3,0-0.5c0.2-0.2,1.1-1.1,1.2-1.2
	c0.1-0.1,0.3-0.1,0.5,0c0.2,0.1,1.2,0.9,1.6,1.2c0.4,0.3,0.8,0.3,1.2,0.1c0.4-0.2,0.3-0.1,0.7-0.3c0.4-0.2,0.6-0.5,0.7-1
	c0.1-0.5,0.3-1.9,0.3-2c0-0.1,0.1-0.3,0.3-0.3c0.2,0,1.7,0,1.8,0c0.1,0,0.3,0.1,0.3,0.2c0,0.1,0.3,1.9,0.4,2.2
	c0,0.3,0.4,0.7,0.6,0.8s0.5,0.2,0.8,0.3c0.3,0.1,0.8,0,0.9-0.1c0.2-0.1,1.8-1.2,1.9-1.3c0.1-0.1,0.3-0.1,0.4,0.1
	c0.2,0.2,1.1,1.1,1.2,1.2c0.1,0.1,0.1,0.2,0,0.3c-0.1,0.1-0.9,1.3-1.2,1.7c-0.3,0.4-0.3,0.8-0.1,1.2c0.2,0.4,0.1,0.2,0.2,0.6
	c0.1,0.3,0.4,0.7,0.8,0.8c0.4,0.1,1.9,0.3,2.1,0.4c0.2,0,0.3,0.2,0.3,0.3C-265.8,419.7-265.8,421.1-265.8,421.2z"/>
<path class="st0" d="M-275.4,415.3c-2.8,0-5,2.3-5,5s2.3,5,5,5c2.8,0,5-2.3,5-5S-272.6,415.3-275.4,415.3z M-275.4,424.5
	c-2.3,0-4.2-1.9-4.2-4.2s1.9-4.2,4.2-4.2c2.3,0,4.2,1.9,4.2,4.2S-273.1,424.5-275.4,424.5z"/>
</svg>
