<?xml version="1.0" encoding="utf-8"?>
<!-- Generator: Adobe Illustrator 19.0.0, SVG Export Plug-In . SVG Version: 6.00 Build 0)  -->
<svg version="1.1" id="图层_1" xmlns="http://www.w3.org/2000/svg" xmlns:xlink="http://www.w3.org/1999/xlink" x="0px" y="0px"
	 viewBox="-286 409.9 22 22" style="enable-background:new -286 409.9 22 22;" xml:space="preserve">
<style type="text/css">
	.st0{fill:#7B7B7B;}
</style>
<path class="st0" d="M-275,431.4c-1.5,0-2.9-0.3-4.3-0.8c-1.3-0.5-2.5-1.3-3.5-2.2c-1-1-1.8-2.1-2.4-3.3c-0.6-1.3-0.9-2.7-0.9-4.1
	c0-1.8,0.5-3.6,1.4-5.1c0.9-1.5,2.2-2.8,3.7-3.7c0.3-0.2,0.8-0.1,1,0.2c0.2,0.3,0.1,0.8-0.2,1c-1.3,0.8-2.4,1.9-3.2,3.2
	c-0.8,1.3-1.2,2.9-1.2,4.4c0,2.4,1,4.7,2.8,6.4c1.8,1.7,4.2,2.7,6.8,2.7s5-0.9,6.8-2.7c1.8-1.7,2.8-4,2.8-6.4c0-3.1-1.6-5.9-4.3-7.6
	c-0.3-0.2-0.4-0.7-0.2-1s0.7-0.4,1-0.2c1.5,0.9,2.8,2.2,3.6,3.7c0.9,1.6,1.4,3.3,1.4,5.1c0,1.4-0.3,2.8-0.9,4.1
	c-0.6,1.3-1.4,2.4-2.4,3.3c-1,1-2.2,1.7-3.5,2.2C-272.1,431.2-273.5,431.4-275,431.4z M-275,422.2c-0.4,0-0.7-0.3-0.7-0.7v-10.4
	c0-0.4,0.3-0.7,0.7-0.7c0.4,0,0.7,0.3,0.7,0.7v10.4C-274.3,421.9-274.6,422.2-275,422.2z"/>
</svg>
