<?xml version="1.0" standalone="no"?><!DOCTYPE svg PUBLIC "-//W3C//DTD SVG 1.1//EN" "http://www.w3.org/Graphics/SVG/1.1/DTD/svg11.dtd"><svg t="1499137951751" class="icon" style="" viewBox="0 0 1024 1024" version="1.1" xmlns="http://www.w3.org/2000/svg" p-id="11911" xmlns:xlink="http://www.w3.org/1999/xlink" width="18" height="18"><defs><style type="text/css"></style></defs><path d="M534.528 67.584c-18.432-8.192-39.936-5.12-55.296 7.168L226.304 286.72 73.728 286.72c-28.672 0-52.224 23.552-52.224 52.224l0 345.088c0 28.672 23.552 52.224 52.224 52.224l175.104 0 0-64.512-163.84 0L84.992 351.232l163.84 0 250.88-210.944 0 743.424L248.832 672.768l-40.96 49.152 270.336 227.328c9.216 8.192 21.504 12.288 33.792 12.288 8.192 0 15.36-2.048 22.528-5.12 18.432-8.192 30.72-26.624 30.72-47.104L565.248 114.688C564.224 94.208 552.96 75.776 534.528 67.584L534.528 67.584zM534.528 67.584" p-id="11912" fill="#999999"></path><path d="M690.176 253.952l-40.96 49.152c62.464 52.224 98.304 130.048 98.304 211.968 0 78.848-33.792 153.6-92.16 206.848l43.008 48.128c72.704-64.512 113.664-157.696 113.664-254.976C812.032 414.72 768 319.488 690.176 253.952L690.176 253.952zM690.176 253.952" p-id="11913" fill="#999999"></path><path d="M798.72 156.672l-32.768 55.296C872.448 274.432 939.008 389.12 939.008 512c0 122.88-65.536 237.568-171.008 300.032l32.768 55.296C925.696 793.6 1002.496 657.408 1002.496 512 1002.496 366.592 924.672 230.4 798.72 156.672L798.72 156.672zM798.72 156.672" p-id="11914" fill="#999999"></path></svg>