<?xml version="1.0" standalone="no"?><!DOCTYPE svg PUBLIC "-//W3C//DTD SVG 1.1//EN" "http://www.w3.org/Graphics/SVG/1.1/DTD/svg11.dtd"><svg t="1526027301544" class="icon" style="" viewBox="0 0 1024 1024" version="1.1" xmlns="http://www.w3.org/2000/svg" p-id="8339" xmlns:xlink="http://www.w3.org/1999/xlink" width="16" height="16"><defs><style type="text/css"></style></defs><path d="M56.889 56.889V967.11H967.11V56.89H56.89z m56.889 227.555h227.555v170.667H113.778V284.444z m512 170.667H398.222V284.444h227.556v170.667z m0 56.889v170.667H398.222V512h227.556z m-512 0h227.555v170.667H113.778V512z m0 398.222V739.556h227.555v170.666H113.778z m284.444 0V739.556h227.556v170.666H398.222z m512 0H682.667V739.556h227.555v170.666z m0-227.555H682.667V512h227.555v170.667z m0-227.556H682.667V284.444h227.555v170.667zM113.778 227.556V113.778h796.444v113.778H113.778z" p-id="8340" fill="#999999"></path></svg>