<?xml version="1.0" encoding="utf-8"?>
<!-- Generator: Adobe Illustrator 18.1.0, SVG Export Plug-In . SVG Version: 6.00 Build 0)  -->
<svg version="1.1" id="图层_1" xmlns="http://www.w3.org/2000/svg" xmlns:xlink="http://www.w3.org/1999/xlink" x="0px" y="0px"
	 viewBox="0 0 20 20" enable-background="new 0 0 20 20" xml:space="preserve">
<path fill="#E49421" d="M20,10.6V1.8c0-0.2-0.1-0.5-0.5-0.6c-0.3-0.1-0.6-0.1-0.9,0C17.5,1.7,16.1,2,14.9,2c-2,0-2.9-0.4-4-0.9
	C9.4,0.4,7.7,0,6,0.1c-1.2,0-2.6,0.1-3.7,0.6L2,0.9L1.9,0.6C1.7,0.2,1.1,0,0.7,0.2C0.3,0.4,0,0.6,0,1v18.2c0,0.4,0.5,0.7,0.9,0.7
	s0.9-0.4,0.9-0.7l0,0v-8.1H2c1.2-0.5,2.4-0.9,3.8-0.7c2,0,2.9,0.4,4,0.9c1.5,0.7,3.2,1.1,4.9,1c1.5,0,3.2-0.2,4.6-0.9
	C19.7,11.1,20,10.8,20,10.6L20,10.6z M18.1,10.2H18c-0.9,0.4-2,0.5-3.1,0.5c-2,0-2.9-0.4-4-0.9C9.4,9.1,7.7,8.7,6,8.8
	C4.8,8.8,3.6,9,2.3,9.3L2,9.5V2.3h0.1C3.4,1.8,4.6,1.5,6,1.6c2,0,2.9,0.4,4,0.9c1.5,0.7,3.2,1.1,4.9,1c0.9,0,2-0.1,2.9-0.4l0.3-0.1
	L18.1,10.2L18.1,10.2z"/>
</svg>
