<?xml version="1.0" encoding="utf-8"?>
<!-- Generator: Adobe Illustrator 18.1.0, SVG Export Plug-In . SVG Version: 6.00 Build 0)  -->
<svg version="1.1" id="图层_1" xmlns="http://www.w3.org/2000/svg" xmlns:xlink="http://www.w3.org/1999/xlink" x="0px" y="0px"
	 viewBox="-7 9 14 14" enable-background="new -7 9 14 14" xml:space="preserve">
<path fill="#E6A629" stroke="#E6A629" stroke-width="0.5" stroke-miterlimit="10" d="M5.1,15.7c-0.2,0-0.3,0.1-0.3,0.3l0,0v4.8
	c0,0.5-0.4,0.9-0.9,0.9H2.6v-4.3c0-0.2-0.1-0.3-0.3-0.3c0,0,0,0,0,0h-4.5c-0.2,0-0.3,0.1-0.3,0.3l0,0v4.3h-1.3
	c-0.5,0-0.9-0.4-0.9-0.9V16c0-0.2-0.1-0.3-0.3-0.3c-0.2,0-0.3,0.1-0.3,0.3v4.8c0,0.9,0.7,1.6,1.6,1.6h7.7c0.9,0,1.6-0.7,1.6-1.6V16
	C5.4,15.8,5.3,15.7,5.1,15.7z M-1.9,21.8v-4h3.8v4H-1.9z M6.7,12.6L5.6,9.8C5.6,9.7,5.4,9.6,5.3,9.6H-5.3c-0.1,0-0.3,0.1-0.3,0.2
	l-1.1,2.8c0,0,0,0.1,0,0.1c0,1.1,0.9,1.9,1.9,1.9c0.6,0,1.2-0.3,1.6-0.9c0.6,0.9,1.8,1.1,2.7,0.5c0.2-0.1,0.4-0.3,0.5-0.5
	c0.6,0.9,1.8,1.1,2.7,0.5c0.2-0.1,0.4-0.3,0.5-0.5C3.8,14.7,5,15,5.9,14.4c0.5-0.4,0.9-1,0.9-1.6C6.8,12.7,6.8,12.7,6.7,12.6z
	 M4.8,14c-0.7,0-1.3-0.6-1.3-1.3c0-0.2-0.1-0.3-0.3-0.3c-0.2,0-0.3,0.1-0.3,0.3c0,0,0,0,0,0c0,0.7-0.6,1.3-1.3,1.3
	c-0.7,0-1.3-0.6-1.3-1.3c0,0,0,0,0,0c0-0.2-0.1-0.3-0.3-0.3c-0.2,0-0.3,0.1-0.3,0.3c0,0.7-0.5,1.3-1.2,1.3c-0.7,0-1.3-0.5-1.3-1.2
	c0,0,0-0.1,0-0.1c0-0.2-0.1-0.3-0.3-0.3c-0.2,0-0.3,0.1-0.3,0.3c0,0.7-0.6,1.3-1.3,1.3c-0.7,0-1.2-0.5-1.3-1.2l1-2.6H5.1l1,2.6
	C6.1,13.5,5.5,14,4.8,14z"/>
</svg>
