<?xml version="1.0" encoding="utf-8"?>
<!-- Generator: Adobe Illustrator 19.0.0, SVG Export Plug-In . SVG Version: 6.00 Build 0)  -->
<svg version="1.1" id="图层_1" xmlns="http://www.w3.org/2000/svg" xmlns:xlink="http://www.w3.org/1999/xlink" x="0px" y="0px"
	 viewBox="-286 409.9 22 22" style="enable-background:new -286 409.9 22 22;" xml:space="preserve">
<style type="text/css">
	.st0{fill:#7B7B7B;}
</style>
<path class="st0" d="M-265.2,410.6c0,0.4-0.3,0.7-0.7,0.7h-19.2c-0.4,0-0.7-0.3-0.7-0.7l0,0c0-0.4,0.3-0.7,0.7-0.7h19.2
	C-265.5,409.9-265.2,410.2-265.2,410.6L-265.2,410.6z"/>
<path class="st0" d="M-265.1,423.9l-9.9-9.9c-0.1-0.1-0.3-0.2-0.4-0.2c0,0,0,0,0,0c0,0,0,0,0,0c-0.2,0-0.3,0-0.4,0.2l-9.9,9.9
	c-0.2,0.2-0.2,0.6,0,0.9c0.2,0.2,0.6,0.3,0.9,0l8.8-8.8c0,0,0,0,0,0v15.3c0,0.4,0.3,0.6,0.6,0.6s0.6-0.3,0.6-0.6V416v0l8.8,8.8
	c0.2,0.2,0.6,0.2,0.9,0C-264.9,424.6-264.9,424.2-265.1,423.9z M-275.5,415.4C-275.5,415.4-275.5,415.4-275.5,415.4L-275.5,415.4
	L-275.5,415.4C-275.5,415.4-275.5,415.4-275.5,415.4z"/>
</svg>
