<?xml version="1.0" standalone="no"?><!DOCTYPE svg PUBLIC "-//W3C//DTD SVG 1.1//EN" "http://www.w3.org/Graphics/SVG/1.1/DTD/svg11.dtd"><svg t="1493915964283" class="icon" style="" viewBox="0 0 1024 1024" version="1.1" xmlns="http://www.w3.org/2000/svg" p-id="13868" xmlns:xlink="http://www.w3.org/1999/xlink" width="200" height="200"><defs><style type="text/css"></style></defs><path d="M93.090909 931.320553C93.090909 931.135302 931.320832 930.909091 931.320832 930.909091 931.135116 930.909091 930.909091 92.679447 930.909091 92.679447 930.909091 92.864698 92.679168 93.090909 92.679168 93.090909 92.864884 93.090909 93.090909 931.320553 93.090909 931.320553ZM92.679168 0 931.320832 0C982.506124 0 1024 41.41056 1024 92.679447L1024 931.320553C1024 982.505658 982.589719 1024 931.320832 1024L92.679168 1024C41.493876 1024 0 982.58944 0 931.320553L0 92.679447C0 41.494342 41.410281 0 92.679168 0ZM186.181818 512C186.181818 486.293876 207.86297 465.454545 233.045923 465.454545L790.954077 465.454545C816.836422 465.454545 837.818182 487.04512 837.818182 512L837.818182 512C837.818182 537.706124 816.13703 558.545455 790.954077 558.545455L233.045923 558.545455C207.163578 558.545455 186.181818 536.95488 186.181818 512L186.181818 512ZM512 186.181818C537.70631 186.181818 558.545455 207.862691 558.545455 233.045644L558.545455 790.954356C558.545455 816.836422 536.954508 837.818182 512 837.818182L512 837.818182C486.29369 837.818182 465.454545 816.137309 465.454545 790.954356L465.454545 233.045644C465.454545 207.163578 487.045492 186.181818 512 186.181818L512 186.181818Z" p-id="13869"></path></svg>