<?xml version="1.0" encoding="utf-8"?>
<!-- Generator: Adobe Illustrator 18.1.0, SVG Export Plug-In . SVG Version: 6.00 Build 0)  -->
<svg version="1.1" id="图层_1" xmlns="http://www.w3.org/2000/svg" xmlns:xlink="http://www.w3.org/1999/xlink" x="0px" y="0px"
	 viewBox="-6 8 16 16" enable-background="new -6 8 16 16" xml:space="preserve">
<path fill="#19AC9E" d="M8.4,10.6c0,0.8-0.7,1.4-1.5,1.4c-0.8,0-1.5-0.6-1.5-1.4c0-0.8,0.7-1.4,1.5-1.4C7.7,9.2,8.4,9.9,8.4,10.6z
	 M6.9,14.6c0.8,0,1.5,0.6,1.5,1.4c0,0.8-0.7,1.4-1.5,1.4c-0.8,0-1.5-0.6-1.5-1.4C5.4,15.2,6,14.6,6.9,14.6z M-2.9,17.4
	c-0.8,0-1.5-0.6-1.5-1.4c0-0.8,0.7-1.4,1.5-1.4c0.8,0,1.5,0.6,1.5,1.4C-1.4,16.8-2,17.4-2.9,17.4z M6.9,20c0.8,0,1.5,0.6,1.5,1.4
	c0,0.8-0.7,1.4-1.5,1.4c-0.8,0-1.5-0.6-1.5-1.4C5.4,20.6,6,20,6.9,20z M4.6,10.3c0,0-0.1,0-0.2,0H1.6c-0.1,0-0.2,0-0.3,0.1
	c-0.1,0.1-0.1,0.2-0.1,0.3v4.9h-1.7c-0.1,0-0.1,0-0.2,0c-0.2-1-1.1-1.8-2.3-1.8c-1.3,0-2.3,1-2.3,2.2c0,1.2,1,2.2,2.3,2.2
	c1.1,0,2.1-0.8,2.3-1.8c0,0,0.1,0,0.2,0h1.7v4.9c0,0.1,0,0.2,0.1,0.3c0.1,0.1,0.2,0.1,0.3,0.1v0l2.8,0c0.1,0,0.1,0,0.2,0
	c0.2,1,1.1,1.8,2.3,1.8c1.3,0,2.3-1,2.3-2.2c0-1.2-1-2.2-2.3-2.2c-1.1,0-2,0.7-2.2,1.7c-0.1,0-0.1,0-0.2,0H2.1v-4.5h2.4
	c0.1,0,0.1,0,0.2,0c0.2,1,1.1,1.8,2.3,1.8c1.3,0,2.3-1,2.3-2.2c0-1.2-1-2.2-2.3-2.2c-1.1,0-2.1,0.8-2.3,1.8c0,0-0.1,0-0.2,0H2.1
	v-4.5h2.4c0.1,0,0.1,0,0.2,0c0.2,1,1.1,1.7,2.2,1.7c1.3,0,2.3-1,2.3-2.2c0-1.2-1-2.2-2.3-2.2C5.7,8.5,4.8,9.3,4.6,10.3z"/>
</svg>
