<?xml version="1.0" standalone="no"?><!DOCTYPE svg PUBLIC "-//W3C//DTD SVG 1.1//EN" "http://www.w3.org/Graphics/SVG/1.1/DTD/svg11.dtd"><svg t="1493954123365" class="icon" style="" viewBox="0 0 1024 1024" version="1.1" xmlns="http://www.w3.org/2000/svg" p-id="6645" xmlns:xlink="http://www.w3.org/1999/xlink" width="13" height="13"><defs><style type="text/css"></style></defs><path d="M938.564677 674.864298c-17.494443-6.970762-50.019207 4.588505-56.662511 21.329794-57.777915 145.668661-195.888436 239.792365-351.854627 239.792365-208.768791 0-378.60999-170.817434-378.60999-380.744607 0-209.945593 169.8412-380.742561 378.60999-380.742561 70.90284 0 139.999544 19.808138 199.849654 57.290821 1.119497 0.690732 2.317789 1.158383 3.475148 1.706875l-99.30368 35.979446c-16.84362 6.094812-28.03859 34.619472-21.964244 51.541887 4.77577 13.286608 24.604374 26.493397 37.871539 26.493397 3.654226 0 12.290931-0.63138 15.926738-1.951445l182.092221-80.756255c8.492418-3.089361 15.462157-9.447163 19.299555-17.675568 3.840468-8.228405 4.287653-17.674545 1.218758-26.228361L803.747155 40.168862c-6.399757-17.838274-22.246677-41.829687-48.595788-37.868469-18.628266 2.803859-31.835056 28.544103-25.435299 46.381353l35.898605 100.178607c-72.305793-43.638893-155.01247-66.86078-239.851717-66.86078-257.404488 0-466.803635 210.576973-466.803635 469.424322 0 258.866792 209.399147 469.463208 466.803635 469.463208 192.290491 0 362.559433-116.04497 433.787684-295.639301C966.538799 707.633632 956.057073 681.893388 938.564677 674.864298z" p-id="6646" fill="#999999"></path></svg>