<?xml version="1.0" encoding="utf-8"?>
<!-- Generator: Adobe Illustrator 19.0.0, SVG Export Plug-In . SVG Version: 6.00 Build 0)  -->
<svg version="1.1" id="图层_1" xmlns="http://www.w3.org/2000/svg" xmlns:xlink="http://www.w3.org/1999/xlink" x="0px" y="0px"
	 viewBox="-286 409.9 22 22" style="enable-background:new -286 409.9 22 22;" xml:space="preserve">
<style type="text/css">
	.st0{fill:#7B7B7B;}
</style>
<path class="st0" d="M-264.2,422l-6.3,6c-0.1,0.1-0.2,0.1-0.3,0.1c-0.1,0-0.2,0-0.3-0.1l-2.7-2.5c-0.2-0.2-0.2-0.5,0-0.7
	c0.2-0.2,0.5-0.2,0.7,0l2.3,2.2l6-5.7c0.2-0.2,0.5-0.2,0.7,0C-264,421.5-264,421.8-264.2,422z M-275.1,417.6c1.8,0,3.3,1.5,3.3,3.3
	s-1.5,3.3-3.3,3.3s-3.3-1.5-3.3-3.3C-278.4,419-276.9,417.6-275.1,417.6z M-275.1,418.4c-1.3,0-2.4,1.1-2.4,2.4s1.1,2.4,2.4,2.4
	s2.4-1.1,2.4-2.4S-273.8,418.4-275.1,418.4z M-274.9,426.4c-1.3,0-2.6-0.3-4-0.8c-1.1-0.4-2.2-1.1-3.2-1.8c-1.5-1.1-2.6-2.4-2.9-2.9
	c0,0,0,0,0-0.1c0,0,0,0,0,0c0,0,0,0,0,0c0.3-0.4,1.4-1.6,3-2.8c1.1-0.8,2.2-1.4,3.2-1.8c1.4-0.6,2.7-0.8,4-0.8c1.3,0,2.6,0.3,4,0.8
	c1.1,0.4,2.2,1.1,3.2,1.8c0.7,0.5,1.3,1,1.9,1.6c0.2,0.2,0.5,0.2,0.6,0c0.2-0.2,0.2-0.5,0-0.6c-0.6-0.6-1.3-1.2-2-1.7
	c-1.1-0.8-2.3-1.5-3.4-1.9c-1.5-0.6-2.9-0.9-4.3-0.9s-2.9,0.3-4.3,0.9c-1.1,0.5-2.3,1.1-3.4,1.9c-1.6,1.2-2.7,2.4-3.1,2.9l0,0
	c-0.3,0.3-0.3,0.8,0,1.1c0,0,0,0,0,0c0.4,0.5,1.5,1.9,3.1,3.1c1.1,0.8,2.3,1.5,3.4,1.9c1.5,0.6,2.9,0.9,4.3,0.9
	c0.2,0,0.4-0.2,0.4-0.4C-274.4,426.6-274.6,426.4-274.9,426.4z"/>
</svg>
