<?xml version="1.0" encoding="utf-8"?>
<!-- Generator: Adobe Illustrator 19.0.0, SVG Export Plug-In . SVG Version: 6.00 Build 0)  -->
<svg version="1.1" id="图层_1" xmlns="http://www.w3.org/2000/svg" xmlns:xlink="http://www.w3.org/1999/xlink" x="0px" y="0px"
	 viewBox="-287.4 408.8 26 23.1" style="enable-background:new -287.4 408.8 26 23.1;" xml:space="preserve">
<style type="text/css">
	.st0{fill:#7B7B7B;}
</style>
<path class="st0" d="M-272.7,416.5l0.6-0.6l1.8-1.8l2.3,2.3l-4.4,4.4l0.5,0.5l4.7-4.7l0.3-0.3l-0.3-0.3l-2.9-2.9l-0.3-0.3l-0.3,0.3
	l-2.1,2.1l-0.6,0.6l-2,2l0.5,0.5L-272.7,416.5z"/>
<path class="st0" d="M-282.6,425.4l2.9,2.9l0.3,0.3l0.3-0.3l4.3-4.3l-0.5-0.5l-4,4l-2.3-2.3l1.6-1.6l0.5-0.5l1.9-1.9l-0.5-0.5
	l-1.9,1.9l-0.5,0.5l-1.9,1.9l-0.3,0.3L-282.6,425.4z"/>
<path class="st0" d="M-272.1,424.3c0.1,0.1,0.4,0.1,0.5,0c0.1-0.1,0.1-0.4,0-0.5l-6.1-6.1c-0.1-0.1-0.4-0.1-0.5,0s-0.1,0.4,0,0.5
	L-272.1,424.3z"/>
<path class="st0" d="M-286,409.9v22h22v-22H-286z M-264.7,431.2h-20.5v-20.5h20.5V431.2z"/>
</svg>
