<?xml version="1.0" encoding="utf-8"?>
<!-- Generator: Adobe Illustrator 18.1.0, SVG Export Plug-In . SVG Version: 6.00 Build 0)  -->
<svg version="1.1" id="图层_1" xmlns="http://www.w3.org/2000/svg" xmlns:xlink="http://www.w3.org/1999/xlink" x="0px" y="0px"
	 viewBox="0 0 30 30" enable-background="new 0 0 30 30" xml:space="preserve">
<path fill="#19AC9E" d="M2.8,2.2h15.7l3.8,3.8v4.5h1.4V5.3l0,0l-4.5-4.5l0,0l0,0H2.9H1.5v1.4v23.5v1.7h1.4h7v-1.7h-7V2.2H2.8z"/>
<path fill="#19AC9E" d="M6.6,7.2h10.7v1.4H6.6V7.2z"/>
<path fill="#19AC9E" d="M6.9,13.6h4.5V15H6.9V13.6z"/>
<path fill="#19AC9E" d="M6.9,20.1h3.2v1.4H6.9V20.1z"/>
<path fill="#19AC9E" d="M24.4,24.2c1-1.1,1.8-2.9,1.8-4.6c0-3.8-3.1-6.9-6.9-6.9s-6.9,3.1-6.9,6.9s3.1,6.9,6.9,6.9
	c1.5,0,3.1-0.6,4.2-1.5l4.1,4.2l0.9-0.9L24.4,24.2z M19.4,25.2c-2.9,0-5.7-2.8-5.7-5.7s2.8-5.7,5.7-5.7s5.7,2.8,5.7,5.7
	C25.1,22.5,22.3,25.2,19.4,25.2z"/>
</svg>
