<?xml version="1.0" encoding="utf-8"?>
<!-- Generator: Adobe Illustrator 19.0.0, SVG Export Plug-In . SVG Version: 6.00 Build 0)  -->
<svg version="1.1" id="图层_1" xmlns="http://www.w3.org/2000/svg" xmlns:xlink="http://www.w3.org/1999/xlink" x="0px" y="0px"
	 viewBox="-286 409.9 23.5 22.8" style="enable-background:new -286 409.9 23.5 22.8;" xml:space="preserve">
<style type="text/css">
	.st0{fill:#7B7B7B;}
</style>
<path class="st0" d="M-283.2,411.7h12.3l3,3v3.5h1.1v-4.1h0l-3.5-3.5l0,0v0h-12.8h-1.1v1.1v18.4v1.3h1.1h5.5v-1.3h-5.5V411.7z"/>
<path class="st0" d="M-280.2,415.6h8.4v1.1h-8.4V415.6z"/>
<path class="st0" d="M-280,420.6h3.5v1.1h-3.5V420.6z"/>
<path class="st0" d="M-280,425.7h2.5v1.1h-2.5V425.7z"/>
<path class="st0" d="M-266.3,428.9c0.8-0.9,1.4-2.3,1.4-3.6c0-3-2.4-5.4-5.4-5.4s-5.4,2.4-5.4,5.4s2.4,5.4,5.4,5.4
	c1.2,0,2.4-0.5,3.3-1.2l3.2,3.3l0.7-0.7L-266.3,428.9z M-270.2,429.7c-2.3,0-4.5-2.2-4.5-4.5c0-2.3,2.2-4.5,4.5-4.5
	c2.3,0,4.5,2.2,4.5,4.5C-265.7,427.6-267.9,429.7-270.2,429.7z"/>
</svg>
