<?xml version="1.0" encoding="utf-8"?>
<!-- Generator: Adobe Illustrator 18.1.0, SVG Export Plug-In . SVG Version: 6.00 Build 0)  -->
<svg version="1.1" id="图层_1" xmlns="http://www.w3.org/2000/svg" xmlns:xlink="http://www.w3.org/1999/xlink" x="0px" y="0px"
	 viewBox="-6 8 16 16" enable-background="new -6 8 16 16" xml:space="preserve">
<path fill="#19AC9E" d="M2.1,15c1.1,0,1.9-0.9,1.9-1.9c0-1-0.9-1.9-1.9-1.9c-1.1,0-1.9,0.9-1.9,1.9C0.2,14.1,1.1,15,2.1,15z
	 M2.1,12.1c0.5,0,1,0.5,1,1c0,0.5-0.4,1-1,1c-0.5,0-1-0.4-1-1C1.2,12.6,1.6,12.1,2.1,12.1z M0.3,17.9C0.3,17.9,0.3,17.9,0.3,17.9
	c0.7,0.9,1.4,1.4,1.4,1.5l0.5,0.4l0.5-0.4c0,0,0.7-0.6,1.3-1.4c0,0,0.1-0.1,0.1-0.1c0.9-1.2,2.1-3,2.4-4.6c0.1-0.4,0.1-0.6,0.1-0.6
	c0-1.2-0.4-2.2-1.3-3c-0.8-0.8-1.9-1.2-3-1.2c-1.1,0-2.2,0.4-3,1.2c-0.8,0.8-1.3,1.9-1.3,3.1c0,0,0,0.2,0.1,0.6
	C-1.8,14.9-0.5,16.8,0.3,17.9z M2.1,9.6c1.8,0,3.2,1.4,3.2,3.2c0,0,0,0.2,0,0.4c-0.2,1.2-1.2,2.8-2,3.8c0,0,0,0,0,0
	c-0.6,0.7-1.1,1.2-1.1,1.2S1.6,17.8,1,17.1c0,0,0,0,0,0c-0.8-1-1.8-2.6-2-3.8c0-0.3,0-0.4,0-0.4C-1.1,11.1,0.4,9.6,2.1,9.6z
	 M-2.5,23.6H8.1c0.9,0,1.7-0.7,1.7-1.6c0-0.9-0.8-1.6-1.7-1.6H-4c-0.3,0-0.6-0.2-0.6-0.5c0-0.3,0.3-0.5,0.6-0.5h1.9
	c0.3,0,0.5-0.2,0.5-0.5c0-0.3-0.2-0.5-0.5-0.5H-4c-0.9,0-1.7,0.7-1.7,1.6c0,0.9,0.8,1.6,1.7,1.6H8.1c0.3,0,0.6,0.2,0.6,0.5
	c0,0.3-0.3,0.5-0.6,0.5H-2.5C-2.8,22.5-3,22.7-3,23C-3,23.3-2.8,23.6-2.5,23.6z"/>
</svg>
