<?xml version="1.0" standalone="no"?><!DOCTYPE svg PUBLIC "-//W3C//DTD SVG 1.1//EN" "http://www.w3.org/Graphics/SVG/1.1/DTD/svg11.dtd"><svg t="1501828195995" class="icon" style="" viewBox="0 0 1024 1024" version="1.1" xmlns="http://www.w3.org/2000/svg" p-id="13445" xmlns:xlink="http://www.w3.org/1999/xlink" width="16" height="16"><defs><style type="text/css"></style></defs><path d="M521.504 446.784c68.672 0 124.544-54.48 124.544-121.552 0-67.056-55.872-121.536-124.544-121.536-68.624 0-124.528 54.48-124.528 121.536-0.016 67.072 55.872 121.552 124.528 121.552z m0-183.392a62.56 62.56 0 0 1 0 125.104 62.56 62.56 0 0 1-62.496-62.544c0-34.56 28-62.56 62.496-62.56z m-120.528 367.264c1.792 2.56 3.568 4.672 5.008 6.16 42 51.248 84.352 85.36 86.208 86.8l29.504 23.664 29.36-23.84c1.84-1.44 44.048-35.968 85.984-87.056 1.44-1.536 3.264-3.616 5.024-6.272 59.984-78.72 134.512-192.752 151.392-291.472 3.248-22.512 3.344-36.144 3.344-37.632 0.544-73.776-28.64-143.12-82.176-195.008-51.84-50.288-120.448-77.952-193.136-77.952a275.184 275.184 0 0 0-192.624 77.952c-53.84 52.16-83.2 121.856-82.672 196.176 0 1.2 0.096 14.864 3.232 36.288 18.096 105.648 102.24 227.792 151.552 292.192z m120.528-525.776c113.52 0 206.4 91.456 205.6 205.056 0 0 0 10.256-2.48 27.28-13.584 79.568-77.68 178.064-129.056 245.36-0.432 0.848-1.248 1.584-1.664 2-35.776 43.904-72.384 73.616-72.384 73.616s-36.592-29.312-72.336-73.2a9.648 9.648 0 0 1-1.664-2c-51.392-66.88-115.52-165.808-129.072-245.008-2.464-17.008-2.464-27.296-2.464-27.296-0.864-113.616 92.048-205.808 205.52-205.808zM224.624 995.952h679.616c58.448 0 106.928-44.752 106.928-101.328 0-56.592-48.464-101.36-106.928-101.36H127.52c-21.952 0-38.72-15.488-38.72-33.152 0-17.696 16.768-33.168 38.72-33.168h121.36a34.08 34.08 0 1 0 0-68.192H127.52c-58.464 0-106.896 44.768-106.896 101.36 0 56.608 48.432 101.344 106.896 101.344h776.72c21.968 0 38.736 15.504 38.736 33.168 0 17.68-16.768 33.136-38.736 33.136H224.624a34.08 34.08 0 0 0 0 68.192z" fill="#999999" p-id="13446"></path></svg>