<?xml version="1.0" standalone="no"?><!DOCTYPE svg PUBLIC "-//W3C//DTD SVG 1.1//EN" "http://www.w3.org/Graphics/SVG/1.1/DTD/svg11.dtd"><svg t="1503558292565" class="icon" style="" viewBox="0 0 1024 1024" version="1.1" xmlns="http://www.w3.org/2000/svg" p-id="1830" xmlns:xlink="http://www.w3.org/1999/xlink" width="16" height="16"><defs><style type="text/css"></style></defs><path d="M746.3013 656.0273c0 0-14.2549 18.8622-33.3428 37.3497l219.773 215.354 36.4768-34.1019L746.3013 656.0273zM824.3495 422.5726c0 213.7901-164.6831 374.2772-368.8031 374.2772C242.705 793.761 88.3684 626.1566 88.3684 422.8624c0-196.3739 166.1232-361.9626 367.1781-361.9626C659.6664 60.8998 824.3495 228.6441 824.3495 422.5726zM454.2033 109.9626c-174.9625 0-316.7702 141.9208-316.7702 318.9128 0 176.993 141.8077 319.8931 316.7702 319.8931 174.9865 0 321.0815-142.9001 321.0815-319.8931C775.2848 251.8824 629.1899 109.9626 454.2033 109.9626z" p-id="1831" fill="#999999"></path></svg>