<svg xmlns="http://www.w3.org/2000/svg" viewBox="0 0 20 20"><path fill="#19AC91" d="M14.1 8.6l-5-2.9c-.4-.3-1.1-.3-1.6 0s-.8.9-.8 1.5V13c0 .6.3 1.1.8 1.5.3.2.6.2.9.2s.6-.1.8-.2l5-2.9c.5-.3.8-.9.8-1.5-.1-.7-.4-1.2-.9-1.5zm-.7 1.8l-5 2.9c-.2.1-.4 0-.5 0-.1 0-.2-.2-.2-.4V7.1c.1-.2.3-.3.3-.4.1 0 .2-.1.2-.1.1 0 .2 0 .2.1l5 2.9c.2.1.2.3.2.4.1.2 0 .3-.2.4z"/><path fill="#19AC91" d="M10 20C4.5 20 0 15.5 0 10S4.5 0 10 0s10 4.5 10 10c-.1 5.6-4.6 10-10 10zm0-18.9c-5 0-9 4-9 9s4 9 9 9 9-4 9-9-4.1-9-9-9z"/></svg>