<svg class="icon" viewBox="0 0 1024 1024" xmlns="http://www.w3.org/2000/svg" width="18" height="18"><defs><style/></defs><path d="M852.57 149.528c-7.446-11.17-18.614-26.061-33.507-26.061H96.796c-11.17 0-26.062 14.892-29.785 26.06-7.445 11.17-3.723 29.785 3.723 40.954L323.9 469.71v309.01c0 11.17 7.447 26.062 22.338 29.785l189.874 85.63c3.724 3.723 11.17 3.723 14.893 3.723 7.446 0 14.893 0 18.614-3.723 11.17-7.446 18.616-14.892 18.616-29.784l11.17-398.365 245.72-279.228c11.168-7.445 11.168-22.338 7.446-37.23zM517.499 812.227L398.361 756.38V495.769h130.307l-11.17 316.458zm29.784-394.641c-3.723 0-3.723 3.722-7.446 3.722h-160.09L178.702 197.927h562.179l-193.6 219.659z" fill="#999"/><path d="M956.816 674.474c0-14.892-14.892-29.784-29.784-29.784H688.758c-14.892 0-29.785 14.893-29.785 29.784v14.893c0 14.893 14.894 29.784 29.785 29.784h238.274c14.893 0 29.784-14.892 29.784-29.784v-14.893zm0-148.92c0-14.894-14.892-29.785-29.784-29.785H688.758c-14.892 0-29.785 14.893-29.785 29.785v14.892c0 14.892 14.894 29.784 29.785 29.784h238.274c14.893 0 29.784-14.893 29.784-29.784v-14.892zm0 297.842c0-14.892-14.892-29.783-29.784-29.783H688.758c-14.892 0-29.785 14.892-29.785 29.783v14.892c0 14.893 14.894 29.785 29.785 29.785h238.274c14.893 0 29.784-14.892 29.784-29.785v-14.892z" fill="#999"/></svg>