<?xml version="1.0" encoding="utf-8"?>
<!-- Generator: Adobe Illustrator 18.1.0, SVG Export Plug-In . SVG Version: 6.00 Build 0)  -->
<svg version="1.1" id="图层_1" xmlns="http://www.w3.org/2000/svg" xmlns:xlink="http://www.w3.org/1999/xlink" x="0px" y="0px"
	 viewBox="0 0 30 30" enable-background="new 0 0 30 30" xml:space="preserve">
<path fill="#DC3C3B" d="M15,6c-0.3,0-0.5,0.1-0.8,0.4l-6.8,15c0,0,0,0,0,0.1s0,0.1,0,0.1l0,0l0,0l0,0l0,0l0,0l0,0l0,0l0,0l0,0l0,0
	c0,0.1,0,0.1,0.2,0.1l0,0l0,0c0,0,0,0.1,0.2,0.1l0,0l0,0l0,0l0,0l0,0l0,0l0,0l0,0l0,0l0,0l0,0l0,0l0,0l0,0c0,0,0.2,0,0.2,0.1l0,0
	l0,0c0.2,0,0.2,0,0.2,0l0,0l0,0l0,0l0,0l0,0l0,0l0,0l0,0l0,0l0,0c0.2,0,0.2,0,0.2-0.1c0,0,0,0,0.2,0l6.5-4.4l6.4,4.3c0,0,0,0,0.2,0
	l0,0l0,0l0,0l0,0l0,0l0,0l0,0l0,0l0,0l0,0l0,0c0,0,0,0,0.2,0l0,0c0.2,0,0.2,0,0.2,0l0,0c0,0,0,0,0.2,0l0,0l0,0c0,0,0,0,0.2,0l0,0
	l0,0l0,0l0,0l0,0l0,0l0,0l0,0l0,0l0,0l0,0l0,0l0,0l0,0l0,0l0,0l0,0v-0.1l0,0v-0.1l0,0l0,0l0,0l0,0l0,0l0,0l0,0l0,0l0,0l0,0l0,0l0,0
	l0,0c0,0,0,0,0-0.1L15.9,6.2C15.6,6.2,15.3,6,15,6L15,6z"/>
<g>
	<path fill="none" stroke="#999999" stroke-width="2" stroke-miterlimit="10" d="M12.8,29C6.7,28,1.9,23.3,1,17.1"/>
	<path fill="none" stroke="#999999" stroke-width="2" stroke-miterlimit="10" d="M29,17.1C28.1,23.2,23.3,28,17.2,29"/>
	<path fill="none" stroke="#999999" stroke-width="2" stroke-miterlimit="10" d="M17.2,1C23.3,1.9,28.1,6.7,29,12.9"/>
	<path fill="none" stroke="#999999" stroke-width="2" stroke-miterlimit="10" d="M1,12.8C1,8.6,6.8,1.9,12.9,1"/>
</g>
</svg>
