<?xml version="1.0" encoding="utf-8"?>
<!-- Generator: Adobe Illustrator 18.1.0, SVG Export Plug-In . SVG Version: 6.00 Build 0)  -->
<svg version="1.1" id="图层_1" xmlns="http://www.w3.org/2000/svg" xmlns:xlink="http://www.w3.org/1999/xlink" x="0px" y="0px"
	 viewBox="0 0 30 30" enable-background="new 0 0 30 30" xml:space="preserve">
<path fill="#999999" stroke="#999999" stroke-miterlimit="10" d="M16.1,15.1l5.8-5.8c0.1-0.1,0.1-0.8,0-1c-0.1-0.1-0.8-0.1-1,0
	l-5.8,5.8L9.3,8.3c-0.1-0.4-0.8-0.4-1,0c-0.4,0.1-0.4,0.8-0.1,1l5.8,5.8L8.2,21c-0.1,0.1-0.1,0.8,0,1s0.8,0.1,1,0l5.8-5.8l5.8,5.8
	c0.1,0.1,0.8,0.1,1,0c0.1-0.1,0.1-0.8,0-1L16.1,15.1z"/>
<g>
	<path fill="none" stroke="#999999" stroke-width="2" stroke-miterlimit="10" d="M12.8,29C6.7,28,1.9,23.3,1,17.1"/>
	<path fill="none" stroke="#999999" stroke-width="2" stroke-miterlimit="10" d="M29,17.1C28.1,23.2,23.3,28,17.2,29"/>
	<path fill="none" stroke="#999999" stroke-width="2" stroke-miterlimit="10" d="M17.2,1C23.3,1.9,28.1,6.7,29,12.9"/>
	<path fill="none" stroke="#999999" stroke-width="2" stroke-miterlimit="10" d="M1,12.8C1,8.6,6.8,1.9,12.9,1"/>
</g>
</svg>
