<?xml version="1.0" encoding="utf-8"?>
<!-- Generator: Adobe Illustrator 18.1.0, SVG Export Plug-In . SVG Version: 6.00 Build 0)  -->
<svg version="1.1" id="图层_1" xmlns="http://www.w3.org/2000/svg" xmlns:xlink="http://www.w3.org/1999/xlink" x="0px" y="0px"
	 viewBox="0 0 30 30" enable-background="new 0 0 30 30" xml:space="preserve">
<g>
	<path fill="#0803D8" d="M21.1,14.1c-0.4-2.7-2.5-4.9-5.2-5.3V7.7h-1.8v1.1c-2.7,0.4-4.8,2.6-5.2,5.3H8v1.6h1
		c0.4,2.9,2.5,5.1,5.2,5.5v1.1h1.6v-1.1c2.7-0.4,5-2.6,5.2-5.3h1.2v-1.8H21.1z M15.1,19.6c-2.5,0-4.5-2.2-4.5-4.6s2-4.6,4.5-4.6
		s4.5,2.2,4.5,4.6S17.6,19.6,15.1,19.6z M15.1,12.6c-1.4,0-2.3,0.9-2.3,2.4s0.9,2.4,2.3,2.4s2.3-1.1,2.3-2.4S16.5,12.6,15.1,12.6z"
		/>
	<rect x="19.7" y="14.1" fill="#0803D8" width="4.3" height="1.8"/>
	
		<rect x="12.7" y="20.9" transform="matrix(-4.261644e-003 -1 1 -4.261644e-003 -6.8806 36.8151)" fill="#0803D8" width="4.4" height="1.8"/>
	
		<rect x="13" y="7.3" transform="matrix(-4.261644e-003 -1 1 -4.261644e-003 7.0026 23.4095)" fill="#0803D8" width="4.4" height="1.8"/>
	
		<rect x="6" y="14.1" transform="matrix(-1 5.375034e-003 -5.375034e-003 -1 15.6802 29.9587)" fill="#0803D8" width="3.6" height="1.8"/>
</g>
<g>
	<path fill="none" stroke="#0803D8" stroke-width="2" stroke-miterlimit="10" d="M12.8,29C6.7,28,1.9,23.3,1,17.1"/>
	<path fill="none" stroke="#0803D8" stroke-width="2" stroke-miterlimit="10" d="M29,17.1C28.1,23.2,23.3,28,17.2,29"/>
	<path fill="none" stroke="#0803D8" stroke-width="2" stroke-miterlimit="10" d="M17.2,1C23.3,1.9,28.1,6.7,29,12.9"/>
	<path fill="none" stroke="#0803D8" stroke-width="2" stroke-miterlimit="10" d="M1,12.8C1,8.6,6.8,1.9,12.9,1"/>
</g>
<path fill="#FF9455" d="M23.7,10.2c0,0,1.2-1.5,2.1-1.1s-2,7.1-2,7.1s-0.1,0.5,0.5,0.5h5.1c0,0,1.3,0.3,0.1,1.9
	c-1.2,1.5-8.5,11-8.5,11s-1.8,1.2-1.5-0.9s1.9-6.6,1.9-6.6H16c0,0-1.8,0-0.6-1.6C16.3,19.3,23.7,10.2,23.7,10.2L23.7,10.2z"/>
</svg>
