<?xml version="1.0" encoding="utf-8"?>
<!-- Generator: Adobe Illustrator 18.1.0, SVG Export Plug-In . SVG Version: 6.00 Build 0)  -->
<svg version="1.1" id="图层_1" xmlns="http://www.w3.org/2000/svg" xmlns:xlink="http://www.w3.org/1999/xlink" x="0px" y="0px"
	 viewBox="0 0 30 30" enable-background="new 0 0 30 30" xml:space="preserve">
<g id="图层_1_1_" display="none">
</g>
<g>
	<path fill="#0803D8" d="M11.6,20c-0.8-1.5-1.5-3.1-1.5-5c0-0.8,0-1.5,0.5-2.3H5.1l2.7-5.4h6.1c1.5-1.5,3.9-2.7,6.6-2.7H5.7L1.5,14
		H1.2C0.8,14,0,14.4,0,15.2v4.3c0,0.5,0.5,1.2,1.2,1.2H2l0,0v3.5c0,0.8,0.5,1.2,0.8,1.2h3.4c0.5,0,1.2-0.4,1.2-1.2v-3.5l0,0L11.6,20
		L11.6,20z M5.1,18.8c-0.4,0-1.2-0.5-1.2-1.2v-0.8c0-0.5,0.4-1.2,1.2-1.2h3.2c0.8,0,1.2,0.7,1.2,1.2v0.8c0,0.5-0.4,1.2-1.2,1.2H5.1z
		"/>
	<path fill="#0803D8" d="M20.4,4.5L20.4,4.5L20.4,4.5L20.4,4.5z"/>
</g>
<g>
	<path fill="#DC3C3B" d="M21,9.1h-2v5.4h2c0.8,0,1.2-0.4,1.5-0.8c0.5-0.4,0.8-1.2,0.8-1.9C23.7,9.9,23,9.1,21,9.1z"/>
	<path fill="#DC3C3B" d="M20.5,4.9c-5.4,0-10,4.5-10,10.1s4.3,9.8,9.8,9.8S30,20.4,30,15S26.1,4.9,20.5,4.9z M24.2,15
		c-0.5,0.8-1.5,1.2-2.7,1.2h-2.3v6.1h-1.5V8H21c1.2,0,2,0,2.7,0.5c1.2,0.8,1.5,1.9,1.5,3.4C25.3,13,24.9,14.3,24.2,15z"/>
</g>
</svg>
