<?xml version="1.0" encoding="utf-8"?>
<!-- Generator: Adobe Illustrator 18.1.0, SVG Export Plug-In . SVG Version: 6.00 Build 0)  -->
<svg version="1.1" id="图层_1" xmlns="http://www.w3.org/2000/svg" xmlns:xlink="http://www.w3.org/1999/xlink" x="0px" y="0px"
	 viewBox="0 0 30 30" enable-background="new 0 0 30 30" xml:space="preserve">
<g id="图层_1_1_" display="none">
</g>
<g id="图层_2" display="none">
	<g display="inline">
		<path fill="#3465B0" d="M20.5,10.2h-1.8V15h1.8c0.8,0,1.2-0.2,1.7-0.8S23,13,23,12.5C22.7,10.8,21.9,10.2,20.5,10.2z"/>
		<path fill="#3465B0" d="M19.8,6.1C15,6.1,11,10,11,15s3.9,8.8,8.9,8.8s8.9-3.9,8.9-8.8C28.8,10.2,24.9,6.1,19.8,6.1z M23.3,15.2
			c-0.8,0.8-1.7,0.9-2.8,0.9h-1.8v5.5H17V8.9h3.1c0.9,0,1.8,0.1,2.3,0.4C23.5,9.8,24,11,24,12.5C24.4,13.7,24,14.5,23.3,15.2z"/>
	</g>
	<path display="inline" fill="#279B81" d="M13.8,8.3c1.7-1.4,3.8-2.3,6-2.3H6.9l-4.2,8.3H2.3c-0.4,0-0.9,0.5-0.9,0.9v3.9
		c0,0.5,0.5,0.9,0.9,0.9H3c0,0,0,0,0,0.2v3.2c0,0.4,0.4,0.9,0.9,0.9H7c0.5,0,0.9-0.5,0.9-0.9v-3.5c0,0,0,0,0-0.2H12
		c-0.8-1.2-1.2-3-1.2-4.6c0-0.8,0-1.3,0.2-2.1H5.9l2.3-5.1C8.3,8.3,13.8,8.3,13.8,8.3z M6,16.2h3c0.5,0,0.9,0.5,0.9,0.9v0.8
		c0,0.5-0.4,0.9-0.9,0.9H6c-0.4,0-0.9-0.5-0.9-0.9v-0.8C5.1,16.7,5.6,16.2,6,16.2z"/>
</g>
<g id="图层_3" display="none">
	<g display="inline">
		<polygon fill="#040000" points="1.3,22.2 13.7,26.8 13.7,14.5 1.3,10.2 		"/>
		<polygon fill="#040000" points="14.1,14.5 14.1,26.8 26.1,22.2 26.1,10.2 		"/>
		<polygon fill="#040000" points="13.7,4.8 1.3,9.8 13.8,14.3 26.1,9.8 		"/>
	</g>
</g>
<g id="图层_4" display="none">
	<path display="inline" fill="#040000" d="M2.8,2.6v23.9h23.8V2.6H2.8z M24.8,24.8H4.4V13.2h1.8l4.2,5.3l3.1-9.2l3,11.3h0.8l1.3-6.2
		l0.5,0.4h5.5C24.8,14.8,24.8,24.8,24.8,24.8z M24.8,13.7h-5.5L18.5,12l-1.7,6.2l-3-12.5L10,16.3l-3.7-4.8H4.4V4.2h20.6v9.5H24.8
		L24.8,13.7z"/>
</g>
<g id="图层_5" display="none">
	<path display="inline" d="M29.3,14.5h-1.8c0-3.1-1.4-6-3.5-8.1l1.4-1.4c0.2-0.1,0.2-0.4,0-0.8c-0.1-0.1-0.4-0.1-0.8,0l-1.3,1.4
		c-1.8-2.1-4.8-3.5-7.8-3.5V0.5C15.5,0.2,15.2,0,15,0s-0.5,0.2-0.5,0.5v1.8c-3.1,0-6,1.4-8.3,3.4L5.1,4.4C5,4.2,4.7,4.2,4.4,4.4
		c-0.3,0.1-0.2,0.4,0,0.8l1.3,1.3c-2,2.1-3.5,4.8-3.5,8.1H0.5C0.2,14.5,0,14.8,0,15l0,0c0,0.2,0.2,0.5,0.5,0.5h1.8
		c0,3,1.4,6,3.4,8.1l-1.3,1.4c-0.2,0.1-0.2,0.4,0,0.8c0.1,0.1,0.4,0.1,0.8,0l1.3-1.4c2.1,2.1,5.1,3.1,8.1,3.4v1.8
		c0,0.1,0.2,0.4,0.5,0.4c0.3,0,0.4-0.2,0.4-0.4v-1.8c3.2,0,6-1.3,8.1-3.4l1.4,1.4c0.1,0.1,0.4,0.1,0.8,0c0.1-0.2,0.1-0.5,0-0.8
		l-1.4-1.4c2.1-2.1,3.1-5.1,3.4-8.1h1.8c0.1,0,0.4-0.2,0.4-0.4l0,0C29.8,14.8,29.6,14.5,29.3,14.5z M25.8,14.5h-9.8L23,7.6
		C24.8,9.1,25.8,11.9,25.8,14.5z M22.3,6.9l-6.9,6.9V3.9C18,4.2,20.5,5.1,22.3,6.9z M14.5,3.9v9.9L7.6,6.9
		C9.1,5.1,11.9,4.2,14.5,3.9z M6.9,7.4l6.9,6.9H3.9C4.2,11.9,5.1,9.1,6.9,7.4z M3.9,15.5h9.9l-6.9,6.9C5.1,20.5,4.2,18,3.9,15.5z
		 M7.4,23.1l6.9-6.9v9.9C11.9,25.8,9.1,24.8,7.4,23.1z M15.5,25.8v-9.8l6.9,6.9C20.5,24.8,18,25.8,15.5,25.8z M23.1,22.3l-6.9-6.9
		h9.9C25.8,18,24.8,20.5,23.1,22.3z"/>
	<path display="inline" d="M29.6,14.5h-2.3c-0.1-3-1.4-5.8-3.1-7.8l1.6-1.6C26,5,26,4.7,25.8,4.4c-0.1-0.3-0.4-0.2-0.8,0L23.3,6
		c-2.1-1.8-4.8-3-7.8-3.1V0.5C15.5,0.2,15.2,0,15,0s-0.5,0.2-0.5,0.5v2.2C11.5,3,8.9,4.2,6.8,6L5.1,4.4C5,4.2,4.7,4.2,4.4,4.4
		c-0.3,0.1-0.2,0.4,0,0.8L6,6.8c-1.8,2.1-3,4.8-3.2,7.8H0.5C0.2,14.5,0,14.8,0,15s0.2,0.5,0.5,0.5h2.2c0.2,3,1.3,5.9,3.2,7.8
		l-1.7,1.7c-0.2,0.1-0.2,0.4,0,0.8c0.1,0.3,0.4,0.1,0.8,0L6.8,24c2.1,1.8,4.8,3,7.8,3.2v2.3c0,0.1,0.2,0.4,0.5,0.4s0.5-0.1,0.5-0.4
		v-2.3c3-0.2,5.9-1.4,7.8-3.2l1.7,1.7c0.1,0.1,0.4,0.1,0.8,0c0.3-0.2,0.1-0.5,0-0.8L24,23.3c1.8-2.1,3-4.8,3.2-7.8h2.3
		c0.1,0,0.4-0.2,0.4-0.5C30,14.7,29.8,14.5,29.6,14.5z M22.8,14.5H16l5-4.8C22.2,11.1,22.8,12.8,22.8,14.5z M20.3,9l-4.8,4.8V7.2
		C17.3,7.2,18.9,7.8,20.3,9z M14.5,7.2V14L9.8,9C11.1,7.8,12.8,7.2,14.5,7.2z M9,9.8l4.8,4.8H7.2C7.2,12.8,7.8,11.1,9,9.8z
		 M7.2,15.5H14l-5,4.8C7.8,18.9,7.2,17.3,7.2,15.5z M9.8,21l4.8-4.8V23C12.8,22.8,11.1,22.2,9.8,21z M15.5,22.8V16l4.8,4.8
		C18.9,22.2,17.3,22.8,15.5,22.8z M21,20.3l-4.8-4.8H23C22.8,17.3,22.2,18.9,21,20.3z"/>
</g>
<g id="图层_6" display="none">
	<circle display="inline" cx="15" cy="15" r="3.9"/>
	<path display="inline" d="M29.1,13.3H27l0,0C26.3,7.8,21.9,3.6,16.7,3V0.9C16.3,0.5,16.2,0,15.8,0h-1.5c-0.5,0-0.9,0.5-0.9,0.9V3
		C8.1,3.8,3.8,7.8,3,13.3l0,0H0.9C0.5,13.3,0,14,0,14.3v1.2c0,0.4,0.5,0.9,0.9,0.9H3l0,0c0.8,5.6,5.1,9.8,10.3,10.4l0,0v2.1
		c0,0.8,0.4,1.2,0.9,1.2h1.2c0.4,0,0.9-0.4,0.9-0.9V27l0,0c5.6-0.8,9.8-5.1,10.4-10.3l0,0h2.1c0.4,0,0.9-0.5,0.9-0.9v-1.5
		C30,13.8,29.6,13.3,29.1,13.3z M15,21.2c-3.5,0-6.1-2.9-6.1-6.2s2.7-6.1,6.1-6.1s6.2,2.9,6.2,6.1S18.5,21.2,15,21.2z"/>
</g>
<g id="图层_7" display="none">
	<path display="inline" d="M29.1,0H10.2C9.8,0,9.1,0.5,9.1,0.9v0.9H27c0.4,0,0.9,0.4,0.9,0.9v18h0.9c0.8,0,1.2-0.5,1.2-0.9V0.9
		C30,0.5,29.6,0,29.1,0z"/>
	<path display="inline" d="M21.5,5.6H3c-1.7,0-3,1.2-3,3V27c0,1.7,1.3,3,3,3h18.5c1.6,0,3-1.3,3-3V8.5C24.4,6.8,23.1,5.6,21.5,5.6z"
		/>
</g>
<g id="图层_8" display="none">
	<path display="inline" d="M0,22.7L7.4,30L30,7.4l-7.3-7.2L0,22.7z M27,7.4L7.6,26.8l-4.3-4.2L4,21.9l2.3,2.2l0.5-0.5l-2.3-2.3
		L4.8,21L7,23.3l0.5-0.2l-2.3-2.3l0.4-0.4L8,22.6l0.5-0.5l-2.3-2.3L6.9,19l3.6,3.3l1.2-1.3l-3.2-3.2L9,17.1l2.3,2.3l0.5-0.4
		l-2.3-2.3l0.1-0.5l2.4,2.3l0.5-0.5l-2.3-2.3l0.4-0.5l2.3,2.3l0.6-0.6l-2.3-2.4l0.9-0.9l3.4,3.4l1.4-1.3l-3.5-3.5l0.8-0.8l2.3,2.4
		l0.5-0.5l-2.3-2.4l0.4-0.5l2.3,2.3l0.6-0.4l-2.3-2.3l0.5-0.5l2.3,2.3l0.5-0.5l-2.3-2.3l0.8-0.8l3.4,3.5l1.5-1.5L18.9,7l0.6-0.8
		l2,2.7l0.5-0.5l-2.3-2.2l0.4-0.4L22.5,8l0.8-0.5L21,5.3l0.5-0.8l2.3,2.3L24,6.5l-2.3-2.3l0.9-0.9L27,7.4z"/>
</g>
<g id="图层_9">
	<path fill="#0803D8" d="M29.2,14.3h-0.4l-4.4-9.1H6.1l-4.6,9.1H1c-0.4,0-0.9,0.6-0.9,1.2v4.4c0,0.5,0.5,0.9,0.9,0.9h0.9
		c0,0,0,0,0,0.2v3.8c0,0.4,0.4,0.9,0.9,0.9h3.4c0.5,0,0.9-0.5,0.9-0.9v-3.9c0,0,0,0,0-0.1h15c0,0,0,0,0,0.1v3.8
		c0,0.5,0.4,0.9,0.9,0.9h3.5c0.4,0,0.9-0.4,0.9-0.9v-3.8c0,0,0,0,0-0.1h1.2c0.9,0.1,1.4-0.1,1.4-0.9v-4.2
		C30.1,14.8,29.7,14.3,29.2,14.3z M7.8,7.6h15l2.6,5.6H4.9L7.8,7.6z M9.3,18.2c0,0.4-0.5,0.9-0.9,0.9H5.2c-0.5,0-0.9-0.5-0.9-0.9
		v-0.9c0-0.5,0.4-0.9,0.9-0.9h3.2c0.4,0,0.9,0.5,0.9,0.9V18.2L9.3,18.2z M20.4,18.2v-0.9c0-0.5,0.5-0.9,0.9-0.9h3.1
		c0.4,0,0.9,0.5,0.9,0.9V18c0,0.5-0.4,0.9-0.9,0.9h-3.1C21,19.2,20.4,18.8,20.4,18.2z"/>
</g>
<path fill="#FF9455" d="M15.6,6c0,0,1.2-1.5,2.1-1.1S15.8,12,15.8,12s-0.2,0.5,0.5,0.5h5.1c0,0,1.4,0.3,0.1,1.9
	c-1.2,1.5-8.5,11-8.5,11s-1.8,1.2-1.5-0.9c0.3-2.1,2-6.6,2-6.6H8c0,0-1.8,0-0.6-1.7C8.3,15.2,15.6,6,15.6,6L15.6,6z"/>
</svg>
