<?xml version="1.0" encoding="utf-8"?>
<!-- Generator: Adobe Illustrator 18.1.0, SVG Export Plug-In . SVG Version: 6.00 Build 0)  -->
<svg version="1.1" id="图层_1" xmlns="http://www.w3.org/2000/svg" xmlns:xlink="http://www.w3.org/1999/xlink" x="0px" y="0px"
	 viewBox="0 0 30 30" enable-background="new 0 0 30 30" xml:space="preserve">
<g id="图层_1_1_" display="none">
</g>
<g id="图层_2">
	<g>
		<path fill="#0803D8" d="M12.2,20c-0.8-1.5-1.2-3.1-1.2-5c0-0.8,0-1.5,0.4-2.3H5.9l2.7-5.4h5.7c1.3-1.8,4.3-2.7,7-2.7H6.8L2.6,14
			H1.9C1.5,14,0,14.4,0,15.2v4.2c0,0.5,1,1.4,1.9,1.4h0.7l0,0V24c0,0.8,0.5,1.2,0.8,1.2h3.4c0.5,0,1.2-0.4,1.2-1.2v-3.4l0,0L12.2,20
			L12.2,20z M5.9,18.8c-0.5,0-1.2-0.5-1.2-1.2v-0.8c0-0.5,0.5-1.2,1.2-1.2H9c0.8,0,1.2,0.7,1.2,1.2v0.8c0,0.5-0.5,1.2-1.2,1.2H5.9z"
			/>
		<path fill="#0803D8" d="M21.5,4.5L21.5,4.5L21.5,4.5L21.5,4.5z"/>
	</g>
</g>
<path fill="#FFFFFF" d="M21.8,18.2h-1.5l-0.5-0.5L19.3,8c0,0,0-0.5,0.5-0.5H22L22.5,8L22,17.3C22,17.8,22,18.2,21.8,18.2z
	 M22.5,20.4c0,0.8-0.8,1.5-1.5,1.5s-1.5-0.8-1.5-1.5s0.8-1.5,1.5-1.5C21.8,18.8,22.5,19.7,22.5,20.4z"/>
<path fill="#DC3C3B" d="M20.7,5.6c-5.1,0-9.3,4.4-9.3,9.4s4.2,9.4,9.3,9.4S30,20.3,30,15S25.8,5.6,20.7,5.6z M21.8,22h-2v-2h2V22z
	 M24.6,13.5c-0.3,0.5-0.8,1-1.6,1.8c-0.5,0.5-0.9,0.8-1,1c-0.2,0.2-0.3,0.5-0.5,0.8c-0.1,0.3-0.1,0.8-0.1,1.5h-1.7
	c0-0.1,0-0.4,0-0.4c0-0.8,0.2-1.2,0.3-1.7c0.2-0.4,0.3-0.8,0.6-1c0.1-0.3,0.6-0.8,1.2-1.2c0.6-0.4,0.9-0.9,1.1-1.2s0.3-0.6,0.3-1.1
	c0-0.8-0.1-1.2-0.8-1.6c-0.5-0.4-1-0.8-1.8-0.8s-1.4,0.1-1.7,0.8c-0.4,0.5-0.8,1.1-0.9,2.1L16.3,12c0.2-1.4,0.6-2.3,1.4-2.9
	c0.8-0.8,1.6-1,3-1s2.3,0.4,3.1,1c0.8,0.8,1.2,1.6,1.2,2.6C25.1,12.5,24.9,13,24.6,13.5z"/>
<path fill="#FF9455" d="M9.6,5.6c0,0,1.2-1.5,2.1-1.1c0.9,0.4-2,7-2,7S9.6,12,10.2,12h5.1c0,0,1.4,0.3,0.2,2c-1.2,1.5-8.5,11-8.5,11
	S5.1,26.1,5.4,24s2-6.6,2-6.6H2c0,0-1.8,0-0.6-1.7C2.3,14.7,9.6,5.6,9.6,5.6L9.6,5.6z"/>
</svg>
