<?xml version="1.0" encoding="utf-8"?>
<!-- Generator: Adobe Illustrator 18.1.0, SVG Export Plug-In . SVG Version: 6.00 Build 0)  -->
<svg version="1.1" id="图层_1" xmlns="http://www.w3.org/2000/svg" xmlns:xlink="http://www.w3.org/1999/xlink" x="0px" y="0px"
	 viewBox="0 0 30 30" enable-background="new 0 0 30 30" xml:space="preserve">
<path fill="#DC3C3B" d="M13.3,15.5V9.9h2.3c2.1,0,2.9,1.3,2.9,3c0,1.4-0.5,2.7-2.9,2.7L13.3,15.5L13.3,15.5z M10.3,7.3v16h3.1v-5.1
	h3.2c1.2,0,1.8-0.2,2.9-0.8c1.4-0.8,1.8-1.8,1.8-4.6c0-1.9,0-3.4-2.3-5c-0.8-0.2-1.4-0.5-2.3-0.5L10.3,7.3z"/>
<g>
	<path fill="none" stroke="#0803D8" stroke-width="2" stroke-miterlimit="10" d="M12.8,29C6.7,28,1.9,23.3,1,17.1"/>
	<path fill="none" stroke="#0803D8" stroke-width="2" stroke-miterlimit="10" d="M29,17.1C28.1,23.2,23.3,28,17.2,29"/>
	<path fill="none" stroke="#0803D8" stroke-width="2" stroke-miterlimit="10" d="M17.2,1C23.3,1.9,28.1,6.7,29,12.9"/>
	<path fill="none" stroke="#0803D8" stroke-width="2" stroke-miterlimit="10" d="M1,12.8C1,8.6,6.8,1.9,12.9,1"/>
</g>
<path fill="#FF9455" d="M23.7,10.4c0,0,1.2-1.5,2.1-1.1c0.9,0.5-2,7-2,7s-0.1,0.5,0.5,0.5h5.1c0,0,1.3,0.3,0.1,2
	C28.4,20.3,21,29.7,21,29.7s-1.8,1.2-1.5-0.9s1.9-6.6,1.9-6.6H16c0,0-1.8,0-0.6-1.6C16.3,19.5,23.7,10.4,23.7,10.4L23.7,10.4z"/>
<circle fill="#02D338" stroke="#FFFFFF" stroke-width="0.5" stroke-miterlimit="10" cx="26" cy="4" r="3.8"/>
</svg>
