<?xml version="1.0" encoding="utf-8"?>
<!-- Generator: Adobe Illustrator 18.1.0, SVG Export Plug-In . SVG Version: 6.00 Build 0)  -->
<svg version="1.1" id="图层_1" xmlns="http://www.w3.org/2000/svg" xmlns:xlink="http://www.w3.org/1999/xlink" x="0px" y="0px"
	 viewBox="0 0 30 30" enable-background="new 0 0 30 30" xml:space="preserve">
<g id="图层_1_1_" display="none">
</g>
<g>
	<path fill="#0803D8" d="M11.7,20c-0.8-1.5-1.5-3.1-1.5-5c0-0.8,0-1.5,0.4-2.3H5.3L8,7.4h6.1c1.5-1.5,3.9-2.7,6.6-2.7H5.9L1.7,14
		H1.3c-0.4,0-1.2,0.4-1.2,1.2v4.3c0,0.5,0.5,1.2,1.2,1.2h0.8l0,0v3.5c0,0.8,0.5,1.2,0.8,1.2h3.4c0.5,0,1.2-0.4,1.2-1.2v-3.5l0,0
		L11.7,20L11.7,20z M5.3,18.8c-0.4,0-1.2-0.5-1.2-1.2v-0.8c0-0.5,0.4-1.2,1.2-1.2h3.1c0.8,0,1.2,0.7,1.2,1.2v0.8
		c0,0.5-0.5,1.2-1.2,1.2H5.3z"/>
	<path fill="#0803D8" d="M20.5,4.5L20.5,4.5L20.5,4.5L20.5,4.5z"/>
</g>
<g>
	<path fill="#DC3C3B" d="M21,9.1h-2v5.4h2c0.8,0,1.2-0.4,1.5-0.8c0.5-0.4,0.8-1.2,0.8-1.9C23.7,9.9,23,9.1,21,9.1z"/>
	<path fill="#DC3C3B" d="M20.5,4.9c-5.4,0-10,4.5-10,10.1s4.3,9.8,9.8,9.8S30,20.4,30,15S26.1,4.9,20.5,4.9z M24.2,15
		c-0.5,0.8-1.5,1.2-2.7,1.2h-2.3v6.1h-1.5V8H21c1.2,0,2,0,2.7,0.5c1.2,0.8,1.5,1.9,1.5,3.4C25.3,13,24.9,14.3,24.2,15z"/>
</g>
<path fill="#FF9455" d="M9.5,5.7c0,0,1.2-1.5,2.1-1.1c0.9,0.5-1.9,7.1-1.9,7.1s-0.1,0.4,0.4,0.4h5.1c0,0,1.3,0.3,0.2,1.9
	c-1.2,1.5-8.5,11-8.5,11S5,26.3,5.3,24.2s2-6.6,2-6.6H1.8c0,0-1.8,0-0.6-1.7C2.1,14.8,9.5,5.7,9.5,5.7L9.5,5.7z"/>
<circle fill="#02D338" stroke="#FFFFFF" stroke-width="0.5" stroke-miterlimit="10" cx="26" cy="22" r="3.8"/>
</svg>
