<?xml version="1.0" encoding="utf-8"?>
<!-- Generator: Adobe Illustrator 18.1.0, SVG Export Plug-In . SVG Version: 6.00 Build 0)  -->
<svg version="1.1" id="图层_1" xmlns="http://www.w3.org/2000/svg" xmlns:xlink="http://www.w3.org/1999/xlink" x="0px" y="0px"
	 viewBox="0 0 30 30" enable-background="new 0 0 30 30" xml:space="preserve">
<g>
	<path fill="none" stroke="#0803D8" stroke-width="2" stroke-miterlimit="10" d="M12.8,29C6.7,28,1.9,23.3,1,17.1"/>
	<path fill="none" stroke="#0803D8" stroke-width="2" stroke-miterlimit="10" d="M29,17.1C28.1,23.2,23.3,28,17.2,29"/>
	<path fill="none" stroke="#0803D8" stroke-width="2" stroke-miterlimit="10" d="M17.2,1C23.3,1.9,28.1,6.7,29,12.9"/>
	<path fill="none" stroke="#0803D8" stroke-width="2" stroke-miterlimit="10" d="M1,12.8C1,8.6,6.8,1.9,12.9,1"/>
</g>
<path fill="#DC3C3B" stroke="#DC3C3B" stroke-width="0.5" stroke-miterlimit="10" d="M13.6,21.1v2.3h2.3v-2.3H13.6z M19.2,13.5
	c0.3-0.6,0.5-1.1,0.5-1.9c0-1.1-0.5-2.3-1.5-3.1c-0.8-0.8-2.1-1.1-3.7-1.1c-1.3,0-2.4,0.5-3.2,1.1c-0.8,0.8-1.5,1.9-1.6,3.4l2.1,0.2
	c0.2-1.1,0.5-1.9,1-2.4s1.1-0.8,2.1-0.8c0.8,0,1.5,0.3,2.1,0.8c0.6,0.6,0.8,1.1,0.8,1.9c0,0.5-0.2,0.8-0.3,1.1
	c-0.2,0.2-0.6,0.8-1.3,1.5c-0.8,0.6-1.1,1-1.5,1.3c-0.3,0.5-0.6,0.8-0.8,1.1c-0.2,0.5-0.3,1.1-0.3,1.9c0,0.2,0,0.3,0,0.6h1.8
	c0-0.8,0.2-1.3,0.2-1.6c0.2-0.3,0.2-0.6,0.5-0.8c0.2-0.3,0.6-0.8,1.1-1.1C18.4,14.8,18.9,14.2,19.2,13.5L19.2,13.5z"/>
<path fill="#FF9455" d="M23.7,10.4c0,0,1.2-1.5,2.1-1.1c0.9,0.5-2,7-2,7s-0.1,0.5,0.5,0.5h5.1c0,0,1.3,0.3,0.1,2
	C28.4,20.3,21,29.7,21,29.7s-1.8,1.2-1.5-0.9s1.9-6.6,1.9-6.6H16c0,0-1.8,0-0.6-1.6C16.3,19.5,23.7,10.4,23.7,10.4L23.7,10.4z"/>
<path fill="#FFFFFF" d="M23.7,12.2l-5.9,7.7c0,0-1,1.2,0.3,1h5.4l-2.1,5.7c0,0-0.9,2.3,0.3,0.3l6.1-8.1c0,0,0.3-0.5-0.6-0.5h-3.9
	h-1.8l3-6.5C24.4,11.5,25.5,9.6,23.7,12.2z"/>
</svg>
