<?xml version="1.0" encoding="utf-8"?>
<!-- Generator: Adobe Illustrator 18.1.0, SVG Export Plug-In . SVG Version: 6.00 Build 0)  -->
<svg version="1.1" id="图层_1" xmlns="http://www.w3.org/2000/svg" xmlns:xlink="http://www.w3.org/1999/xlink" x="0px" y="0px"
	 viewBox="0 0 30 30" enable-background="new 0 0 30 30" xml:space="preserve">
<path fill="#DC3C3B" d="M13.2,15.6V10h2.3c2.1,0,2.9,1.3,2.9,3c0,1.4-0.5,2.7-2.9,2.7L13.2,15.6L13.2,15.6z M10.2,7.4v16h3.1v-5.1
	h3.2c1.2,0,1.8-0.2,2.9-0.8c1.4-0.8,1.8-1.8,1.8-4.6c0-1.9,0-3.4-2.3-5c-0.8-0.2-1.4-0.5-2.3-0.5L10.2,7.4z"/>
<g>
	<path fill="none" stroke="#436CD5" stroke-linecap="round" stroke-miterlimit="10" d="M12.2,29.6C5.9,28.6,0.9,23.7,0,17.3"/>
	<path fill="none" stroke="#436CD5" stroke-linecap="round" stroke-miterlimit="10" d="M29,17.3c-0.9,6.3-5.9,11.3-12.2,12.3"/>
	<path fill="none" stroke="#436CD5" stroke-linecap="round" stroke-miterlimit="10" d="M16.8,0.6C23.1,1.5,28.1,6.5,29,12.9"/>
	<path fill="none" stroke="#436CD5" stroke-linecap="round" stroke-miterlimit="10" d="M0,12.8C0,8.5,6,1.5,12.3,0.6"/>
</g>
<circle fill="#DF34FF" stroke="#FFFFFF" stroke-width="0.5" stroke-miterlimit="10" cx="25.9" cy="4.1" r="3.8"/>
</svg>
