<?xml version="1.0" encoding="utf-8"?>
<!-- Generator: Adobe Illustrator 18.1.0, SVG Export Plug-In . SVG Version: 6.00 Build 0)  -->
<svg version="1.1" id="图层_1" xmlns="http://www.w3.org/2000/svg" xmlns:xlink="http://www.w3.org/1999/xlink" x="0px" y="0px"
	 viewBox="0 0 30 30" enable-background="new 0 0 30 30" xml:space="preserve">
<g id="图层_1_1_" display="none">
</g>
<g>
	<path fill="#436CD5" d="M11.4,20c-0.8-1.5-1.2-3.1-1.2-5c0-0.8,0-1.5,0.4-2.3H5.3L8,7.4h6.1c1.5-1.5,3.9-2.7,6.6-2.7H6L1.8,14H1.3
		c-0.4,0-1.2,0.4-1.2,1.2v4.2c0,0.5,0.5,1.2,1.2,1.2h0.8l0,0V24c0,0.8,0.5,1.2,0.8,1.2h3.4c0.5,0,1.2-0.4,1.2-1.2v-3.4l0,0L11.4,20
		L11.4,20z M5.3,18.8c-0.4,0-1.2-0.5-1.2-1.2v-0.8c0-0.5,0.4-1.2,1.2-1.2h3.1c0.8,0,1.2,0.7,1.2,1.2v0.8c0,0.5-0.5,1.2-1.2,1.2H5.3z
		"/>
	<path fill="#436CD5" d="M20.7,4.5L20.7,4.5L20.7,4.5L20.7,4.5z"/>
</g>
<g>
	<path fill="#DC3C3B" d="M20.7,4.9c-5.4,0-10.1,4.6-10.1,10.1s4.2,9.8,9.8,9.8s9.8-4.2,9.8-9.8S26.1,4.9,20.7,4.9z"/>
</g>
<path fill="#FFFFFF" d="M21.2,18.2h-1.5l-0.5-0.5L18.8,8c0,0,0-0.5,0.5-0.5h2.3L21.9,8l-0.5,9.3C21.5,17.7,21.5,18.2,21.2,18.2z
	 M21.8,20.4c0,0.8-0.8,1.5-1.5,1.5s-1.5-0.8-1.5-1.5s0.8-1.5,1.5-1.5C21.2,18.8,21.8,19.7,21.8,20.4z"/>
</svg>
