<?xml version="1.0" encoding="utf-8"?>
<!-- Generator: Adobe Illustrator 18.1.0, SVG Export Plug-In . SVG Version: 6.00 Build 0)  -->
<svg version="1.1" id="图层_1" xmlns="http://www.w3.org/2000/svg" xmlns:xlink="http://www.w3.org/1999/xlink" x="0px" y="0px"
	 viewBox="0 0 30 30" enable-background="new 0 0 30 30" xml:space="preserve">
<g id="图层_1_1_" display="none">
</g>
<g id="图层_2">
	<g>
		<path fill="#999999" d="M11.4,20c-0.8-1.5-1.2-3.1-1.2-5c0-0.8,0-1.5,0.4-2.3H5.2l2.7-5.4h6.2c1.5-1.5,3.9-2.7,6.6-2.7H6l-4.2,9.3
			H1.3c-0.4,0-1.2,0.4-1.2,1.2v4.2c0,0.4,0.4,1.2,1.2,1.2h0.8l0,0V24c0,0.8,0.4,1.2,0.8,1.2h3.5c0.4,0,1.2-0.4,1.2-1.2v-3.5l0,0
			L11.4,20L11.4,20z M5.2,18.8c-0.4,0-1.2-0.4-1.2-1.2v-0.8c0-0.4,0.4-1.2,1.2-1.2h3.1c0.8,0,1.2,0.8,1.2,1.2v0.8
			c0,0.4-0.4,1.2-1.2,1.2H5.2z"/>
		<path fill="#24A287" d="M20.7,4.5L20.7,4.5L20.7,4.5L20.7,4.5z"/>
	</g>
	<g>
		<path fill="#DC3C3B" d="M20.7,4.9c-5.4,0-10,4.6-10,10s4.2,9.7,9.7,9.7s9.7-4.2,9.7-9.7S26.1,4.9,20.7,4.9z"/>
	</g>
</g>
<path fill="#FFFFFF" d="M21.1,18.1h-1.5l-0.4-0.4L18.7,8c0,0,0-0.4,0.4-0.4h2.3L21.8,8l-0.4,9.3C21.4,17.7,21.4,18.1,21.1,18.1z
	 M21.8,20.4c0,0.8-0.8,1.5-1.5,1.5c-0.8,0-1.5-0.8-1.5-1.5c0-0.8,0.8-1.5,1.5-1.5C21.1,18.8,21.8,19.6,21.8,20.4z"/>
</svg>
