<?xml version="1.0" encoding="utf-8"?>
<!-- Generator: Adobe Illustrator 18.1.0, SVG Export Plug-In . SVG Version: 6.00 Build 0)  -->
<svg version="1.1" id="图层_1" xmlns="http://www.w3.org/2000/svg" xmlns:xlink="http://www.w3.org/1999/xlink" x="0px" y="0px"
	 viewBox="0 0 30 30" enable-background="new 0 0 30 30" xml:space="preserve">
<path fill="#999999" stroke="#999999" stroke-miterlimit="10" d="M16.1,15.1l5.8-5.8c0.1-0.1,0.1-0.8,0-1c-0.1-0.1-0.8-0.1-1,0
	l-5.8,5.8L9.3,8.3c-0.1-0.4-0.8-0.4-1,0c-0.4,0.1-0.4,0.8-0.1,1l5.8,5.8L8.2,21c-0.1,0.1-0.1,0.8,0,1s0.8,0.1,1,0l5.8-5.8l5.8,5.8
	c0.1,0.1,0.8,0.1,1,0c0.1-0.1,0.1-0.8,0-1L16.1,15.1z"/>
<g>
	<path fill="none" stroke="#999999" stroke-linecap="round" stroke-miterlimit="10" d="M12.7,29.5c-6.3-1-11.3-5.9-12.2-12.3"/>
	<path fill="none" stroke="#999999" stroke-linecap="round" stroke-miterlimit="10" d="M29.5,17.2c-0.9,6.3-5.9,11.3-12.2,12.3"/>
	<path fill="none" stroke="#999999" stroke-linecap="round" stroke-miterlimit="10" d="M17.3,0.5c6.3,0.9,11.3,5.9,12.2,12.3"/>
	<path fill="none" stroke="#999999" stroke-linecap="round" stroke-miterlimit="10" d="M0.5,12.7c0-4.3,6-11.3,12.3-12.2"/>
</g>
</svg>
