<?xml version="1.0" encoding="utf-8"?>
<!-- Generator: Adobe Illustrator 18.1.0, SVG Export Plug-In . SVG Version: 6.00 Build 0)  -->
<svg version="1.1" id="图层_1" xmlns="http://www.w3.org/2000/svg" xmlns:xlink="http://www.w3.org/1999/xlink" x="0px" y="0px"
	 viewBox="0 0 30 30" enable-background="new 0 0 30 30" xml:space="preserve">
<g id="图层_1_1_" display="none">
</g>
<g id="图层_2">
	<g>
		<path fill="#999999" d="M12.1,20c-0.8-1.5-1.2-3.1-1.2-5c0-0.8,0-1.5,0.4-2.3H5.9l2.7-5.4l5.7,0c1.4-1.8,4.4-2.7,7.1-2.7H6.7
			l-4.2,9.3H2c-0.4,0-1.9,0.4-1.9,1.2v4.2c0,0.4,1.1,1.3,1.9,1.3h0.8l0,0V24c0,0.8,0.4,1.2,0.8,1.2h3.5c0.4,0,1.2-0.4,1.2-1.2v-3.5
			l0,0L12.1,20L12.1,20z M5.9,18.8c-0.4,0-1.2-0.4-1.2-1.2v-0.8c0-0.4,0.4-1.2,1.2-1.2H9c0.8,0,1.2,0.8,1.2,1.2v0.8
			c0,0.4-0.4,1.2-1.2,1.2H5.9z"/>
		<path fill="#24A287" d="M21.4,4.5L21.4,4.5L21.4,4.5L21.4,4.5z"/>
	</g>
</g>
<path fill="#FFFFFF" d="M21.8,18.1h-1.5l-0.4-0.4L19.4,8c0,0,0-0.4,0.4-0.4h2.3L22.5,8l-0.4,9.3C22.1,17.8,22.1,18.1,21.8,18.1z
	 M22.5,20.4c0,0.8-0.8,1.5-1.5,1.5c-0.8,0-1.5-0.8-1.5-1.5c0-0.8,0.8-1.5,1.5-1.5C21.8,18.8,22.5,19.6,22.5,20.4z"/>
<path fill="#DC3C3B" d="M20.7,5.5c-5.1,0-9.3,4.3-9.3,9.5c0,5.2,4.2,9.5,9.3,9.5s9.3-4.3,9.3-9.5C30,9.8,25.8,5.5,20.7,5.5z
	 M21.7,22h-1.9v-1.9h1.9V22z M24.6,13.5c-0.3,0.5-0.8,1.1-1.6,1.8c-0.5,0.5-0.9,0.8-1,1.1c-0.2,0.2-0.3,0.5-0.4,0.8
	c-0.1,0.3-0.1,0.8-0.1,1.5h-1.6c0-0.2,0-0.4,0-0.5c0-0.7,0.1-1.2,0.3-1.7c0.1-0.4,0.3-0.7,0.6-1.1c0.2-0.3,0.6-0.7,1.2-1.2
	c0.6-0.5,0.9-0.9,1.1-1.2c0.2-0.3,0.3-0.6,0.3-1c0-0.7-0.2-1.2-0.7-1.7c-0.5-0.5-1.1-0.7-1.8-0.7c-0.7,0-1.3,0.2-1.7,0.7
	c-0.5,0.4-0.8,1.1-0.9,2.1L16.4,12c0.2-1.3,0.6-2.2,1.3-2.9c0.7-0.7,1.7-1,3-1c1.3,0,2.3,0.4,3.1,1.1c0.8,0.7,1.2,1.6,1.2,2.6
	C25,12.4,24.9,13,24.6,13.5z"/>
</svg>
