<?xml version="1.0" encoding="utf-8"?>
<!-- Generator: Adobe Illustrator 18.1.0, SVG Export Plug-In . SVG Version: 6.00 Build 0)  -->
<svg version="1.1" id="图层_1" xmlns="http://www.w3.org/2000/svg" xmlns:xlink="http://www.w3.org/1999/xlink" x="0px" y="0px"
	 viewBox="0 0 30 30" enable-background="new 0 0 30 30" xml:space="preserve">
<g>
	<path fill="#999999" d="M21.1,14.1c-0.4-2.7-2.5-4.9-5.2-5.3V7.7h-1.8v1.1c-2.7,0.4-4.8,2.6-5.2,5.3H8v1.6h1
		c0.4,2.9,2.5,5.1,5.2,5.5v1.1h1.6v-1.1c2.7-0.4,5-2.6,5.2-5.3h1.2v-1.8H21.1z M15.1,19.6c-2.5,0-4.5-2.2-4.5-4.6s2-4.6,4.5-4.6
		s4.5,2.2,4.5,4.6S17.6,19.6,15.1,19.6z M15.1,12.6c-1.4,0-2.3,0.9-2.3,2.4s0.9,2.4,2.3,2.4s2.3-1.1,2.3-2.4S16.5,12.6,15.1,12.6z"
		/>
	<rect x="19.7" y="14.1" fill="#999999" width="4.3" height="1.8"/>
	
		<rect x="12.7" y="21" transform="matrix(-4.261763e-003 -1 1 -4.261763e-003 -6.9458 36.8051)" fill="#999999" width="4.4" height="1.8"/>
	
		<rect x="12.9" y="7.3" transform="matrix(-4.261763e-003 -1 1 -4.261763e-003 6.9459 23.323)" fill="#999999" width="4.4" height="1.8"/>
	
		<rect x="6" y="14.1" transform="matrix(-1 5.375272e-003 -5.375272e-003 -1 15.6805 29.9581)" fill="#999999" width="3.6" height="1.8"/>
</g>
<g>
	<path fill="none" stroke="#999999" stroke-linecap="round" stroke-miterlimit="10" d="M12.7,29.5c-6.3-1-11.3-5.9-12.2-12.3"/>
	<path fill="none" stroke="#999999" stroke-linecap="round" stroke-miterlimit="10" d="M29.5,17.2c-0.9,6.3-5.9,11.3-12.2,12.3"/>
	<path fill="none" stroke="#999999" stroke-linecap="round" stroke-miterlimit="10" d="M17.3,0.5c6.3,0.9,11.3,5.9,12.2,12.3"/>
	<path fill="none" stroke="#999999" stroke-linecap="round" stroke-miterlimit="10" d="M0.5,12.7c0-4.3,6-11.3,12.3-12.2"/>
</g>
</svg>
