<?xml version="1.0" encoding="utf-8"?>
<!-- Generator: Adobe Illustrator 18.1.0, SVG Export Plug-In . SVG Version: 6.00 Build 0)  -->
<svg version="1.1" id="图层_1" xmlns="http://www.w3.org/2000/svg" xmlns:xlink="http://www.w3.org/1999/xlink" x="0px" y="0px"
	 viewBox="0 0 30 30" enable-background="new 0 0 30 30" xml:space="preserve">
<g id="图层_1_1_" display="none">
</g>
<g id="图层_2" display="none">
	<g display="inline">
		<path fill="#3465B0" d="M20.5,10.2h-1.8V15h1.8c0.7,0,1.2-0.2,1.6-0.7s0.7-1.2,0.7-1.8C22.6,10.8,21.9,10.2,20.5,10.2z"/>
		<path fill="#3465B0" d="M19.8,6.2c-4.8,0-8.8,3.9-8.8,8.8s3.9,8.8,8.8,8.8s8.8-3.9,8.8-8.8C28.8,10.2,24.9,6.2,19.8,6.2z
			 M23.3,15.2c-0.7,0.7-1.6,0.9-2.8,0.9h-1.8v5.5h-1.6V8.8h3.2c0.9,0,1.8,0.2,2.3,0.5c1.2,0.5,1.6,1.6,1.6,3.2
			C24.5,13.6,24,14.5,23.3,15.2z"/>
	</g>
	<path display="inline" fill="#279B81" d="M13.8,8.3c1.6-1.4,3.7-2.3,6-2.3H6.9l-4.2,8.3H2.3c-0.5,0-0.9,0.5-0.9,0.9v3.9
		c0,0.5,0.5,0.9,0.9,0.9H3c0,0,0,0,0,0.2v3.2c0,0.5,0.5,0.9,0.9,0.9h3.2c0.5,0,0.9-0.5,0.9-0.9v-3.5c0,0,0,0,0-0.2H12
		c-0.7-1.2-1.2-3-1.2-4.6c0-0.7,0-1.4,0.2-2.1H5.8l2.3-5.1C8.3,8.3,13.8,8.3,13.8,8.3z M6,16.2h3c0.5,0,0.9,0.5,0.9,0.9v0.7
		c0,0.5-0.5,0.9-0.9,0.9H6c-0.5,0-0.9-0.5-0.9-0.9v-0.7C5.1,16.6,5.5,16.2,6,16.2z"/>
</g>
<g id="图层_3" display="none">
	<g display="inline">
		<polygon fill="#040000" points="1.4,22.2 13.6,26.8 13.6,14.5 1.4,10.2 		"/>
		<polygon fill="#040000" points="14.1,14.5 14.1,26.8 26.1,22.2 26.1,10.2 		"/>
		<polygon fill="#040000" points="13.6,4.8 1.4,9.7 13.8,14.3 26.1,9.7 		"/>
	</g>
</g>
<g id="图层_4" display="none">
	<path display="inline" fill="#040000" d="M2.8,2.5v23.8h23.8V2.5H2.8z M24.7,24.7H4.4V13.2h1.8l4.2,5.3l3.2-9.2l3,11.3h0.7l1.4-6.2
		l0.5,0.5h5.5C24.7,14.8,24.7,24.7,24.7,24.7z M24.7,13.6h-5.5L18.5,12l-1.6,6.2l-3-12.5l-3.7,10.6l-3.9-4.8H4.4V4.2h20.5v9.5H24.7z
		"/>
</g>
<g id="图层_5" display="none">
	<path display="inline" d="M29.3,14.5h-1.8c0-3.2-1.4-6-3.5-8.1l1.4-1.4c0.2-0.2,0.2-0.5,0-0.7s-0.5-0.2-0.7,0l-1.4,1.4
		c-1.8-2.1-4.8-3.5-7.8-3.5V0.5C15.5,0.2,15.2,0,15,0s-0.5,0.2-0.5,0.5v1.8c-3.2,0-6,1.4-8.3,3.5L5.1,4.4c-0.2-0.2-0.5-0.2-0.7,0
		c-0.2,0.2-0.2,0.5,0,0.7l1.4,1.4c-2.1,2.1-3.5,4.8-3.5,8.1H0.5C0.2,14.5,0,14.8,0,15l0,0c0,0.2,0.2,0.5,0.5,0.5h1.8
		c0,3,1.4,6,3.5,8.1l-1.4,1.4c-0.2,0.2-0.2,0.5,0,0.7c0.2,0.2,0.5,0.2,0.7,0l1.4-1.4c2.1,2.1,5.1,3.2,8.1,3.5v1.8
		c0,0.2,0.2,0.5,0.5,0.5s0.5-0.2,0.5-0.5v-1.8c3.2,0,6-1.4,8.1-3.5l1.4,1.4c0.2,0.2,0.5,0.2,0.7,0s0.2-0.5,0-0.7l-1.4-1.4
		c2.1-2.1,3.2-5.1,3.5-8.1h1.8c0.2,0,0.5-0.2,0.5-0.5l0,0C29.8,14.8,29.5,14.5,29.3,14.5z M25.8,14.5h-9.7l6.9-6.9
		C24.7,9.2,25.8,11.8,25.8,14.5z M22.4,6.9l-6.9,6.9V3.9C18,4.2,20.5,5.1,22.4,6.9z M14.5,3.9v9.9L7.6,6.9
		C9.2,5.1,11.8,4.2,14.5,3.9z M6.9,7.4l6.9,6.9H3.9C4.2,11.8,5.1,9.2,6.9,7.4z M3.9,15.5h9.9l-6.9,6.9C5.1,20.5,4.2,18,3.9,15.5z
		 M7.4,23.1l6.9-6.9v9.9C11.8,25.8,9.2,24.7,7.4,23.1z M15.5,25.8v-9.7l6.9,6.9C20.5,24.7,18,25.8,15.5,25.8z M23.1,22.4l-6.9-6.9
		h9.9C25.8,18,24.7,20.5,23.1,22.4z"/>
	<path display="inline" d="M29.5,14.5h-2.3c-0.2-3-1.4-5.8-3.2-7.8l1.6-1.6c0.2-0.2,0.2-0.5,0-0.7s-0.5-0.2-0.7,0L23.3,6
		c-2.1-1.8-4.8-3-7.8-3.2V0.5C15.5,0.2,15.2,0,15,0s-0.5,0.2-0.5,0.5v2.3C11.5,3,8.8,4.2,6.7,6L5.1,4.4c-0.2-0.2-0.5-0.2-0.7,0
		c-0.2,0.2-0.2,0.5,0,0.7L6,6.7c-1.8,2.1-3,4.8-3.2,7.8H0.5C0.2,14.5,0,14.8,0,15s0.2,0.5,0.5,0.5h2.3c0.2,3,1.4,5.8,3.2,7.8
		l-1.6,1.6c-0.2,0.2-0.2,0.5,0,0.7s0.5,0.2,0.7,0L6.7,24c2.1,1.8,4.8,3,7.8,3.2v2.3c0,0.2,0.2,0.5,0.5,0.5s0.5-0.2,0.5-0.5v-2.3
		c3-0.2,5.8-1.4,7.8-3.2l1.6,1.6c0.2,0.2,0.5,0.2,0.7,0s0.2-0.5,0-0.7L24,23.3c1.8-2.1,3-4.8,3.2-7.8h2.3c0.2,0,0.5-0.2,0.5-0.5
		S29.8,14.5,29.5,14.5z M22.8,14.5h-6.7L21,9.7C22.2,11.1,22.8,12.7,22.8,14.5z M20.3,9l-4.8,4.8V7.2C17.3,7.2,18.9,7.8,20.3,9z
		 M14.5,7.2v6.7L9.7,9C11.1,7.8,12.7,7.2,14.5,7.2z M9,9.7l4.8,4.8H7.2C7.2,12.7,7.8,11.1,9,9.7z M7.2,15.5h6.7L9,20.3
		C7.8,18.9,7.2,17.3,7.2,15.5z M9.7,21l4.8-4.8v6.7C12.7,22.8,11.1,22.2,9.7,21z M15.5,22.8v-6.7l4.8,4.8
		C18.9,22.2,17.3,22.8,15.5,22.8z M21,20.3l-4.8-4.8h6.7C22.8,17.3,22.2,18.9,21,20.3z"/>
</g>
<g id="图层_6" display="none">
	<circle display="inline" cx="15" cy="15" r="3.9"/>
	<path display="inline" d="M29.1,13.4H27l0,0C26.3,7.8,21.9,3.7,16.6,3V0.9C16.4,0.5,16.2,0,15.7,0h-1.4c-0.5,0-0.9,0.5-0.9,0.9V3
		C8.1,3.7,3.7,7.8,3,13.4l0,0H0.9c-0.5,0-0.9,0.5-0.9,0.9v1.2c0,0.5,0.5,0.9,0.9,0.9H3l0,0c0.7,5.5,5.1,9.7,10.4,10.4l0,0v2.1
		c0,0.7,0.5,1.2,0.9,1.2h1.2c0.5,0,0.9-0.5,0.9-0.9V27l0,0c5.5-0.7,9.7-5.1,10.4-10.4l0,0h2.1c0.5,0,0.9-0.5,0.9-0.9v-1.4
		C30,13.8,29.5,13.4,29.1,13.4z M15,21.2c-3.5,0-6.2-2.8-6.2-6.2s2.8-6.2,6.2-6.2s6.2,2.8,6.2,6.2S18.5,21.2,15,21.2z"/>
</g>
<g id="图层_7" display="none">
	<path display="inline" d="M29.1,0H10.2C9.7,0,9.2,0.5,9.2,0.9v0.9H27c0.5,0,0.9,0.5,0.9,0.9v18h0.9c0.7,0,1.2-0.5,1.2-0.9V0.9
		C30,0.5,29.5,0,29.1,0z"/>
	<path display="inline" d="M21.5,5.5H3c-1.6,0-3,1.2-3,3V27c0,1.6,1.4,3,3,3h18.5c1.6,0,3-1.4,3-3V8.5C24.5,6.7,23.1,5.5,21.5,5.5z"
		/>
</g>
<g id="图层_8" display="none">
	<path display="inline" d="M0,22.6L7.4,30L30,7.4l-7.4-7.2L0,22.6z M27,7.4L7.6,26.8l-4.4-4.2l0.7-0.7l2.3,2.3l0.5-0.5l-2.3-2.3
		L4.8,21l2.3,2.3l0.5-0.2l-2.3-2.3l0.5-0.5l2.3,2.3l0.5-0.5l-2.3-2.3l0.7-0.9l3.5,3.5l1.2-1.4l-3.2-3.2L9,17.1l2.3,2.3l0.5-0.5
		l-2.3-2.3l0.2-0.5l2.3,2.3l0.5-0.5l-2.3-2.3l0.5-0.5l2.3,2.3l0.5-0.5l-2.3-2.3l0.9-0.9l3.5,3.5l1.4-1.4l-3.5-3.5l0.7-0.7l2.3,2.3
		l0.5-0.5l-2.3-2.3l0.5-0.5l2.3,2.3l0.5-0.5l-2.3-2.3l0.5-0.5l2.3,2.3l0.5-0.5l-2.3-2.3l0.7-0.7l3.5,3.5l1.4-1.4l-3.5-3.5l0.7-0.7
		L21.5,9l0.5-0.5l-2.3-2.3l0.5-0.5l2.3,2.3l0.7-0.5l-2.3-2.3l0.5-0.7l2.3,2.3L24,6.5l-2.3-2.3l0.9-0.9L27,7.4z"/>
</g>
<g id="图层_9">
	<path fill="#24A287" d="M29.1,14.3h-0.5l-4.4-9.2H6l-4.6,9.2H0.9c-0.5,0-0.9,0.5-0.9,1.2v4.4c0,0.5,0.5,0.9,0.9,0.9h0.9
		c0,0,0,0,0,0.2v3.7c0,0.5,0.5,0.9,0.9,0.9h3.5c0.5,0,0.9-0.5,0.9-0.9v-3.9c0,0,0,0,0-0.2h15c0,0,0,0,0,0.2v3.7
		c0,0.5,0.5,0.9,0.9,0.9h3.5c0.5,0,0.9-0.5,0.9-0.9v-3.7c0,0,0,0,0-0.2h1.2c0.9,0.2,1.4-0.2,1.4-0.9v-4.2
		C30,14.8,29.5,14.3,29.1,14.3z M7.6,7.6h15l2.5,5.5H4.8L7.6,7.6z M9.2,18.2c0,0.5-0.5,0.9-0.9,0.9H5.1c-0.5,0-0.9-0.5-0.9-0.9v-0.9
		c0-0.5,0.5-0.9,0.9-0.9h3.2c0.5,0,0.9,0.5,0.9,0.9V18.2L9.2,18.2z M20.3,18.2v-0.9c0-0.5,0.5-0.9,0.9-0.9h3.2
		c0.5,0,0.9,0.5,0.9,0.9V18c0,0.5-0.5,0.9-0.9,0.9h-3.2C20.8,19.2,20.3,18.7,20.3,18.2z"/>
</g>
</svg>
