<?xml version="1.0" encoding="utf-8"?>
<!-- Generator: Adobe Illustrator 18.1.0, SVG Export Plug-In . SVG Version: 6.00 Build 0)  -->
<svg version="1.1" id="图层_1" xmlns="http://www.w3.org/2000/svg" xmlns:xlink="http://www.w3.org/1999/xlink" x="0px" y="0px"
	 viewBox="0 0 30 30" enable-background="new 0 0 30 30" xml:space="preserve">
<path fill="#19AC9E" stroke="#19AC9E" stroke-width="0.5" stroke-miterlimit="10" d="M13.6,21.1v2.3h2.3v-2.3H13.6z M19.2,13.5
	c0.3-0.6,0.5-1.1,0.5-1.9c0-1.1-0.5-2.3-1.5-3.1c-0.8-0.8-2.1-1.1-3.7-1.1c-1.3,0-2.4,0.5-3.2,1.1c-0.8,0.8-1.5,1.9-1.6,3.4l2.1,0.2
	c0.2-1.1,0.5-1.9,1-2.4s1.1-0.8,2.1-0.8c0.8,0,1.5,0.3,2.1,0.8c0.6,0.6,0.8,1.1,0.8,1.9c0,0.5-0.2,0.8-0.3,1.1
	c-0.2,0.2-0.6,0.8-1.3,1.5c-0.8,0.6-1.1,1-1.5,1.3c-0.3,0.5-0.6,0.8-0.8,1.1c-0.2,0.5-0.3,1.1-0.3,1.9c0,0.2,0,0.3,0,0.6h1.8
	c0-0.8,0.2-1.3,0.2-1.6c0.2-0.3,0.2-0.6,0.5-0.8c0.2-0.3,0.6-0.8,1.1-1.1C18.4,14.8,18.9,14.2,19.2,13.5L19.2,13.5z"/>
<g>
	<path fill="none" stroke="#19AC9E" stroke-linecap="round" stroke-miterlimit="10" d="M12.7,29.5c-6.3-1-11.3-5.9-12.2-12.3"/>
	<path fill="none" stroke="#19AC9E" stroke-linecap="round" stroke-miterlimit="10" d="M29.5,17.2c-0.9,6.3-5.9,11.3-12.2,12.3"/>
	<path fill="none" stroke="#19AC9E" stroke-linecap="round" stroke-miterlimit="10" d="M17.3,0.5c6.3,0.9,11.3,5.9,12.2,12.3"/>
	<path fill="none" stroke="#19AC9E" stroke-linecap="round" stroke-miterlimit="10" d="M0.5,12.7c0-4.3,6-11.3,12.3-12.2"/>
</g>
<path fill="#FF9455" d="M23.7,10.3c0,0,1.2-1.5,2.1-1.1c0.9,0.4-2,7.1-2,7.1s-0.1,0.5,0.5,0.5h5.1c0,0,1.3,0.3,0.1,1.9
	c-1.2,1.5-8.5,11-8.5,11s-1.8,1.2-1.5-0.9s1.9-6.6,1.9-6.6H16c0,0-1.8,0-0.6-1.6C16.3,19.4,23.7,10.3,23.7,10.3L23.7,10.3z"/>
<path fill="#FFFFFF" d="M23.5,12.1l-5.9,7.7c0,0-1,1.2,0.3,1h5.4l-2.1,5.7c0,0-0.9,2.3,0.3,0.3l6.1-8.1c0,0,0.3-0.5-0.6-0.5h-3.9
	h-1.8l3-6.4C24.4,11.6,25.5,9.6,23.5,12.1z"/>
</svg>
