<?xml version="1.0" encoding="utf-8"?>
<!-- Generator: Adobe Illustrator 18.1.0, SVG Export Plug-In . SVG Version: 6.00 Build 0)  -->
<svg version="1.1" id="图层_1" xmlns="http://www.w3.org/2000/svg" xmlns:xlink="http://www.w3.org/1999/xlink" x="0px" y="0px"
	 viewBox="0 0 30 30" enable-background="new 0 0 30 30" xml:space="preserve">
<g>
	<path fill="#19AC9E" d="M21.1,14.1c-0.4-2.7-2.5-4.9-5.2-5.3V7.7h-1.8v1.1c-2.7,0.4-4.8,2.6-5.2,5.3H8v1.6h1
		c0.4,2.9,2.5,5.1,5.2,5.5v1.1h1.6v-1.1c2.7-0.4,5-2.6,5.2-5.3h1.2v-1.8H21.1z M15.1,19.6c-2.5,0-4.5-2.2-4.5-4.6s2-4.6,4.5-4.6
		s4.5,2.2,4.5,4.6S17.6,19.6,15.1,19.6z M15.1,12.6c-1.4,0-2.3,0.9-2.3,2.4s0.9,2.4,2.3,2.4c1.4,0,2.3-1.1,2.3-2.4
		S16.5,12.6,15.1,12.6z"/>
	<rect x="19.7" y="14.1" fill="#19AC9E" width="4.3" height="1.8"/>
	
		<rect x="12.7" y="21" transform="matrix(4.261675e-003 1 -1 4.261675e-003 36.7255 6.8399)" fill="#19AC9E" width="4.4" height="1.8"/>
	
		<rect x="12.9" y="7.3" transform="matrix(4.261675e-003 1 -1 4.261675e-003 23.2919 -6.9166)" fill="#19AC9E" width="4.4" height="1.8"/>
	
		<rect x="6" y="14.1" transform="matrix(1 -5.375194e-003 5.375194e-003 1 -8.077997e-002 4.234481e-002)" fill="#19AC9E" width="3.6" height="1.8"/>
</g>
<g>
	<path fill="none" stroke="#19AC9E" stroke-linecap="round" stroke-miterlimit="10" d="M12.7,29.5c-6.3-1-11.3-5.9-12.2-12.3"/>
	<path fill="none" stroke="#19AC9E" stroke-linecap="round" stroke-miterlimit="10" d="M29.5,17.2c-0.9,6.3-5.9,11.3-12.2,12.3"/>
	<path fill="none" stroke="#19AC9E" stroke-linecap="round" stroke-miterlimit="10" d="M17.3,0.5c6.3,0.9,11.3,5.9,12.2,12.3"/>
	<path fill="none" stroke="#19AC9E" stroke-linecap="round" stroke-miterlimit="10" d="M0.5,12.7c0-4.3,6-11.3,12.3-12.2"/>
</g>
<path fill="#FF9455" d="M23.7,10.2c0,0,1.2-1.5,2.1-1.1s-2,7.1-2,7.1s-0.1,0.5,0.5,0.5h5.1c0,0,1.3,0.3,0.1,1.9
	c-1.2,1.5-8.5,11-8.5,11s-1.8,1.2-1.5-0.9c0.3-2.1,1.9-6.6,1.9-6.6h-5.4c0,0-1.8,0-0.6-1.6C16.3,19.3,23.7,10.2,23.7,10.2L23.7,10.2
	z"/>
</svg>
