<?xml version="1.0" encoding="utf-8"?>
<!-- Generator: Adobe Illustrator 18.1.0, SVG Export Plug-In . SVG Version: 6.00 Build 0)  -->
<svg version="1.1" id="图层_1" xmlns="http://www.w3.org/2000/svg" xmlns:xlink="http://www.w3.org/1999/xlink" x="0px" y="0px"
	 viewBox="0 0 20 20" enable-background="new 0 0 20 20" xml:space="preserve">
<g id="图层_1_1_" display="none">
</g>
<g>
	<path fill="#24A287" d="M7.6,13.3c-0.5-1-0.8-2.1-0.8-3.3c0-0.5,0-1,0.3-1.5H3.5l1.8-3.6h4.1c1-1,2.6-1.8,4.4-1.8H4L1.2,9.3H0.9
		c-0.3,0-0.8,0.3-0.8,0.8v2.8c0,0.3,0.3,0.8,0.8,0.8h0.5l0,0V16c0,0.5,0.3,0.8,0.5,0.8h2.3c0.3,0,0.8-0.3,0.8-0.8v-2.3l0,0L7.6,13.3
		L7.6,13.3z M3.5,12.5c-0.3,0-0.8-0.3-0.8-0.8v-0.5c0-0.3,0.3-0.8,0.8-0.8h2.1c0.5,0,0.8,0.5,0.8,0.8v0.5c0,0.3-0.3,0.8-0.8,0.8H3.5
		z"/>
	<path fill="#24A287" d="M13.8,3L13.8,3L13.8,3L13.8,3z"/>
</g>
<g>
	<path fill="#DC3C3B" d="M13.8,3.3c-3.6,0-6.7,3.1-6.7,6.7s2.8,6.5,6.5,6.5s6.5-2.8,6.5-6.5S17.4,3.3,13.8,3.3z"/>
</g>
<path fill="#FFFFFF" d="M14.1,12.1h-1l-0.3-0.3l-0.3-6.5c0,0,0-0.3,0.3-0.3h1.5l0.3,0.3l-0.3,6.2C14.3,11.8,14.3,12.1,14.1,12.1z
	 M14.5,13.6c0,0.5-0.5,1-1,1c-0.5,0-1-0.5-1-1c0-0.5,0.5-1,1-1C14.1,12.5,14.5,13.1,14.5,13.6z"/>
</svg>
