<?xml version="1.0" encoding="utf-8"?>
<!-- Generator: Adobe Illustrator 18.1.0, SVG Export Plug-In . SVG Version: 6.00 Build 0)  -->
<svg version="1.1" id="图层_1" xmlns="http://www.w3.org/2000/svg" xmlns:xlink="http://www.w3.org/1999/xlink" x="0px" y="0px"
	 viewBox="0 0 20 20" enable-background="new 0 0 20 20" xml:space="preserve">
<g id="图层_1_1_" display="none">
</g>
<g>
	<path fill="#24A287" d="M7.8,13.3c-0.5-1-1-2.1-1-3.3c0-0.5,0-1,0.3-1.5H3.5l1.8-3.6h4.1c1-1,2.6-1.8,4.4-1.8H3.9L1.1,9.3H0.9
		c-0.3,0-0.8,0.3-0.8,0.8V13c0,0.3,0.3,0.8,0.8,0.8h0.5l0,0v2.3c0,0.5,0.3,0.8,0.5,0.8h2.3c0.3,0,0.8-0.3,0.8-0.8v-2.3l0,0L7.8,13.3
		L7.8,13.3z M3.5,12.5c-0.3,0-0.8-0.3-0.8-0.8v-0.5c0-0.3,0.3-0.8,0.8-0.8h2.1c0.5,0,0.8,0.5,0.8,0.8v0.5c0,0.3-0.3,0.8-0.8,0.8H3.5
		z"/>
	<path fill="#24A287" d="M13.7,3L13.7,3L13.7,3L13.7,3z"/>
</g>
<g>
	<path fill="#24A287" d="M14,6.1h-1.3v3.6H14c0.5,0,0.8-0.3,1-0.5c0.3-0.3,0.5-0.8,0.5-1.3C15.8,6.6,15.3,6.1,14,6.1z"/>
	<path fill="#24A287" d="M13.7,3.3C10.1,3.3,7,6.3,7,10s2.9,6.5,6.5,6.5S20,13.6,20,10S17.4,3.3,13.7,3.3z M16.1,10
		c-0.3,0.5-1,0.8-1.8,0.8h-1.5v4.1h-1V5.3H14c0.8,0,1.3,0,1.8,0.3c0.8,0.5,1,1.3,1,2.3C16.9,8.7,16.6,9.5,16.1,10z"/>
</g>
<circle fill="#0014E9" stroke="#FFFFFF" stroke-width="0.5" stroke-miterlimit="10" cx="17.5" cy="15" r="2.5"/>
</svg>
