<?xml version="1.0" encoding="utf-8"?>
<!-- Generator: Adobe Illustrator 18.1.0, SVG Export Plug-In . SVG Version: 6.00 Build 0)  -->
<svg version="1.1" id="图层_1" xmlns="http://www.w3.org/2000/svg" xmlns:xlink="http://www.w3.org/1999/xlink" x="0px" y="0px"
	 viewBox="0 0 30 30" enable-background="new 0 0 30 30" xml:space="preserve">
<g>
	<path fill="none" stroke="#19AC9E" stroke-linecap="round" stroke-miterlimit="10" d="M12.7,29.5c-6.3-1-11.3-5.9-12.2-12.3"/>
	<path fill="none" stroke="#19AC9E" stroke-linecap="round" stroke-miterlimit="10" d="M29.5,17.2c-0.9,6.3-5.9,11.3-12.2,12.3"/>
	<path fill="none" stroke="#19AC9E" stroke-linecap="round" stroke-miterlimit="10" d="M17.3,0.5c6.3,0.9,11.3,5.9,12.2,12.3"/>
	<path fill="none" stroke="#19AC9E" stroke-linecap="round" stroke-miterlimit="10" d="M0.5,12.7c0-4.3,6-11.3,12.3-12.2"/>
</g>
<path fill="#DC3C3B" d="M15,6c-0.3,0-0.5,0.1-0.8,0.4l-6.8,15c0,0,0,0,0,0.1s0,0.1,0,0.1l0,0l0,0l0,0l0,0l0,0l0,0l0,0l0,0l0,0l0,0
	c0,0.1,0,0.1,0.2,0.1l0,0l0,0c0,0,0,0.1,0.2,0.1l0,0l0,0l0,0l0,0l0,0l0,0l0,0l0,0l0,0l0,0l0,0l0,0l0,0l0,0c0,0,0.2,0,0.2,0.1l0,0
	l0,0c0.2,0,0.2,0,0.2,0l0,0l0,0l0,0l0,0l0,0l0,0l0,0l0,0l0,0l0,0c0.2,0,0.2,0,0.2-0.1c0,0,0,0,0.2,0l6.5-4.4l6.4,4.3c0,0,0,0,0.2,0
	l0,0l0,0l0,0l0,0l0,0l0,0l0,0l0,0l0,0l0,0l0,0c0,0,0,0,0.2,0l0,0c0.2,0,0.2,0,0.2,0l0,0c0,0,0,0,0.2,0l0,0l0,0c0,0,0,0,0.2,0l0,0
	l0,0l0,0l0,0l0,0l0,0l0,0l0,0l0,0l0,0l0,0l0,0l0,0l0,0l0,0l0,0l0,0v-0.1l0,0v-0.1l0,0l0,0l0,0l0,0l0,0l0,0l0,0l0,0l0,0l0,0l0,0l0,0
	l0,0c0,0,0,0,0-0.1L16,6.1C15.6,6.1,15.3,6,15,6L15,6z"/>
<path fill="#FF9455" d="M23.7,10.4c0,0,1.2-1.5,2.1-1.1c0.9,0.5-2,7-2,7s-0.1,0.5,0.5,0.5h5.1c0,0,1.3,0.3,0.1,2
	C28.4,20.3,21,29.7,21,29.7s-1.8,1.2-1.5-0.9s1.9-6.6,1.9-6.6H16c0,0-1.8,0-0.6-1.6C16.3,19.5,23.7,10.4,23.7,10.4L23.7,10.4z"/>
<path fill="#FFFFFF" d="M23.7,12.2l-5.9,7.7c0,0-1,1.2,0.3,1h5.4l-2.1,5.7c0,0-0.9,2.3,0.3,0.3l6.1-8.1c0,0,0.3-0.5-0.6-0.5h-3.9
	h-1.8l3-6.5C24.4,11.5,25.5,9.6,23.7,12.2z"/>
</svg>
